<svg width="72" height="111" viewBox="0 0 72 111" fill="none" xmlns="http://www.w3.org/2000/svg">
<path d="M71.2139 2.17041C68.5052 0.711633 64.8839 -0.283954 60.1455 0.0727539C56.7756 0.326595 54.3805 2.76221 52.6709 5.91553C50.9534 9.08364 49.795 13.2023 48.9697 17.314C48.166 21.3179 47.6654 25.3888 47.2832 28.689C47.2222 28.153 47.1589 27.5996 47.0918 27.0317C46.6629 23.4026 46.0961 19.2463 45.1289 15.3198C44.1652 11.4073 42.7834 7.6326 40.6768 4.81787C38.5426 1.96661 35.6333 0.0698242 31.7158 0.0698242C22.1624 0.0702119 16.5106 7.67686 13.9561 17.2524C11.436 26.6989 11.7847 38.453 14.4502 48.1099C0.577515 64.8904 -1.78247 78.3666 1.06152 88.2261C3.91223 98.1079 11.9183 104.075 18.0479 105.903L18.0557 105.906L18.0625 105.908C22.7085 107.213 25.8557 108.118 28.0713 108.694C30.2075 109.249 31.5845 109.526 32.6709 109.541C51.7945 112.258 64.0878 108.922 71.2139 106.928V104.855C64.1414 106.829 52.1067 110.293 32.9004 107.554L32.8301 107.543H32.7588C31.9472 107.543 30.7849 107.333 28.5742 106.758C26.3839 106.189 23.273 105.294 18.6035 103.982C13.0322 102.314 5.61562 96.7997 2.98242 87.6714C0.363243 78.5909 2.40462 65.6502 16.3203 48.9868L16.6602 48.5796L16.5137 48.0698C13.8061 38.6272 13.4276 26.9935 15.8887 17.7681C18.3598 8.50517 23.5422 2.07021 31.7158 2.06982C34.8728 2.06982 37.2341 3.55507 39.0762 6.01611C40.9456 8.51389 42.247 11.9842 43.1865 15.7983C44.1226 19.5986 44.6784 23.6525 45.1055 27.2661C45.5269 30.8321 45.8303 34.058 46.2607 36.0503L46.9404 39.1929L48.1631 36.2192C48.3951 35.6551 48.5617 34.6705 48.7158 33.5454C48.8766 32.3718 49.0422 30.8827 49.2344 29.2163C49.6206 25.8667 50.1206 21.7434 50.9307 17.7075C51.7435 13.6579 52.8546 9.77219 54.4287 6.86865C56.0108 3.95059 57.9318 2.24607 60.2949 2.06787C65.1809 1.69997 68.7225 2.90725 71.2139 4.49268V2.17041Z" fill="#654831"/>
</svg>
