<svg width="208" height="157" viewBox="0 0 208 157" fill="none" xmlns="http://www.w3.org/2000/svg">
<g filter="url(#filter0_d_1016_393)">
<path d="M135.473 39.7485C146.908 39.7485 156.178 30.8505 156.178 19.8743C156.178 8.89801 146.908 0 135.473 0C124.038 0 114.769 8.89801 114.769 19.8743C114.769 30.8505 124.038 39.7485 135.473 39.7485Z" fill="url(#paint0_linear_1016_393)"/>
<path d="M152.807 50.0835C164.242 50.0835 173.512 41.1855 173.512 30.2092C173.512 19.233 164.242 10.335 152.807 10.335C141.372 10.335 132.103 19.233 132.103 30.2092C132.103 41.1855 141.372 50.0835 152.807 50.0835Z" fill="url(#paint1_linear_1016_393)"/>
<path d="M171.104 66.7776C182.539 66.7776 191.809 57.8795 191.809 46.9033C191.809 35.9271 182.539 27.0291 171.104 27.0291C159.669 27.0291 150.399 35.9271 150.399 46.9033C150.399 57.8795 159.669 66.7776 171.104 66.7776Z" fill="url(#paint2_linear_1016_393)"/>
<path d="M182.661 97.7816C194.096 97.7816 203.366 86.3922 203.366 72.3426C203.366 58.293 194.096 46.9036 182.661 46.9036C171.226 46.9036 161.956 58.293 161.956 72.3426C161.956 86.3922 171.226 97.7816 182.661 97.7816Z" fill="url(#paint3_linear_1016_393)"/>
<path d="M181.013 144.55C202.387 144.55 204.247 133.535 202.387 79.4973L186.995 94.1224L181.013 144.55Z" fill="#A07C66"/>
<path d="M13.3786 144.114C8.87774 143.815 2.09506 139.914 4.50261 127.592L194.699 136.052L181.216 144.684L13.3786 144.114Z" fill="#A07C66"/>
<path d="M15.3861 113.223L114.818 57.7549C128.175 51.3939 188.279 105.335 188.279 126.03C188.964 129.705 188.073 137.055 179.032 137.055H139.99L23.7635 135.939C23.7635 135.939 14.8724 135.698 10.7627 134.426C-0.398413 130.971 4.08451 119.584 15.3861 113.223Z" fill="#F3E5B2"/>
<path d="M15.3861 113.223L114.818 57.7549C128.175 51.3939 188.279 105.335 188.279 126.03C188.964 129.705 188.073 137.055 179.032 137.055H139.99L23.7635 135.939C23.7635 135.939 14.8724 135.698 10.7627 134.426C-0.398413 130.971 4.08451 119.584 15.3861 113.223Z" fill="#BA7272" fill-opacity="0.2"/>
<path d="M15.1586 106.837L115.846 51.7083C129.202 45.3473 189.306 99.2886 189.306 119.983C189.991 123.658 189.101 131.009 180.059 131.009H141.017L22.3505 129.737C22.3505 129.737 14.6449 129.313 10.5352 128.04C-0.625957 124.585 3.85696 113.198 15.1586 106.837Z" fill="#F3E5B2"/>
<path d="M15.1394 99.4833L114.978 44.2389C128.389 37.9036 188.739 91.6277 188.739 112.239C189.427 115.899 188.533 123.22 179.455 123.22H140.253L21.1007 121.953C21.1007 121.953 14.6236 121.868 10.4971 120.601C-0.709683 117.16 3.79157 105.819 15.1394 99.4833Z" fill="#F3E5B2"/>
<path d="M15.1394 99.4833L114.978 44.2389C128.389 37.9036 188.739 91.6277 188.739 112.239C189.427 115.899 188.533 123.22 179.455 123.22H140.253L21.1007 121.953C21.1007 121.953 14.6236 121.868 10.4971 120.601C-0.709683 117.16 3.79157 105.819 15.1394 99.4833Z" fill="#BA7272" fill-opacity="0.2"/>
<path d="M15.1586 89.8738L115.846 34.7452C129.202 28.3842 189.306 82.3255 189.306 103.02C189.991 106.695 189.101 114.046 180.059 114.046H141.017L22.3505 112.773C22.3505 112.773 14.6449 112.349 10.5352 111.077C-0.625957 107.622 3.85696 96.2348 15.1586 89.8738Z" fill="#F3E5B2"/>
<path d="M15.5775 79.0996L115.845 26.2647C129.202 19.9037 189.306 73.845 189.306 94.5394C189.991 98.2147 189.1 105.565 180.059 105.565H141.017L22.3187 104.141C22.3187 104.141 15.0638 101.575 10.9541 100.303C-0.207015 96.8478 4.27591 85.4606 15.5775 79.0996Z" fill="#F3E5B2"/>
<path d="M15.5775 79.0996L115.845 26.2647C129.202 19.9037 189.306 73.845 189.306 94.5394C189.991 98.2147 189.1 105.565 180.059 105.565H141.017L22.3187 104.141C22.3187 104.141 15.0638 101.575 10.9541 100.303C-0.207015 96.8478 4.27591 85.4606 15.5775 79.0996Z" fill="#BA7272" fill-opacity="0.2"/>
<path d="M22.3184 94.6012C22.3184 94.6012 12.9458 91.8985 8.83613 90.6263C-20.0705 81.6779 103.184 20.2967 114.147 14.2943C127.503 7.93334 189.535 63.9973 189.535 84.6918C190.22 88.367 189.329 95.7175 180.288 95.7175H141.246L22.3184 94.6012Z" fill="#F3E5B2"/>
<path d="M117.85 95.2942C119.281 84.5891 110.05 59.2387 76.248 34.3165L85.6086 29.4138C95.4891 48.6162 113.397 56.8384 123.277 95.3453L128.251 95.3963H126.691H125.131L123.277 95.3453L121.423 95.2942H117.85Z" fill="#E5C68B"/>
<path d="M60.6689 95.3966C69.1283 91.5895 64.1584 66.2934 46.3936 51.4034L49.5658 49.2883C60.6689 62.4017 69.657 67.4778 73.3581 95.3966H67.0135H60.6689Z" fill="#E5C68B"/>
<path d="M4.50293 92.4581C4.66343 92.8556 11.533 93.6474 22.3188 94.6014L4.50293 85.8567V92.4581Z" fill="#F3E5B2"/>
<path d="M4.02148 102.948C4.1774 103.425 14.6147 104.141 22.3188 104.141L4.50299 92.6135L4.02148 102.948Z" fill="#E7CEA5"/>
<path d="M4.02148 110.742C4.18199 111.139 8.16246 111.534 18.9483 112.488L4.02148 104.141V110.742Z" fill="#F3E5B2"/>
<path d="M4.02148 120.807C4.1774 121.284 9.43365 120.883 19.9113 122.028L4.02148 110.898V120.807Z" fill="#E7CEA5"/>
<path d="M4.02148 127.437C4.18199 127.834 9.60699 128.626 20.3928 129.58L4.02148 120.835V127.437Z" fill="#F3E5B2"/>
<path d="M4.02148 134.747C4.1774 135.224 12.6886 135.542 23.7634 135.94L4.02148 125.605V134.747Z" fill="#E7CEA5"/>
<path d="M152.417 96.1911C153.804 85.4136 140.687 42.6135 107.898 17.5225L115.16 13.8335C131.302 31.5206 151.408 57.4235 160.993 96.1911H159.479H157.966H156.453H154.435H152.417Z" fill="#E5C68B"/>
</g>
<defs>
<filter id="filter0_d_1016_393" x="0" y="0" width="207.366" height="156.684" filterUnits="userSpaceOnUse" color-interpolation-filters="sRGB">
<feFlood flood-opacity="0" result="BackgroundImageFix"/>
<feColorMatrix in="SourceAlpha" type="matrix" values="0 0 0 0 0 0 0 0 0 0 0 0 0 0 0 0 0 0 127 0" result="hardAlpha"/>
<feOffset dy="8"/>
<feGaussianBlur stdDeviation="2"/>
<feComposite in2="hardAlpha" operator="out"/>
<feColorMatrix type="matrix" values="0 0 0 0 0.396078 0 0 0 0 0.282353 0 0 0 0 0.192157 0 0 0 0.5 0"/>
<feBlend mode="normal" in2="BackgroundImageFix" result="effect1_dropShadow_1016_393"/>
<feBlend mode="normal" in="SourceGraphic" in2="effect1_dropShadow_1016_393" result="shape"/>
</filter>
<linearGradient id="paint0_linear_1016_393" x1="135.473" y1="0" x2="135.473" y2="39.7485" gradientUnits="userSpaceOnUse">
<stop stop-color="#B38C73"/>
<stop offset="1" stop-color="#A07C66"/>
</linearGradient>
<linearGradient id="paint1_linear_1016_393" x1="152.807" y1="10.335" x2="152.807" y2="50.0835" gradientUnits="userSpaceOnUse">
<stop stop-color="#B38C73"/>
<stop offset="1" stop-color="#A07C66"/>
</linearGradient>
<linearGradient id="paint2_linear_1016_393" x1="171.104" y1="27.0291" x2="171.104" y2="66.7776" gradientUnits="userSpaceOnUse">
<stop stop-color="#B38C73"/>
<stop offset="1" stop-color="#A07C66"/>
</linearGradient>
<linearGradient id="paint3_linear_1016_393" x1="182.661" y1="46.9036" x2="182.661" y2="97.7816" gradientUnits="userSpaceOnUse">
<stop stop-color="#B38C73"/>
<stop offset="1" stop-color="#A07C66"/>
</linearGradient>
</defs>
</svg>
