<svg width="222" height="180" viewBox="0 0 222 180" fill="none" xmlns="http://www.w3.org/2000/svg">
<g filter="url(#filter0_d_1016_356)">
<ellipse cx="115.268" cy="155.592" rx="25.2451" ry="11.7419" transform="rotate(7.80743 115.268 155.592)" fill="#F9EECC"/>
<ellipse cx="115.268" cy="155.592" rx="25.2451" ry="11.7419" transform="rotate(7.80743 115.268 155.592)" fill="url(#paint0_linear_1016_356)"/>
<ellipse cx="192.354" cy="124.698" rx="25.2451" ry="14.9767" transform="rotate(166.764 192.354 124.698)" fill="#F9EECC"/>
<ellipse cx="192.354" cy="124.698" rx="25.2451" ry="14.9767" transform="rotate(166.764 192.354 124.698)" fill="url(#paint1_linear_1016_356)"/>
<ellipse cx="120" cy="96.8545" rx="86.303" ry="62.5257" fill="#F9EECC"/>
<ellipse cx="120" cy="96.8545" rx="86.303" ry="62.5257" fill="url(#paint2_radial_1016_356)"/>
<path d="M24.7964 71.226C18.6319 76.7055 9.1164 96.1495 18.7448 114.937C42.8157 114.937 60.0221 116.726 61.1963 137.568C63.1532 138.742 70.7072 141.09 85.2672 141.09C93.4865 143.537 112.802 146.961 124.309 141.09C134.877 144.515 155.132 145.494 160.122 137.568C171.766 136.394 191.531 129.936 195.054 121.129C203.954 117.109 213.9 95.6492 198.87 71.226C199.653 63.1045 197.226 45.159 181.257 38.3487C175.191 30.8143 158.302 16.9784 139.28 21.91C135.17 13.6911 102.586 10.1685 92.6059 21.91C78.0263 21.1272 55.0318 21.91 48.8673 40.4035C37.7124 42.7519 24.7964 54.7873 24.7964 71.226Z" fill="#A2BE93"/>
<ellipse cx="34.4114" cy="136.133" rx="30.4114" ry="26.2644" fill="url(#paint3_linear_1016_356)"/>
<circle cx="43.0427" cy="142.901" r="3.81612" fill="#704F36"/>
<g filter="url(#filter1_f_1016_356)">
<ellipse cx="24.3633" cy="124.409" rx="4.69676" ry="4.40321" fill="#FFF0DF"/>
</g>
<path d="M35.458 73.0771C75.674 79.5352 84.774 119.164 84.774 123.861" stroke="#759266" stroke-opacity="0.9" stroke-width="1.5" stroke-linecap="round"/>
<path d="M50.1348 43.1353C111.78 59.2804 121.76 117.99 121.76 131.787" stroke="#759266" stroke-opacity="0.9" stroke-width="1.5" stroke-linecap="round"/>
<path d="M96.5151 26.6965C148.18 46.6578 158.454 111.238 158.454 125.035" stroke="#759266" stroke-opacity="0.9" stroke-width="1.5" stroke-linecap="round"/>
<path d="M134.173 27.6941C73.5955 31.4427 43.3171 63.8663 39.5679 77.1867" stroke="#759266" stroke-opacity="0.9" stroke-width="1.5" stroke-linecap="round"/>
<path d="M174.013 42.2546C113.435 46.0033 66.5743 77.7739 59.5291 107.797" stroke="#759266" stroke-opacity="0.9" stroke-width="1.5" stroke-linecap="round"/>
<path d="M191.919 71.3162C149.942 74.2516 96.8095 98.029 74.2413 128.45" stroke="#759266" stroke-opacity="0.9" stroke-width="1.5" stroke-linecap="round"/>
<path d="M144.657 26.1094C184.873 47.8319 191.918 96.8544 191.918 105.954" stroke="#759266" stroke-opacity="0.9" stroke-width="1.5" stroke-linecap="round"/>
<g filter="url(#filter2_f_1016_356)">
<path d="M68.0418 84.2315L46.6128 71.3154L68.0418 51.6477L86.5353 67.2057L68.0418 84.2315Z" fill="#D9D9D9"/>
<path d="M68.0418 84.2315L46.6128 71.3154L68.0418 51.6477L86.5353 67.2057L68.0418 84.2315Z" fill="url(#paint4_radial_1016_356)"/>
</g>
<g filter="url(#filter3_f_1016_356)">
<path d="M93.5797 55.7581L82.1313 47.5387L101.505 31.9807L119.999 47.5387L93.5797 55.7581Z" fill="#D9D9D9"/>
<path d="M93.5797 55.7581L82.1313 47.5387L101.505 31.9807L119.999 47.5387L93.5797 55.7581Z" fill="url(#paint5_radial_1016_356)"/>
</g>
<g filter="url(#filter4_f_1016_356)">
<path d="M122.348 92.1575L102.974 75.1318L122.348 59.5737L140.842 75.1318L122.348 92.1575Z" fill="#D9D9D9"/>
<path d="M122.348 92.1575L102.974 75.1318L122.348 59.5737L140.842 75.1318L122.348 92.1575Z" fill="url(#paint6_radial_1016_356)"/>
</g>
<g filter="url(#filter5_f_1016_356)">
<path d="M137.299 43.7222L125.284 33.292L137.299 23.761L148.768 33.292L137.299 43.7222Z" fill="#D9D9D9"/>
<path d="M137.299 43.7222L125.284 33.292L137.299 23.761L148.768 33.292L137.299 43.7222Z" fill="url(#paint7_radial_1016_356)"/>
</g>
<g filter="url(#filter6_f_1016_356)">
<path d="M101.485 127.677L89.4702 117.247L101.485 107.716L112.954 117.247L101.485 127.677Z" fill="#D9D9D9"/>
<path d="M101.485 127.677L89.4702 117.247L101.485 107.716L112.954 117.247L101.485 127.677Z" fill="url(#paint8_radial_1016_356)"/>
</g>
<g filter="url(#filter7_f_1016_356)">
<path d="M137.114 110.334L123.721 101.744L134.237 90.5811L146.96 98.3597L137.114 110.334Z" fill="#D9D9D9"/>
<path d="M137.114 110.334L123.721 101.744L134.237 90.5811L146.96 98.3597L137.114 110.334Z" fill="url(#paint9_radial_1016_356)"/>
</g>
<g filter="url(#filter8_f_1016_356)">
<path d="M51.3982 102.702L38.0055 94.1122L48.5214 82.949L61.2441 90.7276L51.3982 102.702Z" fill="#D9D9D9"/>
<path d="M51.3982 102.702L38.0055 94.1122L48.5214 82.949L61.2441 90.7276L51.3982 102.702Z" fill="url(#paint10_radial_1016_356)"/>
</g>
<g filter="url(#filter9_f_1016_356)">
<path d="M40.2894 60.5298L32.7122 55.67L38.6618 49.3543L45.8599 53.7552L40.2894 60.5298Z" fill="#D9D9D9"/>
<path d="M40.2894 60.5298L32.7122 55.67L38.6618 49.3543L45.8599 53.7552L40.2894 60.5298Z" fill="url(#paint11_radial_1016_356)"/>
</g>
<g filter="url(#filter10_f_1016_356)">
<path d="M69.0575 38.8076L61.4803 33.9479L67.4298 27.6321L74.6279 32.033L69.0575 38.8076Z" fill="#D9D9D9"/>
<path d="M69.0575 38.8076L61.4803 33.9479L67.4298 27.6321L74.6279 32.033L69.0575 38.8076Z" fill="url(#paint12_radial_1016_356)"/>
</g>
<g filter="url(#filter11_f_1016_356)">
<path d="M115.437 31.1755L107.86 26.3158L113.81 20L121.008 24.4009L115.437 31.1755Z" fill="#D9D9D9"/>
<path d="M115.437 31.1755L107.86 26.3158L113.81 20L121.008 24.4009L115.437 31.1755Z" fill="url(#paint13_radial_1016_356)"/>
</g>
<g filter="url(#filter12_f_1016_356)">
<path d="M172.478 108.145L154.407 94.5257L168.042 77.69L185.197 90.0413L172.478 108.145Z" fill="#D9D9D9"/>
<path d="M172.478 108.145L154.407 94.5257L168.042 77.69L185.197 90.0413L172.478 108.145Z" fill="url(#paint14_radial_1016_356)"/>
</g>
<g filter="url(#filter13_f_1016_356)">
<path d="M159.334 76.3062L139.96 59.2804L159.334 43.7224L177.828 59.2804L159.334 76.3062Z" fill="#D9D9D9"/>
<path d="M159.334 76.3062L139.96 59.2804L159.334 43.7224L177.828 59.2804L159.334 76.3062Z" fill="url(#paint15_radial_1016_356)"/>
</g>
<g filter="url(#filter14_f_1016_356)">
<path d="M90.0574 107.422L81.251 90.3966L90.0574 74.8386L108.551 90.3966L90.0574 107.422Z" fill="#D9D9D9"/>
<path d="M90.0574 107.422L81.251 90.3966L90.0574 74.8386L108.551 90.3966L90.0574 107.422Z" fill="url(#paint16_radial_1016_356)"/>
</g>
<g filter="url(#filter15_f_1016_356)">
<path d="M89.8064 107.738L81 90.7121L89.8064 75.1541L108.3 90.7121L89.8064 107.738Z" fill="#D9D9D9"/>
<path d="M89.8064 107.738L81 90.7121L89.8064 75.1541L108.3 90.7121L89.8064 107.738Z" fill="url(#paint17_radial_1016_356)"/>
</g>
</g>
<defs>
<filter id="filter0_d_1016_356" x="0" y="14.3674" width="221.169" height="165.355" filterUnits="userSpaceOnUse" color-interpolation-filters="sRGB">
<feFlood flood-opacity="0" result="BackgroundImageFix"/>
<feColorMatrix in="SourceAlpha" type="matrix" values="0 0 0 0 0 0 0 0 0 0 0 0 0 0 0 0 0 0 127 0" result="hardAlpha"/>
<feOffset dy="8"/>
<feGaussianBlur stdDeviation="2"/>
<feComposite in2="hardAlpha" operator="out"/>
<feColorMatrix type="matrix" values="0 0 0 0 0.396078 0 0 0 0 0.282353 0 0 0 0 0.192157 0 0 0 0.5 0"/>
<feBlend mode="normal" in2="BackgroundImageFix" result="effect1_dropShadow_1016_356"/>
<feBlend mode="normal" in="SourceGraphic" in2="effect1_dropShadow_1016_356" result="shape"/>
</filter>
<filter id="filter1_f_1016_356" x="9.6665" y="110.006" width="29.3936" height="28.8064" filterUnits="userSpaceOnUse" color-interpolation-filters="sRGB">
<feFlood flood-opacity="0" result="BackgroundImageFix"/>
<feBlend mode="normal" in="SourceGraphic" in2="BackgroundImageFix" result="shape"/>
<feGaussianBlur stdDeviation="5" result="effect1_foregroundBlur_1016_356"/>
</filter>
<filter id="filter2_f_1016_356" x="26.6128" y="31.6477" width="79.9224" height="72.5837" filterUnits="userSpaceOnUse" color-interpolation-filters="sRGB">
<feFlood flood-opacity="0" result="BackgroundImageFix"/>
<feBlend mode="normal" in="SourceGraphic" in2="BackgroundImageFix" result="shape"/>
<feGaussianBlur stdDeviation="10" result="effect1_foregroundBlur_1016_356"/>
</filter>
<filter id="filter3_f_1016_356" x="62.1313" y="11.9807" width="77.8677" height="63.7773" filterUnits="userSpaceOnUse" color-interpolation-filters="sRGB">
<feFlood flood-opacity="0" result="BackgroundImageFix"/>
<feBlend mode="normal" in="SourceGraphic" in2="BackgroundImageFix" result="shape"/>
<feGaussianBlur stdDeviation="10" result="effect1_foregroundBlur_1016_356"/>
</filter>
<filter id="filter4_f_1016_356" x="82.9741" y="39.5737" width="77.8677" height="72.5837" filterUnits="userSpaceOnUse" color-interpolation-filters="sRGB">
<feFlood flood-opacity="0" result="BackgroundImageFix"/>
<feBlend mode="normal" in="SourceGraphic" in2="BackgroundImageFix" result="shape"/>
<feGaussianBlur stdDeviation="10" result="effect1_foregroundBlur_1016_356"/>
</filter>
<filter id="filter5_f_1016_356" x="105.284" y="3.76099" width="63.4834" height="59.9612" filterUnits="userSpaceOnUse" color-interpolation-filters="sRGB">
<feFlood flood-opacity="0" result="BackgroundImageFix"/>
<feBlend mode="normal" in="SourceGraphic" in2="BackgroundImageFix" result="shape"/>
<feGaussianBlur stdDeviation="10" result="effect1_foregroundBlur_1016_356"/>
</filter>
<filter id="filter6_f_1016_356" x="69.4702" y="87.7161" width="63.4839" height="59.9612" filterUnits="userSpaceOnUse" color-interpolation-filters="sRGB">
<feFlood flood-opacity="0" result="BackgroundImageFix"/>
<feBlend mode="normal" in="SourceGraphic" in2="BackgroundImageFix" result="shape"/>
<feGaussianBlur stdDeviation="10" result="effect1_foregroundBlur_1016_356"/>
</filter>
<filter id="filter7_f_1016_356" x="103.722" y="70.5811" width="63.2383" height="59.7529" filterUnits="userSpaceOnUse" color-interpolation-filters="sRGB">
<feFlood flood-opacity="0" result="BackgroundImageFix"/>
<feBlend mode="normal" in="SourceGraphic" in2="BackgroundImageFix" result="shape"/>
<feGaussianBlur stdDeviation="10" result="effect1_foregroundBlur_1016_356"/>
</filter>
<filter id="filter8_f_1016_356" x="18.0054" y="62.949" width="63.2388" height="59.7529" filterUnits="userSpaceOnUse" color-interpolation-filters="sRGB">
<feFlood flood-opacity="0" result="BackgroundImageFix"/>
<feBlend mode="normal" in="SourceGraphic" in2="BackgroundImageFix" result="shape"/>
<feGaussianBlur stdDeviation="10" result="effect1_foregroundBlur_1016_356"/>
</filter>
<filter id="filter9_f_1016_356" x="12.7124" y="29.3542" width="53.1475" height="51.1755" filterUnits="userSpaceOnUse" color-interpolation-filters="sRGB">
<feFlood flood-opacity="0" result="BackgroundImageFix"/>
<feBlend mode="normal" in="SourceGraphic" in2="BackgroundImageFix" result="shape"/>
<feGaussianBlur stdDeviation="10" result="effect1_foregroundBlur_1016_356"/>
</filter>
<filter id="filter10_f_1016_356" x="41.4805" y="7.63208" width="53.1475" height="51.1755" filterUnits="userSpaceOnUse" color-interpolation-filters="sRGB">
<feFlood flood-opacity="0" result="BackgroundImageFix"/>
<feBlend mode="normal" in="SourceGraphic" in2="BackgroundImageFix" result="shape"/>
<feGaussianBlur stdDeviation="10" result="effect1_foregroundBlur_1016_356"/>
</filter>
<filter id="filter11_f_1016_356" x="87.8604" y="0" width="53.1475" height="51.1755" filterUnits="userSpaceOnUse" color-interpolation-filters="sRGB">
<feFlood flood-opacity="0" result="BackgroundImageFix"/>
<feBlend mode="normal" in="SourceGraphic" in2="BackgroundImageFix" result="shape"/>
<feGaussianBlur stdDeviation="10" result="effect1_foregroundBlur_1016_356"/>
</filter>
<filter id="filter12_f_1016_356" x="134.407" y="57.6899" width="70.79" height="70.4546" filterUnits="userSpaceOnUse" color-interpolation-filters="sRGB">
<feFlood flood-opacity="0" result="BackgroundImageFix"/>
<feBlend mode="normal" in="SourceGraphic" in2="BackgroundImageFix" result="shape"/>
<feGaussianBlur stdDeviation="10" result="effect1_foregroundBlur_1016_356"/>
</filter>
<filter id="filter13_f_1016_356" x="119.96" y="23.7224" width="77.8672" height="72.5837" filterUnits="userSpaceOnUse" color-interpolation-filters="sRGB">
<feFlood flood-opacity="0" result="BackgroundImageFix"/>
<feBlend mode="normal" in="SourceGraphic" in2="BackgroundImageFix" result="shape"/>
<feGaussianBlur stdDeviation="10" result="effect1_foregroundBlur_1016_356"/>
</filter>
<filter id="filter14_f_1016_356" x="61.251" y="54.8386" width="67.2998" height="72.5837" filterUnits="userSpaceOnUse" color-interpolation-filters="sRGB">
<feFlood flood-opacity="0" result="BackgroundImageFix"/>
<feBlend mode="normal" in="SourceGraphic" in2="BackgroundImageFix" result="shape"/>
<feGaussianBlur stdDeviation="10" result="effect1_foregroundBlur_1016_356"/>
</filter>
<filter id="filter15_f_1016_356" x="61" y="55.1541" width="67.2998" height="72.5837" filterUnits="userSpaceOnUse" color-interpolation-filters="sRGB">
<feFlood flood-opacity="0" result="BackgroundImageFix"/>
<feBlend mode="normal" in="SourceGraphic" in2="BackgroundImageFix" result="shape"/>
<feGaussianBlur stdDeviation="10" result="effect1_foregroundBlur_1016_356"/>
</filter>
<linearGradient id="paint0_linear_1016_356" x1="115.268" y1="143.85" x2="115.268" y2="167.334" gradientUnits="userSpaceOnUse">
<stop stop-color="#E58863"/>
<stop offset="1" stop-color="#F9EECC"/>
</linearGradient>
<linearGradient id="paint1_linear_1016_356" x1="189.2" y1="137.332" x2="181.147" y2="116.44" gradientUnits="userSpaceOnUse">
<stop stop-color="#E58863"/>
<stop offset="1" stop-color="#F9EECC"/>
</linearGradient>
<radialGradient id="paint2_radial_1016_356" cx="0" cy="0" r="1" gradientUnits="userSpaceOnUse" gradientTransform="translate(120 121.219) rotate(90) scale(38.1612 52.6732)">
<stop stop-color="#E58863"/>
<stop offset="1" stop-color="#F9EECC"/>
</radialGradient>
<linearGradient id="paint3_linear_1016_356" x1="34.4114" y1="109.868" x2="34.4114" y2="162.397" gradientUnits="userSpaceOnUse">
<stop stop-color="#F9A888"/>
<stop offset="1" stop-color="#F9EECC"/>
</linearGradient>
<radialGradient id="paint4_radial_1016_356" cx="0" cy="0" r="1" gradientUnits="userSpaceOnUse" gradientTransform="translate(66.574 67.9396) rotate(90) scale(16.2919 19.9612)">
<stop stop-color="#E0FFCF" stop-opacity="0.9"/>
<stop offset="1" stop-color="#839E75"/>
</radialGradient>
<radialGradient id="paint5_radial_1016_356" cx="0" cy="0" r="1" gradientUnits="userSpaceOnUse" gradientTransform="translate(100.038 48.2726) rotate(90) scale(16.2919 19.9612)">
<stop stop-color="#E0FFCF" stop-opacity="0.9"/>
<stop offset="1" stop-color="#839E75"/>
</radialGradient>
<radialGradient id="paint6_radial_1016_356" cx="0" cy="0" r="1" gradientUnits="userSpaceOnUse" gradientTransform="translate(120.881 75.8656) rotate(90) scale(16.2919 19.9612)">
<stop stop-color="#E0FFCF" stop-opacity="0.9"/>
<stop offset="1" stop-color="#839E75"/>
</radialGradient>
<radialGradient id="paint7_radial_1016_356" cx="0" cy="0" r="1" gradientUnits="userSpaceOnUse" gradientTransform="translate(136.389 33.7416) rotate(90) scale(9.98062 12.3791)">
<stop stop-color="#E0FFCF" stop-opacity="0.9"/>
<stop offset="1" stop-color="#839E75"/>
</radialGradient>
<radialGradient id="paint8_radial_1016_356" cx="0" cy="0" r="1" gradientUnits="userSpaceOnUse" gradientTransform="translate(100.575 117.697) rotate(90) scale(9.98062 12.3791)">
<stop stop-color="#E0FFCF" stop-opacity="0.9"/>
<stop offset="1" stop-color="#839E75"/>
</radialGradient>
<radialGradient id="paint9_radial_1016_356" cx="0" cy="0" r="1" gradientUnits="userSpaceOnUse" gradientTransform="translate(134.775 100.589) rotate(81.7135) scale(9.98062 12.3791)">
<stop stop-color="#E0FFCF" stop-opacity="0.9"/>
<stop offset="1" stop-color="#839E75"/>
</radialGradient>
<radialGradient id="paint10_radial_1016_356" cx="0" cy="0" r="1" gradientUnits="userSpaceOnUse" gradientTransform="translate(49.0591 92.9566) rotate(81.7135) scale(9.98062 12.3791)">
<stop stop-color="#E0FFCF" stop-opacity="0.9"/>
<stop offset="1" stop-color="#839E75"/>
</radialGradient>
<radialGradient id="paint11_radial_1016_356" cx="0" cy="0" r="1" gradientUnits="userSpaceOnUse" gradientTransform="translate(38.966 55.0163) rotate(81.7135) scale(5.64671 7.00367)">
<stop stop-color="#E0FFCF" stop-opacity="0.9"/>
<stop offset="1" stop-color="#839E75"/>
</radialGradient>
<radialGradient id="paint12_radial_1016_356" cx="0" cy="0" r="1" gradientUnits="userSpaceOnUse" gradientTransform="translate(67.7341 33.2941) rotate(81.7135) scale(5.64671 7.00367)">
<stop stop-color="#E0FFCF" stop-opacity="0.9"/>
<stop offset="1" stop-color="#839E75"/>
</radialGradient>
<radialGradient id="paint13_radial_1016_356" cx="0" cy="0" r="1" gradientUnits="userSpaceOnUse" gradientTransform="translate(114.114 25.662) rotate(81.7135) scale(5.64671 7.00367)">
<stop stop-color="#E0FFCF" stop-opacity="0.9"/>
<stop offset="1" stop-color="#839E75"/>
</radialGradient>
<radialGradient id="paint14_radial_1016_356" cx="0" cy="0" r="1" gradientUnits="userSpaceOnUse" gradientTransform="translate(169.067 93.0911) rotate(81.7135) scale(15.3879 16.4017)">
<stop stop-color="#E0FFCF" stop-opacity="0.9"/>
<stop offset="1" stop-color="#839E75"/>
</radialGradient>
<radialGradient id="paint15_radial_1016_356" cx="0" cy="0" r="1" gradientUnits="userSpaceOnUse" gradientTransform="translate(157.866 60.0143) rotate(90) scale(16.2919 19.9612)">
<stop stop-color="#E0FFCF" stop-opacity="0.9"/>
<stop offset="1" stop-color="#839E75"/>
</radialGradient>
<radialGradient id="paint16_radial_1016_356" cx="0" cy="0" r="1" gradientUnits="userSpaceOnUse" gradientTransform="translate(88.5897 91.1305) rotate(90) scale(16.2919 19.9612)">
<stop stop-color="#E0FFCF" stop-opacity="0.9"/>
<stop offset="1" stop-color="#839E75"/>
</radialGradient>
<radialGradient id="paint17_radial_1016_356" cx="0" cy="0" r="1" gradientUnits="userSpaceOnUse" gradientTransform="translate(88.3387 91.4459) rotate(90) scale(16.2919 19.9612)">
<stop stop-color="#E0FFCF" stop-opacity="0.9"/>
<stop offset="1" stop-color="#839E75"/>
</radialGradient>
</defs>
</svg>
