<svg width="72" height="111" viewBox="0 0 72 111" fill="none" xmlns="http://www.w3.org/2000/svg">
<path d="M0 2.16943C2.70863 0.710716 6.33007 -0.283945 11.0684 0.0727539C14.4383 0.326613 16.8334 2.76215 18.543 5.91553C20.2605 9.08367 21.4188 13.2023 22.2441 17.314C23.0478 21.318 23.5485 25.3888 23.9307 28.689C23.9917 28.1529 24.0549 27.5997 24.1221 27.0317C24.551 23.4026 25.1178 19.2464 26.085 15.3198C27.0487 11.4072 28.4304 7.63268 30.5371 4.81787C32.6713 1.96643 35.5804 0.0698242 39.498 0.0698242C49.0515 0.0702119 54.7033 7.67675 57.2578 17.2524C59.7778 26.6989 59.4292 38.453 56.7637 48.1099C70.6364 64.8905 72.9965 78.3666 70.1523 88.2261C67.3016 98.1079 59.2956 104.075 53.166 105.903L53.1582 105.906L53.1514 105.908C48.5053 107.213 45.3582 108.118 43.1426 108.694C41.0063 109.249 39.6294 109.526 38.543 109.541C19.4195 112.258 7.12606 108.922 0 106.928V104.854C7.07245 106.828 19.1071 110.293 38.3135 107.554L38.3838 107.543H38.4551C39.2667 107.543 40.429 107.333 42.6396 106.758C44.83 106.189 47.9408 105.294 52.6104 103.982C58.1817 102.314 65.5982 96.7997 68.2314 87.6714C70.8508 78.5909 68.8092 65.6503 54.8936 48.9868L54.5537 48.5796L54.7002 48.0698C57.4079 38.6272 57.7862 26.9936 55.3252 17.7681C52.8541 8.50505 47.6717 2.07021 39.498 2.06982C36.3409 2.06982 33.9798 3.55488 32.1377 6.01611C30.2683 8.51396 28.9669 11.9841 28.0273 15.7983C27.0913 19.5986 26.5355 23.6524 26.1084 27.2661C25.687 30.8323 25.3836 34.0581 24.9531 36.0503L24.2734 39.1929L23.0508 36.2192C22.8188 35.6551 22.6522 34.6705 22.498 33.5454C22.3373 32.3719 22.1716 30.8828 21.9795 29.2163C21.5933 25.8667 21.0933 21.7434 20.2832 17.7075C19.4704 13.6579 18.3592 9.77222 16.7852 6.86865C15.2031 3.95052 13.2821 2.24608 10.9189 2.06787C6.03277 1.69996 2.49136 2.90718 0 4.49268V2.16943Z" fill="#654831"/>
</svg>
