<svg width="1512" height="119" viewBox="0 0 1512 119" fill="none" xmlns="http://www.w3.org/2000/svg">
<path d="M-8.49886 39.6862C-8.49886 22.1864 -22.7141 8.00005 -40.2494 8.00005C-57.7848 8.00005 -72 22.1864 -72 39.6862C-72 57.186 -57.7848 71.3724 -40.2494 71.3724C-22.7141 71.3724 -8.49886 57.186 -8.49886 39.6862Z" fill="#839E75"/>
<path d="M23.2517 65.6689C23.2517 48.1691 9.0365 33.9827 -8.49886 33.9827C-26.0342 33.9827 -40.2494 48.1691 -40.2494 65.6689C-40.2494 83.1686 -26.0342 97.355 -8.49886 97.355C9.0365 97.355 23.2517 83.1686 23.2517 65.6689Z" fill="#839E75"/>
<path d="M76.9804 58.0642C76.9804 40.5644 62.7652 26.378 45.2298 26.378C27.6945 26.378 13.4792 40.5644 13.4792 58.0642C13.4792 75.564 27.6945 89.7503 45.2298 89.7503C62.7652 89.7503 76.9804 75.564 76.9804 58.0642Z" fill="#839E75"/>
<path d="M99.7706 85.2799C99.7706 67.7801 97.9381 51.0932 80.4027 51.0932C62.8674 51.0932 48.6522 65.2796 48.6522 82.7794C48.6522 100.279 62.8674 114.466 80.4027 114.466C97.9381 114.466 99.7706 102.78 99.7706 85.2799Z" fill="#839E75"/>
<path d="M163.272 85.2799C163.272 67.7801 149.057 53.5938 131.521 53.5938C113.986 53.5938 99.7706 67.7801 99.7706 85.2799C99.7706 102.78 113.986 116.966 131.521 116.966C149.057 116.966 163.272 102.78 163.272 85.2799Z" fill="#839E75"/>
<path d="M318.736 87.2034C318.736 69.7036 332.952 55.5172 350.487 55.5172C368.022 55.5172 382.237 69.7036 382.237 87.2034C382.237 104.703 368.022 118.89 350.487 118.89C332.952 118.89 318.736 104.703 318.736 87.2034Z" fill="#839E75"/>
<path d="M355.998 77.0759C355.998 59.5761 370.213 45.3897 387.748 45.3897C405.284 45.3897 419.499 59.5761 419.499 77.0759C419.499 94.5756 405.284 108.762 387.748 108.762C370.213 108.762 355.998 94.5756 355.998 77.0759Z" fill="#839E75"/>
<path d="M402.354 71.3724C402.354 53.8726 416.569 39.6862 434.104 39.6862C451.639 39.6862 465.855 53.8726 465.855 71.3724C465.855 88.8721 451.639 103.059 434.104 103.059C416.569 103.059 402.354 88.8721 402.354 71.3724Z" fill="#839E75"/>
<path d="M419.499 45.3897C419.499 27.8899 433.714 13.7036 451.249 13.7036C468.785 13.7036 483 27.8899 483 45.3897C483 62.8895 468.785 77.0759 451.249 77.0759C433.714 77.0759 419.499 62.8895 419.499 45.3897Z" fill="#839E75"/>
<path d="M259.476 71.3724C259.476 53.8726 273.691 39.6862 291.227 39.6862C308.762 39.6862 322.977 53.8726 322.977 71.3724C322.977 88.8721 308.762 103.059 291.227 103.059C273.691 103.059 259.476 88.8721 259.476 71.3724Z" fill="#839E75"/>
<path d="M209.75 85.2799C209.75 67.7801 223.965 53.5938 241.5 53.5938C259.036 53.5938 273.251 67.7801 273.251 85.2799C273.251 102.78 259.036 116.966 241.5 116.966C223.965 116.966 209.75 102.78 209.75 85.2799Z" fill="#839E75"/>
<path d="M159.994 71.3724C159.994 53.8726 174.209 39.6862 191.744 39.6862C209.28 39.6862 223.495 53.8726 223.495 71.3724C223.495 88.8721 209.28 103.059 191.744 103.059C174.209 103.059 159.994 88.8721 159.994 71.3724Z" fill="#839E75"/>
<path d="M-38.3444 76.7678C149.033 96.171 255.935 89.8545 446.804 76.7678V14.0116H-38.3444V76.7678Z" fill="#839E75"/>
<path d="M509.362 33.7177C509.362 16.2005 494.506 2 476.181 2C457.856 2 443 16.2005 443 33.7177C443 51.235 457.856 65.4355 476.181 65.4355C494.506 65.4355 509.362 51.235 509.362 33.7177Z" fill="#839E75"/>
<path d="M542.542 59.7263C542.542 42.2091 527.687 28.0085 509.362 28.0085C491.036 28.0085 476.181 42.2091 476.181 59.7263C476.181 77.2435 491.036 91.444 509.362 91.444C527.687 91.444 542.542 77.2435 542.542 59.7263Z" fill="#839E75"/>
<path d="M598.691 52.114C598.691 34.5968 583.836 20.3963 565.51 20.3963C547.185 20.3963 532.33 34.5968 532.33 52.114C532.33 69.6312 547.185 83.8317 565.51 83.8317C583.836 83.8317 598.691 69.6312 598.691 52.114Z" fill="#839E75"/>
<path d="M622.508 79.3569C622.508 61.8397 620.593 45.1361 602.268 45.1361C583.942 45.1361 569.087 59.3366 569.087 76.8538C569.087 94.3711 583.942 108.572 602.268 108.572C620.593 108.572 622.508 96.8741 622.508 79.3569Z" fill="#839E75"/>
<path d="M688.87 79.3569C688.87 61.8397 674.014 47.6392 655.689 47.6392C637.364 47.6392 622.508 61.8397 622.508 79.3569C622.508 96.8741 637.364 111.075 655.689 111.075C674.014 111.075 688.87 96.8741 688.87 79.3569Z" fill="#839E75"/>
<path d="M851.337 81.2823C851.337 63.7651 866.193 49.5645 884.518 49.5645C902.843 49.5645 917.699 63.7651 917.699 81.2823C917.699 98.7995 902.843 113 884.518 113C866.193 113 851.337 98.7995 851.337 81.2823Z" fill="#839E75"/>
<path d="M890.277 71.1447C890.277 53.6274 905.132 39.4269 923.458 39.4269C941.783 39.4269 956.638 53.6274 956.638 71.1447C956.638 88.6619 941.783 102.862 923.458 102.862C905.132 102.862 890.277 88.6619 890.277 71.1447Z" fill="#839E75"/>
<path d="M938.721 65.4355C938.721 47.9183 953.576 33.7177 971.902 33.7177C990.227 33.7177 1005.08 47.9183 1005.08 65.4355C1005.08 82.9527 990.227 97.1532 971.902 97.1532C953.576 97.1532 938.721 82.9527 938.721 65.4355Z" fill="#839E75"/>
<path d="M956.638 39.4269C956.638 21.9097 971.494 7.70918 989.819 7.70918C1008.14 7.70918 1023 21.9097 1023 39.4269C1023 56.9442 1008.14 71.1447 989.819 71.1447C971.494 71.1447 956.638 56.9442 956.638 39.4269Z" fill="#839E75"/>
<path d="M789.407 65.4355C789.407 47.9183 804.263 33.7177 822.588 33.7177C840.913 33.7177 855.769 47.9183 855.769 65.4355C855.769 82.9527 840.913 97.1532 822.588 97.1532C804.263 97.1532 789.407 82.9527 789.407 65.4355Z" fill="#839E75"/>
<path d="M737.441 79.3569C737.441 61.8397 752.297 47.6392 770.622 47.6392C788.947 47.6392 803.803 61.8397 803.803 79.3569C803.803 96.8741 788.947 111.075 770.622 111.075C752.297 111.075 737.441 96.8741 737.441 79.3569Z" fill="#839E75"/>
<path d="M685.444 65.4355C685.444 47.9183 700.299 33.7178 718.625 33.7178C736.95 33.7178 751.806 47.9183 751.806 65.4355C751.806 82.9527 736.95 97.1532 718.625 97.1532C700.299 97.1532 685.444 82.9527 685.444 65.4355Z" fill="#839E75"/>
<path d="M478.172 70.8363C673.989 90.2588 785.707 83.9361 985.174 70.8363V8.01757H478.172V70.8363Z" fill="#839E75"/>
<path d="M120.545 56.781L120.557 56.8143C121.274 56.3366 121.956 55.8695 122.614 55.4194C123.428 54.8621 122.696 55.624 123.451 55.131C123.451 53.9932 122.167 53.3286 121.238 53.9851L119.879 54.9455C120.26 55.8789 120.155 55.7429 120.545 56.781Z" fill="#DB9494"/>
<path d="M124.994 60.0957C123.602 59.2294 122.188 58.1367 120.557 56.8143C120.133 57.4114 119.749 57.9793 119.403 58.5224L119.796 57.9309L121.432 58.5224C122.105 59.2089 123.575 60.5507 124.072 60.4261C124.26 60.379 124.604 60.2605 124.994 60.0957Z" fill="#DB9494"/>
<path d="M120.189 57.3394C120.608 56.8101 120.118 57.426 120.557 56.8143C118.43 57.2393 118.93 57.1003 117.239 57.1556L119.102 57.6228L120.189 57.3394Z" fill="#DB9494"/>
<path d="M123.451 55.131C122.155 56.1206 122.237 55.8325 120.557 56.8143C122.714 57.8691 124.479 58.7942 125.922 59.6428C126.521 59.3032 127.023 58.8998 127.023 58.5224C127.023 56.9311 125.883 55.5682 124.317 55.2867L123.451 55.131Z" fill="#DB9494"/>
<path d="M120.557 56.8143C120.119 55.7824 120.219 55.9118 119.879 54.9455H119.796L117.941 54.4575C116.476 54.0721 114.921 54.588 113.977 55.773C115.626 55.8868 117.336 56.209 119.299 56.5789L119.299 56.579L119.3 56.5792C119.708 56.656 120.126 56.7348 120.557 56.8143Z" fill="#DB9494"/>
<path d="M117.239 57.1556C118.93 57.1003 118.43 57.2393 120.557 56.8143C120.126 56.7348 119.708 56.656 119.3 56.5792L119.299 56.579L119.299 56.5789C117.336 56.209 115.626 55.8868 113.977 55.773L117.239 57.1556Z" fill="#DB9494"/>
<path d="M120.557 56.8143C122.188 58.1367 123.602 59.2294 124.994 60.0957C125.294 59.9685 125.62 59.8137 125.922 59.6428C124.479 58.7942 122.714 57.8691 120.557 56.8143Z" fill="#DB9494"/>
<path d="M120.557 56.8143C122.237 55.8325 122.155 56.1206 123.451 55.131C122.696 55.624 123.428 54.8621 122.614 55.4194C121.956 55.8695 121.274 56.3366 120.557 56.8143Z" fill="#DB9494"/>
<path d="M119.403 58.5224C119.749 57.9793 120.133 57.4114 120.557 56.8143C120.118 57.426 120.608 56.8101 120.189 57.3394L119.403 58.5224Z" fill="#DB9494"/>
<path d="M119.879 54.9455C120.219 55.9118 120.119 55.7824 120.557 56.8143L120.545 56.781C120.155 55.7429 120.26 55.8789 119.879 54.9455Z" fill="#DB9494"/>
<path d="M119.251 39.0008C124.576 37.3775 127.356 37.7467 132.051 39.9769C130.822 39.4499 128.052 39.2403 119.251 39.0008Z" fill="#FFCCCC"/>
<path fill-rule="evenodd" clip-rule="evenodd" d="M119.266 53.4901C117.787 49.1451 117.446 45.1332 119.251 39.0008C128.052 39.2403 130.822 39.4499 132.051 39.9769C131.661 46.4348 129.616 50.1705 125.626 53.4101C129.687 50.849 133.264 49.5347 139.104 51.4459C142.227 57.2205 141.282 59.3552 137.798 62.4268C134.225 62.7549 131.614 62.6285 129.375 62.0376C131.922 64.2598 132.224 66.2837 132.051 69.5033C129.686 77.2993 126.791 77.1481 120.557 73.8957C116.485 67.6643 115.476 64.6862 119.403 58.5224L119.796 57.9309L121.432 58.5224C122.105 59.2089 123.575 60.5507 124.072 60.4261C124.26 60.379 124.604 60.2605 124.994 60.0957C125.294 59.9685 125.62 59.8137 125.922 59.6428C126.521 59.3032 127.023 58.8998 127.023 58.5224C127.023 56.9311 125.883 55.5682 124.317 55.2867L123.451 55.131C123.451 53.9932 122.167 53.3286 121.238 53.9851L119.879 54.9455H119.796L117.941 54.4575C116.476 54.0721 114.921 54.588 113.977 55.773L117.239 57.1556L119.102 57.6228L120.189 57.3394C116.617 61.8581 112.655 64.8045 106.451 68.0392C106.222 68.0416 106 68.0448 105.782 68.0479L105.782 68.048L105.781 68.048L105.78 68.048L105.78 68.048L105.779 68.048L105.779 68.048C101.077 68.1161 99.1016 68.1447 103.839 58.5224C105.357 57.6156 106.718 56.972 107.991 56.5331C105.58 55.6772 103.311 54.2903 100.704 52.4219C99.6148 48.0972 99.2764 45.4873 103.572 44.128C106.352 43.7032 107.783 43.7783 110.25 44.2847C115.467 46.203 117.517 49.2987 119.266 53.4901Z" fill="#F5B1B1"/>
<path d="M107.235 43.3932C105.748 43.578 104.542 43.8211 103.572 44.128C106.352 43.7032 107.783 43.7783 110.25 44.2847C109.345 43.952 108.345 43.6547 107.235 43.3932Z" fill="#FFCCCC"/>
<path d="M357.529 75.3559L357.538 75.3778C358.009 75.0635 358.459 74.7562 358.892 74.4601C359.429 74.0934 358.946 74.5947 359.443 74.2704C359.443 73.5215 358.599 73.084 357.987 73.5158L357.091 74.1483C357.342 74.7624 357.273 74.6729 357.529 75.3559Z" fill="#DB9494"/>
<path d="M360.459 77.5366C359.543 76.9667 358.612 76.2478 357.538 75.3778C357.258 75.7706 357.005 76.1442 356.778 76.5016L357.036 76.1124L358.114 76.5016C358.557 76.9532 359.525 77.8359 359.852 77.754C359.976 77.723 360.203 77.645 360.459 77.5366Z" fill="#DB9494"/>
<path d="M357.295 75.7233C357.571 75.375 357.249 75.7802 357.538 75.3778C356.137 75.6574 356.466 75.5659 355.352 75.6023L356.58 75.9097L357.295 75.7233Z" fill="#DB9494"/>
<path d="M359.443 74.2704C358.59 74.9214 358.644 74.7319 357.538 75.3778C358.958 76.0717 360.121 76.6803 361.07 77.2387C361.465 77.0152 361.795 76.7498 361.795 76.5016C361.795 75.4547 361.046 74.5581 360.015 74.3731L359.443 74.2704Z" fill="#DB9494"/>
<path d="M357.538 75.3778C357.249 74.6989 357.315 74.7841 357.091 74.1483H357.036L355.814 73.827C354.849 73.5736 353.826 73.913 353.205 74.6927C354.291 74.7676 355.416 74.9795 356.709 75.2229L356.709 75.223L356.71 75.2231C356.978 75.2736 357.254 75.3255 357.538 75.3778Z" fill="#DB9494"/>
<path d="M355.352 75.6023C356.466 75.5659 356.137 75.6574 357.538 75.3778C357.254 75.3255 356.978 75.2736 356.71 75.2231L356.709 75.223L356.709 75.2229C355.416 74.9795 354.291 74.7676 353.205 74.6927L355.352 75.6023Z" fill="#DB9494"/>
<path d="M357.538 75.3778C358.612 76.2478 359.543 76.9667 360.459 77.5366C360.657 77.4529 360.872 77.3511 361.07 77.2387C360.121 76.6803 358.958 76.0717 357.538 75.3778Z" fill="#DB9494"/>
<path d="M357.538 75.3778C358.644 74.7319 358.59 74.9214 359.443 74.2704C358.946 74.5947 359.429 74.0934 358.892 74.4601C358.459 74.7562 358.009 75.0635 357.538 75.3778Z" fill="#DB9494"/>
<path d="M356.778 76.5016C357.005 76.1442 357.258 75.7706 357.538 75.3778C357.249 75.7802 357.571 75.375 357.295 75.7233L356.778 76.5016Z" fill="#DB9494"/>
<path d="M357.091 74.1483C357.315 74.7841 357.249 74.6989 357.538 75.3778L357.529 75.3559C357.273 74.6729 357.342 74.7624 357.091 74.1483Z" fill="#DB9494"/>
<path d="M356.678 63.6584C360.184 62.5904 362.015 62.8333 365.107 64.3006C364.297 63.9538 362.473 63.816 356.678 63.6584Z" fill="#FFCCCC"/>
<path fill-rule="evenodd" clip-rule="evenodd" d="M356.687 73.1908C355.714 70.3323 355.489 67.6928 356.678 63.6584C362.473 63.816 364.297 63.9538 365.107 64.3006C364.85 68.5492 363.503 71.0068 360.876 73.1382C363.55 71.4533 365.906 70.5886 369.752 71.8459C371.808 75.645 371.186 77.0494 368.892 79.0702C366.538 79.2861 364.819 79.2029 363.345 78.8142C365.022 80.2762 365.22 81.6076 365.107 83.7258C363.549 88.8548 361.643 88.7553 357.538 86.6155C354.856 82.5159 354.192 80.5566 356.778 76.5016L357.036 76.1124L358.114 76.5016C358.557 76.9532 359.525 77.8359 359.852 77.754C359.976 77.723 360.203 77.645 360.459 77.5366C360.657 77.4529 360.872 77.3511 361.07 77.2387C361.465 77.0152 361.795 76.7498 361.795 76.5016C361.795 75.4547 361.046 74.5581 360.015 74.3731L359.443 74.2704C359.443 73.5215 358.599 73.084 357.987 73.5158L357.091 74.1483H357.036L355.814 73.827C354.849 73.5736 353.826 73.913 353.205 74.6927L355.352 75.6023L356.58 75.9097L357.295 75.7233C354.943 78.6961 352.334 80.6345 348.248 82.7626C348.098 82.7642 347.951 82.7663 347.808 82.7683L347.807 82.7684L347.807 82.7684L347.807 82.7684L347.806 82.7684L347.806 82.7684L347.806 82.7684C344.709 82.8132 343.408 82.832 346.528 76.5016C347.528 75.905 348.424 75.4816 349.262 75.1928C347.674 74.6297 346.18 73.7173 344.464 72.4881C343.746 69.6428 343.523 67.9258 346.352 67.0315C348.183 66.7521 349.125 66.8015 350.75 67.1346C354.185 68.3966 355.536 70.4333 356.687 73.1908Z" fill="#F5B1B1"/>
<path d="M348.764 66.5481C347.785 66.6697 346.991 66.8296 346.352 67.0315C348.183 66.7521 349.125 66.8015 350.75 67.1346C350.154 66.9157 349.495 66.7201 348.764 66.5481Z" fill="#FFCCCC"/>
<path d="M249.529 44.3559L249.538 44.3778C250.009 44.0635 250.459 43.7562 250.892 43.4601C251.429 43.0934 250.946 43.5947 251.443 43.2704C251.443 42.5215 250.599 42.084 249.987 42.5158L249.091 43.1483C249.342 43.7624 249.273 43.6729 249.529 44.3559Z" fill="#FCC16D"/>
<path d="M252.459 46.5366C251.543 45.9667 250.612 45.2478 249.538 44.3778C249.258 44.7706 249.005 45.1442 248.778 45.5016L249.036 45.1124L250.114 45.5016C250.557 45.9532 251.525 46.8359 251.852 46.754C251.976 46.723 252.203 46.645 252.459 46.5366Z" fill="#FCC16D"/>
<path d="M249.295 44.7233C249.571 44.375 249.249 44.7802 249.538 44.3778C248.137 44.6574 248.466 44.5659 247.352 44.6023L248.58 44.9097L249.295 44.7233Z" fill="#FCC16D"/>
<path d="M251.443 43.2704C250.59 43.9214 250.644 43.7319 249.538 44.3778C250.958 45.0717 252.121 45.6803 253.07 46.2387C253.465 46.0152 253.795 45.7498 253.795 45.5016C253.795 44.4547 253.046 43.5581 252.015 43.3731L251.443 43.2704Z" fill="#FCC16D"/>
<path d="M249.538 44.3778C249.249 43.6989 249.315 43.7841 249.091 43.1483H249.036L247.814 42.827C246.849 42.5736 245.826 42.913 245.205 43.6927C246.291 43.7676 247.416 43.9795 248.709 44.2229C248.977 44.2735 249.254 44.3255 249.538 44.3778Z" fill="#FCC16D"/>
<path d="M247.352 44.6023C248.466 44.5659 248.137 44.6574 249.538 44.3778C249.254 44.3255 248.977 44.2735 248.709 44.2229C247.416 43.9795 246.291 43.7676 245.205 43.6927L247.352 44.6023Z" fill="#FCC16D"/>
<path d="M249.538 44.3778C250.612 45.2478 251.543 45.9667 252.459 46.5366C252.657 46.4529 252.872 46.3511 253.07 46.2387C252.121 45.6803 250.958 45.0717 249.538 44.3778Z" fill="#FCC16D"/>
<path d="M249.538 44.3778C250.644 43.7319 250.59 43.9214 251.443 43.2704C250.946 43.5947 251.429 43.0934 250.892 43.4601C250.459 43.7562 250.009 44.0635 249.538 44.3778Z" fill="#FCC16D"/>
<path d="M248.778 45.5016C249.005 45.1442 249.258 44.7706 249.538 44.3778C249.249 44.7802 249.571 44.375 249.295 44.7233L248.778 45.5016Z" fill="#FCC16D"/>
<path d="M249.091 43.1483C249.315 43.7841 249.249 43.6989 249.538 44.3778L249.529 44.3559C249.273 43.6729 249.342 43.7624 249.091 43.1483Z" fill="#FCC16D"/>
<path d="M248.678 32.6584C252.184 31.5904 254.015 31.8333 257.107 33.3006C256.297 32.9538 254.473 32.816 248.678 32.6584Z" fill="#FCC16D"/>
<path fill-rule="evenodd" clip-rule="evenodd" d="M248.687 42.1908C247.714 39.3323 247.489 36.6928 248.678 32.6584C254.473 32.816 256.297 32.9538 257.107 33.3006C256.85 37.5492 255.503 40.0068 252.876 42.1382C255.55 40.4533 257.906 39.5886 261.752 40.8459C263.808 44.645 263.186 46.0494 260.892 48.0702C258.538 48.2861 256.819 48.2029 255.345 47.8142C257.022 49.2762 257.22 50.6076 257.107 52.7258C255.549 57.8548 253.643 57.7553 249.538 55.6155C246.856 51.5159 246.192 49.5566 248.778 45.5016L249.036 45.1124L250.114 45.5016C250.557 45.9532 251.525 46.8359 251.852 46.754C251.976 46.723 252.203 46.645 252.459 46.5366C252.657 46.4529 252.872 46.3511 253.07 46.2387C253.465 46.0152 253.795 45.7498 253.795 45.5016C253.795 44.4547 253.046 43.5581 252.015 43.3731L251.443 43.2704C251.443 42.5215 250.599 42.084 249.987 42.5158L249.091 43.1483H249.036L247.814 42.827C246.849 42.5736 245.826 42.913 245.205 43.6927L247.352 44.6023L248.58 44.9097L249.295 44.7233C246.943 47.6961 244.334 49.6345 240.248 51.7626C240.098 51.7642 239.95 51.7663 239.807 51.7684L239.806 51.7684C236.709 51.8132 235.408 51.832 238.528 45.5016C239.528 44.905 240.424 44.4816 241.262 44.1928C239.674 43.6297 238.18 42.7173 236.464 41.4881C235.746 38.6428 235.523 36.9258 238.352 36.0315C240.183 35.7521 241.125 35.8015 242.75 36.1346C246.185 37.3966 247.536 39.4333 248.687 42.1908Z" fill="#FCC16D"/>
<path d="M240.764 35.5481C239.785 35.6697 238.991 35.8296 238.352 36.0315C240.183 35.7521 241.125 35.8015 242.75 36.1346C242.154 35.9157 241.495 35.7201 240.764 35.5481Z" fill="#FCC16D"/>
<path d="M249.538 44.3778C249.249 43.6989 249.315 43.7841 249.091 43.1483M249.538 44.3778C250.644 43.7319 250.59 43.9214 251.443 43.2704M249.538 44.3778C250.612 45.2478 251.543 45.9667 252.459 46.5366M249.538 44.3778C250.958 45.0717 252.121 45.6803 253.07 46.2387M249.538 44.3778C249.258 44.7706 249.005 45.1442 248.778 45.5016M249.538 44.3778C249.249 44.7802 249.571 44.375 249.295 44.7233M249.538 44.3778L249.529 44.3559C249.273 43.6729 249.342 43.7624 249.091 43.1483M249.538 44.3778C248.137 44.6574 248.466 44.5659 247.352 44.6023M249.538 44.3778C250.009 44.0635 250.459 43.7562 250.892 43.4601C251.429 43.0934 250.946 43.5947 251.443 43.2704M249.538 44.3778C249.254 44.3255 248.977 44.2735 248.709 44.2229C247.416 43.9795 246.291 43.7676 245.205 43.6927M249.091 43.1483C249.363 43.882 248.713 42.2653 248.687 42.1908M249.091 43.1483C249.061 43.0747 248.718 42.2634 248.687 42.1908M249.091 43.1483H249.036L247.814 42.827C246.849 42.5736 245.826 42.913 245.205 43.6927M249.091 43.1483L249.987 42.5158C250.599 42.084 251.443 42.5215 251.443 43.2704M248.687 42.1908C247.714 39.3323 247.489 36.6928 248.678 32.6584M248.687 42.1908C247.536 39.4333 246.185 37.3966 242.75 36.1346M248.678 32.6584C252.184 31.5904 254.015 31.8333 257.107 33.3006M248.678 32.6584C254.473 32.816 256.297 32.9538 257.107 33.3006M257.107 33.3006C256.85 37.5492 255.503 40.0068 252.876 42.1382M252.876 42.1382C252.745 42.2442 251.58 43.1657 251.443 43.2704M252.876 42.1382C252.73 42.2296 251.591 43.1743 251.443 43.2704M252.876 42.1382C255.55 40.4533 257.906 39.5886 261.752 40.8459C263.808 44.645 263.186 46.0494 260.892 48.0702C258.538 48.2861 256.819 48.2029 255.345 47.8142M251.443 43.2704L252.015 43.3731C253.046 43.5581 253.795 44.4547 253.795 45.5016C253.795 45.7498 253.465 46.0152 253.07 46.2387M255.345 47.8142C254.307 47.5405 253.39 47.1154 252.459 46.5366M255.345 47.8142C254.774 47.3162 254.031 46.8031 253.07 46.2387M255.345 47.8142C257.022 49.2762 257.22 50.6076 257.107 52.7258C255.549 57.8548 253.643 57.7553 249.538 55.6155C246.856 51.5159 246.192 49.5566 248.778 45.5016M252.459 46.5366C252.657 46.4529 252.872 46.3511 253.07 46.2387M252.459 46.5366C252.203 46.645 251.976 46.723 251.852 46.754C251.525 46.8359 250.557 45.9532 250.114 45.5016L249.036 45.1124L248.778 45.5016M248.778 45.5016L249.295 44.7233M249.295 44.7233C246.943 47.6961 244.334 49.6345 240.248 51.7626C240.098 51.7642 239.95 51.7663 239.807 51.7684L239.806 51.7684C236.709 51.8132 235.408 51.832 238.528 45.5016C239.528 44.905 240.424 44.4816 241.262 44.1928M249.295 44.7233L248.58 44.9097L247.352 44.6023M241.262 44.1928C239.674 43.6297 238.18 42.7173 236.464 41.4881C235.746 38.6428 235.523 36.9258 238.352 36.0315M241.262 44.1928C242.634 44.6793 245.636 44.6584 247.352 44.6023M241.262 44.1928C242.665 43.7098 243.906 43.6033 245.205 43.6927M247.352 44.6023L245.205 43.6927M238.352 36.0315C238.991 35.8296 239.785 35.6697 240.764 35.5481C241.495 35.7201 242.154 35.9157 242.75 36.1346M238.352 36.0315C240.183 35.7521 241.125 35.8015 242.75 36.1346" stroke="url(#paint0_radial_1016_321)" stroke-width="0.2"/>
<path d="M474.538 60.8155L474.549 60.8436C475.16 60.4413 475.743 60.048 476.305 59.6689C477 59.1996 476.374 59.8413 477.019 59.4261C477.019 58.4639 475.937 57.899 475.147 58.4492L473.97 59.2699C474.295 60.0559 474.205 59.9414 474.538 60.8155Z" fill="#DB9494"/>
<path d="M478.336 63.6068C477.148 62.8774 475.941 61.9572 474.549 60.8436C474.187 61.3464 473.859 61.8246 473.563 62.282L473.899 61.7839L475.295 62.282C475.87 62.8601 477.125 63.99 477.549 63.8851C477.71 63.8454 478.004 63.7457 478.336 63.6068Z" fill="#DB9494"/>
<path d="M474.235 61.2858C474.592 60.8401 474.174 61.3587 474.549 60.8436C472.733 61.2015 473.16 61.0844 471.716 61.131L473.307 61.5245L474.235 61.2858Z" fill="#DB9494"/>
<path d="M477.019 59.4261C475.913 60.2594 475.983 60.0168 474.549 60.8436C476.39 61.7319 477.897 62.5109 479.128 63.2255C479.64 62.9395 480.068 62.5998 480.068 62.282C480.068 60.9427 479.107 59.7964 477.788 59.5625L477.019 59.4261Z" fill="#DB9494"/>
<path d="M474.549 60.8436C474.175 59.9746 474.26 60.0836 473.97 59.2699H473.899L472.3 58.855C471.056 58.5323 469.739 58.9671 468.932 59.9667C470.34 60.0625 471.799 60.3338 473.475 60.6454L473.475 60.6455L473.476 60.6456C473.824 60.7103 474.181 60.7767 474.549 60.8436Z" fill="#DB9494"/>
<path d="M471.716 61.131C473.16 61.0844 472.733 61.2015 474.549 60.8436C474.181 60.7767 473.824 60.7103 473.476 60.6456L473.475 60.6455L473.475 60.6454C471.799 60.3338 470.34 60.0625 468.932 59.9667L471.716 61.131Z" fill="#DB9494"/>
<path d="M474.549 60.8436C475.941 61.9572 477.148 62.8774 478.336 63.6068C478.592 63.4998 478.871 63.3695 479.128 63.2255C477.897 62.5109 476.39 61.7319 474.549 60.8436Z" fill="#DB9494"/>
<path d="M474.549 60.8436C475.983 60.0168 475.913 60.2594 477.019 59.4261C476.374 59.8413 477 59.1996 476.305 59.6689C475.743 60.048 475.16 60.4413 474.549 60.8436Z" fill="#DB9494"/>
<path d="M473.563 62.282C473.859 61.8246 474.187 61.3464 474.549 60.8436C474.174 61.3587 474.592 60.8401 474.235 61.2858L473.563 62.282Z" fill="#DB9494"/>
<path d="M473.97 59.2699C474.26 60.0836 474.175 59.9746 474.549 60.8436L474.538 60.8155C474.205 59.9414 474.295 60.0559 473.97 59.2699Z" fill="#DB9494"/>
<path d="M473.434 45.8428C477.98 44.4758 480.353 44.7867 484.361 46.6648C483.311 46.2209 480.947 46.0445 473.434 45.8428Z" fill="#FFCCCC"/>
<path fill-rule="evenodd" clip-rule="evenodd" d="M473.447 58.0443C472.184 54.3853 471.893 51.0069 473.434 45.8428C480.947 46.0445 483.311 46.2209 484.361 46.6648C484.027 52.103 482.282 55.2488 478.876 57.9769C482.342 55.8202 485.396 54.7134 490.382 56.3228C493.048 61.1857 492.241 62.9833 489.267 65.5699C486.216 65.8462 483.988 65.7397 482.076 65.2422C484.25 67.1135 484.508 68.8178 484.361 71.5291C482.342 78.0941 479.871 77.9668 474.549 75.2279C471.073 69.9804 470.212 67.4725 473.563 62.282L473.899 61.7839L475.295 62.282C475.87 62.8601 477.125 63.99 477.549 63.8851C477.71 63.8454 478.004 63.7457 478.336 63.6068C478.592 63.4998 478.871 63.3695 479.128 63.2255C479.64 62.9395 480.068 62.5998 480.068 62.282C480.068 60.9427 479.107 59.7964 477.788 59.5625L477.019 59.4261C477.019 58.4639 475.937 57.899 475.147 58.4492L473.97 59.2699H473.899L472.3 58.855C471.056 58.5323 469.739 58.9671 468.932 59.9667L471.716 61.131L473.307 61.5245L474.235 61.2858C471.185 65.091 467.803 67.5722 462.507 70.2962C462.312 70.2981 462.122 70.3009 461.936 70.3035L461.935 70.3035L461.935 70.3035L461.934 70.3035L461.934 70.3035L461.934 70.3035L461.933 70.3036C457.919 70.3609 456.233 70.385 460.277 62.282C461.573 61.5184 462.735 60.9764 463.822 60.6068C461.763 59.886 459.826 58.7182 457.601 57.1448C456.671 53.5028 456.382 51.3051 460.049 50.1604C462.422 49.8027 463.644 49.866 465.75 50.2924C470.203 51.9077 471.953 54.5147 473.447 58.0443Z" fill="#F5B1B1"/>
<path d="M463.176 49.5416C461.907 49.6972 460.877 49.902 460.049 50.1604C462.422 49.8027 463.644 49.866 465.75 50.2924C464.978 50.0122 464.124 49.7618 463.176 49.5416Z" fill="#FFCCCC"/>
<path d="M750.538 64.8157L750.549 64.8437C751.16 64.4414 751.743 64.0481 752.305 63.6691C753 63.1997 752.374 63.8414 753.019 63.4262C753.019 62.464 751.937 61.8991 751.147 62.4493L749.97 63.27C750.295 64.056 750.205 63.9415 750.538 64.8157Z" fill="#DB9494"/>
<path d="M754.336 67.607C753.148 66.8775 751.941 65.9574 750.549 64.8437C750.187 65.3465 749.859 65.8248 749.563 66.2822L749.899 65.784L751.295 66.2822C751.87 66.8602 753.125 67.9902 753.549 67.8852C753.71 67.8456 754.004 67.7458 754.336 67.607Z" fill="#DB9494"/>
<path d="M750.235 65.2859C750.592 64.8402 750.174 65.3589 750.549 64.8437C748.733 65.2017 749.16 65.0845 747.716 65.1311L749.307 65.5246L750.235 65.2859Z" fill="#DB9494"/>
<path d="M753.019 63.4262C751.913 64.2596 751.983 64.017 750.549 64.8437C752.39 65.732 753.897 66.511 755.128 67.2257C755.64 66.9397 756.068 66.6 756.068 66.2822C756.068 64.9428 755.107 63.7965 753.788 63.5627L753.019 63.4262Z" fill="#DB9494"/>
<path d="M750.549 64.8437C750.175 63.9748 750.26 64.0838 749.97 63.27H749.899L748.3 62.8551C747.056 62.5324 745.739 62.9672 744.932 63.9669C746.34 64.0626 747.799 64.334 749.475 64.6455L749.475 64.6456L749.476 64.6457C749.824 64.7104 750.181 64.7768 750.549 64.8437Z" fill="#DB9494"/>
<path d="M747.716 65.1311C749.16 65.0845 748.733 65.2017 750.549 64.8437C750.181 64.7768 749.824 64.7104 749.476 64.6457L749.475 64.6456L749.475 64.6455C747.799 64.334 746.34 64.0626 744.932 63.9669L747.716 65.1311Z" fill="#DB9494"/>
<path d="M750.549 64.8437C751.941 65.9574 753.148 66.8775 754.336 67.607C754.592 67.4999 754.871 67.3696 755.128 67.2257C753.897 66.511 752.39 65.732 750.549 64.8437Z" fill="#DB9494"/>
<path d="M750.549 64.8437C751.983 64.017 751.913 64.2596 753.019 63.4262C752.374 63.8414 753 63.1997 752.305 63.6691C751.743 64.0481 751.16 64.4414 750.549 64.8437Z" fill="#DB9494"/>
<path d="M749.563 66.2822C749.859 65.8248 750.187 65.3465 750.549 64.8437C750.174 65.3589 750.592 64.8402 750.235 65.2859L749.563 66.2822Z" fill="#DB9494"/>
<path d="M749.97 63.27C750.26 64.0838 750.175 63.9748 750.549 64.8437L750.538 64.8157C750.205 63.9415 750.295 64.056 749.97 63.27Z" fill="#DB9494"/>
<path d="M749.434 49.8429C753.98 48.4759 756.353 48.7868 760.361 50.6649C759.311 50.221 756.947 50.0446 749.434 49.8429Z" fill="#FFCCCC"/>
<path fill-rule="evenodd" clip-rule="evenodd" d="M749.447 62.0444C748.184 58.3854 747.893 55.007 749.434 49.8429C756.947 50.0446 759.311 50.221 760.361 50.6649C760.027 56.1031 758.282 59.2489 754.876 61.977C758.342 59.8203 761.396 58.7135 766.382 60.3229C769.048 65.1858 768.241 66.9834 765.267 69.57C762.216 69.8463 759.988 69.7399 758.076 69.2423C760.25 71.1136 760.508 72.8179 760.361 75.5292C758.342 82.0943 755.871 81.9669 750.549 79.2281C747.073 73.9805 746.212 71.4727 749.563 66.2822L749.899 65.784L751.295 66.2822C751.87 66.8602 753.125 67.9902 753.549 67.8852C753.71 67.8456 754.004 67.7458 754.336 67.607C754.592 67.4999 754.871 67.3696 755.128 67.2257C755.64 66.9397 756.068 66.6 756.068 66.2822C756.068 64.9428 755.107 63.7965 753.788 63.5627L753.019 63.4262C753.019 62.464 751.937 61.8991 751.147 62.4493L749.97 63.27H749.899L748.3 62.8551C747.056 62.5324 745.739 62.9672 744.932 63.9669L747.716 65.1311L749.307 65.5246L750.235 65.2859C747.185 69.0911 743.803 71.5723 738.507 74.2963C738.312 74.2983 738.122 74.301 737.936 74.3036L737.935 74.3036L737.935 74.3037L737.934 74.3037L737.934 74.3037L737.934 74.3037L737.933 74.3037C733.919 74.361 732.233 74.3851 736.277 66.2822C737.573 65.5185 738.735 64.9765 739.822 64.6069C737.763 63.8861 735.826 62.7183 733.601 61.1449C732.671 57.503 732.382 55.3052 736.049 54.1605C738.422 53.8028 739.644 53.8661 741.75 54.2925C746.203 55.9079 747.953 58.5148 749.447 62.0444Z" fill="#F5B1B1"/>
<path d="M739.176 53.5417C737.907 53.6973 736.877 53.9021 736.049 54.1605C738.422 53.8028 739.644 53.8661 741.75 54.2925C740.978 54.0123 740.124 53.7619 739.176 53.5417Z" fill="#FFCCCC"/>
<path d="M906.462 97.8157L906.451 97.8437C905.84 97.4414 905.257 97.0481 904.695 96.6691C904 96.1997 904.626 96.8414 903.981 96.4262C903.981 95.464 905.063 94.8991 905.853 95.4493L907.03 96.27C906.705 97.056 906.795 96.9415 906.462 97.8157Z" fill="#DB9494"/>
<path d="M902.664 100.607C903.852 99.8775 905.059 98.9574 906.451 97.8437C906.813 98.3465 907.141 98.8248 907.437 99.2822L907.101 98.784L905.705 99.2822C905.13 99.8602 903.875 100.99 903.451 100.885C903.29 100.846 902.996 100.746 902.664 100.607Z" fill="#DB9494"/>
<path d="M906.765 98.2859C906.408 97.8402 906.826 98.3589 906.451 97.8437C908.267 98.2017 907.84 98.0845 909.284 98.1311L907.693 98.5246L906.765 98.2859Z" fill="#DB9494"/>
<path d="M903.981 96.4262C905.087 97.2596 905.017 97.017 906.451 97.8437C904.61 98.732 903.103 99.511 901.872 100.226C901.36 99.9397 900.932 99.6 900.932 99.2822C900.932 97.9428 901.893 96.7965 903.212 96.5627L903.981 96.4262Z" fill="#DB9494"/>
<path d="M906.451 97.8437C906.825 96.9748 906.74 97.0838 907.03 96.27H907.101L908.7 95.8551C909.944 95.5324 911.261 95.9672 912.068 96.9669C910.66 97.0626 909.201 97.334 907.525 97.6455L907.525 97.6456L907.524 97.6457C907.176 97.7104 906.819 97.7768 906.451 97.8437Z" fill="#DB9494"/>
<path d="M909.284 98.1311C907.84 98.0845 908.267 98.2017 906.451 97.8437C906.819 97.7768 907.176 97.7104 907.524 97.6457L907.525 97.6456L907.525 97.6455C909.201 97.334 910.66 97.0626 912.068 96.9669L909.284 98.1311Z" fill="#DB9494"/>
<path d="M906.451 97.8437C905.059 98.9574 903.852 99.8775 902.664 100.607C902.408 100.5 902.129 100.37 901.872 100.226C903.103 99.511 904.61 98.732 906.451 97.8437Z" fill="#DB9494"/>
<path d="M906.451 97.8437C905.017 97.017 905.087 97.2596 903.981 96.4262C904.626 96.8414 904 96.1997 904.695 96.6691C905.257 97.0481 905.84 97.4414 906.451 97.8437Z" fill="#DB9494"/>
<path d="M907.437 99.2822C907.141 98.8248 906.813 98.3465 906.451 97.8437C906.826 98.3589 906.408 97.8402 906.765 98.2859L907.437 99.2822Z" fill="#DB9494"/>
<path d="M907.03 96.27C906.74 97.0838 906.825 96.9748 906.451 97.8437L906.462 97.8157C906.795 96.9415 906.705 97.056 907.03 96.27Z" fill="#DB9494"/>
<path d="M907.566 82.8429C903.02 81.4759 900.647 81.7868 896.639 83.6649C897.689 83.221 900.053 83.0446 907.566 82.8429Z" fill="#FFCCCC"/>
<path fill-rule="evenodd" clip-rule="evenodd" d="M907.553 95.0444C908.816 91.3854 909.107 88.007 907.566 82.8429C900.053 83.0446 897.689 83.221 896.639 83.6649C896.973 89.1031 898.718 92.2489 902.124 94.977C898.658 92.8203 895.604 91.7135 890.618 93.3229C887.952 98.1858 888.759 99.9834 891.733 102.57C894.784 102.846 897.012 102.74 898.924 102.242C896.75 104.114 896.492 105.818 896.639 108.529C898.658 115.094 901.129 114.967 906.451 112.228C909.927 106.981 910.788 104.473 907.437 99.2822L907.101 98.784L905.705 99.2822C905.13 99.8602 903.875 100.99 903.451 100.885C903.29 100.846 902.996 100.746 902.664 100.607C902.408 100.5 902.129 100.37 901.872 100.226C901.36 99.9397 900.932 99.6 900.932 99.2822C900.932 97.9428 901.893 96.7965 903.212 96.5627L903.981 96.4262C903.981 95.464 905.063 94.8991 905.853 95.4493L907.03 96.27H907.101L908.7 95.8551C909.944 95.5324 911.261 95.9672 912.068 96.9669L909.284 98.1311L907.693 98.5246L906.765 98.2859C909.815 102.091 913.197 104.572 918.493 107.296C918.688 107.298 918.878 107.301 919.064 107.304L919.065 107.304L919.065 107.304L919.066 107.304L919.066 107.304L919.066 107.304L919.067 107.304C923.081 107.361 924.767 107.385 920.723 99.2822C919.427 98.5185 918.265 97.9765 917.178 97.6069C919.237 96.8861 921.174 95.7183 923.399 94.1449C924.329 90.503 924.618 88.3052 920.951 87.1605C918.578 86.8028 917.356 86.8661 915.25 87.2925C910.797 88.9079 909.047 91.5148 907.553 95.0444Z" fill="#F5B1B1"/>
<path d="M917.824 86.5417C919.093 86.6973 920.123 86.9021 920.951 87.1605C918.578 86.8028 917.356 86.8661 915.25 87.2925C916.022 87.0123 916.876 86.7619 917.824 86.5417Z" fill="#FFCCCC"/>
<path d="M1496.35 31.7177C1496.35 14.2005 1510.83 0 1528.68 0C1546.53 0 1561 14.2005 1561 31.7177C1561 49.235 1546.53 63.4355 1528.68 63.4355C1510.83 63.4355 1496.35 49.235 1496.35 31.7177Z" fill="#839E75"/>
<path d="M1464.03 57.7263C1464.03 40.2091 1478.5 26.0085 1496.35 26.0085C1514.21 26.0085 1528.68 40.2091 1528.68 57.7263C1528.68 75.2435 1514.21 89.444 1496.35 89.444C1478.5 89.444 1464.03 75.2435 1464.03 57.7263Z" fill="#839E75"/>
<path d="M1409.34 50.114C1409.34 32.5968 1423.81 18.3963 1441.66 18.3963C1459.51 18.3963 1473.98 32.5968 1473.98 50.114C1473.98 67.6312 1459.51 81.8317 1441.66 81.8317C1423.81 81.8317 1409.34 67.6312 1409.34 50.114Z" fill="#839E75"/>
<path d="M1386.13 77.3569C1386.13 59.8397 1388 43.1361 1405.85 43.1361C1423.7 43.1361 1438.17 57.3366 1438.17 74.8538C1438.17 92.3711 1423.7 106.572 1405.85 106.572C1388 106.572 1386.13 94.8741 1386.13 77.3569Z" fill="#839E75"/>
<path d="M1321.49 77.3569C1321.49 59.8397 1335.96 45.6392 1353.81 45.6392C1371.66 45.6392 1386.13 59.8397 1386.13 77.3569C1386.13 94.8741 1371.66 109.075 1353.81 109.075C1335.96 109.075 1321.49 94.8741 1321.49 77.3569Z" fill="#839E75"/>
<path d="M1163.22 79.2823C1163.22 61.7651 1148.75 47.5645 1130.9 47.5645C1113.05 47.5645 1098.58 61.7651 1098.58 79.2823C1098.58 96.7995 1113.05 111 1130.9 111C1148.75 111 1163.22 96.7995 1163.22 79.2823Z" fill="#839E75"/>
<path d="M1125.29 69.1447C1125.29 51.6274 1110.82 37.4269 1092.97 37.4269C1075.12 37.4269 1060.65 51.6274 1060.65 69.1447C1060.65 86.6619 1075.12 100.862 1092.97 100.862C1110.82 100.862 1125.29 86.6619 1125.29 69.1447Z" fill="#839E75"/>
<path d="M1078.1 63.4355C1078.1 45.9183 1063.63 31.7177 1045.78 31.7177C1027.93 31.7177 1013.45 45.9183 1013.45 63.4355C1013.45 80.9527 1027.93 95.1532 1045.78 95.1532C1063.63 95.1532 1078.1 80.9527 1078.1 63.4355Z" fill="#839E75"/>
<path d="M1060.65 37.4269C1060.65 19.9097 1046.17 5.70918 1028.32 5.70918C1010.47 5.70918 996 19.9097 996 37.4269C996 54.9442 1010.47 69.1447 1028.32 69.1447C1046.17 69.1447 1060.65 54.9442 1060.65 37.4269Z" fill="#839E75"/>
<path d="M1223.55 63.4355C1223.55 45.9183 1209.08 31.7177 1191.23 31.7177C1173.38 31.7177 1158.91 45.9183 1158.91 63.4355C1158.91 80.9527 1173.38 95.1532 1191.23 95.1532C1209.08 95.1532 1223.55 80.9527 1223.55 63.4355Z" fill="#839E75"/>
<path d="M1274.17 77.3569C1274.17 59.8397 1259.7 45.6392 1241.85 45.6392C1224 45.6392 1209.53 59.8397 1209.53 77.3569C1209.53 94.8741 1224 109.075 1241.85 109.075C1259.7 109.075 1274.17 94.8741 1274.17 77.3569Z" fill="#839E75"/>
<path d="M1324.83 63.4355C1324.83 45.9183 1310.35 31.7178 1292.5 31.7178C1274.65 31.7178 1260.18 45.9183 1260.18 63.4355C1260.18 80.9527 1274.65 95.1532 1292.5 95.1532C1310.35 95.1532 1324.83 80.9527 1324.83 63.4355Z" fill="#839E75"/>
<path d="M1526.74 68.8363C1335.98 88.2588 1227.16 81.9361 1032.85 68.8363V6.01757H1526.74V68.8363Z" fill="#839E75"/>
<path d="M1368.46 48.781L1368.44 48.8143C1367.73 48.3366 1367.04 47.8695 1366.39 47.4194C1365.57 46.8621 1366.3 47.624 1365.55 47.131C1365.55 45.9932 1366.83 45.3286 1367.76 45.9851L1369.12 46.9455C1368.74 47.8789 1368.85 47.7429 1368.46 48.781Z" fill="#DB9494"/>
<path d="M1364.01 52.0957C1365.4 51.2294 1366.81 50.1367 1368.44 48.8143C1368.87 49.4114 1369.25 49.9793 1369.6 50.5224L1369.2 49.9309L1367.57 50.5224C1366.9 51.2089 1365.42 52.5507 1364.93 52.4261C1364.74 52.379 1364.4 52.2605 1364.01 52.0957Z" fill="#DB9494"/>
<path d="M1368.81 49.3394C1368.39 48.8101 1368.88 49.426 1368.44 48.8143C1370.57 49.2393 1370.07 49.1003 1371.76 49.1556L1369.9 49.6228L1368.81 49.3394Z" fill="#DB9494"/>
<path d="M1365.55 47.131C1366.84 48.1206 1366.76 47.8325 1368.44 48.8143C1366.29 49.8691 1364.52 50.7942 1363.08 51.6428C1362.48 51.3032 1361.98 50.8998 1361.98 50.5224C1361.98 48.9311 1363.12 47.5682 1364.68 47.2867L1365.55 47.131Z" fill="#DB9494"/>
<path d="M1368.44 48.8143C1368.88 47.7824 1368.78 47.9118 1369.12 46.9455H1369.2L1371.06 46.4575C1372.52 46.0721 1374.08 46.588 1375.02 47.773C1373.37 47.8868 1371.66 48.209 1369.7 48.5789L1369.7 48.579L1369.7 48.5792C1369.29 48.656 1368.87 48.7348 1368.44 48.8143Z" fill="#DB9494"/>
<path d="M1371.76 49.1556C1370.07 49.1003 1370.57 49.2393 1368.44 48.8143C1368.87 48.7348 1369.29 48.656 1369.7 48.5792L1369.7 48.579L1369.7 48.5789C1371.66 48.209 1373.37 47.8868 1375.02 47.773L1371.76 49.1556Z" fill="#DB9494"/>
<path d="M1368.44 48.8143C1366.81 50.1367 1365.4 51.2294 1364.01 52.0957C1363.71 51.9685 1363.38 51.8137 1363.08 51.6428C1364.52 50.7942 1366.29 49.8691 1368.44 48.8143Z" fill="#DB9494"/>
<path d="M1368.44 48.8143C1366.76 47.8325 1366.84 48.1206 1365.55 47.131C1366.3 47.624 1365.57 46.8621 1366.39 47.4194C1367.04 47.8695 1367.73 48.3366 1368.44 48.8143Z" fill="#DB9494"/>
<path d="M1369.6 50.5224C1369.25 49.9793 1368.87 49.4114 1368.44 48.8143C1368.88 49.426 1368.39 48.8101 1368.81 49.3394L1369.6 50.5224Z" fill="#DB9494"/>
<path d="M1369.12 46.9455C1368.78 47.9118 1368.88 47.7824 1368.44 48.8143L1368.46 48.781C1368.85 47.7429 1368.74 47.8789 1369.12 46.9455Z" fill="#DB9494"/>
<path d="M1369.75 31.0008C1364.42 29.3775 1361.64 29.7467 1356.95 31.9769C1358.18 31.4499 1360.95 31.2403 1369.75 31.0008Z" fill="#FFCCCC"/>
<path fill-rule="evenodd" clip-rule="evenodd" d="M1369.73 45.4901C1371.21 41.1451 1371.55 37.1332 1369.75 31.0008C1360.95 31.2403 1358.18 31.4499 1356.95 31.9769C1357.34 38.4348 1359.38 42.1705 1363.37 45.4101C1359.31 42.849 1355.74 41.5347 1349.9 43.4459C1346.77 49.2205 1347.72 51.3552 1351.2 54.4268C1354.78 54.7549 1357.39 54.6285 1359.62 54.0376C1357.08 56.2598 1356.78 58.2837 1356.95 61.5033C1359.31 69.2993 1362.21 69.1481 1368.44 65.8957C1372.51 59.6643 1373.52 56.6862 1369.6 50.5224L1369.2 49.9309L1367.57 50.5224C1366.9 51.2089 1365.42 52.5507 1364.93 52.4261C1364.74 52.379 1364.4 52.2605 1364.01 52.0957C1363.71 51.9685 1363.38 51.8137 1363.08 51.6428C1362.48 51.3032 1361.98 50.8998 1361.98 50.5224C1361.98 48.9311 1363.12 47.5682 1364.68 47.2867L1365.55 47.131C1365.55 45.9932 1366.83 45.3286 1367.76 45.9851L1369.12 46.9455H1369.2L1371.06 46.4575C1372.52 46.0721 1374.08 46.588 1375.02 47.773L1371.76 49.1556L1369.9 49.6228L1368.81 49.3394C1372.38 53.8581 1376.35 56.8045 1382.55 60.0392C1382.78 60.0416 1383 60.0448 1383.22 60.0479L1383.22 60.048L1383.22 60.048L1383.22 60.048L1383.22 60.048L1383.22 60.048L1383.22 60.048C1387.92 60.1161 1389.9 60.1447 1385.16 50.5224C1383.64 49.6156 1382.28 48.972 1381.01 48.5331C1383.42 47.6772 1385.69 46.2903 1388.3 44.4219C1389.39 40.0972 1389.72 37.4873 1385.43 36.128C1382.65 35.7032 1381.22 35.7783 1378.75 36.2847C1373.53 38.203 1371.48 41.2987 1369.73 45.4901Z" fill="#F5B1B1"/>
<path d="M1381.77 35.3932C1383.25 35.578 1384.46 35.8211 1385.43 36.128C1382.65 35.7032 1381.22 35.7783 1378.75 36.2847C1379.65 35.952 1380.66 35.6547 1381.77 35.3932Z" fill="#FFCCCC"/>
<path d="M1154.95 95.735L1154.93 95.7754C1154.06 95.1971 1153.22 94.6316 1152.42 94.0868C1151.43 93.4121 1152.32 94.3345 1151.4 93.7377C1151.4 92.3571 1152.96 91.5485 1154.09 92.3412L1155.76 93.5131C1155.29 94.643 1155.42 94.4784 1154.95 95.735Z" fill="#DB9494"/>
<path d="M1149.52 99.7475C1151.22 98.6989 1152.94 97.3762 1154.93 95.7754C1155.45 96.4981 1155.92 97.1856 1156.34 97.8431L1155.86 97.1271L1153.86 97.8431C1153.04 98.6741 1151.25 100.298 1150.64 100.148C1150.41 100.09 1149.99 99.9471 1149.52 99.7475Z" fill="#DB9494"/>
<path d="M1155.38 96.411C1154.87 95.7703 1155.47 96.5159 1154.93 95.7754C1157.52 96.2899 1156.91 96.1215 1158.98 96.1885L1156.7 96.7541L1155.38 96.411Z" fill="#DB9494"/>
<path d="M1151.4 93.7377C1152.98 94.9356 1152.88 94.5869 1154.93 95.7754C1152.3 97.0522 1150.15 98.1721 1148.39 99.1994C1147.66 98.7883 1147.05 98.2999 1147.05 97.8431C1147.05 95.9173 1148.43 94.2685 1150.32 93.9303L1151.4 93.7377Z" fill="#DB9494"/>
<path d="M1154.93 95.7754C1155.46 94.5262 1155.34 94.6829 1155.76 93.5131H1155.86L1158.13 92.9193C1159.91 92.4542 1161.8 93.079 1162.95 94.5149C1160.94 94.6526 1158.86 95.0426 1156.46 95.4904L1156.46 95.4905L1156.46 95.4907C1155.97 95.5837 1155.46 95.6791 1154.93 95.7754Z" fill="#DB9494"/>
<path d="M1158.98 96.1885C1156.91 96.1215 1157.52 96.2899 1154.93 95.7754C1155.46 95.6791 1155.97 95.5837 1156.46 95.4907L1156.46 95.4905L1156.46 95.4904C1158.86 95.0426 1160.94 94.6526 1162.95 94.5149L1158.98 96.1885Z" fill="#DB9494"/>
<path d="M1154.93 95.7754C1152.94 97.3762 1151.22 98.6989 1149.52 99.7475C1149.15 99.5936 1148.76 99.4063 1148.39 99.1994C1150.15 98.1721 1152.3 97.0522 1154.93 95.7754Z" fill="#DB9494"/>
<path d="M1154.93 95.7754C1152.88 94.5869 1152.98 94.9356 1151.4 93.7377C1152.32 94.3345 1151.43 93.4121 1152.42 94.0868C1153.22 94.6316 1154.06 95.1971 1154.93 95.7754Z" fill="#DB9494"/>
<path d="M1156.34 97.8431C1155.92 97.1856 1155.45 96.4981 1154.93 95.7754C1155.47 96.5159 1154.87 95.7703 1155.38 96.411L1156.34 97.8431Z" fill="#DB9494"/>
<path d="M1155.76 93.5131C1155.34 94.6829 1155.46 94.5262 1154.93 95.7754L1154.95 95.735C1155.42 94.4784 1155.29 94.643 1155.76 93.5131Z" fill="#DB9494"/>
<path d="M1156.52 74.2117C1150.03 72.2466 1146.64 72.6936 1140.91 75.3933C1142.41 74.7552 1145.79 74.5016 1156.52 74.2117Z" fill="#FFCCCC"/>
<path fill-rule="evenodd" clip-rule="evenodd" d="M1156.5 91.7513C1158.31 86.4916 1158.72 81.6351 1156.52 74.2117C1145.79 74.5016 1142.41 74.7552 1140.91 75.3933C1141.39 83.2107 1143.88 87.7328 1148.75 91.6544C1143.8 88.5542 1139.43 86.9632 1132.31 89.2767C1128.5 96.2671 1129.66 98.8511 1133.9 102.569C1138.26 102.967 1141.45 102.814 1144.18 102.098C1141.07 104.788 1140.7 107.238 1140.91 111.136C1143.8 120.573 1147.33 120.39 1154.93 116.453C1159.9 108.91 1161.13 105.304 1156.34 97.8431L1155.86 97.1271L1153.86 97.8431C1153.04 98.6741 1151.25 100.298 1150.64 100.148C1150.41 100.09 1149.99 99.9471 1149.52 99.7475C1149.15 99.5936 1148.76 99.4063 1148.39 99.1994C1147.66 98.7883 1147.05 98.2999 1147.05 97.8431C1147.05 95.9173 1148.43 94.2685 1150.32 93.9303L1151.4 93.7377C1151.4 92.3571 1152.96 91.5485 1154.09 92.3412L1155.76 93.5131H1155.86L1158.13 92.9193C1159.91 92.4542 1161.8 93.079 1162.95 94.5149L1158.98 96.1885L1156.7 96.7541L1155.38 96.411C1159.74 101.881 1164.57 105.448 1172.13 109.363C1172.41 109.366 1172.68 109.37 1172.95 109.374L1172.95 109.374L1172.95 109.374L1172.95 109.374L1172.95 109.374L1172.95 109.374L1172.95 109.374C1178.69 109.456 1181.1 109.491 1175.32 97.8431C1173.47 96.7454 1171.81 95.9663 1170.25 95.4349C1173.2 94.3988 1175.96 92.72 1179.14 90.4583C1180.47 85.223 1180.88 82.0637 1175.64 80.4182C1172.25 79.904 1170.51 79.995 1167.5 80.6079C1161.14 82.9301 1158.64 86.6775 1156.5 91.7513Z" fill="#F5B1B1"/>
<path d="M1171.18 79.5288C1172.99 79.7524 1174.46 80.0467 1175.64 80.4182C1172.25 79.904 1170.51 79.995 1167.5 80.6079C1168.6 80.2052 1169.82 79.8453 1171.18 79.5288Z" fill="#FFCCCC"/>
<path d="M1253.53 17.356L1253.54 17.3779C1254.01 17.0636 1254.46 16.7563 1254.89 16.4602C1255.43 16.0935 1254.95 16.5948 1255.44 16.2705C1255.44 15.5217 1254.6 15.0841 1253.99 15.5159L1253.09 16.1484C1253.34 16.7625 1253.27 16.6731 1253.53 17.356Z" fill="#FCC16D"/>
<path d="M1256.46 19.5367C1255.54 18.9668 1254.61 18.2479 1253.54 17.3779C1253.26 17.7707 1253.01 18.1443 1252.78 18.5017L1253.04 18.1125L1254.11 18.5017C1254.56 18.9533 1255.53 19.8361 1255.85 19.7541C1255.98 19.7231 1256.2 19.6452 1256.46 19.5367Z" fill="#FCC16D"/>
<path d="M1253.3 17.7234C1253.57 17.3752 1253.25 17.7804 1253.54 17.3779C1252.14 17.6575 1252.47 17.5661 1251.35 17.6025L1252.58 17.9098L1253.3 17.7234Z" fill="#FCC16D"/>
<path d="M1255.44 16.2705C1254.59 16.9215 1254.64 16.732 1253.54 17.3779C1254.96 18.0719 1256.12 18.6805 1257.07 19.2388C1257.47 19.0154 1257.8 18.75 1257.8 18.5017C1257.8 17.4548 1257.05 16.5582 1256.02 16.3732L1255.44 16.2705Z" fill="#FCC16D"/>
<path d="M1253.54 17.3779C1253.25 16.699 1253.32 16.7842 1253.09 16.1484H1253.04L1251.81 15.8272C1250.85 15.5737 1249.83 15.9132 1249.2 16.6929C1250.29 16.7677 1251.42 16.9797 1252.71 17.2231C1252.98 17.2736 1253.25 17.3256 1253.54 17.3779Z" fill="#FCC16D"/>
<path d="M1251.35 17.6025C1252.47 17.5661 1252.14 17.6575 1253.54 17.3779C1253.25 17.3256 1252.98 17.2736 1252.71 17.2231C1251.42 16.9797 1250.29 16.7677 1249.2 16.6929L1251.35 17.6025Z" fill="#FCC16D"/>
<path d="M1253.54 17.3779C1254.61 18.2479 1255.54 18.9668 1256.46 19.5367C1256.66 19.453 1256.87 19.3512 1257.07 19.2388C1256.12 18.6805 1254.96 18.0719 1253.54 17.3779Z" fill="#FCC16D"/>
<path d="M1253.54 17.3779C1254.64 16.732 1254.59 16.9215 1255.44 16.2705C1254.95 16.5948 1255.43 16.0935 1254.89 16.4602C1254.46 16.7563 1254.01 17.0636 1253.54 17.3779Z" fill="#FCC16D"/>
<path d="M1252.78 18.5017C1253.01 18.1443 1253.26 17.7707 1253.54 17.3779C1253.25 17.7804 1253.57 17.3752 1253.3 17.7234L1252.78 18.5017Z" fill="#FCC16D"/>
<path d="M1253.09 16.1484C1253.32 16.7842 1253.25 16.699 1253.54 17.3779L1253.53 17.356C1253.27 16.6731 1253.34 16.7625 1253.09 16.1484Z" fill="#FCC16D"/>
<path d="M1252.68 5.65853C1256.18 4.59056 1258.02 4.83346 1261.11 6.30068C1260.3 5.95394 1258.47 5.81609 1252.68 5.65853Z" fill="#FCC16D"/>
<path fill-rule="evenodd" clip-rule="evenodd" d="M1252.69 15.1909C1251.71 12.3324 1251.49 9.69296 1252.68 5.65853C1258.47 5.81609 1260.3 5.95394 1261.11 6.30068C1260.85 10.5493 1259.5 13.007 1256.88 15.1383C1259.55 13.4534 1261.91 12.5887 1265.75 13.846C1267.81 17.6451 1267.19 19.0495 1264.89 21.0703C1262.54 21.2862 1260.82 21.203 1259.34 20.8143C1261.02 22.2763 1261.22 23.6078 1261.11 25.726C1259.55 30.8549 1257.64 30.7554 1253.54 28.6157C1250.86 24.5161 1250.19 22.5568 1252.78 18.5017L1253.04 18.1125L1254.11 18.5017C1254.56 18.9533 1255.53 19.8361 1255.85 19.7541C1255.98 19.7231 1256.2 19.6452 1256.46 19.5367C1256.66 19.453 1256.87 19.3512 1257.07 19.2388C1257.47 19.0154 1257.8 18.75 1257.8 18.5017C1257.8 17.4548 1257.05 16.5582 1256.02 16.3732L1255.44 16.2705C1255.44 15.5217 1254.6 15.0841 1253.99 15.5159L1253.09 16.1484H1253.04L1251.81 15.8272C1250.85 15.5737 1249.83 15.9132 1249.2 16.6929L1251.35 17.6025L1252.58 17.9098L1253.3 17.7234C1250.94 20.6962 1248.33 22.6346 1244.25 24.7627C1244.1 24.7643 1243.95 24.7664 1243.81 24.7685L1243.81 24.7685C1240.71 24.8133 1239.41 24.8321 1242.53 18.5017C1243.53 17.9051 1244.42 17.4817 1245.26 17.1929C1243.67 16.6298 1242.18 15.7174 1240.46 14.4882C1239.75 11.6429 1239.52 9.92595 1242.35 9.03165C1244.18 8.7522 1245.13 8.80162 1246.75 9.13475C1250.19 10.3968 1251.54 12.4334 1252.69 15.1909Z" fill="#FCC16D"/>
<path d="M1244.76 8.54824C1243.79 8.66979 1242.99 8.82976 1242.35 9.03165C1244.18 8.7522 1245.13 8.80162 1246.75 9.13475C1246.15 8.91584 1245.5 8.72025 1244.76 8.54824Z" fill="#FCC16D"/>
<path d="M1253.54 17.3779C1253.25 16.699 1253.32 16.7842 1253.09 16.1484M1253.54 17.3779C1254.64 16.732 1254.59 16.9215 1255.44 16.2705M1253.54 17.3779C1254.61 18.2479 1255.54 18.9668 1256.46 19.5367M1253.54 17.3779C1254.96 18.0719 1256.12 18.6805 1257.07 19.2388M1253.54 17.3779C1253.26 17.7707 1253.01 18.1443 1252.78 18.5017M1253.54 17.3779C1253.25 17.7804 1253.57 17.3752 1253.3 17.7234M1253.54 17.3779L1253.53 17.356C1253.27 16.6731 1253.34 16.7625 1253.09 16.1484M1253.54 17.3779C1252.14 17.6575 1252.47 17.5661 1251.35 17.6025M1253.54 17.3779C1254.01 17.0636 1254.46 16.7563 1254.89 16.4602C1255.43 16.0935 1254.95 16.5948 1255.44 16.2705M1253.54 17.3779C1253.25 17.3256 1252.98 17.2736 1252.71 17.2231C1251.42 16.9797 1250.29 16.7677 1249.2 16.6929M1253.09 16.1484C1253.36 16.8821 1252.71 15.2654 1252.69 15.1909M1253.09 16.1484C1253.06 16.0748 1252.72 15.2635 1252.69 15.1909M1253.09 16.1484H1253.04L1251.81 15.8272C1250.85 15.5737 1249.83 15.9132 1249.2 16.6929M1253.09 16.1484L1253.99 15.5159C1254.6 15.0841 1255.44 15.5217 1255.44 16.2705M1252.69 15.1909C1251.71 12.3324 1251.49 9.69296 1252.68 5.65853M1252.69 15.1909C1251.54 12.4334 1250.19 10.3968 1246.75 9.13475M1252.68 5.65853C1256.18 4.59056 1258.02 4.83346 1261.11 6.30068M1252.68 5.65853C1258.47 5.81609 1260.3 5.95394 1261.11 6.30068M1261.11 6.30068C1260.85 10.5493 1259.5 13.007 1256.88 15.1383M1256.88 15.1383C1256.74 15.2443 1255.58 16.1659 1255.44 16.2705M1256.88 15.1383C1256.73 15.2297 1255.59 16.1744 1255.44 16.2705M1256.88 15.1383C1259.55 13.4534 1261.91 12.5887 1265.75 13.846C1267.81 17.6451 1267.19 19.0495 1264.89 21.0703C1262.54 21.2862 1260.82 21.203 1259.34 20.8143M1255.44 16.2705L1256.02 16.3732C1257.05 16.5582 1257.8 17.4548 1257.8 18.5017C1257.8 18.75 1257.47 19.0154 1257.07 19.2388M1259.34 20.8143C1258.31 20.5406 1257.39 20.1155 1256.46 19.5367M1259.34 20.8143C1258.77 20.3164 1258.03 19.8033 1257.07 19.2388M1259.34 20.8143C1261.02 22.2763 1261.22 23.6078 1261.11 25.726C1259.55 30.8549 1257.64 30.7554 1253.54 28.6157C1250.86 24.5161 1250.19 22.5568 1252.78 18.5017M1256.46 19.5367C1256.66 19.453 1256.87 19.3512 1257.07 19.2388M1256.46 19.5367C1256.2 19.6452 1255.98 19.7231 1255.85 19.7541C1255.53 19.8361 1254.56 18.9533 1254.11 18.5017L1253.04 18.1125L1252.78 18.5017M1252.78 18.5017L1253.3 17.7234M1253.3 17.7234C1250.94 20.6962 1248.33 22.6346 1244.25 24.7627C1244.1 24.7643 1243.95 24.7664 1243.81 24.7685L1243.81 24.7685C1240.71 24.8133 1239.41 24.8321 1242.53 18.5017C1243.53 17.9051 1244.42 17.4817 1245.26 17.1929M1253.3 17.7234L1252.58 17.9098L1251.35 17.6025M1245.26 17.1929C1243.67 16.6298 1242.18 15.7174 1240.46 14.4882C1239.75 11.6429 1239.52 9.92595 1242.35 9.03165M1245.26 17.1929C1246.63 17.6795 1249.64 17.6585 1251.35 17.6025M1245.26 17.1929C1246.66 16.7099 1247.91 16.6034 1249.2 16.6929M1251.35 17.6025L1249.2 16.6929M1242.35 9.03165C1242.99 8.82976 1243.79 8.66979 1244.76 8.54824C1245.5 8.72025 1246.15 8.91584 1246.75 9.13475M1242.35 9.03165C1244.18 8.7522 1245.13 8.80162 1246.75 9.13475" stroke="url(#paint1_radial_1016_321)" stroke-width="0.2"/>
<path d="M1009.47 50.356L1009.46 50.3779C1008.99 50.0636 1008.54 49.7563 1008.11 49.4602C1007.57 49.0935 1008.05 49.5948 1007.56 49.2705C1007.56 48.5217 1008.4 48.0841 1009.01 48.5159L1009.91 49.1484C1009.66 49.7625 1009.73 49.6731 1009.47 50.356Z" fill="#FCC16D"/>
<path d="M1006.54 52.5367C1007.46 51.9668 1008.39 51.2479 1009.46 50.3779C1009.74 50.7707 1009.99 51.1443 1010.22 51.5017L1009.96 51.1125L1008.89 51.5017C1008.44 51.9533 1007.47 52.8361 1007.15 52.7541C1007.02 52.7231 1006.8 52.6452 1006.54 52.5367Z" fill="#FCC16D"/>
<path d="M1009.7 50.7234C1009.43 50.3752 1009.75 50.7804 1009.46 50.3779C1010.86 50.6575 1010.53 50.5661 1011.65 50.6025L1010.42 50.9098L1009.7 50.7234Z" fill="#FCC16D"/>
<path d="M1007.56 49.2705C1008.41 49.9215 1008.36 49.732 1009.46 50.3779C1008.04 51.0719 1006.88 51.6805 1005.93 52.2388C1005.53 52.0154 1005.2 51.75 1005.2 51.5017C1005.2 50.4548 1005.95 49.5582 1006.98 49.3732L1007.56 49.2705Z" fill="#FCC16D"/>
<path d="M1009.46 50.3779C1009.75 49.699 1009.68 49.7842 1009.91 49.1484H1009.96L1011.19 48.8272C1012.15 48.5737 1013.17 48.9132 1013.8 49.6929C1012.71 49.7677 1011.58 49.9797 1010.29 50.2231C1010.02 50.2736 1009.75 50.3256 1009.46 50.3779Z" fill="#FCC16D"/>
<path d="M1011.65 50.6025C1010.53 50.5661 1010.86 50.6575 1009.46 50.3779C1009.75 50.3256 1010.02 50.2736 1010.29 50.2231C1011.58 49.9797 1012.71 49.7677 1013.8 49.6929L1011.65 50.6025Z" fill="#FCC16D"/>
<path d="M1009.46 50.3779C1008.39 51.2479 1007.46 51.9668 1006.54 52.5367C1006.34 52.453 1006.13 52.3512 1005.93 52.2388C1006.88 51.6805 1008.04 51.0719 1009.46 50.3779Z" fill="#FCC16D"/>
<path d="M1009.46 50.3779C1008.36 49.732 1008.41 49.9215 1007.56 49.2705C1008.05 49.5948 1007.57 49.0935 1008.11 49.4602C1008.54 49.7563 1008.99 50.0636 1009.46 50.3779Z" fill="#FCC16D"/>
<path d="M1010.22 51.5017C1009.99 51.1443 1009.74 50.7707 1009.46 50.3779C1009.75 50.7804 1009.43 50.3752 1009.7 50.7234L1010.22 51.5017Z" fill="#FCC16D"/>
<path d="M1009.91 49.1484C1009.68 49.7842 1009.75 49.699 1009.46 50.3779L1009.47 50.356C1009.73 49.6731 1009.66 49.7625 1009.91 49.1484Z" fill="#FCC16D"/>
<path d="M1010.32 38.6585C1006.82 37.5906 1004.98 37.8335 1001.89 39.3007C1002.7 38.9539 1004.53 38.8161 1010.32 38.6585Z" fill="#FCC16D"/>
<path fill-rule="evenodd" clip-rule="evenodd" d="M1010.31 48.1909C1011.29 45.3324 1011.51 42.693 1010.32 38.6585C1004.53 38.8161 1002.7 38.9539 1001.89 39.3007C1002.15 43.5493 1003.5 46.007 1006.12 48.1383C1003.45 46.4534 1001.09 45.5887 997.248 46.846C995.192 50.6451 995.814 52.0495 998.108 54.0703C1000.46 54.2862 1002.18 54.203 1003.66 53.8143C1001.98 55.2763 1001.78 56.6078 1001.89 58.726C1003.45 63.8549 1005.36 63.7554 1009.46 61.6157C1012.14 57.5161 1012.81 55.5568 1010.22 51.5017L1009.96 51.1125L1008.89 51.5017C1008.44 51.9533 1007.47 52.8361 1007.15 52.7541C1007.02 52.7231 1006.8 52.6452 1006.54 52.5367C1006.34 52.453 1006.13 52.3512 1005.93 52.2388C1005.53 52.0154 1005.2 51.75 1005.2 51.5017C1005.2 50.4548 1005.95 49.5582 1006.98 49.3732L1007.56 49.2705C1007.56 48.5217 1008.4 48.0841 1009.01 48.5159L1009.91 49.1484H1009.96L1011.19 48.8272C1012.15 48.5737 1013.17 48.9132 1013.8 49.6929L1011.65 50.6025L1010.42 50.9098L1009.7 50.7234C1012.06 53.6962 1014.67 55.6346 1018.75 57.7627C1018.9 57.7643 1019.05 57.7664 1019.19 57.7685L1019.19 57.7685C1022.29 57.8133 1023.59 57.8321 1020.47 51.5017C1019.47 50.9051 1018.58 50.4817 1017.74 50.1929C1019.33 49.6298 1020.82 48.7174 1022.54 47.4882C1023.25 44.6429 1023.48 42.926 1020.65 42.0317C1018.82 41.7522 1017.87 41.8016 1016.25 42.1347C1012.81 43.3968 1011.46 45.4334 1010.31 48.1909Z" fill="#FCC16D"/>
<path d="M1018.24 41.5482C1019.21 41.6698 1020.01 41.8298 1020.65 42.0317C1018.82 41.7522 1017.87 41.8016 1016.25 42.1347C1016.85 41.9158 1017.5 41.7202 1018.24 41.5482Z" fill="#FCC16D"/>
<path d="M1009.46 50.3779C1009.75 49.699 1009.68 49.7842 1009.91 49.1484M1009.46 50.3779C1008.36 49.732 1008.41 49.9215 1007.56 49.2705M1009.46 50.3779C1008.39 51.2479 1007.46 51.9668 1006.54 52.5367M1009.46 50.3779C1008.04 51.0719 1006.88 51.6805 1005.93 52.2388M1009.46 50.3779C1009.74 50.7707 1009.99 51.1443 1010.22 51.5017M1009.46 50.3779C1009.75 50.7804 1009.43 50.3752 1009.7 50.7234M1009.46 50.3779L1009.47 50.356C1009.73 49.6731 1009.66 49.7625 1009.91 49.1484M1009.46 50.3779C1010.86 50.6575 1010.53 50.5661 1011.65 50.6025M1009.46 50.3779C1008.99 50.0636 1008.54 49.7563 1008.11 49.4602C1007.57 49.0935 1008.05 49.5948 1007.56 49.2705M1009.46 50.3779C1009.75 50.3256 1010.02 50.2736 1010.29 50.2231C1011.58 49.9797 1012.71 49.7677 1013.8 49.6929M1009.91 49.1484C1009.64 49.8821 1010.29 48.2654 1010.31 48.1909M1009.91 49.1484C1009.94 49.0748 1010.28 48.2635 1010.31 48.1909M1009.91 49.1484H1009.96L1011.19 48.8272C1012.15 48.5737 1013.17 48.9132 1013.8 49.6929M1009.91 49.1484L1009.01 48.5159C1008.4 48.0841 1007.56 48.5217 1007.56 49.2705M1010.31 48.1909C1011.29 45.3324 1011.51 42.693 1010.32 38.6585M1010.31 48.1909C1011.46 45.4334 1012.81 43.3968 1016.25 42.1347M1010.32 38.6585C1006.82 37.5906 1004.98 37.8335 1001.89 39.3007M1010.32 38.6585C1004.53 38.8161 1002.7 38.9539 1001.89 39.3007M1001.89 39.3007C1002.15 43.5493 1003.5 46.007 1006.12 48.1383M1006.12 48.1383C1006.26 48.2443 1007.42 49.1659 1007.56 49.2705M1006.12 48.1383C1006.27 48.2297 1007.41 49.1744 1007.56 49.2705M1006.12 48.1383C1003.45 46.4534 1001.09 45.5887 997.248 46.846C995.192 50.6451 995.814 52.0495 998.108 54.0703C1000.46 54.2862 1002.18 54.203 1003.66 53.8143M1007.56 49.2705L1006.98 49.3732C1005.95 49.5582 1005.2 50.4548 1005.2 51.5017C1005.2 51.75 1005.53 52.0154 1005.93 52.2388M1003.66 53.8143C1004.69 53.5406 1005.61 53.1155 1006.54 52.5367M1003.66 53.8143C1004.23 53.3164 1004.97 52.8033 1005.93 52.2388M1003.66 53.8143C1001.98 55.2763 1001.78 56.6078 1001.89 58.726C1003.45 63.8549 1005.36 63.7554 1009.46 61.6157C1012.14 57.5161 1012.81 55.5568 1010.22 51.5017M1006.54 52.5367C1006.34 52.453 1006.13 52.3512 1005.93 52.2388M1006.54 52.5367C1006.8 52.6452 1007.02 52.7231 1007.15 52.7541C1007.47 52.8361 1008.44 51.9533 1008.89 51.5017L1009.96 51.1125L1010.22 51.5017M1010.22 51.5017L1009.7 50.7234M1009.7 50.7234C1012.06 53.6962 1014.67 55.6346 1018.75 57.7627C1018.9 57.7643 1019.05 57.7664 1019.19 57.7685L1019.19 57.7685C1022.29 57.8133 1023.59 57.8321 1020.47 51.5017C1019.47 50.9051 1018.58 50.4817 1017.74 50.1929M1009.7 50.7234L1010.42 50.9098L1011.65 50.6025M1017.74 50.1929C1019.33 49.6298 1020.82 48.7174 1022.54 47.4882C1023.25 44.6429 1023.48 42.926 1020.65 42.0317M1017.74 50.1929C1016.37 50.6795 1013.36 50.6585 1011.65 50.6025M1017.74 50.1929C1016.34 49.7099 1015.09 49.6034 1013.8 49.6929M1011.65 50.6025L1013.8 49.6929M1020.65 42.0317C1020.01 41.8298 1019.21 41.6698 1018.24 41.5482C1017.5 41.7202 1016.85 41.9158 1016.25 42.1347M1020.65 42.0317C1018.82 41.7522 1017.87 41.8016 1016.25 42.1347" stroke="url(#paint2_radial_1016_321)" stroke-width="0.2"/>
<path d="M1009.47 50.356L1009.46 50.3779C1008.99 50.0636 1008.54 49.7563 1008.11 49.4602C1007.57 49.0935 1008.05 49.5948 1007.56 49.2705C1007.56 48.5217 1008.4 48.0841 1009.01 48.5159L1009.91 49.1484C1009.66 49.7625 1009.73 49.6731 1009.47 50.356Z" fill="#FCC16D"/>
<path d="M1006.54 52.5367C1007.46 51.9668 1008.39 51.2479 1009.46 50.3779C1009.74 50.7707 1009.99 51.1443 1010.22 51.5017L1009.96 51.1125L1008.89 51.5017C1008.44 51.9533 1007.47 52.8361 1007.15 52.7541C1007.02 52.7231 1006.8 52.6452 1006.54 52.5367Z" fill="#FCC16D"/>
<path d="M1009.7 50.7234C1009.43 50.3752 1009.75 50.7804 1009.46 50.3779C1010.86 50.6575 1010.53 50.5661 1011.65 50.6025L1010.42 50.9098L1009.7 50.7234Z" fill="#FCC16D"/>
<path d="M1007.56 49.2705C1008.41 49.9215 1008.36 49.732 1009.46 50.3779C1008.04 51.0719 1006.88 51.6805 1005.93 52.2388C1005.53 52.0154 1005.2 51.75 1005.2 51.5017C1005.2 50.4548 1005.95 49.5582 1006.98 49.3732L1007.56 49.2705Z" fill="#FCC16D"/>
<path d="M1009.46 50.3779C1009.75 49.699 1009.68 49.7842 1009.91 49.1484H1009.96L1011.19 48.8272C1012.15 48.5737 1013.17 48.9132 1013.8 49.6929C1012.71 49.7677 1011.58 49.9797 1010.29 50.2231C1010.02 50.2736 1009.75 50.3256 1009.46 50.3779Z" fill="#FCC16D"/>
<path d="M1011.65 50.6025C1010.53 50.5661 1010.86 50.6575 1009.46 50.3779C1009.75 50.3256 1010.02 50.2736 1010.29 50.2231C1011.58 49.9797 1012.71 49.7677 1013.8 49.6929L1011.65 50.6025Z" fill="#FCC16D"/>
<path d="M1009.46 50.3779C1008.39 51.2479 1007.46 51.9668 1006.54 52.5367C1006.34 52.453 1006.13 52.3512 1005.93 52.2388C1006.88 51.6805 1008.04 51.0719 1009.46 50.3779Z" fill="#FCC16D"/>
<path d="M1009.46 50.3779C1008.36 49.732 1008.41 49.9215 1007.56 49.2705C1008.05 49.5948 1007.57 49.0935 1008.11 49.4602C1008.54 49.7563 1008.99 50.0636 1009.46 50.3779Z" fill="#FCC16D"/>
<path d="M1010.22 51.5017C1009.99 51.1443 1009.74 50.7707 1009.46 50.3779C1009.75 50.7804 1009.43 50.3752 1009.7 50.7234L1010.22 51.5017Z" fill="#FCC16D"/>
<path d="M1009.91 49.1484C1009.68 49.7842 1009.75 49.699 1009.46 50.3779L1009.47 50.356C1009.73 49.6731 1009.66 49.7625 1009.91 49.1484Z" fill="#FCC16D"/>
<path d="M1010.32 38.6585C1006.82 37.5906 1004.98 37.8335 1001.89 39.3007C1002.7 38.9539 1004.53 38.8161 1010.32 38.6585Z" fill="#FCC16D"/>
<path fill-rule="evenodd" clip-rule="evenodd" d="M1010.31 48.1909C1011.29 45.3324 1011.51 42.693 1010.32 38.6585C1004.53 38.8161 1002.7 38.9539 1001.89 39.3007C1002.15 43.5493 1003.5 46.007 1006.12 48.1383C1003.45 46.4534 1001.09 45.5887 997.248 46.846C995.192 50.6451 995.814 52.0495 998.108 54.0703C1000.46 54.2862 1002.18 54.203 1003.66 53.8143C1001.98 55.2763 1001.78 56.6078 1001.89 58.726C1003.45 63.8549 1005.36 63.7554 1009.46 61.6157C1012.14 57.5161 1012.81 55.5568 1010.22 51.5017L1009.96 51.1125L1008.89 51.5017C1008.44 51.9533 1007.47 52.8361 1007.15 52.7541C1007.02 52.7231 1006.8 52.6452 1006.54 52.5367C1006.34 52.453 1006.13 52.3512 1005.93 52.2388C1005.53 52.0154 1005.2 51.75 1005.2 51.5017C1005.2 50.4548 1005.95 49.5582 1006.98 49.3732L1007.56 49.2705C1007.56 48.5217 1008.4 48.0841 1009.01 48.5159L1009.91 49.1484H1009.96L1011.19 48.8272C1012.15 48.5737 1013.17 48.9132 1013.8 49.6929L1011.65 50.6025L1010.42 50.9098L1009.7 50.7234C1012.06 53.6962 1014.67 55.6346 1018.75 57.7627C1018.9 57.7643 1019.05 57.7664 1019.19 57.7685L1019.19 57.7685C1022.29 57.8133 1023.59 57.8321 1020.47 51.5017C1019.47 50.9051 1018.58 50.4817 1017.74 50.1929C1019.33 49.6298 1020.82 48.7174 1022.54 47.4882C1023.25 44.6429 1023.48 42.926 1020.65 42.0317C1018.82 41.7522 1017.87 41.8016 1016.25 42.1347C1012.81 43.3968 1011.46 45.4334 1010.31 48.1909Z" fill="#FCC16D"/>
<path d="M1018.24 41.5482C1019.21 41.6698 1020.01 41.8298 1020.65 42.0317C1018.82 41.7522 1017.87 41.8016 1016.25 42.1347C1016.85 41.9158 1017.5 41.7202 1018.24 41.5482Z" fill="#FCC16D"/>
<path d="M1009.46 50.3779C1009.75 49.699 1009.68 49.7842 1009.91 49.1484M1009.46 50.3779C1008.36 49.732 1008.41 49.9215 1007.56 49.2705M1009.46 50.3779C1008.39 51.2479 1007.46 51.9668 1006.54 52.5367M1009.46 50.3779C1008.04 51.0719 1006.88 51.6805 1005.93 52.2388M1009.46 50.3779C1009.74 50.7707 1009.99 51.1443 1010.22 51.5017M1009.46 50.3779C1009.75 50.7804 1009.43 50.3752 1009.7 50.7234M1009.46 50.3779L1009.47 50.356C1009.73 49.6731 1009.66 49.7625 1009.91 49.1484M1009.46 50.3779C1010.86 50.6575 1010.53 50.5661 1011.65 50.6025M1009.46 50.3779C1008.99 50.0636 1008.54 49.7563 1008.11 49.4602C1007.57 49.0935 1008.05 49.5948 1007.56 49.2705M1009.46 50.3779C1009.75 50.3256 1010.02 50.2736 1010.29 50.2231C1011.58 49.9797 1012.71 49.7677 1013.8 49.6929M1009.91 49.1484C1009.64 49.8821 1010.29 48.2654 1010.31 48.1909M1009.91 49.1484C1009.94 49.0748 1010.28 48.2635 1010.31 48.1909M1009.91 49.1484H1009.96L1011.19 48.8272C1012.15 48.5737 1013.17 48.9132 1013.8 49.6929M1009.91 49.1484L1009.01 48.5159C1008.4 48.0841 1007.56 48.5217 1007.56 49.2705M1010.31 48.1909C1011.29 45.3324 1011.51 42.693 1010.32 38.6585M1010.31 48.1909C1011.46 45.4334 1012.81 43.3968 1016.25 42.1347M1010.32 38.6585C1006.82 37.5906 1004.98 37.8335 1001.89 39.3007M1010.32 38.6585C1004.53 38.8161 1002.7 38.9539 1001.89 39.3007M1001.89 39.3007C1002.15 43.5493 1003.5 46.007 1006.12 48.1383M1006.12 48.1383C1006.26 48.2443 1007.42 49.1659 1007.56 49.2705M1006.12 48.1383C1006.27 48.2297 1007.41 49.1744 1007.56 49.2705M1006.12 48.1383C1003.45 46.4534 1001.09 45.5887 997.248 46.846C995.192 50.6451 995.814 52.0495 998.108 54.0703C1000.46 54.2862 1002.18 54.203 1003.66 53.8143M1007.56 49.2705L1006.98 49.3732C1005.95 49.5582 1005.2 50.4548 1005.2 51.5017C1005.2 51.75 1005.53 52.0154 1005.93 52.2388M1003.66 53.8143C1004.69 53.5406 1005.61 53.1155 1006.54 52.5367M1003.66 53.8143C1004.23 53.3164 1004.97 52.8033 1005.93 52.2388M1003.66 53.8143C1001.98 55.2763 1001.78 56.6078 1001.89 58.726C1003.45 63.8549 1005.36 63.7554 1009.46 61.6157C1012.14 57.5161 1012.81 55.5568 1010.22 51.5017M1006.54 52.5367C1006.34 52.453 1006.13 52.3512 1005.93 52.2388M1006.54 52.5367C1006.8 52.6452 1007.02 52.7231 1007.15 52.7541C1007.47 52.8361 1008.44 51.9533 1008.89 51.5017L1009.96 51.1125L1010.22 51.5017M1010.22 51.5017L1009.7 50.7234M1009.7 50.7234C1012.06 53.6962 1014.67 55.6346 1018.75 57.7627C1018.9 57.7643 1019.05 57.7664 1019.19 57.7685L1019.19 57.7685C1022.29 57.8133 1023.59 57.8321 1020.47 51.5017C1019.47 50.9051 1018.58 50.4817 1017.74 50.1929M1009.7 50.7234L1010.42 50.9098L1011.65 50.6025M1017.74 50.1929C1019.33 49.6298 1020.82 48.7174 1022.54 47.4882C1023.25 44.6429 1023.48 42.926 1020.65 42.0317M1017.74 50.1929C1016.37 50.6795 1013.36 50.6585 1011.65 50.6025M1017.74 50.1929C1016.34 49.7099 1015.09 49.6034 1013.8 49.6929M1011.65 50.6025L1013.8 49.6929M1020.65 42.0317C1020.01 41.8298 1019.21 41.6698 1018.24 41.5482C1017.5 41.7202 1016.85 41.9158 1016.25 42.1347M1020.65 42.0317C1018.82 41.7522 1017.87 41.8016 1016.25 42.1347" stroke="url(#paint3_radial_1016_321)" stroke-width="0.2"/>
<path d="M627.952 93.2638L627.939 93.2998C627.17 92.7844 626.437 92.2804 625.731 91.7947C624.857 91.1934 625.644 92.0155 624.833 91.4836C624.833 90.258 626.217 89.5435 627.216 90.2533L628.667 91.2834C628.258 92.2905 628.37 92.1438 627.952 93.2638Z" fill="#FCC16D"/>
<path d="M623.178 96.8402C624.671 95.9056 626.188 94.7266 627.939 93.2998C628.394 93.944 628.806 94.5567 629.177 95.1428L628.755 94.5046L627 95.1428C626.278 95.8834 624.7 97.3311 624.167 97.1967C623.965 97.1459 623.595 97.018 623.178 96.8402Z" fill="#FCC16D"/>
<path d="M628.333 93.8663C627.884 93.2952 628.41 93.9598 627.939 93.2998C630.222 93.7584 629.684 93.6083 631.5 93.668L629.5 94.1721L628.333 93.8663Z" fill="#FCC16D"/>
<path d="M624.833 91.4836C626.224 92.5513 626.136 92.2405 627.939 93.2998C625.624 94.4379 623.729 95.436 622.181 96.3516C621.538 95.9852 621 95.5499 621 95.1428C621 93.4254 622.229 91.9542 623.919 91.6488L624.833 91.4836Z" fill="#FCC16D"/>
<path d="M627.939 93.2998C628.409 92.1864 628.301 92.3261 628.667 91.2834H628.755L630.739 90.7589C632.315 90.3422 633.988 90.8987 635 92.1763C633.23 92.299 631.396 92.6466 629.289 93.0458C628.852 93.1287 628.401 93.214 627.939 93.2998Z" fill="#FCC16D"/>
<path d="M631.5 93.668C629.684 93.6083 630.222 93.7584 627.939 93.2998C628.401 93.214 628.852 93.1287 629.289 93.0458C631.396 92.6466 633.23 92.299 635 92.1763L631.5 93.668Z" fill="#FCC16D"/>
<path d="M627.939 93.2998C626.188 94.7266 624.671 95.9056 623.178 96.8402C622.856 96.703 622.505 96.536 622.181 96.3516C623.729 95.436 625.624 94.4379 627.939 93.2998Z" fill="#FCC16D"/>
<path d="M627.939 93.2998C626.136 92.2405 626.224 92.5513 624.833 91.4836C625.644 92.0155 624.857 91.1934 625.731 91.7947C626.437 92.2804 627.17 92.7844 627.939 93.2998Z" fill="#FCC16D"/>
<path d="M629.177 95.1428C628.806 94.5567 628.394 93.944 627.939 93.2998C628.41 93.9598 627.884 93.2952 628.333 93.8663L629.177 95.1428Z" fill="#FCC16D"/>
<path d="M628.667 91.2834C628.301 92.3261 628.409 92.1864 627.939 93.2998L627.952 93.2638C628.37 92.1438 628.258 92.2905 628.667 91.2834Z" fill="#FCC16D"/>
<path d="M629.34 74.08C623.626 72.3285 620.642 72.7269 615.604 75.1331C616.923 74.5645 619.896 74.3384 629.34 74.08Z" fill="#FCC16D"/>
<path fill-rule="evenodd" clip-rule="evenodd" d="M629.324 89.7131C630.911 85.0251 631.278 80.6965 629.34 74.08C619.896 74.3384 616.923 74.5645 615.604 75.1331C616.023 82.1008 618.217 86.1314 622.499 89.6268C618.141 86.8636 614.302 85.4454 608.034 87.5075C604.683 93.738 605.697 96.0412 609.436 99.3553C613.271 99.7094 616.073 99.5729 618.475 98.9354C615.742 101.333 615.419 103.517 615.604 106.991C618.142 115.402 621.248 115.239 627.939 111.73C632.308 105.006 633.391 101.793 629.177 95.1428L628.755 94.5046L627 95.1428C626.278 95.8834 624.7 97.3311 624.167 97.1967C623.965 97.1459 623.595 97.018 623.178 96.8402C622.856 96.703 622.505 96.536 622.181 96.3516C621.538 95.9852 621 95.5499 621 95.1428C621 93.4254 622.229 91.9542 623.919 91.6488L624.833 91.4836C624.833 90.258 626.217 89.5435 627.216 90.2533L628.667 91.2834H628.755L630.739 90.7589C632.315 90.3422 633.988 90.8987 635 92.1763L631.5 93.668L629.5 94.1721L628.333 93.8663C632.167 98.7418 636.419 101.921 643.077 105.411C643.322 105.413 643.563 105.417 643.796 105.42L643.798 105.42C648.844 105.494 650.964 105.525 645.881 95.1428C644.251 94.1643 642.791 93.47 641.424 92.9963C644.012 92.0729 646.447 90.5766 649.245 88.5606C650.413 83.8944 650.777 81.0786 646.167 79.6119C643.183 79.1536 641.648 79.2347 639 79.781C633.402 81.8507 631.201 85.1909 629.324 89.7131Z" fill="#FCC16D"/>
<path d="M642.236 78.8191C643.832 79.0185 645.126 79.2808 646.167 79.6119C643.183 79.1536 641.648 79.2347 639 79.781C639.971 79.422 641.044 79.1012 642.236 78.8191Z" fill="#FCC16D"/>
<path d="M627.939 93.2998C628.409 92.1864 628.301 92.3261 628.667 91.2834M627.939 93.2998C626.136 92.2405 626.224 92.5513 624.833 91.4836M627.939 93.2998C626.188 94.7266 624.671 95.9056 623.178 96.8402M627.939 93.2998C625.624 94.4379 623.729 95.436 622.181 96.3516M627.939 93.2998C628.394 93.944 628.806 94.5567 629.177 95.1428M627.939 93.2998C628.41 93.9598 627.884 93.2952 628.333 93.8663M627.939 93.2998L627.952 93.2638C628.37 92.1438 628.258 92.2905 628.667 91.2834M627.939 93.2998C630.222 93.7584 629.684 93.6083 631.5 93.668M627.939 93.2998C627.17 92.7844 626.437 92.2804 625.731 91.7947C624.857 91.1934 625.644 92.0155 624.833 91.4836M627.939 93.2998C628.401 93.214 628.852 93.1287 629.289 93.0458C631.396 92.6466 633.23 92.299 635 92.1763M628.667 91.2834C628.224 92.4867 629.283 89.8352 629.324 89.7131M628.667 91.2834C628.716 91.1627 629.275 89.8322 629.324 89.7131M628.667 91.2834H628.755L630.739 90.7589C632.315 90.3422 633.988 90.8987 635 92.1763M628.667 91.2834L627.216 90.2533C626.217 89.5435 624.833 90.258 624.833 91.4836M629.324 89.7131C630.911 85.0251 631.278 80.6965 629.34 74.08M629.324 89.7131C631.201 85.1909 633.402 81.8507 639 79.781M629.34 74.08C623.626 72.3285 620.642 72.7269 615.604 75.1331M629.34 74.08C619.896 74.3384 616.923 74.5645 615.604 75.1331M615.604 75.1331C616.023 82.1008 618.217 86.1314 622.499 89.6268M622.499 89.6268C622.712 89.8007 624.61 91.312 624.833 91.4836M622.499 89.6268C622.736 89.7768 624.593 91.326 624.833 91.4836M622.499 89.6268C618.141 86.8636 614.302 85.4454 608.034 87.5075C604.683 93.738 605.697 96.0412 609.436 99.3553C613.271 99.7094 616.073 99.5729 618.475 98.9354M624.833 91.4836L623.919 91.6488C622.229 91.9542 621 93.4254 621 95.1428C621 95.5499 621.538 95.9852 622.181 96.3516M618.475 98.9354C620.167 98.4866 621.66 97.7894 623.178 96.8402M618.475 98.9354C619.406 98.1188 620.616 97.2774 622.181 96.3516M618.475 98.9354C615.742 101.333 615.419 103.517 615.604 106.991C618.142 115.402 621.248 115.239 627.939 111.73C632.308 105.006 633.391 101.793 629.177 95.1428M623.178 96.8402C622.856 96.703 622.505 96.536 622.181 96.3516M623.178 96.8402C623.595 97.018 623.965 97.1459 624.167 97.1967C624.7 97.3311 626.278 95.8834 627 95.1428L628.755 94.5046L629.177 95.1428M629.177 95.1428L628.333 93.8663M628.333 93.8663C632.167 98.7418 636.419 101.921 643.077 105.411C643.322 105.413 643.563 105.417 643.796 105.42L643.798 105.42C648.844 105.494 650.964 105.525 645.881 95.1428C644.251 94.1643 642.791 93.47 641.424 92.9963M628.333 93.8663L629.5 94.1721L631.5 93.668M641.424 92.9963C644.012 92.0729 646.447 90.5766 649.245 88.5606C650.413 83.8944 650.777 81.0786 646.167 79.6119M641.424 92.9963C639.188 93.7943 634.297 93.76 631.5 93.668M641.424 92.9963C639.139 92.2042 637.116 92.0296 635 92.1763M631.5 93.668L635 92.1763M646.167 79.6119C645.126 79.2808 643.832 79.0185 642.236 78.8191C641.044 79.1012 639.971 79.422 639 79.781M646.167 79.6119C643.183 79.1536 641.648 79.2347 639 79.781" stroke="url(#paint4_radial_1016_321)" stroke-width="0.2"/>
<defs>
<radialGradient id="paint0_radial_1016_321" cx="0" cy="0" r="1" gradientUnits="userSpaceOnUse" gradientTransform="translate(249.5 44.4999) rotate(90) scale(12.5 13.5)">
<stop stop-color="#815F2E"/>
<stop offset="1" stop-color="white"/>
</radialGradient>
<radialGradient id="paint1_radial_1016_321" cx="0" cy="0" r="1" gradientUnits="userSpaceOnUse" gradientTransform="translate(1253.5 17.5) rotate(90) scale(12.5 13.5)">
<stop stop-color="#815F2E"/>
<stop offset="1" stop-color="white"/>
</radialGradient>
<radialGradient id="paint2_radial_1016_321" cx="0" cy="0" r="1" gradientUnits="userSpaceOnUse" gradientTransform="translate(1009.5 50.5) rotate(90) scale(12.5 13.5)">
<stop stop-color="#815F2E"/>
<stop offset="1" stop-color="white"/>
</radialGradient>
<radialGradient id="paint3_radial_1016_321" cx="0" cy="0" r="1" gradientUnits="userSpaceOnUse" gradientTransform="translate(1009.5 50.5) rotate(90) scale(12.5 13.5)">
<stop stop-color="#815F2E"/>
<stop offset="1" stop-color="white"/>
</radialGradient>
<radialGradient id="paint4_radial_1016_321" cx="0" cy="0" r="1" gradientUnits="userSpaceOnUse" gradientTransform="translate(628 93.5) rotate(90) scale(20.5 22)">
<stop stop-color="#815F2E"/>
<stop offset="1" stop-color="white"/>
</radialGradient>
</defs>
</svg>
