<svg width="1280" height="143" viewBox="0 0 1280 143" fill="none" xmlns="http://www.w3.org/2000/svg">
<path d="M-18.4989 63.6863C-18.4989 46.1866 -32.7141 32.0002 -50.2494 32.0002C-67.7848 32.0002 -82 46.1866 -82 63.6863C-82 81.1861 -67.7848 95.3725 -50.2494 95.3725C-32.7141 95.3725 -18.4989 81.1861 -18.4989 63.6863Z" fill="#839E75"/>
<path d="M13.2517 89.669C13.2517 72.1692 -0.963501 57.9828 -18.4989 57.9828C-36.0342 57.9828 -50.2494 72.1692 -50.2494 89.669C-50.2494 107.169 -36.0342 121.355 -18.4989 121.355C-0.963501 121.355 13.2517 107.169 13.2517 89.669Z" fill="#839E75"/>
<path d="M66.9804 82.0643C66.9804 64.5645 52.7652 50.3781 35.2298 50.3781C17.6945 50.3781 3.47924 64.5645 3.47924 82.0643C3.47924 99.5641 17.6945 113.75 35.2298 113.75C52.7652 113.75 66.9804 99.5641 66.9804 82.0643Z" fill="#839E75"/>
<path d="M89.7706 109.28C89.7706 91.7803 87.9381 75.0933 70.4027 75.0933C52.8674 75.0933 38.6522 89.2797 38.6522 106.779C38.6522 124.279 52.8674 138.466 70.4027 138.466C87.9381 138.466 89.7706 126.78 89.7706 109.28Z" fill="#839E75"/>
<path d="M153.272 109.28C153.272 91.7803 139.057 77.5939 121.521 77.5939C103.986 77.5939 89.7706 91.7803 89.7706 109.28C89.7706 126.78 103.986 140.966 121.521 140.966C139.057 140.966 153.272 126.78 153.272 109.28Z" fill="#839E75"/>
<path d="M308.736 111.204C308.736 93.7037 322.952 79.5173 340.487 79.5173C358.022 79.5173 372.237 93.7037 372.237 111.204C372.237 128.703 358.022 142.89 340.487 142.89C322.952 142.89 308.736 128.703 308.736 111.204Z" fill="#839E75"/>
<path d="M345.998 101.076C345.998 83.5762 360.213 69.3898 377.748 69.3898C395.284 69.3898 409.499 83.5762 409.499 101.076C409.499 118.576 395.284 132.762 377.748 132.762C360.213 132.762 345.998 118.576 345.998 101.076Z" fill="#839E75"/>
<path d="M392.354 95.3725C392.354 77.8727 406.569 63.6863 424.104 63.6863C441.639 63.6863 455.855 77.8727 455.855 95.3725C455.855 112.872 441.639 127.059 424.104 127.059C406.569 127.059 392.354 112.872 392.354 95.3725Z" fill="#839E75"/>
<path d="M409.499 69.3898C409.499 51.8901 423.714 37.7037 441.249 37.7037C458.785 37.7037 473 51.8901 473 69.3898C473 86.8896 458.785 101.076 441.249 101.076C423.714 101.076 409.499 86.8896 409.499 69.3898Z" fill="#839E75"/>
<path d="M249.476 95.3725C249.476 77.8727 263.691 63.6863 281.227 63.6863C298.762 63.6863 312.977 77.8727 312.977 95.3725C312.977 112.872 298.762 127.059 281.227 127.059C263.691 127.059 249.476 112.872 249.476 95.3725Z" fill="#839E75"/>
<path d="M199.75 109.28C199.75 91.7803 213.965 77.5939 231.5 77.5939C249.036 77.5939 263.251 91.7803 263.251 109.28C263.251 126.78 249.036 140.966 231.5 140.966C213.965 140.966 199.75 126.78 199.75 109.28Z" fill="#839E75"/>
<path d="M149.994 95.3725C149.994 77.8727 164.209 63.6863 181.744 63.6863C199.28 63.6863 213.495 77.8727 213.495 95.3725C213.495 112.872 199.28 127.059 181.744 127.059C164.209 127.059 149.994 112.872 149.994 95.3725Z" fill="#839E75"/>
<path d="M-48.3444 100.768C139.033 120.171 245.935 113.855 436.804 100.768V38.0117H-48.3444V100.768Z" fill="#839E75"/>
<path d="M499.362 57.7177C499.362 40.2005 484.506 26 466.181 26C447.856 26 433 40.2005 433 57.7177C433 75.235 447.856 89.4355 466.181 89.4355C484.506 89.4355 499.362 75.235 499.362 57.7177Z" fill="#839E75"/>
<path d="M532.542 83.7263C532.542 66.2091 517.687 52.0085 499.362 52.0085C481.036 52.0085 466.181 66.2091 466.181 83.7263C466.181 101.243 481.036 115.444 499.362 115.444C517.687 115.444 532.542 101.243 532.542 83.7263Z" fill="#839E75"/>
<path d="M588.691 76.114C588.691 58.5968 573.836 44.3963 555.51 44.3963C537.185 44.3963 522.33 58.5968 522.33 76.114C522.33 93.6312 537.185 107.832 555.51 107.832C573.836 107.832 588.691 93.6312 588.691 76.114Z" fill="#839E75"/>
<path d="M612.508 103.357C612.508 85.8397 610.593 69.1361 592.268 69.1361C573.942 69.1361 559.087 83.3366 559.087 100.854C559.087 118.371 573.942 132.572 592.268 132.572C610.593 132.572 612.508 120.874 612.508 103.357Z" fill="#839E75"/>
<path d="M678.87 103.357C678.87 85.8397 664.014 71.6392 645.689 71.6392C627.364 71.6392 612.508 85.8397 612.508 103.357C612.508 120.874 627.364 135.075 645.689 135.075C664.014 135.075 678.87 120.874 678.87 103.357Z" fill="#839E75"/>
<path d="M841.337 105.282C841.337 87.7651 856.193 73.5645 874.518 73.5645C892.843 73.5645 907.699 87.7651 907.699 105.282C907.699 122.799 892.843 137 874.518 137C856.193 137 841.337 122.799 841.337 105.282Z" fill="#839E75"/>
<path d="M880.277 95.1447C880.277 77.6274 895.132 63.4269 913.458 63.4269C931.783 63.4269 946.638 77.6274 946.638 95.1447C946.638 112.662 931.783 126.862 913.458 126.862C895.132 126.862 880.277 112.662 880.277 95.1447Z" fill="#839E75"/>
<path d="M928.721 89.4355C928.721 71.9183 943.576 57.7177 961.902 57.7177C980.227 57.7177 995.082 71.9183 995.082 89.4355C995.082 106.953 980.227 121.153 961.902 121.153C943.576 121.153 928.721 106.953 928.721 89.4355Z" fill="#839E75"/>
<path d="M946.638 63.4269C946.638 45.9097 961.494 31.7092 979.819 31.7092C998.144 31.7092 1013 45.9097 1013 63.4269C1013 80.9442 998.144 95.1447 979.819 95.1447C961.494 95.1447 946.638 80.9442 946.638 63.4269Z" fill="#839E75"/>
<path d="M779.407 89.4355C779.407 71.9183 794.263 57.7177 812.588 57.7177C830.913 57.7177 845.769 71.9183 845.769 89.4355C845.769 106.953 830.913 121.153 812.588 121.153C794.263 121.153 779.407 106.953 779.407 89.4355Z" fill="#839E75"/>
<path d="M727.441 103.357C727.441 85.8397 742.297 71.6392 760.622 71.6392C778.947 71.6392 793.803 85.8397 793.803 103.357C793.803 120.874 778.947 135.075 760.622 135.075C742.297 135.075 727.441 120.874 727.441 103.357Z" fill="#839E75"/>
<path d="M675.444 89.4355C675.444 71.9183 690.299 57.7178 708.625 57.7178C726.95 57.7178 741.806 71.9183 741.806 89.4355C741.806 106.953 726.95 121.153 708.625 121.153C690.299 121.153 675.444 106.953 675.444 89.4355Z" fill="#839E75"/>
<path d="M468.172 94.8363C663.989 114.259 775.707 107.936 975.174 94.8363V32.0176H468.172V94.8363Z" fill="#839E75"/>
<path d="M110.545 80.7811L110.557 80.8144C111.274 80.3367 111.956 79.8696 112.614 79.4195C113.428 78.8622 112.696 79.6241 113.451 79.1311C113.451 77.9933 112.167 77.3287 111.238 77.9852L109.879 78.9456C110.26 79.879 110.155 79.743 110.545 80.7811Z" fill="#DB9494"/>
<path d="M114.994 84.0958C113.602 83.2296 112.188 82.1369 110.557 80.8144C110.133 81.4115 109.749 81.9794 109.403 82.5226L109.796 81.9311L111.432 82.5226C112.105 83.209 113.575 84.5508 114.072 84.4262C114.26 84.3791 114.604 84.2606 114.994 84.0958Z" fill="#DB9494"/>
<path d="M110.189 81.3395C110.608 80.8102 110.118 81.4261 110.557 80.8144C108.43 81.2395 108.93 81.1004 107.239 81.1557L109.102 81.6229L110.189 81.3395Z" fill="#DB9494"/>
<path d="M113.451 79.1311C112.155 80.1207 112.237 79.8326 110.557 80.8144C112.714 81.8692 114.479 82.7943 115.922 83.643C116.521 83.3033 117.023 82.8999 117.023 82.5226C117.023 80.9312 115.883 79.5683 114.317 79.2868L113.451 79.1311Z" fill="#DB9494"/>
<path d="M110.557 80.8144C110.119 79.7825 110.219 79.912 109.879 78.9456H109.796L107.941 78.4576C106.476 78.0722 104.921 78.5882 103.977 79.7731C105.626 79.8869 107.336 80.2091 109.299 80.5791L109.299 80.5791L109.3 80.5793C109.708 80.6561 110.126 80.7349 110.557 80.8144Z" fill="#DB9494"/>
<path d="M107.239 81.1557C108.93 81.1004 108.43 81.2395 110.557 80.8144C110.126 80.7349 109.708 80.6561 109.3 80.5793L109.299 80.5791L109.299 80.5791C107.336 80.2091 105.626 79.8869 103.977 79.7731L107.239 81.1557Z" fill="#DB9494"/>
<path d="M110.557 80.8144C112.188 82.1369 113.602 83.2296 114.994 84.0958C115.294 83.9686 115.62 83.8139 115.922 83.643C114.479 82.7943 112.714 81.8692 110.557 80.8144Z" fill="#DB9494"/>
<path d="M110.557 80.8144C112.237 79.8326 112.155 80.1207 113.451 79.1311C112.696 79.6241 113.428 78.8622 112.614 79.4195C111.956 79.8696 111.274 80.3367 110.557 80.8144Z" fill="#DB9494"/>
<path d="M109.403 82.5226C109.749 81.9794 110.133 81.4115 110.557 80.8144C110.118 81.4261 110.608 80.8102 110.189 81.3395L109.403 82.5226Z" fill="#DB9494"/>
<path d="M109.879 78.9456C110.219 79.912 110.119 79.7825 110.557 80.8144L110.545 80.7811C110.155 79.743 110.26 79.879 109.879 78.9456Z" fill="#DB9494"/>
<path d="M109.251 63.001C114.576 61.3777 117.356 61.7469 122.051 63.977C120.822 63.45 118.052 63.2405 109.251 63.001Z" fill="#FFCCCC"/>
<path fill-rule="evenodd" clip-rule="evenodd" d="M109.266 77.4902C107.787 73.1452 107.446 69.1333 109.251 63.001C118.052 63.2405 120.822 63.45 122.051 63.977C121.661 70.4349 119.616 74.1706 115.626 77.4102C119.687 74.8491 123.264 73.5348 129.104 75.446C132.227 81.2206 131.282 83.3553 127.798 86.4269C124.225 86.755 121.614 86.6286 119.375 86.0377C121.922 88.2599 122.224 90.2838 122.051 93.5035C119.686 101.299 116.791 101.148 110.557 97.8958C106.485 91.6644 105.476 88.6863 109.403 82.5226L109.796 81.9311L111.432 82.5226C112.105 83.209 113.575 84.5508 114.072 84.4262C114.26 84.3791 114.604 84.2606 114.994 84.0958C115.294 83.9686 115.62 83.8139 115.922 83.643C116.521 83.3033 117.023 82.8999 117.023 82.5226C117.023 80.9312 115.883 79.5683 114.317 79.2868L113.451 79.1311C113.451 77.9933 112.167 77.3287 111.238 77.9852L109.879 78.9456H109.796L107.941 78.4576C106.476 78.0722 104.921 78.5882 103.977 79.7731L107.239 81.1557L109.102 81.6229L110.189 81.3395C106.617 85.8582 102.655 88.8046 96.4509 92.0393C96.2225 92.0417 95.9995 92.0449 95.7823 92.0481L95.7815 92.0481L95.7809 92.0481L95.7803 92.0481L95.7798 92.0481L95.7794 92.0481L95.779 92.0481C91.0767 92.1162 89.1016 92.1448 93.8386 82.5226C95.3571 81.6157 96.7177 80.9722 97.991 80.5332C95.5798 79.6773 93.3109 78.2905 90.7039 76.4221C89.6148 72.0973 89.2764 69.4874 93.572 68.1281C96.3518 67.7033 97.7826 67.7785 100.25 68.2848C105.467 70.2031 107.517 73.2988 109.266 77.4902Z" fill="#F5B1B1"/>
<path d="M97.2346 67.3933C95.7477 67.5781 94.5418 67.8212 93.572 68.1281C96.3518 67.7033 97.7826 67.7785 100.25 68.2848C99.3451 67.9521 98.345 67.6548 97.2346 67.3933Z" fill="#FFCCCC"/>
<path d="M347.529 99.356L347.538 99.3779C348.009 99.0636 348.459 98.7563 348.892 98.4602C349.429 98.0935 348.946 98.5948 349.443 98.2705C349.443 97.5217 348.599 97.0841 347.987 97.5159L347.091 98.1484C347.342 98.7625 347.273 98.6731 347.529 99.356Z" fill="#DB9494"/>
<path d="M350.459 101.537C349.543 100.967 348.612 100.248 347.538 99.3779C347.258 99.7707 347.005 100.144 346.778 100.502L347.036 100.113L348.114 100.502C348.557 100.953 349.525 101.836 349.852 101.754C349.976 101.723 350.203 101.645 350.459 101.537Z" fill="#DB9494"/>
<path d="M347.295 99.7234C347.571 99.3751 347.249 99.7804 347.538 99.3779C346.137 99.6575 346.466 99.5661 345.352 99.6025L346.58 99.9098L347.295 99.7234Z" fill="#DB9494"/>
<path d="M349.443 98.2705C348.59 98.9215 348.644 98.732 347.538 99.3779C348.958 100.072 350.121 100.68 351.07 101.239C351.465 101.015 351.795 100.75 351.795 100.502C351.795 99.4548 351.046 98.5582 350.015 98.3732L349.443 98.2705Z" fill="#DB9494"/>
<path d="M347.538 99.3779C347.249 98.699 347.315 98.7842 347.091 98.1484H347.036L345.814 97.8272C344.849 97.5737 343.826 97.9132 343.205 98.6929C344.291 98.7677 345.416 98.9797 346.709 99.2231L346.709 99.2231L346.71 99.2232C346.978 99.2737 347.254 99.3256 347.538 99.3779Z" fill="#DB9494"/>
<path d="M345.352 99.6025C346.466 99.5661 346.137 99.6575 347.538 99.3779C347.254 99.3256 346.978 99.2737 346.71 99.2232L346.709 99.2231L346.709 99.2231C345.416 98.9797 344.291 98.7677 343.205 98.6929L345.352 99.6025Z" fill="#DB9494"/>
<path d="M347.538 99.3779C348.612 100.248 349.543 100.967 350.459 101.537C350.657 101.453 350.872 101.351 351.07 101.239C350.121 100.68 348.958 100.072 347.538 99.3779Z" fill="#DB9494"/>
<path d="M347.538 99.3779C348.644 98.732 348.59 98.9215 349.443 98.2705C348.946 98.5948 349.429 98.0935 348.892 98.4602C348.459 98.7563 348.009 99.0636 347.538 99.3779Z" fill="#DB9494"/>
<path d="M346.778 100.502C347.005 100.144 347.258 99.7707 347.538 99.3779C347.249 99.7804 347.571 99.3751 347.295 99.7234L346.778 100.502Z" fill="#DB9494"/>
<path d="M347.091 98.1484C347.315 98.7842 347.249 98.699 347.538 99.3779L347.529 99.356C347.273 98.6731 347.342 98.7625 347.091 98.1484Z" fill="#DB9494"/>
<path d="M346.678 87.6585C350.184 86.5906 352.015 86.8335 355.107 88.3007C354.297 87.9539 352.473 87.8161 346.678 87.6585Z" fill="#FFCCCC"/>
<path fill-rule="evenodd" clip-rule="evenodd" d="M346.687 97.1909C345.714 94.3324 345.489 91.693 346.678 87.6585C352.473 87.8161 354.297 87.9539 355.107 88.3007C354.85 92.5493 353.503 95.007 350.876 97.1383C353.55 95.4534 355.906 94.5887 359.752 95.846C361.808 99.6451 361.186 101.05 358.892 103.07C356.538 103.286 354.819 103.203 353.345 102.814C355.022 104.276 355.22 105.608 355.107 107.726C353.549 112.855 351.643 112.755 347.538 110.616C344.856 106.516 344.192 104.557 346.778 100.502L347.036 100.113L348.114 100.502C348.557 100.953 349.525 101.836 349.852 101.754C349.976 101.723 350.203 101.645 350.459 101.537C350.657 101.453 350.872 101.351 351.07 101.239C351.465 101.015 351.795 100.75 351.795 100.502C351.795 99.4548 351.046 98.5582 350.015 98.3732L349.443 98.2705C349.443 97.5217 348.599 97.0841 347.987 97.5159L347.091 98.1484H347.036L345.814 97.8272C344.849 97.5737 343.826 97.9132 343.205 98.6929L345.352 99.6025L346.58 99.9098L347.295 99.7234C344.943 102.696 342.334 104.635 338.248 106.763C338.098 106.764 337.951 106.766 337.808 106.768L337.807 106.768L337.807 106.768L337.807 106.768L337.806 106.768L337.806 106.768L337.806 106.768C334.709 106.813 333.408 106.832 336.528 100.502C337.528 99.9051 338.424 99.4817 339.262 99.1929C337.674 98.6298 336.18 97.7174 334.464 96.4882C333.746 93.6429 333.523 91.926 336.352 91.0317C338.183 90.7522 339.125 90.8016 340.75 91.1347C344.185 92.3968 345.536 94.4334 346.687 97.1909Z" fill="#F5B1B1"/>
<path d="M338.764 90.5482C337.785 90.6698 336.991 90.8298 336.352 91.0317C338.183 90.7522 339.125 90.8016 340.75 91.1347C340.154 90.9158 339.495 90.7202 338.764 90.5482Z" fill="#FFCCCC"/>
<path d="M239.529 68.356L239.538 68.3779C240.009 68.0636 240.459 67.7563 240.892 67.4602C241.429 67.0935 240.946 67.5948 241.443 67.2705C241.443 66.5217 240.599 66.0841 239.987 66.5159L239.091 67.1484C239.342 67.7625 239.273 67.6731 239.529 68.356Z" fill="#FCC16D"/>
<path d="M242.459 70.5367C241.543 69.9668 240.612 69.2479 239.538 68.3779C239.258 68.7707 239.005 69.1443 238.778 69.5017L239.036 69.1125L240.114 69.5017C240.557 69.9533 241.525 70.8361 241.852 70.7541C241.976 70.7231 242.203 70.6452 242.459 70.5367Z" fill="#FCC16D"/>
<path d="M239.295 68.7234C239.571 68.3752 239.249 68.7804 239.538 68.3779C238.137 68.6575 238.466 68.5661 237.352 68.6025L238.58 68.9098L239.295 68.7234Z" fill="#FCC16D"/>
<path d="M241.443 67.2705C240.59 67.9215 240.644 67.732 239.538 68.3779C240.958 69.0719 242.121 69.6805 243.07 70.2388C243.465 70.0154 243.795 69.75 243.795 69.5017C243.795 68.4548 243.046 67.5582 242.015 67.3732L241.443 67.2705Z" fill="#FCC16D"/>
<path d="M239.538 68.3779C239.249 67.699 239.315 67.7842 239.091 67.1484H239.036L237.814 66.8272C236.849 66.5737 235.826 66.9132 235.205 67.6929C236.291 67.7677 237.416 67.9797 238.709 68.2231C238.977 68.2736 239.254 68.3256 239.538 68.3779Z" fill="#FCC16D"/>
<path d="M237.352 68.6025C238.466 68.5661 238.137 68.6575 239.538 68.3779C239.254 68.3256 238.977 68.2736 238.709 68.2231C237.416 67.9797 236.291 67.7677 235.205 67.6929L237.352 68.6025Z" fill="#FCC16D"/>
<path d="M239.538 68.3779C240.612 69.2479 241.543 69.9668 242.459 70.5367C242.657 70.453 242.872 70.3512 243.07 70.2388C242.121 69.6805 240.958 69.0719 239.538 68.3779Z" fill="#FCC16D"/>
<path d="M239.538 68.3779C240.644 67.732 240.59 67.9215 241.443 67.2705C240.946 67.5948 241.429 67.0935 240.892 67.4602C240.459 67.7563 240.009 68.0636 239.538 68.3779Z" fill="#FCC16D"/>
<path d="M238.778 69.5017C239.005 69.1443 239.258 68.7707 239.538 68.3779C239.249 68.7804 239.571 68.3752 239.295 68.7234L238.778 69.5017Z" fill="#FCC16D"/>
<path d="M239.091 67.1484C239.315 67.7842 239.249 67.699 239.538 68.3779L239.529 68.356C239.273 67.6731 239.342 67.7625 239.091 67.1484Z" fill="#FCC16D"/>
<path d="M238.678 56.6585C242.184 55.5906 244.015 55.8335 247.107 57.3007C246.297 56.9539 244.473 56.8161 238.678 56.6585Z" fill="#FCC16D"/>
<path fill-rule="evenodd" clip-rule="evenodd" d="M238.687 66.1909C237.714 63.3324 237.489 60.693 238.678 56.6585C244.473 56.8161 246.297 56.9539 247.107 57.3007C246.85 61.5493 245.503 64.007 242.876 66.1383C245.55 64.4534 247.906 63.5887 251.752 64.846C253.808 68.6451 253.186 70.0495 250.892 72.0703C248.538 72.2862 246.819 72.203 245.345 71.8143C247.022 73.2763 247.22 74.6078 247.107 76.726C245.549 81.8549 243.643 81.7554 239.538 79.6157C236.856 75.5161 236.192 73.5568 238.778 69.5017L239.036 69.1125L240.114 69.5017C240.557 69.9533 241.525 70.8361 241.852 70.7541C241.976 70.7231 242.203 70.6452 242.459 70.5367C242.657 70.453 242.872 70.3512 243.07 70.2388C243.465 70.0154 243.795 69.75 243.795 69.5017C243.795 68.4548 243.046 67.5582 242.015 67.3732L241.443 67.2705C241.443 66.5217 240.599 66.0841 239.987 66.5159L239.091 67.1484H239.036L237.814 66.8272C236.849 66.5737 235.826 66.9132 235.205 67.6929L237.352 68.6025L238.58 68.9098L239.295 68.7234C236.943 71.6962 234.334 73.6346 230.248 75.7627C230.098 75.7643 229.95 75.7664 229.807 75.7685L229.806 75.7685C226.709 75.8133 225.408 75.8321 228.528 69.5017C229.528 68.9051 230.424 68.4817 231.262 68.1929C229.674 67.6298 228.18 66.7174 226.464 65.4882C225.746 62.6429 225.523 60.926 228.352 60.0317C230.183 59.7522 231.125 59.8016 232.75 60.1347C236.185 61.3968 237.536 63.4334 238.687 66.1909Z" fill="#FCC16D"/>
<path d="M230.764 59.5482C229.785 59.6698 228.991 59.8298 228.352 60.0317C230.183 59.7522 231.125 59.8016 232.75 60.1347C232.154 59.9158 231.495 59.7202 230.764 59.5482Z" fill="#FCC16D"/>
<path d="M239.538 68.3779C239.249 67.699 239.315 67.7842 239.091 67.1484M239.538 68.3779C240.644 67.732 240.59 67.9215 241.443 67.2705M239.538 68.3779C240.612 69.2479 241.543 69.9668 242.459 70.5367M239.538 68.3779C240.958 69.0719 242.121 69.6805 243.07 70.2388M239.538 68.3779C239.258 68.7707 239.005 69.1443 238.778 69.5017M239.538 68.3779C239.249 68.7804 239.571 68.3752 239.295 68.7234M239.538 68.3779L239.529 68.356C239.273 67.6731 239.342 67.7625 239.091 67.1484M239.538 68.3779C238.137 68.6575 238.466 68.5661 237.352 68.6025M239.538 68.3779C240.009 68.0636 240.459 67.7563 240.892 67.4602C241.429 67.0935 240.946 67.5948 241.443 67.2705M239.538 68.3779C239.254 68.3256 238.977 68.2736 238.709 68.2231C237.416 67.9797 236.291 67.7677 235.205 67.6929M239.091 67.1484C239.363 67.8821 238.713 66.2654 238.687 66.1909M239.091 67.1484C239.061 67.0748 238.718 66.2635 238.687 66.1909M239.091 67.1484H239.036L237.814 66.8272C236.849 66.5737 235.826 66.9132 235.205 67.6929M239.091 67.1484L239.987 66.5159C240.599 66.0841 241.443 66.5217 241.443 67.2705M238.687 66.1909C237.714 63.3324 237.489 60.693 238.678 56.6585M238.687 66.1909C237.536 63.4334 236.185 61.3968 232.75 60.1347M238.678 56.6585C242.184 55.5906 244.015 55.8335 247.107 57.3007M238.678 56.6585C244.473 56.8161 246.297 56.9539 247.107 57.3007M247.107 57.3007C246.85 61.5493 245.503 64.007 242.876 66.1383M242.876 66.1383C242.745 66.2443 241.58 67.1659 241.443 67.2705M242.876 66.1383C242.73 66.2297 241.591 67.1744 241.443 67.2705M242.876 66.1383C245.55 64.4534 247.906 63.5887 251.752 64.846C253.808 68.6451 253.186 70.0495 250.892 72.0703C248.538 72.2862 246.819 72.203 245.345 71.8143M241.443 67.2705L242.015 67.3732C243.046 67.5582 243.795 68.4548 243.795 69.5017C243.795 69.75 243.465 70.0154 243.07 70.2388M245.345 71.8143C244.307 71.5406 243.39 71.1155 242.459 70.5367M245.345 71.8143C244.774 71.3164 244.031 70.8033 243.07 70.2388M245.345 71.8143C247.022 73.2763 247.22 74.6078 247.107 76.726C245.549 81.8549 243.643 81.7554 239.538 79.6157C236.856 75.5161 236.192 73.5568 238.778 69.5017M242.459 70.5367C242.657 70.453 242.872 70.3512 243.07 70.2388M242.459 70.5367C242.203 70.6452 241.976 70.7231 241.852 70.7541C241.525 70.8361 240.557 69.9533 240.114 69.5017L239.036 69.1125L238.778 69.5017M238.778 69.5017L239.295 68.7234M239.295 68.7234C236.943 71.6962 234.334 73.6346 230.248 75.7627C230.098 75.7643 229.95 75.7664 229.807 75.7685L229.806 75.7685C226.709 75.8133 225.408 75.8321 228.528 69.5017C229.528 68.9051 230.424 68.4817 231.262 68.1929M239.295 68.7234L238.58 68.9098L237.352 68.6025M231.262 68.1929C229.674 67.6298 228.18 66.7174 226.464 65.4882C225.746 62.6429 225.523 60.926 228.352 60.0317M231.262 68.1929C232.634 68.6795 235.636 68.6585 237.352 68.6025M231.262 68.1929C232.665 67.7099 233.906 67.6034 235.205 67.6929M237.352 68.6025L235.205 67.6929M228.352 60.0317C228.991 59.8298 229.785 59.6698 230.764 59.5482C231.495 59.7202 232.154 59.9158 232.75 60.1347M228.352 60.0317C230.183 59.7522 231.125 59.8016 232.75 60.1347" stroke="url(#paint0_radial_1966_6)" stroke-width="0.2"/>
<path d="M464.538 84.8157L464.549 84.8437C465.16 84.4414 465.743 84.0481 466.305 83.6691C467 83.1997 466.374 83.8414 467.019 83.4262C467.019 82.464 465.937 81.8991 465.147 82.4493L463.97 83.27C464.295 84.056 464.205 83.9415 464.538 84.8157Z" fill="#DB9494"/>
<path d="M468.336 87.607C467.148 86.8775 465.941 85.9574 464.549 84.8437C464.187 85.3465 463.859 85.8248 463.563 86.2822L463.899 85.784L465.295 86.2822C465.87 86.8602 467.125 87.9902 467.549 87.8852C467.71 87.8456 468.004 87.7458 468.336 87.607Z" fill="#DB9494"/>
<path d="M464.235 85.2859C464.592 84.8402 464.174 85.3589 464.549 84.8437C462.733 85.2017 463.16 85.0845 461.716 85.1311L463.307 85.5246L464.235 85.2859Z" fill="#DB9494"/>
<path d="M467.019 83.4262C465.913 84.2596 465.983 84.017 464.549 84.8437C466.39 85.732 467.897 86.511 469.128 87.2257C469.64 86.9397 470.068 86.6 470.068 86.2822C470.068 84.9428 469.107 83.7965 467.788 83.5627L467.019 83.4262Z" fill="#DB9494"/>
<path d="M464.549 84.8437C464.175 83.9748 464.26 84.0838 463.97 83.27H463.899L462.3 82.8551C461.056 82.5324 459.739 82.9672 458.932 83.9669C460.34 84.0626 461.799 84.334 463.475 84.6455L463.475 84.6456L463.476 84.6457C463.824 84.7104 464.181 84.7768 464.549 84.8437Z" fill="#DB9494"/>
<path d="M461.716 85.1311C463.16 85.0845 462.733 85.2017 464.549 84.8437C464.181 84.7768 463.824 84.7104 463.476 84.6457L463.475 84.6456L463.475 84.6455C461.799 84.334 460.34 84.0626 458.932 83.9669L461.716 85.1311Z" fill="#DB9494"/>
<path d="M464.549 84.8437C465.941 85.9574 467.148 86.8775 468.336 87.607C468.592 87.4999 468.871 87.3696 469.128 87.2257C467.897 86.511 466.39 85.732 464.549 84.8437Z" fill="#DB9494"/>
<path d="M464.549 84.8437C465.983 84.017 465.913 84.2596 467.019 83.4262C466.374 83.8414 467 83.1997 466.305 83.6691C465.743 84.0481 465.16 84.4414 464.549 84.8437Z" fill="#DB9494"/>
<path d="M463.563 86.2822C463.859 85.8248 464.187 85.3465 464.549 84.8437C464.174 85.3589 464.592 84.8402 464.235 85.2859L463.563 86.2822Z" fill="#DB9494"/>
<path d="M463.97 83.27C464.26 84.0838 464.175 83.9748 464.549 84.8437L464.538 84.8157C464.205 83.9415 464.295 84.056 463.97 83.27Z" fill="#DB9494"/>
<path d="M463.434 69.8429C467.98 68.4759 470.353 68.7868 474.361 70.6649C473.311 70.221 470.947 70.0446 463.434 69.8429Z" fill="#FFCCCC"/>
<path fill-rule="evenodd" clip-rule="evenodd" d="M463.447 82.0444C462.184 78.3854 461.893 75.007 463.434 69.8429C470.947 70.0446 473.311 70.221 474.361 70.6649C474.027 76.1031 472.282 79.2489 468.876 81.977C472.342 79.8203 475.396 78.7135 480.382 80.3229C483.048 85.1858 482.241 86.9834 479.267 89.57C476.216 89.8463 473.988 89.7399 472.076 89.2423C474.25 91.1136 474.508 92.8179 474.361 95.5292C472.342 102.094 469.871 101.967 464.549 99.2281C461.073 93.9805 460.212 91.4727 463.563 86.2822L463.899 85.784L465.295 86.2822C465.87 86.8602 467.125 87.9902 467.549 87.8852C467.71 87.8456 468.004 87.7458 468.336 87.607C468.592 87.4999 468.871 87.3696 469.128 87.2257C469.64 86.9397 470.068 86.6 470.068 86.2822C470.068 84.9428 469.107 83.7965 467.788 83.5627L467.019 83.4262C467.019 82.464 465.937 81.8991 465.147 82.4493L463.97 83.27H463.899L462.3 82.8551C461.056 82.5324 459.739 82.9672 458.932 83.9669L461.716 85.1311L463.307 85.5246L464.235 85.2859C461.185 89.0911 457.803 91.5723 452.507 94.2963C452.312 94.2983 452.122 94.301 451.936 94.3036L451.935 94.3036L451.935 94.3037L451.934 94.3037L451.934 94.3037L451.934 94.3037L451.933 94.3037C447.919 94.361 446.233 94.3851 450.277 86.2822C451.573 85.5185 452.735 84.9765 453.822 84.6069C451.763 83.8861 449.826 82.7183 447.601 81.1449C446.671 77.503 446.382 75.3052 450.049 74.1605C452.422 73.8028 453.644 73.8661 455.75 74.2925C460.203 75.9079 461.953 78.5148 463.447 82.0444Z" fill="#F5B1B1"/>
<path d="M453.176 73.5417C451.907 73.6973 450.877 73.9021 450.049 74.1605C452.422 73.8028 453.644 73.8661 455.75 74.2925C454.978 74.0123 454.124 73.7619 453.176 73.5417Z" fill="#FFCCCC"/>
<path d="M740.538 88.8157L740.549 88.8437C741.16 88.4414 741.743 88.0481 742.305 87.6691C743 87.1997 742.374 87.8414 743.019 87.4262C743.019 86.464 741.937 85.8991 741.147 86.4493L739.97 87.27C740.295 88.056 740.205 87.9415 740.538 88.8157Z" fill="#DB9494"/>
<path d="M744.336 91.607C743.148 90.8775 741.941 89.9574 740.549 88.8437C740.187 89.3465 739.859 89.8248 739.563 90.2822L739.899 89.784L741.295 90.2822C741.87 90.8602 743.125 91.9902 743.549 91.8852C743.71 91.8456 744.004 91.7458 744.336 91.607Z" fill="#DB9494"/>
<path d="M740.235 89.2859C740.592 88.8402 740.174 89.3589 740.549 88.8437C738.733 89.2017 739.16 89.0845 737.716 89.1311L739.307 89.5246L740.235 89.2859Z" fill="#DB9494"/>
<path d="M743.019 87.4262C741.913 88.2596 741.983 88.017 740.549 88.8437C742.39 89.732 743.897 90.511 745.128 91.2257C745.64 90.9397 746.068 90.6 746.068 90.2822C746.068 88.9428 745.107 87.7965 743.788 87.5627L743.019 87.4262Z" fill="#DB9494"/>
<path d="M740.549 88.8437C740.175 87.9748 740.26 88.0838 739.97 87.27H739.899L738.3 86.8551C737.056 86.5324 735.739 86.9672 734.932 87.9669C736.34 88.0626 737.799 88.334 739.475 88.6455L739.475 88.6456L739.476 88.6457C739.824 88.7104 740.181 88.7768 740.549 88.8437Z" fill="#DB9494"/>
<path d="M737.716 89.1311C739.16 89.0845 738.733 89.2017 740.549 88.8437C740.181 88.7768 739.824 88.7104 739.476 88.6457L739.475 88.6456L739.475 88.6455C737.799 88.334 736.34 88.0626 734.932 87.9669L737.716 89.1311Z" fill="#DB9494"/>
<path d="M740.549 88.8437C741.941 89.9574 743.148 90.8775 744.336 91.607C744.592 91.4999 744.871 91.3696 745.128 91.2257C743.897 90.511 742.39 89.732 740.549 88.8437Z" fill="#DB9494"/>
<path d="M740.549 88.8437C741.983 88.017 741.913 88.2596 743.019 87.4262C742.374 87.8414 743 87.1997 742.305 87.6691C741.743 88.0481 741.16 88.4414 740.549 88.8437Z" fill="#DB9494"/>
<path d="M739.563 90.2822C739.859 89.8248 740.187 89.3465 740.549 88.8437C740.174 89.3589 740.592 88.8402 740.235 89.2859L739.563 90.2822Z" fill="#DB9494"/>
<path d="M739.97 87.27C740.26 88.0838 740.175 87.9748 740.549 88.8437L740.538 88.8157C740.205 87.9415 740.295 88.056 739.97 87.27Z" fill="#DB9494"/>
<path d="M739.434 73.8429C743.98 72.4759 746.353 72.7868 750.361 74.6649C749.311 74.221 746.947 74.0446 739.434 73.8429Z" fill="#FFCCCC"/>
<path fill-rule="evenodd" clip-rule="evenodd" d="M739.447 86.0444C738.184 82.3854 737.893 79.007 739.434 73.8429C746.947 74.0446 749.311 74.221 750.361 74.6649C750.027 80.1031 748.282 83.2489 744.876 85.977C748.342 83.8203 751.396 82.7135 756.382 84.3229C759.048 89.1858 758.241 90.9834 755.267 93.57C752.216 93.8463 749.988 93.7399 748.076 93.2423C750.25 95.1136 750.508 96.8179 750.361 99.5292C748.342 106.094 745.871 105.967 740.549 103.228C737.073 97.9805 736.212 95.4727 739.563 90.2822L739.899 89.784L741.295 90.2822C741.87 90.8602 743.125 91.9902 743.549 91.8852C743.71 91.8456 744.004 91.7458 744.336 91.607C744.592 91.4999 744.871 91.3696 745.128 91.2257C745.64 90.9397 746.068 90.6 746.068 90.2822C746.068 88.9428 745.107 87.7965 743.788 87.5627L743.019 87.4262C743.019 86.464 741.937 85.8991 741.147 86.4493L739.97 87.27H739.899L738.3 86.8551C737.056 86.5324 735.739 86.9672 734.932 87.9669L737.716 89.1311L739.307 89.5246L740.235 89.2859C737.185 93.0911 733.803 95.5723 728.507 98.2963C728.312 98.2983 728.122 98.301 727.936 98.3036L727.935 98.3036L727.935 98.3037L727.934 98.3037L727.934 98.3037L727.934 98.3037L727.933 98.3037C723.919 98.361 722.233 98.3851 726.277 90.2822C727.573 89.5185 728.735 88.9765 729.822 88.6069C727.763 87.8861 725.826 86.7183 723.601 85.1449C722.671 81.503 722.382 79.3052 726.049 78.1605C728.422 77.8028 729.644 77.8661 731.75 78.2925C736.203 79.9079 737.953 82.5148 739.447 86.0444Z" fill="#F5B1B1"/>
<path d="M729.176 77.5417C727.907 77.6973 726.877 77.9021 726.049 78.1605C728.422 77.8028 729.644 77.8661 731.75 78.2925C730.978 78.0123 730.124 77.7619 729.176 77.5417Z" fill="#FFCCCC"/>
<path d="M896.462 121.816L896.451 121.844C895.84 121.441 895.257 121.048 894.695 120.669C894 120.2 894.626 120.841 893.981 120.426C893.981 119.464 895.063 118.899 895.853 119.449L897.03 120.27C896.705 121.056 896.795 120.942 896.462 121.816Z" fill="#DB9494"/>
<path d="M892.664 124.607C893.852 123.878 895.059 122.957 896.451 121.844C896.813 122.347 897.141 122.825 897.437 123.282L897.101 122.784L895.705 123.282C895.13 123.86 893.875 124.99 893.451 124.885C893.29 124.846 892.996 124.746 892.664 124.607Z" fill="#DB9494"/>
<path d="M896.765 122.286C896.408 121.84 896.826 122.359 896.451 121.844C898.267 122.202 897.84 122.085 899.284 122.131L897.693 122.525L896.765 122.286Z" fill="#DB9494"/>
<path d="M893.981 120.426C895.087 121.26 895.017 121.017 896.451 121.844C894.61 122.732 893.103 123.511 891.872 124.226C891.36 123.94 890.932 123.6 890.932 123.282C890.932 121.943 891.893 120.796 893.212 120.563L893.981 120.426Z" fill="#DB9494"/>
<path d="M896.451 121.844C896.825 120.975 896.74 121.084 897.03 120.27H897.101L898.7 119.855C899.944 119.532 901.261 119.967 902.068 120.967C900.66 121.063 899.201 121.334 897.525 121.646L897.525 121.646L897.524 121.646C897.176 121.71 896.819 121.777 896.451 121.844Z" fill="#DB9494"/>
<path d="M899.284 122.131C897.84 122.085 898.267 122.202 896.451 121.844C896.819 121.777 897.176 121.71 897.524 121.646L897.525 121.646L897.525 121.646C899.201 121.334 900.66 121.063 902.068 120.967L899.284 122.131Z" fill="#DB9494"/>
<path d="M896.451 121.844C895.059 122.957 893.852 123.878 892.664 124.607C892.408 124.5 892.129 124.37 891.872 124.226C893.103 123.511 894.61 122.732 896.451 121.844Z" fill="#DB9494"/>
<path d="M896.451 121.844C895.017 121.017 895.087 121.26 893.981 120.426C894.626 120.841 894 120.2 894.695 120.669C895.257 121.048 895.84 121.441 896.451 121.844Z" fill="#DB9494"/>
<path d="M897.437 123.282C897.141 122.825 896.813 122.347 896.451 121.844C896.826 122.359 896.408 121.84 896.765 122.286L897.437 123.282Z" fill="#DB9494"/>
<path d="M897.03 120.27C896.74 121.084 896.825 120.975 896.451 121.844L896.462 121.816C896.795 120.942 896.705 121.056 897.03 120.27Z" fill="#DB9494"/>
<path d="M897.566 106.843C893.02 105.476 890.647 105.787 886.639 107.665C887.689 107.221 890.053 107.045 897.566 106.843Z" fill="#FFCCCC"/>
<path fill-rule="evenodd" clip-rule="evenodd" d="M897.553 119.044C898.816 115.385 899.107 112.007 897.566 106.843C890.053 107.045 887.689 107.221 886.639 107.665C886.973 113.103 888.718 116.249 892.124 118.977C888.658 116.82 885.604 115.714 880.618 117.323C877.952 122.186 878.759 123.983 881.733 126.57C884.784 126.846 887.012 126.74 888.924 126.242C886.75 128.114 886.492 129.818 886.639 132.529C888.658 139.094 891.129 138.967 896.451 136.228C899.927 130.981 900.788 128.473 897.437 123.282L897.101 122.784L895.705 123.282C895.13 123.86 893.875 124.99 893.451 124.885C893.29 124.846 892.996 124.746 892.664 124.607C892.408 124.5 892.129 124.37 891.872 124.226C891.36 123.94 890.932 123.6 890.932 123.282C890.932 121.943 891.893 120.796 893.212 120.563L893.981 120.426C893.981 119.464 895.063 118.899 895.853 119.449L897.03 120.27H897.101L898.7 119.855C899.944 119.532 901.261 119.967 902.068 120.967L899.284 122.131L897.693 122.525L896.765 122.286C899.815 126.091 903.197 128.572 908.493 131.296C908.688 131.298 908.878 131.301 909.064 131.304L909.065 131.304L909.065 131.304L909.066 131.304L909.066 131.304L909.066 131.304L909.067 131.304C913.081 131.361 914.767 131.385 910.723 123.282C909.427 122.519 908.265 121.977 907.178 121.607C909.237 120.886 911.174 119.718 913.399 118.145C914.329 114.503 914.618 112.305 910.951 111.161C908.578 110.803 907.356 110.866 905.25 111.292C900.797 112.908 899.047 115.515 897.553 119.044Z" fill="#F5B1B1"/>
<path d="M907.824 110.542C909.093 110.697 910.123 110.902 910.951 111.161C908.578 110.803 907.356 110.866 905.25 111.292C906.022 111.012 906.876 110.762 907.824 110.542Z" fill="#FFCCCC"/>
<path d="M1486.35 55.7177C1486.35 38.2005 1500.83 24 1518.68 24C1536.53 24 1551 38.2005 1551 55.7177C1551 73.235 1536.53 87.4355 1518.68 87.4355C1500.83 87.4355 1486.35 73.235 1486.35 55.7177Z" fill="#839E75"/>
<path d="M1454.03 81.7263C1454.03 64.2091 1468.5 50.0085 1486.35 50.0085C1504.21 50.0085 1518.68 64.2091 1518.68 81.7263C1518.68 99.2435 1504.21 113.444 1486.35 113.444C1468.5 113.444 1454.03 99.2435 1454.03 81.7263Z" fill="#839E75"/>
<path d="M1399.34 74.114C1399.34 56.5968 1413.81 42.3963 1431.66 42.3963C1449.51 42.3963 1463.98 56.5968 1463.98 74.114C1463.98 91.6312 1449.51 105.832 1431.66 105.832C1413.81 105.832 1399.34 91.6312 1399.34 74.114Z" fill="#839E75"/>
<path d="M1376.13 101.357C1376.13 83.8397 1378 67.1361 1395.85 67.1361C1413.7 67.1361 1428.17 81.3366 1428.17 98.8538C1428.17 116.371 1413.7 130.572 1395.85 130.572C1378 130.572 1376.13 118.874 1376.13 101.357Z" fill="#839E75"/>
<path d="M1311.49 101.357C1311.49 83.8397 1325.96 69.6392 1343.81 69.6392C1361.66 69.6392 1376.13 83.8397 1376.13 101.357C1376.13 118.874 1361.66 133.075 1343.81 133.075C1325.96 133.075 1311.49 118.874 1311.49 101.357Z" fill="#839E75"/>
<path d="M1153.22 103.282C1153.22 85.7651 1138.75 71.5645 1120.9 71.5645C1103.05 71.5645 1088.58 85.7651 1088.58 103.282C1088.58 120.799 1103.05 135 1120.9 135C1138.75 135 1153.22 120.799 1153.22 103.282Z" fill="#839E75"/>
<path d="M1115.29 93.1447C1115.29 75.6274 1100.82 61.4269 1082.97 61.4269C1065.12 61.4269 1050.65 75.6274 1050.65 93.1447C1050.65 110.662 1065.12 124.862 1082.97 124.862C1100.82 124.862 1115.29 110.662 1115.29 93.1447Z" fill="#839E75"/>
<path d="M1068.1 87.4355C1068.1 69.9183 1053.63 55.7177 1035.78 55.7177C1017.93 55.7177 1003.45 69.9183 1003.45 87.4355C1003.45 104.953 1017.93 119.153 1035.78 119.153C1053.63 119.153 1068.1 104.953 1068.1 87.4355Z" fill="#839E75"/>
<path d="M1050.65 61.4269C1050.65 43.9097 1036.17 29.7092 1018.32 29.7092C1000.47 29.7092 986 43.9097 986 61.4269C986 78.9442 1000.47 93.1447 1018.32 93.1447C1036.17 93.1447 1050.65 78.9442 1050.65 61.4269Z" fill="#839E75"/>
<path d="M1213.55 87.4355C1213.55 69.9183 1199.08 55.7177 1181.23 55.7177C1163.38 55.7177 1148.91 69.9183 1148.91 87.4355C1148.91 104.953 1163.38 119.153 1181.23 119.153C1199.08 119.153 1213.55 104.953 1213.55 87.4355Z" fill="#839E75"/>
<path d="M1264.17 101.357C1264.17 83.8397 1249.7 69.6392 1231.85 69.6392C1214 69.6392 1199.53 83.8397 1199.53 101.357C1199.53 118.874 1214 133.075 1231.85 133.075C1249.7 133.075 1264.17 118.874 1264.17 101.357Z" fill="#839E75"/>
<path d="M1314.83 87.4355C1314.83 69.9183 1300.35 55.7178 1282.5 55.7178C1264.65 55.7178 1250.18 69.9183 1250.18 87.4355C1250.18 104.953 1264.65 119.153 1282.5 119.153C1300.35 119.153 1314.83 104.953 1314.83 87.4355Z" fill="#839E75"/>
<path d="M1516.74 92.8363C1325.98 112.259 1217.16 105.936 1022.85 92.8363V30.0176H1516.74V92.8363Z" fill="#839E75"/>
<path d="M1144.95 119.735L1144.93 119.775C1144.06 119.197 1143.22 118.632 1142.42 118.087C1141.43 117.412 1142.32 118.334 1141.4 117.738C1141.4 116.357 1142.96 115.549 1144.09 116.341L1145.76 117.513C1145.29 118.643 1145.42 118.478 1144.95 119.735Z" fill="#DB9494"/>
<path d="M1139.52 123.748C1141.22 122.699 1142.94 121.376 1144.93 119.775C1145.45 120.498 1145.92 121.186 1146.34 121.843L1145.86 121.127L1143.86 121.843C1143.04 122.674 1141.25 124.298 1140.64 124.148C1140.41 124.09 1139.99 123.947 1139.52 123.748Z" fill="#DB9494"/>
<path d="M1145.38 120.411C1144.87 119.77 1145.47 120.516 1144.93 119.775C1147.52 120.29 1146.91 120.122 1148.98 120.189L1146.7 120.754L1145.38 120.411Z" fill="#DB9494"/>
<path d="M1141.4 117.738C1142.98 118.936 1142.88 118.587 1144.93 119.775C1142.3 121.052 1140.15 122.172 1138.39 123.199C1137.66 122.788 1137.05 122.3 1137.05 121.843C1137.05 119.917 1138.43 118.269 1140.32 117.93L1141.4 117.738Z" fill="#DB9494"/>
<path d="M1144.93 119.775C1145.46 118.526 1145.34 118.683 1145.76 117.513H1145.86L1148.13 116.919C1149.91 116.454 1151.8 117.079 1152.95 118.515C1150.94 118.653 1148.86 119.043 1146.46 119.49L1146.46 119.491L1146.46 119.491C1145.97 119.584 1145.46 119.679 1144.93 119.775Z" fill="#DB9494"/>
<path d="M1148.98 120.189C1146.91 120.122 1147.52 120.29 1144.93 119.775C1145.46 119.679 1145.97 119.584 1146.46 119.491L1146.46 119.491L1146.46 119.49C1148.86 119.043 1150.94 118.653 1152.95 118.515L1148.98 120.189Z" fill="#DB9494"/>
<path d="M1144.93 119.775C1142.94 121.376 1141.22 122.699 1139.52 123.748C1139.15 123.594 1138.76 123.406 1138.39 123.199C1140.15 122.172 1142.3 121.052 1144.93 119.775Z" fill="#DB9494"/>
<path d="M1144.93 119.775C1142.88 118.587 1142.98 118.936 1141.4 117.738C1142.32 118.334 1141.43 117.412 1142.42 118.087C1143.22 118.632 1144.06 119.197 1144.93 119.775Z" fill="#DB9494"/>
<path d="M1146.34 121.843C1145.92 121.186 1145.45 120.498 1144.93 119.775C1145.47 120.516 1144.87 119.77 1145.38 120.411L1146.34 121.843Z" fill="#DB9494"/>
<path d="M1145.76 117.513C1145.34 118.683 1145.46 118.526 1144.93 119.775L1144.95 119.735C1145.42 118.478 1145.29 118.643 1145.76 117.513Z" fill="#DB9494"/>
<path d="M1146.52 98.2117C1140.03 96.2466 1136.64 96.6936 1130.91 99.3933C1132.41 98.7552 1135.79 98.5016 1146.52 98.2117Z" fill="#FFCCCC"/>
<path fill-rule="evenodd" clip-rule="evenodd" d="M1146.5 115.751C1148.31 110.492 1148.72 105.635 1146.52 98.2117C1135.79 98.5016 1132.41 98.7552 1130.91 99.3933C1131.39 107.211 1133.88 111.733 1138.75 115.654C1133.8 112.554 1129.43 110.963 1122.31 113.277C1118.5 120.267 1119.66 122.851 1123.9 126.569C1128.26 126.967 1131.45 126.814 1134.18 126.098C1131.07 128.788 1130.7 131.238 1130.91 135.136C1133.8 144.573 1137.33 144.39 1144.93 140.453C1149.9 132.91 1151.13 129.304 1146.34 121.843L1145.86 121.127L1143.86 121.843C1143.04 122.674 1141.25 124.298 1140.64 124.148C1140.41 124.09 1139.99 123.947 1139.52 123.748C1139.15 123.594 1138.76 123.406 1138.39 123.199C1137.66 122.788 1137.05 122.3 1137.05 121.843C1137.05 119.917 1138.43 118.269 1140.32 117.93L1141.4 117.738C1141.4 116.357 1142.96 115.549 1144.09 116.341L1145.76 117.513H1145.86L1148.13 116.919C1149.91 116.454 1151.8 117.079 1152.95 118.515L1148.98 120.189L1146.7 120.754L1145.38 120.411C1149.74 125.881 1154.57 129.448 1162.13 133.363C1162.41 133.366 1162.68 133.37 1162.95 133.374L1162.95 133.374L1162.95 133.374L1162.95 133.374L1162.95 133.374L1162.95 133.374L1162.95 133.374C1168.69 133.456 1171.1 133.491 1165.32 121.843C1163.47 120.745 1161.81 119.966 1160.25 119.435C1163.2 118.399 1165.96 116.72 1169.14 114.458C1170.47 109.223 1170.88 106.064 1165.64 104.418C1162.25 103.904 1160.51 103.995 1157.5 104.608C1151.14 106.93 1148.64 110.678 1146.5 115.751Z" fill="#F5B1B1"/>
<path d="M1161.18 103.529C1162.99 103.752 1164.46 104.047 1165.64 104.418C1162.25 103.904 1160.51 103.995 1157.5 104.608C1158.6 104.205 1159.82 103.845 1161.18 103.529Z" fill="#FFCCCC"/>
<path d="M1243.53 41.356L1243.54 41.3779C1244.01 41.0636 1244.46 40.7563 1244.89 40.4602C1245.43 40.0935 1244.95 40.5948 1245.44 40.2705C1245.44 39.5217 1244.6 39.0841 1243.99 39.5159L1243.09 40.1484C1243.34 40.7625 1243.27 40.6731 1243.53 41.356Z" fill="#FCC16D"/>
<path d="M1246.46 43.5367C1245.54 42.9668 1244.61 42.2479 1243.54 41.3779C1243.26 41.7707 1243.01 42.1443 1242.78 42.5017L1243.04 42.1125L1244.11 42.5017C1244.56 42.9533 1245.53 43.8361 1245.85 43.7541C1245.98 43.7231 1246.2 43.6452 1246.46 43.5367Z" fill="#FCC16D"/>
<path d="M1243.3 41.7234C1243.57 41.3752 1243.25 41.7804 1243.54 41.3779C1242.14 41.6575 1242.47 41.5661 1241.35 41.6025L1242.58 41.9098L1243.3 41.7234Z" fill="#FCC16D"/>
<path d="M1245.44 40.2705C1244.59 40.9215 1244.64 40.732 1243.54 41.3779C1244.96 42.0719 1246.12 42.6805 1247.07 43.2388C1247.47 43.0154 1247.8 42.75 1247.8 42.5017C1247.8 41.4548 1247.05 40.5582 1246.02 40.3732L1245.44 40.2705Z" fill="#FCC16D"/>
<path d="M1243.54 41.3779C1243.25 40.699 1243.32 40.7842 1243.09 40.1484H1243.04L1241.81 39.8272C1240.85 39.5737 1239.83 39.9132 1239.2 40.6929C1240.29 40.7677 1241.42 40.9797 1242.71 41.2231C1242.98 41.2736 1243.25 41.3256 1243.54 41.3779Z" fill="#FCC16D"/>
<path d="M1241.35 41.6025C1242.47 41.5661 1242.14 41.6575 1243.54 41.3779C1243.25 41.3256 1242.98 41.2736 1242.71 41.2231C1241.42 40.9797 1240.29 40.7677 1239.2 40.6929L1241.35 41.6025Z" fill="#FCC16D"/>
<path d="M1243.54 41.3779C1244.61 42.2479 1245.54 42.9668 1246.46 43.5367C1246.66 43.453 1246.87 43.3512 1247.07 43.2388C1246.12 42.6805 1244.96 42.0719 1243.54 41.3779Z" fill="#FCC16D"/>
<path d="M1243.54 41.3779C1244.64 40.732 1244.59 40.9215 1245.44 40.2705C1244.95 40.5948 1245.43 40.0935 1244.89 40.4602C1244.46 40.7563 1244.01 41.0636 1243.54 41.3779Z" fill="#FCC16D"/>
<path d="M1242.78 42.5017C1243.01 42.1443 1243.26 41.7707 1243.54 41.3779C1243.25 41.7804 1243.57 41.3752 1243.3 41.7234L1242.78 42.5017Z" fill="#FCC16D"/>
<path d="M1243.09 40.1484C1243.32 40.7842 1243.25 40.699 1243.54 41.3779L1243.53 41.356C1243.27 40.6731 1243.34 40.7625 1243.09 40.1484Z" fill="#FCC16D"/>
<path d="M1242.68 29.6585C1246.18 28.5906 1248.02 28.8335 1251.11 30.3007C1250.3 29.9539 1248.47 29.8161 1242.68 29.6585Z" fill="#FCC16D"/>
<path fill-rule="evenodd" clip-rule="evenodd" d="M1242.69 39.1909C1241.71 36.3324 1241.49 33.693 1242.68 29.6585C1248.47 29.8161 1250.3 29.9539 1251.11 30.3007C1250.85 34.5493 1249.5 37.007 1246.88 39.1383C1249.55 37.4534 1251.91 36.5887 1255.75 37.846C1257.81 41.6451 1257.19 43.0495 1254.89 45.0703C1252.54 45.2862 1250.82 45.203 1249.34 44.8143C1251.02 46.2763 1251.22 47.6078 1251.11 49.726C1249.55 54.8549 1247.64 54.7554 1243.54 52.6157C1240.86 48.5161 1240.19 46.5568 1242.78 42.5017L1243.04 42.1125L1244.11 42.5017C1244.56 42.9533 1245.53 43.8361 1245.85 43.7541C1245.98 43.7231 1246.2 43.6452 1246.46 43.5367C1246.66 43.453 1246.87 43.3512 1247.07 43.2388C1247.47 43.0154 1247.8 42.75 1247.8 42.5017C1247.8 41.4548 1247.05 40.5582 1246.02 40.3732L1245.44 40.2705C1245.44 39.5217 1244.6 39.0841 1243.99 39.5159L1243.09 40.1484H1243.04L1241.81 39.8272C1240.85 39.5737 1239.83 39.9132 1239.2 40.6929L1241.35 41.6025L1242.58 41.9098L1243.3 41.7234C1240.94 44.6962 1238.33 46.6346 1234.25 48.7627C1234.1 48.7643 1233.95 48.7664 1233.81 48.7685L1233.81 48.7685C1230.71 48.8133 1229.41 48.8321 1232.53 42.5017C1233.53 41.9051 1234.42 41.4817 1235.26 41.1929C1233.67 40.6298 1232.18 39.7174 1230.46 38.4882C1229.75 35.6429 1229.52 33.926 1232.35 33.0317C1234.18 32.7522 1235.13 32.8016 1236.75 33.1347C1240.19 34.3968 1241.54 36.4334 1242.69 39.1909Z" fill="#FCC16D"/>
<path d="M1234.76 32.5482C1233.79 32.6698 1232.99 32.8298 1232.35 33.0317C1234.18 32.7522 1235.13 32.8016 1236.75 33.1347C1236.15 32.9158 1235.5 32.7202 1234.76 32.5482Z" fill="#FCC16D"/>
<path d="M1243.54 41.3779C1243.25 40.699 1243.32 40.7842 1243.09 40.1484M1243.54 41.3779C1244.64 40.732 1244.59 40.9215 1245.44 40.2705M1243.54 41.3779C1244.61 42.2479 1245.54 42.9668 1246.46 43.5367M1243.54 41.3779C1244.96 42.0719 1246.12 42.6805 1247.07 43.2388M1243.54 41.3779C1243.26 41.7707 1243.01 42.1443 1242.78 42.5017M1243.54 41.3779C1243.25 41.7804 1243.57 41.3752 1243.3 41.7234M1243.54 41.3779L1243.53 41.356C1243.27 40.6731 1243.34 40.7625 1243.09 40.1484M1243.54 41.3779C1242.14 41.6575 1242.47 41.5661 1241.35 41.6025M1243.54 41.3779C1244.01 41.0636 1244.46 40.7563 1244.89 40.4602C1245.43 40.0935 1244.95 40.5948 1245.44 40.2705M1243.54 41.3779C1243.25 41.3256 1242.98 41.2736 1242.71 41.2231C1241.42 40.9797 1240.29 40.7677 1239.2 40.6929M1243.09 40.1484C1243.36 40.8821 1242.71 39.2654 1242.69 39.1909M1243.09 40.1484C1243.06 40.0748 1242.72 39.2635 1242.69 39.1909M1243.09 40.1484H1243.04L1241.81 39.8272C1240.85 39.5737 1239.83 39.9132 1239.2 40.6929M1243.09 40.1484L1243.99 39.5159C1244.6 39.0841 1245.44 39.5217 1245.44 40.2705M1242.69 39.1909C1241.71 36.3324 1241.49 33.693 1242.68 29.6585M1242.69 39.1909C1241.54 36.4334 1240.19 34.3968 1236.75 33.1347M1242.68 29.6585C1246.18 28.5906 1248.02 28.8335 1251.11 30.3007M1242.68 29.6585C1248.47 29.8161 1250.3 29.9539 1251.11 30.3007M1251.11 30.3007C1250.85 34.5493 1249.5 37.007 1246.88 39.1383M1246.88 39.1383C1246.74 39.2443 1245.58 40.1659 1245.44 40.2705M1246.88 39.1383C1246.73 39.2297 1245.59 40.1744 1245.44 40.2705M1246.88 39.1383C1249.55 37.4534 1251.91 36.5887 1255.75 37.846C1257.81 41.6451 1257.19 43.0495 1254.89 45.0703C1252.54 45.2862 1250.82 45.203 1249.34 44.8143M1245.44 40.2705L1246.02 40.3732C1247.05 40.5582 1247.8 41.4548 1247.8 42.5017C1247.8 42.75 1247.47 43.0154 1247.07 43.2388M1249.34 44.8143C1248.31 44.5406 1247.39 44.1155 1246.46 43.5367M1249.34 44.8143C1248.77 44.3164 1248.03 43.8033 1247.07 43.2388M1249.34 44.8143C1251.02 46.2763 1251.22 47.6078 1251.11 49.726C1249.55 54.8549 1247.64 54.7554 1243.54 52.6157C1240.86 48.5161 1240.19 46.5568 1242.78 42.5017M1246.46 43.5367C1246.66 43.453 1246.87 43.3512 1247.07 43.2388M1246.46 43.5367C1246.2 43.6452 1245.98 43.7231 1245.85 43.7541C1245.53 43.8361 1244.56 42.9533 1244.11 42.5017L1243.04 42.1125L1242.78 42.5017M1242.78 42.5017L1243.3 41.7234M1243.3 41.7234C1240.94 44.6962 1238.33 46.6346 1234.25 48.7627C1234.1 48.7643 1233.95 48.7664 1233.81 48.7685L1233.81 48.7685C1230.71 48.8133 1229.41 48.8321 1232.53 42.5017C1233.53 41.9051 1234.42 41.4817 1235.26 41.1929M1243.3 41.7234L1242.58 41.9098L1241.35 41.6025M1235.26 41.1929C1233.67 40.6298 1232.18 39.7174 1230.46 38.4882C1229.75 35.6429 1229.52 33.926 1232.35 33.0317M1235.26 41.1929C1236.63 41.6795 1239.64 41.6585 1241.35 41.6025M1235.26 41.1929C1236.66 40.7099 1237.91 40.6034 1239.2 40.6929M1241.35 41.6025L1239.2 40.6929M1232.35 33.0317C1232.99 32.8298 1233.79 32.6698 1234.76 32.5482C1235.5 32.7202 1236.15 32.9158 1236.75 33.1347M1232.35 33.0317C1234.18 32.7522 1235.13 32.8016 1236.75 33.1347" stroke="url(#paint1_radial_1966_6)" stroke-width="0.2"/>
<path d="M999.471 74.356L999.462 74.3779C998.991 74.0636 998.541 73.7563 998.108 73.4602C997.571 73.0935 998.054 73.5948 997.557 73.2705C997.557 72.5217 998.401 72.0841 999.013 72.5159L999.909 73.1484C999.658 73.7625 999.727 73.6731 999.471 74.356Z" fill="#FCC16D"/>
<path d="M996.541 76.5367C997.457 75.9668 998.388 75.2479 999.462 74.3779C999.742 74.7707 999.995 75.1443 1000.22 75.5017L999.964 75.1125L998.886 75.5017C998.443 75.9533 997.475 76.8361 997.148 76.7541C997.024 76.7231 996.797 76.6452 996.541 76.5367Z" fill="#FCC16D"/>
<path d="M999.705 74.7234C999.429 74.3752 999.751 74.7804 999.462 74.3779C1000.86 74.6575 1000.53 74.5661 1001.65 74.6025L1000.42 74.9098L999.705 74.7234Z" fill="#FCC16D"/>
<path d="M997.557 73.2705C998.41 73.9215 998.356 73.732 999.462 74.3779C998.042 75.0719 996.879 75.6805 995.93 76.2388C995.535 76.0154 995.205 75.75 995.205 75.5017C995.205 74.4548 995.954 73.5582 996.985 73.3732L997.557 73.2705Z" fill="#FCC16D"/>
<path d="M999.462 74.3779C999.751 73.699 999.685 73.7842 999.909 73.1484H999.964L1001.19 72.8272C1002.15 72.5737 1003.17 72.9132 1003.8 73.6929C1002.71 73.7677 1001.58 73.9797 1000.29 74.2231C1000.02 74.2736 999.746 74.3256 999.462 74.3779Z" fill="#FCC16D"/>
<path d="M1001.65 74.6025C1000.53 74.5661 1000.86 74.6575 999.462 74.3779C999.746 74.3256 1000.02 74.2736 1000.29 74.2231C1001.58 73.9797 1002.71 73.7677 1003.8 73.6929L1001.65 74.6025Z" fill="#FCC16D"/>
<path d="M999.462 74.3779C998.388 75.2479 997.457 75.9668 996.541 76.5367C996.343 76.453 996.128 76.3512 995.93 76.2388C996.879 75.6805 998.042 75.0719 999.462 74.3779Z" fill="#FCC16D"/>
<path d="M999.462 74.3779C998.356 73.732 998.41 73.9215 997.557 73.2705C998.054 73.5948 997.571 73.0935 998.108 73.4602C998.541 73.7563 998.991 74.0636 999.462 74.3779Z" fill="#FCC16D"/>
<path d="M1000.22 75.5017C999.995 75.1443 999.742 74.7707 999.462 74.3779C999.751 74.7804 999.429 74.3752 999.705 74.7234L1000.22 75.5017Z" fill="#FCC16D"/>
<path d="M999.909 73.1484C999.685 73.7842 999.751 73.699 999.462 74.3779L999.471 74.356C999.727 73.6731 999.658 73.7625 999.909 73.1484Z" fill="#FCC16D"/>
<path d="M1000.32 62.6585C996.816 61.5906 994.985 61.8335 991.893 63.3007C992.703 62.9539 994.527 62.8161 1000.32 62.6585Z" fill="#FCC16D"/>
<path fill-rule="evenodd" clip-rule="evenodd" d="M1000.31 72.1909C1001.29 69.3324 1001.51 66.693 1000.32 62.6585C994.527 62.8161 992.703 62.9539 991.893 63.3007C992.15 67.5493 993.497 70.007 996.124 72.1383C993.45 70.4534 991.094 69.5887 987.248 70.846C985.192 74.6451 985.814 76.0495 988.108 78.0703C990.462 78.2862 992.181 78.203 993.655 77.8143C991.978 79.2763 991.78 80.6078 991.893 82.726C993.451 87.8549 995.357 87.7554 999.462 85.6157C1002.14 81.5161 1002.81 79.5568 1000.22 75.5017L999.964 75.1125L998.886 75.5017C998.443 75.9533 997.475 76.8361 997.148 76.7541C997.024 76.7231 996.797 76.6452 996.541 76.5367C996.343 76.453 996.128 76.3512 995.93 76.2388C995.535 76.0154 995.205 75.75 995.205 75.5017C995.205 74.4548 995.954 73.5582 996.985 73.3732L997.557 73.2705C997.557 72.5217 998.401 72.0841 999.013 72.5159L999.909 73.1484H999.964L1001.19 72.8272C1002.15 72.5737 1003.17 72.9132 1003.8 73.6929L1001.65 74.6025L1000.42 74.9098L999.705 74.7234C1002.06 77.6962 1004.67 79.6346 1008.75 81.7627C1008.9 81.7643 1009.05 81.7664 1009.19 81.7685L1009.19 81.7685C1012.29 81.8133 1013.59 81.8321 1010.47 75.5017C1009.47 74.9051 1008.58 74.4817 1007.74 74.1929C1009.33 73.6298 1010.82 72.7174 1012.54 71.4882C1013.25 68.6429 1013.48 66.926 1010.65 66.0317C1008.82 65.7522 1007.87 65.8016 1006.25 66.1347C1002.81 67.3968 1001.46 69.4334 1000.31 72.1909Z" fill="#FCC16D"/>
<path d="M1008.24 65.5482C1009.21 65.6698 1010.01 65.8298 1010.65 66.0317C1008.82 65.7522 1007.87 65.8016 1006.25 66.1347C1006.85 65.9158 1007.5 65.7202 1008.24 65.5482Z" fill="#FCC16D"/>
<path d="M999.462 74.3779C999.751 73.699 999.685 73.7842 999.909 73.1484M999.462 74.3779C998.356 73.732 998.41 73.9215 997.557 73.2705M999.462 74.3779C998.388 75.2479 997.457 75.9668 996.541 76.5367M999.462 74.3779C998.042 75.0719 996.879 75.6805 995.93 76.2388M999.462 74.3779C999.742 74.7707 999.995 75.1443 1000.22 75.5017M999.462 74.3779C999.751 74.7804 999.429 74.3752 999.705 74.7234M999.462 74.3779L999.471 74.356C999.727 73.6731 999.658 73.7625 999.909 73.1484M999.462 74.3779C1000.86 74.6575 1000.53 74.5661 1001.65 74.6025M999.462 74.3779C998.991 74.0636 998.541 73.7563 998.108 73.4602C997.571 73.0935 998.054 73.5948 997.557 73.2705M999.462 74.3779C999.746 74.3256 1000.02 74.2736 1000.29 74.2231C1001.58 73.9797 1002.71 73.7677 1003.8 73.6929M999.909 73.1484C999.637 73.8821 1000.29 72.2654 1000.31 72.1909M999.909 73.1484C999.939 73.0748 1000.28 72.2635 1000.31 72.1909M999.909 73.1484H999.964L1001.19 72.8272C1002.15 72.5737 1003.17 72.9132 1003.8 73.6929M999.909 73.1484L999.013 72.5159C998.401 72.0841 997.557 72.5217 997.557 73.2705M1000.31 72.1909C1001.29 69.3324 1001.51 66.693 1000.32 62.6585M1000.31 72.1909C1001.46 69.4334 1002.81 67.3968 1006.25 66.1347M1000.32 62.6585C996.816 61.5906 994.985 61.8335 991.893 63.3007M1000.32 62.6585C994.527 62.8161 992.703 62.9539 991.893 63.3007M991.893 63.3007C992.15 67.5493 993.497 70.007 996.124 72.1383M996.124 72.1383C996.255 72.2443 997.42 73.1659 997.557 73.2705M996.124 72.1383C996.27 72.2297 997.409 73.1744 997.557 73.2705M996.124 72.1383C993.45 70.4534 991.094 69.5887 987.248 70.846C985.192 74.6451 985.814 76.0495 988.108 78.0703C990.462 78.2862 992.181 78.203 993.655 77.8143M997.557 73.2705L996.985 73.3732C995.954 73.5582 995.205 74.4548 995.205 75.5017C995.205 75.75 995.535 76.0154 995.93 76.2388M993.655 77.8143C994.693 77.5406 995.61 77.1155 996.541 76.5367M993.655 77.8143C994.226 77.3164 994.969 76.8033 995.93 76.2388M993.655 77.8143C991.978 79.2763 991.78 80.6078 991.893 82.726C993.451 87.8549 995.357 87.7554 999.462 85.6157C1002.14 81.5161 1002.81 79.5568 1000.22 75.5017M996.541 76.5367C996.343 76.453 996.128 76.3512 995.93 76.2388M996.541 76.5367C996.797 76.6452 997.024 76.7231 997.148 76.7541C997.475 76.8361 998.443 75.9533 998.886 75.5017L999.964 75.1125L1000.22 75.5017M1000.22 75.5017L999.705 74.7234M999.705 74.7234C1002.06 77.6962 1004.67 79.6346 1008.75 81.7627C1008.9 81.7643 1009.05 81.7664 1009.19 81.7685L1009.19 81.7685C1012.29 81.8133 1013.59 81.8321 1010.47 75.5017C1009.47 74.9051 1008.58 74.4817 1007.74 74.1929M999.705 74.7234L1000.42 74.9098L1001.65 74.6025M1007.74 74.1929C1009.33 73.6298 1010.82 72.7174 1012.54 71.4882C1013.25 68.6429 1013.48 66.926 1010.65 66.0317M1007.74 74.1929C1006.37 74.6795 1003.36 74.6585 1001.65 74.6025M1007.74 74.1929C1006.34 73.7099 1005.09 73.6034 1003.8 73.6929M1001.65 74.6025L1003.8 73.6929M1010.65 66.0317C1010.01 65.8298 1009.21 65.6698 1008.24 65.5482C1007.5 65.7202 1006.85 65.9158 1006.25 66.1347M1010.65 66.0317C1008.82 65.7522 1007.87 65.8016 1006.25 66.1347" stroke="url(#paint2_radial_1966_6)" stroke-width="0.2"/>
<path d="M999.471 74.356L999.462 74.3779C998.991 74.0636 998.541 73.7563 998.108 73.4602C997.571 73.0935 998.054 73.5948 997.557 73.2705C997.557 72.5217 998.401 72.0841 999.013 72.5159L999.909 73.1484C999.658 73.7625 999.727 73.6731 999.471 74.356Z" fill="#FCC16D"/>
<path d="M996.541 76.5367C997.457 75.9668 998.388 75.2479 999.462 74.3779C999.742 74.7707 999.995 75.1443 1000.22 75.5017L999.964 75.1125L998.886 75.5017C998.443 75.9533 997.475 76.8361 997.148 76.7541C997.024 76.7231 996.797 76.6452 996.541 76.5367Z" fill="#FCC16D"/>
<path d="M999.705 74.7234C999.429 74.3752 999.751 74.7804 999.462 74.3779C1000.86 74.6575 1000.53 74.5661 1001.65 74.6025L1000.42 74.9098L999.705 74.7234Z" fill="#FCC16D"/>
<path d="M997.557 73.2705C998.41 73.9215 998.356 73.732 999.462 74.3779C998.042 75.0719 996.879 75.6805 995.93 76.2388C995.535 76.0154 995.205 75.75 995.205 75.5017C995.205 74.4548 995.954 73.5582 996.985 73.3732L997.557 73.2705Z" fill="#FCC16D"/>
<path d="M999.462 74.3779C999.751 73.699 999.685 73.7842 999.909 73.1484H999.964L1001.19 72.8272C1002.15 72.5737 1003.17 72.9132 1003.8 73.6929C1002.71 73.7677 1001.58 73.9797 1000.29 74.2231C1000.02 74.2736 999.746 74.3256 999.462 74.3779Z" fill="#FCC16D"/>
<path d="M1001.65 74.6025C1000.53 74.5661 1000.86 74.6575 999.462 74.3779C999.746 74.3256 1000.02 74.2736 1000.29 74.2231C1001.58 73.9797 1002.71 73.7677 1003.8 73.6929L1001.65 74.6025Z" fill="#FCC16D"/>
<path d="M999.462 74.3779C998.388 75.2479 997.457 75.9668 996.541 76.5367C996.343 76.453 996.128 76.3512 995.93 76.2388C996.879 75.6805 998.042 75.0719 999.462 74.3779Z" fill="#FCC16D"/>
<path d="M999.462 74.3779C998.356 73.732 998.41 73.9215 997.557 73.2705C998.054 73.5948 997.571 73.0935 998.108 73.4602C998.541 73.7563 998.991 74.0636 999.462 74.3779Z" fill="#FCC16D"/>
<path d="M1000.22 75.5017C999.995 75.1443 999.742 74.7707 999.462 74.3779C999.751 74.7804 999.429 74.3752 999.705 74.7234L1000.22 75.5017Z" fill="#FCC16D"/>
<path d="M999.909 73.1484C999.685 73.7842 999.751 73.699 999.462 74.3779L999.471 74.356C999.727 73.6731 999.658 73.7625 999.909 73.1484Z" fill="#FCC16D"/>
<path d="M1000.32 62.6585C996.816 61.5906 994.985 61.8335 991.893 63.3007C992.703 62.9539 994.527 62.8161 1000.32 62.6585Z" fill="#FCC16D"/>
<path fill-rule="evenodd" clip-rule="evenodd" d="M1000.31 72.1909C1001.29 69.3324 1001.51 66.693 1000.32 62.6585C994.527 62.8161 992.703 62.9539 991.893 63.3007C992.15 67.5493 993.497 70.007 996.124 72.1383C993.45 70.4534 991.094 69.5887 987.248 70.846C985.192 74.6451 985.814 76.0495 988.108 78.0703C990.462 78.2862 992.181 78.203 993.655 77.8143C991.978 79.2763 991.78 80.6078 991.893 82.726C993.451 87.8549 995.357 87.7554 999.462 85.6157C1002.14 81.5161 1002.81 79.5568 1000.22 75.5017L999.964 75.1125L998.886 75.5017C998.443 75.9533 997.475 76.8361 997.148 76.7541C997.024 76.7231 996.797 76.6452 996.541 76.5367C996.343 76.453 996.128 76.3512 995.93 76.2388C995.535 76.0154 995.205 75.75 995.205 75.5017C995.205 74.4548 995.954 73.5582 996.985 73.3732L997.557 73.2705C997.557 72.5217 998.401 72.0841 999.013 72.5159L999.909 73.1484H999.964L1001.19 72.8272C1002.15 72.5737 1003.17 72.9132 1003.8 73.6929L1001.65 74.6025L1000.42 74.9098L999.705 74.7234C1002.06 77.6962 1004.67 79.6346 1008.75 81.7627C1008.9 81.7643 1009.05 81.7664 1009.19 81.7685L1009.19 81.7685C1012.29 81.8133 1013.59 81.8321 1010.47 75.5017C1009.47 74.9051 1008.58 74.4817 1007.74 74.1929C1009.33 73.6298 1010.82 72.7174 1012.54 71.4882C1013.25 68.6429 1013.48 66.926 1010.65 66.0317C1008.82 65.7522 1007.87 65.8016 1006.25 66.1347C1002.81 67.3968 1001.46 69.4334 1000.31 72.1909Z" fill="#FCC16D"/>
<path d="M1008.24 65.5482C1009.21 65.6698 1010.01 65.8298 1010.65 66.0317C1008.82 65.7522 1007.87 65.8016 1006.25 66.1347C1006.85 65.9158 1007.5 65.7202 1008.24 65.5482Z" fill="#FCC16D"/>
<path d="M999.462 74.3779C999.751 73.699 999.685 73.7842 999.909 73.1484M999.462 74.3779C998.356 73.732 998.41 73.9215 997.557 73.2705M999.462 74.3779C998.388 75.2479 997.457 75.9668 996.541 76.5367M999.462 74.3779C998.042 75.0719 996.879 75.6805 995.93 76.2388M999.462 74.3779C999.742 74.7707 999.995 75.1443 1000.22 75.5017M999.462 74.3779C999.751 74.7804 999.429 74.3752 999.705 74.7234M999.462 74.3779L999.471 74.356C999.727 73.6731 999.658 73.7625 999.909 73.1484M999.462 74.3779C1000.86 74.6575 1000.53 74.5661 1001.65 74.6025M999.462 74.3779C998.991 74.0636 998.541 73.7563 998.108 73.4602C997.571 73.0935 998.054 73.5948 997.557 73.2705M999.462 74.3779C999.746 74.3256 1000.02 74.2736 1000.29 74.2231C1001.58 73.9797 1002.71 73.7677 1003.8 73.6929M999.909 73.1484C999.637 73.8821 1000.29 72.2654 1000.31 72.1909M999.909 73.1484C999.939 73.0748 1000.28 72.2635 1000.31 72.1909M999.909 73.1484H999.964L1001.19 72.8272C1002.15 72.5737 1003.17 72.9132 1003.8 73.6929M999.909 73.1484L999.013 72.5159C998.401 72.0841 997.557 72.5217 997.557 73.2705M1000.31 72.1909C1001.29 69.3324 1001.51 66.693 1000.32 62.6585M1000.31 72.1909C1001.46 69.4334 1002.81 67.3968 1006.25 66.1347M1000.32 62.6585C996.816 61.5906 994.985 61.8335 991.893 63.3007M1000.32 62.6585C994.527 62.8161 992.703 62.9539 991.893 63.3007M991.893 63.3007C992.15 67.5493 993.497 70.007 996.124 72.1383M996.124 72.1383C996.255 72.2443 997.42 73.1659 997.557 73.2705M996.124 72.1383C996.27 72.2297 997.409 73.1744 997.557 73.2705M996.124 72.1383C993.45 70.4534 991.094 69.5887 987.248 70.846C985.192 74.6451 985.814 76.0495 988.108 78.0703C990.462 78.2862 992.181 78.203 993.655 77.8143M997.557 73.2705L996.985 73.3732C995.954 73.5582 995.205 74.4548 995.205 75.5017C995.205 75.75 995.535 76.0154 995.93 76.2388M993.655 77.8143C994.693 77.5406 995.61 77.1155 996.541 76.5367M993.655 77.8143C994.226 77.3164 994.969 76.8033 995.93 76.2388M993.655 77.8143C991.978 79.2763 991.78 80.6078 991.893 82.726C993.451 87.8549 995.357 87.7554 999.462 85.6157C1002.14 81.5161 1002.81 79.5568 1000.22 75.5017M996.541 76.5367C996.343 76.453 996.128 76.3512 995.93 76.2388M996.541 76.5367C996.797 76.6452 997.024 76.7231 997.148 76.7541C997.475 76.8361 998.443 75.9533 998.886 75.5017L999.964 75.1125L1000.22 75.5017M1000.22 75.5017L999.705 74.7234M999.705 74.7234C1002.06 77.6962 1004.67 79.6346 1008.75 81.7627C1008.9 81.7643 1009.05 81.7664 1009.19 81.7685L1009.19 81.7685C1012.29 81.8133 1013.59 81.8321 1010.47 75.5017C1009.47 74.9051 1008.58 74.4817 1007.74 74.1929M999.705 74.7234L1000.42 74.9098L1001.65 74.6025M1007.74 74.1929C1009.33 73.6298 1010.82 72.7174 1012.54 71.4882C1013.25 68.6429 1013.48 66.926 1010.65 66.0317M1007.74 74.1929C1006.37 74.6795 1003.36 74.6585 1001.65 74.6025M1007.74 74.1929C1006.34 73.7099 1005.09 73.6034 1003.8 73.6929M1001.65 74.6025L1003.8 73.6929M1010.65 66.0317C1010.01 65.8298 1009.21 65.6698 1008.24 65.5482C1007.5 65.7202 1006.85 65.9158 1006.25 66.1347M1010.65 66.0317C1008.82 65.7522 1007.87 65.8016 1006.25 66.1347" stroke="url(#paint3_radial_1966_6)" stroke-width="0.2"/>
<path d="M617.952 117.264L617.939 117.3C617.17 116.784 616.437 116.28 615.731 115.795C614.857 115.193 615.644 116.016 614.833 115.484C614.833 114.258 616.217 113.544 617.216 114.253L618.667 115.283C618.258 116.29 618.37 116.144 617.952 117.264Z" fill="#FCC16D"/>
<path d="M613.178 120.84C614.671 119.906 616.188 118.727 617.939 117.3C618.394 117.944 618.806 118.557 619.177 119.143L618.755 118.505L617 119.143C616.278 119.883 614.7 121.331 614.167 121.197C613.965 121.146 613.595 121.018 613.178 120.84Z" fill="#FCC16D"/>
<path d="M618.333 117.866C617.884 117.295 618.41 117.96 617.939 117.3C620.222 117.758 619.684 117.608 621.5 117.668L619.5 118.172L618.333 117.866Z" fill="#FCC16D"/>
<path d="M614.833 115.484C616.224 116.551 616.136 116.24 617.939 117.3C615.624 118.438 613.729 119.436 612.181 120.352C611.538 119.985 611 119.55 611 119.143C611 117.425 612.229 115.954 613.919 115.649L614.833 115.484Z" fill="#FCC16D"/>
<path d="M617.939 117.3C618.409 116.186 618.301 116.326 618.667 115.283H618.755L620.739 114.759C622.315 114.342 623.988 114.899 625 116.176C623.23 116.299 621.396 116.647 619.289 117.046C618.852 117.129 618.401 117.214 617.939 117.3Z" fill="#FCC16D"/>
<path d="M621.5 117.668C619.684 117.608 620.222 117.758 617.939 117.3C618.401 117.214 618.852 117.129 619.289 117.046C621.396 116.647 623.23 116.299 625 116.176L621.5 117.668Z" fill="#FCC16D"/>
<path d="M617.939 117.3C616.188 118.727 614.671 119.906 613.178 120.84C612.856 120.703 612.505 120.536 612.181 120.352C613.729 119.436 615.624 118.438 617.939 117.3Z" fill="#FCC16D"/>
<path d="M617.939 117.3C616.136 116.24 616.224 116.551 614.833 115.484C615.644 116.016 614.857 115.193 615.731 115.795C616.437 116.28 617.17 116.784 617.939 117.3Z" fill="#FCC16D"/>
<path d="M619.177 119.143C618.806 118.557 618.394 117.944 617.939 117.3C618.41 117.96 617.884 117.295 618.333 117.866L619.177 119.143Z" fill="#FCC16D"/>
<path d="M618.667 115.283C618.301 116.326 618.409 116.186 617.939 117.3L617.952 117.264C618.37 116.144 618.258 116.29 618.667 115.283Z" fill="#FCC16D"/>
<path d="M619.34 98.08C613.626 96.3285 610.642 96.7269 605.604 99.1331C606.923 98.5645 609.896 98.3384 619.34 98.08Z" fill="#FCC16D"/>
<path fill-rule="evenodd" clip-rule="evenodd" d="M619.324 113.713C620.911 109.025 621.278 104.696 619.34 98.08C609.896 98.3384 606.923 98.5645 605.604 99.1331C606.023 106.101 608.217 110.131 612.499 113.627C608.141 110.864 604.302 109.445 598.034 111.508C594.683 117.738 595.697 120.041 599.436 123.355C603.271 123.709 606.073 123.573 608.475 122.935C605.742 125.333 605.419 127.517 605.604 130.991C608.142 139.402 611.248 139.239 617.939 135.73C622.308 129.006 623.391 125.793 619.177 119.143L618.755 118.505L617 119.143C616.278 119.883 614.7 121.331 614.167 121.197C613.965 121.146 613.595 121.018 613.178 120.84C612.856 120.703 612.505 120.536 612.181 120.352C611.538 119.985 611 119.55 611 119.143C611 117.425 612.229 115.954 613.919 115.649L614.833 115.484C614.833 114.258 616.217 113.544 617.216 114.253L618.667 115.283H618.755L620.739 114.759C622.315 114.342 623.988 114.899 625 116.176L621.5 117.668L619.5 118.172L618.333 117.866C622.167 122.742 626.419 125.921 633.077 129.411C633.322 129.413 633.563 129.417 633.796 129.42L633.798 129.42C638.844 129.494 640.964 129.525 635.881 119.143C634.251 118.164 632.791 117.47 631.424 116.996C634.012 116.073 636.447 114.577 639.245 112.561C640.413 107.894 640.777 105.079 636.167 103.612C633.183 103.154 631.648 103.235 629 103.781C623.402 105.851 621.201 109.191 619.324 113.713Z" fill="#FCC16D"/>
<path d="M632.236 102.819C633.832 103.018 635.126 103.281 636.167 103.612C633.183 103.154 631.648 103.235 629 103.781C629.971 103.422 631.044 103.101 632.236 102.819Z" fill="#FCC16D"/>
<path d="M617.939 117.3C618.409 116.186 618.301 116.326 618.667 115.283M617.939 117.3C616.136 116.24 616.224 116.551 614.833 115.484M617.939 117.3C616.188 118.727 614.671 119.906 613.178 120.84M617.939 117.3C615.624 118.438 613.729 119.436 612.181 120.352M617.939 117.3C618.394 117.944 618.806 118.557 619.177 119.143M617.939 117.3C618.41 117.96 617.884 117.295 618.333 117.866M617.939 117.3L617.952 117.264C618.37 116.144 618.258 116.29 618.667 115.283M617.939 117.3C620.222 117.758 619.684 117.608 621.5 117.668M617.939 117.3C617.17 116.784 616.437 116.28 615.731 115.795C614.857 115.193 615.644 116.016 614.833 115.484M617.939 117.3C618.401 117.214 618.852 117.129 619.289 117.046C621.396 116.647 623.23 116.299 625 116.176M618.667 115.283C618.224 116.487 619.283 113.835 619.324 113.713M618.667 115.283C618.716 115.163 619.275 113.832 619.324 113.713M618.667 115.283H618.755L620.739 114.759C622.315 114.342 623.988 114.899 625 116.176M618.667 115.283L617.216 114.253C616.217 113.544 614.833 114.258 614.833 115.484M619.324 113.713C620.911 109.025 621.278 104.696 619.34 98.08M619.324 113.713C621.201 109.191 623.402 105.851 629 103.781M619.34 98.08C613.626 96.3285 610.642 96.7269 605.604 99.1331M619.34 98.08C609.896 98.3384 606.923 98.5645 605.604 99.1331M605.604 99.1331C606.023 106.101 608.217 110.131 612.499 113.627M612.499 113.627C612.712 113.801 614.61 115.312 614.833 115.484M612.499 113.627C612.736 113.777 614.593 115.326 614.833 115.484M612.499 113.627C608.141 110.864 604.302 109.445 598.034 111.508C594.683 117.738 595.697 120.041 599.436 123.355C603.271 123.709 606.073 123.573 608.475 122.935M614.833 115.484L613.919 115.649C612.229 115.954 611 117.425 611 119.143C611 119.55 611.538 119.985 612.181 120.352M608.475 122.935C610.167 122.487 611.66 121.789 613.178 120.84M608.475 122.935C609.406 122.119 610.616 121.277 612.181 120.352M608.475 122.935C605.742 125.333 605.419 127.517 605.604 130.991C608.142 139.402 611.248 139.239 617.939 135.73C622.308 129.006 623.391 125.793 619.177 119.143M613.178 120.84C612.856 120.703 612.505 120.536 612.181 120.352M613.178 120.84C613.595 121.018 613.965 121.146 614.167 121.197C614.7 121.331 616.278 119.883 617 119.143L618.755 118.505L619.177 119.143M619.177 119.143L618.333 117.866M618.333 117.866C622.167 122.742 626.419 125.921 633.077 129.411C633.322 129.413 633.563 129.417 633.796 129.42L633.798 129.42C638.844 129.494 640.964 129.525 635.881 119.143C634.251 118.164 632.791 117.47 631.424 116.996M618.333 117.866L619.5 118.172L621.5 117.668M631.424 116.996C634.012 116.073 636.447 114.577 639.245 112.561C640.413 107.894 640.777 105.079 636.167 103.612M631.424 116.996C629.188 117.794 624.297 117.76 621.5 117.668M631.424 116.996C629.139 116.204 627.116 116.03 625 116.176M621.5 117.668L625 116.176M636.167 103.612C635.126 103.281 633.832 103.018 632.236 102.819C631.044 103.101 629.971 103.422 629 103.781M636.167 103.612C633.183 103.154 631.648 103.235 629 103.781" stroke="url(#paint4_radial_1966_6)" stroke-width="0.2"/>
<rect x="-109" width="1497" height="66" rx="5" fill="#C3A47E"/>
<defs>
<radialGradient id="paint0_radial_1966_6" cx="0" cy="0" r="1" gradientUnits="userSpaceOnUse" gradientTransform="translate(239.5 68.5) rotate(90) scale(12.5 13.5)">
<stop stop-color="#815F2E"/>
<stop offset="1" stop-color="white"/>
</radialGradient>
<radialGradient id="paint1_radial_1966_6" cx="0" cy="0" r="1" gradientUnits="userSpaceOnUse" gradientTransform="translate(1243.5 41.5) rotate(90) scale(12.5 13.5)">
<stop stop-color="#815F2E"/>
<stop offset="1" stop-color="white"/>
</radialGradient>
<radialGradient id="paint2_radial_1966_6" cx="0" cy="0" r="1" gradientUnits="userSpaceOnUse" gradientTransform="translate(999.5 74.5) rotate(90) scale(12.5 13.5)">
<stop stop-color="#815F2E"/>
<stop offset="1" stop-color="white"/>
</radialGradient>
<radialGradient id="paint3_radial_1966_6" cx="0" cy="0" r="1" gradientUnits="userSpaceOnUse" gradientTransform="translate(999.5 74.5) rotate(90) scale(12.5 13.5)">
<stop stop-color="#815F2E"/>
<stop offset="1" stop-color="white"/>
</radialGradient>
<radialGradient id="paint4_radial_1966_6" cx="0" cy="0" r="1" gradientUnits="userSpaceOnUse" gradientTransform="translate(618 117.5) rotate(90) scale(20.5 22)">
<stop stop-color="#815F2E"/>
<stop offset="1" stop-color="white"/>
</radialGradient>
</defs>
</svg>
