<svg width="1069" height="639" viewBox="0 0 1069 639" fill="none" xmlns="http://www.w3.org/2000/svg">
<rect x="83.457" y="58" width="918.965" height="581" fill="url(#paint0_linear_411_748)"/>
<rect x="117.215" y="590.755" width="834.305" height="48.2451" fill="#B4B897"/>
<rect x="565" y="295" width="326" height="180" rx="5" fill="url(#paint1_linear_411_748)"/>
<rect x="586.696" y="312.132" width="282.146" height="139.885" fill="url(#paint2_linear_411_748)"/>
<rect x="586.696" y="412.563" width="282.146" height="39.4549" fill="#CCAC85"/>
<rect x="586.696" y="412.563" width="282.146" height="8.71081" fill="#A2896B"/>
<rect x="580" y="312" width="297" height="148" fill="url(#paint3_linear_411_748)" fill-opacity="0.4"/>
<path fill-rule="evenodd" clip-rule="evenodd" d="M698.682 332.717C699.498 332.656 700.573 332.628 701.938 332.628C722.899 332.628 739.89 349.723 739.89 370.811C739.89 376.4 738.696 381.709 736.551 386.494C737.411 386.594 738.219 386.692 738.996 386.802C741.287 387.125 744.884 387.399 749.087 387.574L749.751 385.657L764.44 378.03L761.113 387.773C782.488 387.608 803.706 384.54 760.324 374.002C782.123 377.076 807.418 385.142 805.283 389.468C803.147 393.793 791.3 395.931 769.882 396.17C766.28 396.21 762.419 396.146 758.314 395.973L746.176 431.521H734.699L723.975 401.899C717.762 406.364 710.155 408.993 701.938 408.993C686.824 408.993 707.32 405.617 719.93 391.851C707.99 389.896 695.018 387.211 681.181 383.661C665.305 379.588 635.972 368.524 656.874 365.581C663.725 364.617 671.465 362.627 694.926 364.779C670.133 364.434 654.927 367.542 698.668 379.187C706.234 381.201 712.336 382.606 717.356 383.615L712.034 368.912L714.173 368.127L719.962 384.122C721.751 384.458 723.388 384.742 724.898 384.984C727.107 380.937 728.505 376.245 728.505 370.811C728.505 348.889 705.766 339.025 698.682 335.026V355.538H696.405V332.628H698.682V332.717ZM732.338 393.673C730.466 396.188 728.291 398.462 725.871 400.443L735.47 426.959L746.449 395.204C741.966 394.818 737.258 394.312 732.338 393.673Z" fill="white" fill-opacity="0.4"/>
<path d="M227.966 299.667C227.966 296.906 230.204 294.667 232.966 294.667H441.679C444.441 294.667 446.679 296.906 446.679 299.667V639H232.966C230.204 639 227.966 636.762 227.966 634V299.667Z" fill="#CCAC85"/>
<path d="M227.966 299.667C227.966 296.906 230.204 294.667 232.966 294.667H441.679C444.441 294.667 446.679 296.906 446.679 299.667V639H232.966C230.204 639 227.966 636.762 227.966 634V299.667Z" fill="url(#paint4_linear_411_748)"/>
<rect x="249.279" y="318.75" width="176.087" height="320.25" fill="#E9F4FC"/>
<rect x="249.279" y="318.75" width="176.087" height="320.25" fill="url(#paint5_linear_411_748)"/>
<rect x="396.949" y="458.635" width="10.1491" height="64.5625" rx="5" fill="#CCAC85"/>
<path d="M249.279 417.105V394.636L300.894 318.75H316.178L249.279 417.105Z" fill="#F6FCFF" fill-opacity="0.8"/>
<path d="M249.279 515.9V455.812L342.505 318.75H383.375L249.279 515.9Z" fill="#F6FCFF" fill-opacity="0.8"/>
<path d="M425.367 602.129L400.288 639.001H359.42L425.367 542.044V602.129Z" fill="#F6FCFF" fill-opacity="0.8"/>
<rect x="83.457" y="58" width="918.965" height="581" fill="url(#paint6_linear_411_748)"/>
<rect x="117.215" y="590.755" width="834.305" height="48.2451" fill="#B4B897"/>
<path d="M116.316 0H840.676L938.095 120.651H0L116.316 0Z" fill="#EBEBEB"/>
<path d="M0.000488281 120.651H133.839V197.113H0.000488281V120.651Z" fill="#F1F1F1"/>
<path d="M133.839 120.651H268.905V197.113H133.839V120.651Z" fill="#B4B897"/>
<path d="M267.677 120.651H401.515V197.113H267.677V120.651Z" fill="#F1F1F1"/>
<path d="M401.515 120.651H536.581V197.113H401.515V120.651Z" fill="#B4B897"/>
<path d="M536.581 120.651H670.419V197.113H536.581V120.651Z" fill="#F1F1F1"/>
<path d="M670.419 120.651H805.485V197.113H670.419V120.651Z" fill="#B4B897"/>
<path d="M804.257 120.651H938.095V197.113H804.257V120.651Z" fill="#F1F1F1"/>
<path d="M133.839 196.769C133.839 217.503 103.878 234.311 66.9196 234.311C29.9612 234.311 0.000488281 217.503 0.000488281 196.769C0.000488281 176.035 29.9612 159.227 66.9196 159.227C103.878 159.227 133.839 176.035 133.839 196.769Z" fill="#F1F1F1"/>
<path d="M401.515 196.769C401.515 217.503 371.554 234.311 334.596 234.311C297.637 234.311 267.677 217.503 267.677 196.769C267.677 176.035 297.637 159.227 334.596 159.227C371.554 159.227 401.515 176.035 401.515 196.769Z" fill="#F1F1F1"/>
<path d="M670.419 196.769C670.419 217.503 640.458 234.311 603.5 234.311C566.542 234.311 536.581 217.503 536.581 196.769C536.581 176.035 566.542 159.227 603.5 159.227C640.458 159.227 670.419 176.035 670.419 196.769Z" fill="#F1F1F1"/>
<path d="M938.095 196.769C938.095 217.503 908.135 234.311 871.176 234.311C834.218 234.311 804.257 217.503 804.257 196.769C804.257 176.035 834.218 159.227 871.176 159.227C908.135 159.227 938.095 176.035 938.095 196.769Z" fill="#F1F1F1"/>
<path d="M267.677 196.769C267.677 217.503 237.716 234.311 200.758 234.311C163.799 234.311 133.839 217.503 133.839 196.769C133.839 176.035 163.799 159.227 200.758 159.227C237.716 159.227 267.677 176.035 267.677 196.769Z" fill="#B4B897"/>
<path d="M536.581 197.113C536.581 218.038 506.345 235 469.048 235C431.75 235 401.515 218.038 401.515 197.113C401.515 176.189 431.75 159.227 469.048 159.227C506.345 159.227 536.581 176.189 536.581 197.113Z" fill="#B4B897"/>
<path d="M804.257 196.769C804.257 217.503 774.297 234.311 737.338 234.311C700.38 234.311 670.419 217.503 670.419 196.769C670.419 176.035 700.38 159.227 737.338 159.227C774.297 159.227 804.257 176.035 804.257 196.769Z" fill="#B4B897"/>
<path d="M267.606 120.651H134.093L221.039 0H317.15L267.606 120.651Z" fill="#B0B492"/>
<path d="M670.49 120.651H804.003L740.361 0H651.658L670.49 120.651Z" fill="#B0B492"/>
<path d="M938.1 120.642H1069L951.785 0H840.676L938.1 120.642Z" fill="#B0B492"/>
<path d="M401.168 120.651H536.654V0H425.751L401.168 120.651Z" fill="#B0B492"/>
<rect x="937.914" y="120.536" width="130.344" height="79.0733" fill="#B4B897"/>
<ellipse cx="1003.09" cy="201.805" rx="65.1719" ry="32.9472" fill="#B4B897"/>
<path fill-rule="evenodd" clip-rule="evenodd" d="M83 427.93C85.1242 426.752 87.9436 425.957 91.6123 426.249C94.3643 426.468 96.271 428.562 97.6006 431.154C98.9442 433.773 99.846 437.169 100.487 440.546C100.966 443.066 101.306 445.618 101.573 447.891C101.898 445.069 102.328 441.907 103.027 438.905C103.777 435.69 104.854 432.569 106.509 430.233C108.188 427.863 110.509 426.246 113.659 426.246C121.263 426.246 125.683 432.64 127.664 440.487C129.621 448.24 129.356 457.873 127.298 465.803C138.048 479.572 139.891 490.651 137.673 498.78C135.446 506.937 129.185 511.889 124.348 513.414L124.34 513.416L124.331 513.419C120.728 514.489 118.281 515.233 116.558 515.706C114.917 516.157 113.822 516.392 112.944 516.408C98.1149 518.633 88.5401 515.916 83 514.278V512.192C88.4838 513.808 97.7844 516.672 112.7 514.424L112.774 514.412H112.85C113.439 514.412 114.31 514.249 116.028 513.777C117.722 513.312 120.126 512.58 123.744 511.506C127.99 510.168 133.711 505.699 135.743 498.254C137.762 490.857 136.198 480.287 125.421 466.648L125.108 466.253L125.24 465.766C127.336 458.041 127.629 448.52 125.725 440.977C123.804 433.37 119.816 428.246 113.659 428.246C111.318 428.246 109.548 429.402 108.141 431.389C106.709 433.411 105.704 436.234 104.976 439.358C104.251 442.468 103.82 445.787 103.488 448.751C103.162 451.669 102.926 454.326 102.59 455.969L101.909 459.296L100.678 456.131C100.49 455.648 100.359 454.822 100.24 453.904C100.115 452.94 99.9869 451.716 99.8379 450.349C99.5381 447.602 99.1502 444.224 98.5225 440.919C97.8921 437.6 97.0327 434.429 95.8213 432.067C94.5957 429.678 93.1523 428.377 91.4541 428.242C87.6414 427.939 84.9038 428.964 83 430.286V427.93Z" fill="#654831"/>
<path fill-rule="evenodd" clip-rule="evenodd" d="M1002.25 268.492C1000.13 267.314 997.307 266.519 993.639 266.811C990.887 267.03 988.98 269.124 987.65 271.716C986.307 274.335 985.405 277.731 984.764 281.107C984.285 283.628 983.944 286.18 983.678 288.453C983.353 285.631 982.923 282.468 982.224 279.467C981.474 276.252 980.397 273.131 978.742 270.795C977.063 268.424 974.742 266.808 971.592 266.808C963.988 266.808 959.568 273.202 957.587 281.049C955.63 288.801 955.895 298.435 957.953 306.364C947.202 320.134 945.359 331.213 947.578 339.342C949.805 347.499 956.066 352.451 960.903 353.976L960.911 353.978L960.92 353.981C964.523 355.05 966.97 355.794 968.693 356.268C970.334 356.718 971.429 356.954 972.307 356.97C987.136 359.195 996.711 356.478 1002.25 354.84V352.754C996.767 354.37 987.467 357.233 972.551 354.985L972.477 354.974H972.401C971.812 354.974 970.941 354.811 969.223 354.339C967.529 353.874 965.125 353.142 961.507 352.067C957.261 350.729 951.54 346.261 949.508 338.816C947.489 331.419 949.053 320.849 959.83 307.21L960.143 306.815L960.011 306.328C957.915 298.602 957.622 289.082 959.526 281.539C961.447 273.932 965.435 268.808 971.592 268.808C973.933 268.808 975.703 269.964 977.11 271.951C978.542 273.973 979.547 276.796 980.275 279.92C981 283.029 981.431 286.349 981.763 289.313C982.089 292.231 982.325 294.888 982.661 296.53L983.342 299.857L984.573 296.692C984.761 296.21 984.892 295.384 985.011 294.466C985.136 293.501 985.264 292.277 985.413 290.911C985.713 288.163 986.101 284.786 986.729 281.481C987.359 278.162 988.218 274.991 989.43 272.629C990.655 270.24 992.099 268.939 993.797 268.804C997.61 268.5 1000.35 269.526 1002.25 270.848V268.492Z" fill="#654831"/>
<path d="M157.5 533.238C163.5 529.738 164.78 526.037 163 521.338C160.5 514.738 165 506.738 168 503.738C149 509.238 148 518.238 148 526.738C148 547.304 173.532 546.043 177 527.838C179 517.338 177 500.838 173 506.338C166.639 515.084 171.003 535.838 185.5 535.838C199 535.838 203.5 509.738 188.5 498.338C181.168 492.766 176 498.838 175.5 499.338C186 505.338 187.5 506.838 186.5 514.338C185.5 521.838 184.5 526.838 186.5 527.838" stroke="#654831" stroke-width="2" stroke-linecap="round"/>
<path d="M896.5 377.238C902.5 373.738 903.78 370.037 902 365.338C899.5 358.738 904 350.738 907 347.738C888 353.238 887 362.238 887 370.738C887 391.304 912.532 390.043 916 371.838C918 361.338 916 344.838 912 350.338C905.639 359.084 910.003 379.838 924.5 379.838C938 379.838 942.5 353.738 927.5 342.338C920.168 336.766 915 342.838 914.5 343.338C925 349.338 926.5 350.838 925.5 358.338C924.5 365.838 923.5 370.838 925.5 371.838" stroke="#654831" stroke-width="2" stroke-linecap="round"/>
<defs>
<linearGradient id="paint0_linear_411_748" x1="703.758" y1="368" x2="703.758" y2="123.5" gradientUnits="userSpaceOnUse">
<stop stop-color="#E3D3BC"/>
<stop offset="1" stop-color="#CABBA5"/>
</linearGradient>
<linearGradient id="paint1_linear_411_748" x1="728" y1="295" x2="728" y2="475" gradientUnits="userSpaceOnUse">
<stop stop-color="#738363"/>
<stop offset="1" stop-color="#849573"/>
</linearGradient>
<linearGradient id="paint2_linear_411_748" x1="727.769" y1="312.132" x2="727.769" y2="452.017" gradientUnits="userSpaceOnUse">
<stop stop-color="#C5D3DD"/>
<stop offset="1" stop-color="#E9F4FC"/>
</linearGradient>
<linearGradient id="paint3_linear_411_748" x1="728.5" y1="312" x2="728.5" y2="460" gradientUnits="userSpaceOnUse">
<stop stop-color="#C5D3DD"/>
<stop offset="1" stop-color="#E9F4FC"/>
</linearGradient>
<linearGradient id="paint4_linear_411_748" x1="337.323" y1="294.667" x2="337.323" y2="639" gradientUnits="userSpaceOnUse">
<stop stop-color="#AD916E"/>
<stop offset="1" stop-color="#CCAC85"/>
</linearGradient>
<linearGradient id="paint5_linear_411_748" x1="337.322" y1="318.75" x2="337.322" y2="639" gradientUnits="userSpaceOnUse">
<stop stop-color="#D4E2ED"/>
<stop offset="1" stop-color="#E9F4FC"/>
</linearGradient>
<linearGradient id="paint6_linear_411_748" x1="703.758" y1="368" x2="703.758" y2="123.5" gradientUnits="userSpaceOnUse">
<stop stop-color="#E3D3BC"/>
<stop offset="1" stop-color="#CABBA5"/>
</linearGradient>
</defs>
</svg>
