<svg width="1069" height="639" viewBox="0 0 1069 639" fill="none" xmlns="http://www.w3.org/2000/svg">
<rect x="83.457" y="58" width="918.965" height="581" fill="url(#paint0_linear_400_1322)"/>
<rect x="117.215" y="590.755" width="834.305" height="48.2451" fill="#B4B897"/>
<rect x="565" y="295" width="326" height="180" rx="5" fill="url(#paint1_linear_400_1322)"/>
<rect x="586.696" y="312.132" width="282.146" height="139.885" fill="url(#paint2_linear_400_1322)"/>
<rect x="586.696" y="412.563" width="282.146" height="39.4549" fill="#CCAC85"/>
<rect x="586.696" y="412.563" width="282.146" height="8.71081" fill="#A2896B"/>
<rect x="580" y="312" width="297" height="148" fill="url(#paint3_linear_400_1322)" fill-opacity="0.4"/>
<path fill-rule="evenodd" clip-rule="evenodd" d="M698.682 332.717C699.498 332.656 700.573 332.628 701.938 332.628C722.899 332.628 739.891 349.723 739.891 370.811C739.891 376.4 738.696 381.709 736.551 386.494C737.411 386.594 738.219 386.692 738.996 386.802C741.287 387.125 744.884 387.399 749.087 387.574L749.751 385.657L764.44 378.03L761.114 387.773C782.488 387.608 803.706 384.54 760.324 374.002C782.123 377.076 807.418 385.142 805.283 389.468C803.147 393.793 791.301 395.931 769.882 396.17C766.281 396.21 762.42 396.146 758.314 395.973L746.176 431.521H734.699L723.975 401.899C717.762 406.364 710.156 408.993 701.938 408.993C686.824 408.993 707.321 405.617 719.93 391.851C707.99 389.896 695.019 387.211 681.182 383.661C665.306 379.588 635.972 368.524 656.874 365.581C663.726 364.617 671.466 362.627 694.927 364.779C670.133 364.434 654.927 367.542 698.668 379.187C706.234 381.201 712.336 382.606 717.356 383.615L712.034 368.912L714.173 368.127L719.963 384.122C721.751 384.458 723.389 384.742 724.898 384.984C727.108 380.937 728.506 376.245 728.506 370.811C728.506 348.889 705.766 339.025 698.682 335.026V355.538H696.405V332.628H698.682V332.717ZM732.338 393.673C730.466 396.188 728.292 398.462 725.871 400.443L735.471 426.959L746.449 395.204C741.966 394.818 737.258 394.312 732.338 393.673Z" fill="white" fill-opacity="0.4"/>
<path d="M227.966 299.667C227.966 296.906 230.205 294.667 232.966 294.667H441.68C444.441 294.667 446.68 296.906 446.68 299.667V639H232.966C230.205 639 227.966 636.762 227.966 634V299.667Z" fill="#CCAC85"/>
<path d="M227.966 299.667C227.966 296.906 230.205 294.667 232.966 294.667H441.68C444.441 294.667 446.68 296.906 446.68 299.667V639H232.966C230.205 639 227.966 636.762 227.966 634V299.667Z" fill="url(#paint4_linear_400_1322)"/>
<rect x="249.279" y="318.75" width="176.087" height="320.25" fill="#E9F4FC"/>
<rect x="249.279" y="318.75" width="176.087" height="320.25" fill="url(#paint5_linear_400_1322)"/>
<rect x="396.949" y="458.635" width="10.1491" height="64.5625" rx="5" fill="#CCAC85"/>
<path d="M249.279 417.105V394.636L300.894 318.75H316.178L249.279 417.105Z" fill="#F6FCFF" fill-opacity="0.8"/>
<path d="M249.279 515.9V455.812L342.505 318.75H383.375L249.279 515.9Z" fill="#F6FCFF" fill-opacity="0.8"/>
<path d="M425.367 602.129L400.288 639.001H359.42L425.367 542.044V602.129Z" fill="#F6FCFF" fill-opacity="0.8"/>
<rect x="83.457" y="58" width="918.965" height="581" fill="url(#paint6_linear_400_1322)"/>
<rect x="117.215" y="590.755" width="834.305" height="48.2451" fill="#B4B897"/>
<rect x="565" y="295" width="326" height="180" rx="5" fill="url(#paint7_linear_400_1322)"/>
<rect x="586.696" y="312.132" width="282.146" height="139.885" fill="url(#paint8_linear_400_1322)"/>
<rect x="586.696" y="412.563" width="282.146" height="39.4549" fill="#CCAC85"/>
<rect x="586.696" y="412.563" width="282.146" height="8.71081" fill="#A2896B"/>
<rect x="580" y="312" width="297" height="148" fill="url(#paint9_linear_400_1322)" fill-opacity="0.4"/>
<path fill-rule="evenodd" clip-rule="evenodd" d="M698.682 332.717C699.498 332.656 700.573 332.628 701.938 332.628C722.899 332.628 739.891 349.723 739.891 370.811C739.891 376.4 738.696 381.709 736.551 386.494C737.411 386.594 738.219 386.692 738.996 386.802C741.287 387.125 744.884 387.399 749.087 387.574L749.751 385.657L764.44 378.03L761.114 387.773C782.488 387.608 803.706 384.54 760.324 374.002C782.123 377.076 807.418 385.142 805.283 389.468C803.147 393.793 791.301 395.931 769.882 396.17C766.281 396.21 762.42 396.146 758.314 395.973L746.176 431.521H734.699L723.975 401.899C717.762 406.364 710.156 408.993 701.938 408.993C686.824 408.993 707.321 405.617 719.93 391.851C707.99 389.896 695.019 387.211 681.182 383.661C665.306 379.588 635.972 368.524 656.874 365.581C663.726 364.617 671.466 362.627 694.927 364.779C670.133 364.434 654.927 367.542 698.668 379.187C706.234 381.201 712.336 382.606 717.356 383.615L712.034 368.912L714.173 368.127L719.963 384.122C721.751 384.458 723.389 384.742 724.898 384.984C727.108 380.937 728.506 376.245 728.506 370.811C728.506 348.889 705.766 339.025 698.682 335.026V355.538H696.405V332.628H698.682V332.717ZM732.338 393.673C730.466 396.188 728.292 398.462 725.871 400.443L735.471 426.959L746.449 395.204C741.966 394.818 737.258 394.312 732.338 393.673Z" fill="white" fill-opacity="0.4"/>
<path d="M227.966 299.667C227.966 296.906 230.205 294.667 232.966 294.667H441.68C444.441 294.667 446.68 296.906 446.68 299.667V639H232.966C230.205 639 227.966 636.762 227.966 634V299.667Z" fill="#CCAC85"/>
<path d="M227.966 299.667C227.966 296.906 230.205 294.667 232.966 294.667H441.68C444.441 294.667 446.68 296.906 446.68 299.667V639H232.966C230.205 639 227.966 636.762 227.966 634V299.667Z" fill="url(#paint10_linear_400_1322)"/>
<rect x="249.279" y="318.75" width="176.087" height="320.25" fill="#E9F4FC"/>
<rect x="249.279" y="318.75" width="176.087" height="320.25" fill="url(#paint11_linear_400_1322)"/>
<rect x="396.949" y="458.635" width="10.1491" height="64.5625" rx="5" fill="#CCAC85"/>
<path d="M249.279 417.105V394.636L300.894 318.75H316.178L249.279 417.105Z" fill="#F6FCFF" fill-opacity="0.8"/>
<path d="M249.279 515.9V455.812L342.505 318.75H383.375L249.279 515.9Z" fill="#F6FCFF" fill-opacity="0.8"/>
<path d="M425.367 602.129L400.288 639.001H359.42L425.367 542.044V602.129Z" fill="#F6FCFF" fill-opacity="0.8"/>
<path d="M116.316 0H840.676L938.095 120.651H0L116.316 0Z" fill="#EBEBEB"/>
<path d="M0.000488281 120.651H133.839V197.113H0.000488281V120.651Z" fill="#F1F1F1"/>
<path d="M133.839 120.651H268.905V197.113H133.839V120.651Z" fill="#B4B897"/>
<path d="M267.677 120.651H401.515V197.113H267.677V120.651Z" fill="#F1F1F1"/>
<path d="M401.515 120.651H536.581V197.113H401.515V120.651Z" fill="#B4B897"/>
<path d="M536.581 120.651H670.419V197.113H536.581V120.651Z" fill="#F1F1F1"/>
<path d="M670.419 120.651H805.485V197.113H670.419V120.651Z" fill="#B4B897"/>
<path d="M804.257 120.651H938.095V197.113H804.257V120.651Z" fill="#F1F1F1"/>
<path d="M133.839 196.769C133.839 217.503 103.878 234.311 66.9196 234.311C29.9612 234.311 0.000488281 217.503 0.000488281 196.769C0.000488281 176.035 29.9612 159.227 66.9196 159.227C103.878 159.227 133.839 176.035 133.839 196.769Z" fill="#F1F1F1"/>
<path d="M401.515 196.769C401.515 217.503 371.554 234.311 334.596 234.311C297.637 234.311 267.677 217.503 267.677 196.769C267.677 176.035 297.637 159.227 334.596 159.227C371.554 159.227 401.515 176.035 401.515 196.769Z" fill="#F1F1F1"/>
<path d="M670.419 196.769C670.419 217.503 640.458 234.311 603.5 234.311C566.542 234.311 536.581 217.503 536.581 196.769C536.581 176.035 566.542 159.227 603.5 159.227C640.458 159.227 670.419 176.035 670.419 196.769Z" fill="#F1F1F1"/>
<path d="M938.095 196.769C938.095 217.503 908.135 234.311 871.176 234.311C834.218 234.311 804.257 217.503 804.257 196.769C804.257 176.035 834.218 159.227 871.176 159.227C908.135 159.227 938.095 176.035 938.095 196.769Z" fill="#F1F1F1"/>
<path d="M267.677 196.769C267.677 217.503 237.716 234.311 200.758 234.311C163.799 234.311 133.839 217.503 133.839 196.769C133.839 176.035 163.799 159.227 200.758 159.227C237.716 159.227 267.677 176.035 267.677 196.769Z" fill="#B4B897"/>
<path d="M536.581 197.113C536.581 218.038 506.345 235 469.048 235C431.75 235 401.515 218.038 401.515 197.113C401.515 176.189 431.75 159.227 469.048 159.227C506.345 159.227 536.581 176.189 536.581 197.113Z" fill="#B4B897"/>
<path d="M804.257 196.769C804.257 217.503 774.297 234.311 737.338 234.311C700.38 234.311 670.419 217.503 670.419 196.769C670.419 176.035 700.38 159.227 737.338 159.227C774.297 159.227 804.257 176.035 804.257 196.769Z" fill="#B4B897"/>
<path d="M267.606 120.651H134.093L221.039 0H317.15L267.606 120.651Z" fill="#B0B492"/>
<path d="M670.49 120.651H804.003L740.361 0H651.658L670.49 120.651Z" fill="#B0B492"/>
<path d="M938.1 120.642H1069L951.785 0H840.676L938.1 120.642Z" fill="#B0B492"/>
<path d="M401.168 120.651H536.654V0H425.751L401.168 120.651Z" fill="#B0B492"/>
<rect x="937.914" y="120.536" width="130.344" height="79.0733" fill="#B4B897"/>
<ellipse cx="1003.09" cy="201.805" rx="65.1719" ry="32.9472" fill="#B4B897"/>
<defs>
<linearGradient id="paint0_linear_400_1322" x1="703.758" y1="368" x2="703.758" y2="123.5" gradientUnits="userSpaceOnUse">
<stop stop-color="#E3D3BC"/>
<stop offset="1" stop-color="#CABBA5"/>
</linearGradient>
<linearGradient id="paint1_linear_400_1322" x1="728" y1="295" x2="728" y2="475" gradientUnits="userSpaceOnUse">
<stop stop-color="#738363"/>
<stop offset="1" stop-color="#849573"/>
</linearGradient>
<linearGradient id="paint2_linear_400_1322" x1="727.769" y1="312.132" x2="727.769" y2="452.017" gradientUnits="userSpaceOnUse">
<stop stop-color="#C5D3DD"/>
<stop offset="1" stop-color="#E9F4FC"/>
</linearGradient>
<linearGradient id="paint3_linear_400_1322" x1="728.5" y1="312" x2="728.5" y2="460" gradientUnits="userSpaceOnUse">
<stop stop-color="#C5D3DD"/>
<stop offset="1" stop-color="#E9F4FC"/>
</linearGradient>
<linearGradient id="paint4_linear_400_1322" x1="337.323" y1="294.667" x2="337.323" y2="639" gradientUnits="userSpaceOnUse">
<stop stop-color="#AD916E"/>
<stop offset="1" stop-color="#CCAC85"/>
</linearGradient>
<linearGradient id="paint5_linear_400_1322" x1="337.322" y1="318.75" x2="337.322" y2="639" gradientUnits="userSpaceOnUse">
<stop stop-color="#D4E2ED"/>
<stop offset="1" stop-color="#E9F4FC"/>
</linearGradient>
<linearGradient id="paint6_linear_400_1322" x1="703.758" y1="368" x2="703.758" y2="123.5" gradientUnits="userSpaceOnUse">
<stop stop-color="#E3D3BC"/>
<stop offset="1" stop-color="#CABBA5"/>
</linearGradient>
<linearGradient id="paint7_linear_400_1322" x1="728" y1="295" x2="728" y2="475" gradientUnits="userSpaceOnUse">
<stop stop-color="#738363"/>
<stop offset="1" stop-color="#849573"/>
</linearGradient>
<linearGradient id="paint8_linear_400_1322" x1="727.769" y1="312.132" x2="727.769" y2="452.017" gradientUnits="userSpaceOnUse">
<stop stop-color="#C5D3DD"/>
<stop offset="1" stop-color="#E9F4FC"/>
</linearGradient>
<linearGradient id="paint9_linear_400_1322" x1="728.5" y1="312" x2="728.5" y2="460" gradientUnits="userSpaceOnUse">
<stop stop-color="#C5D3DD"/>
<stop offset="1" stop-color="#E9F4FC"/>
</linearGradient>
<linearGradient id="paint10_linear_400_1322" x1="337.323" y1="294.667" x2="337.323" y2="639" gradientUnits="userSpaceOnUse">
<stop stop-color="#AD916E"/>
<stop offset="1" stop-color="#CCAC85"/>
</linearGradient>
<linearGradient id="paint11_linear_400_1322" x1="337.322" y1="318.75" x2="337.322" y2="639" gradientUnits="userSpaceOnUse">
<stop stop-color="#D4E2ED"/>
<stop offset="1" stop-color="#E9F4FC"/>
</linearGradient>
</defs>
</svg>
