<svg xmlns="http://www.w3.org/2000/svg" width="318" height="610" fill="none" viewBox="0 0 318 610"><g fill="#77512e"><circle cx="112" cy="244" r="6"/><circle cx="206" cy="244" r="6"/></g><path stroke="#77512e" stroke-width="3" d="M123 261c10 17 66 17 75 0"/><g fill="#ffccb4"><ellipse cx="223" cy="262" rx="15" ry="12"/><ellipse cx="95" cy="262" rx="16" ry="12"/></g><g stroke="#e68c71"><path d="M0 0h8" transform="rotate(117 31 195)scale(1 .99994)skewX(1)"/><path d="M0 0h8" transform="rotate(117 35 200)scale(1 .99994)skewX(1)"/><path d="M0 0h16" transform="rotate(117 35 197)scale(1 .99994)skewX(1)"/><path d="M0 0h8" transform="rotate(117 -33 156)scale(1 .99994)skewX(1)"/><path d="M0 0h8" transform="rotate(117 -29 161)scale(1 .99994)skewX(1)"/><path d="M0 0h16" transform="rotate(117 -29 158)scale(1 .99994)skewX(1)"/></g><g fill="#ffefe2" stroke="#eaba93" stroke-width="5"><use href="#a"/><use href="#b"/></g><path fill="#585823" d="M144 432v1h2v-3h-2zm-1 0zl1-1h2v-2h1v4l-1 2h-2zm8 0v2h-3v-4h3zl-2 2h1zm-2 0 1-1v-1h-1zm3 1zv1h2l-1-1h-1l-1-1 1-1h2v1h-1v-1h-1v1h1l1 1v2h-2zm5-4zm0 5v-4zm3-2v1h1v-3h-1zm-1 0zv-1h3v5l-2 1h-1l1-1h1v-1h-2zm4 2v-3l1-1h2l1 1v3h-1v-4h-2v4zm6 0-2-4h1l1 3 1-3h1zm6-2-1 2h-2l-1-2v-1l1-1h2zl-3 2h2zm-3 0 2-1v-1h-2zm4 2v-4h2-1v4zm3-1zh1v-1h-2v-2h2v1-1h-1l-1 1h1l1 1 1 1-1 1h-2zm7-1v2h-3v-4h3zl-2 2h1zm-2 0 1-1v-1h-1z"/><rect width="98" height="24" x="115" y="422" stroke="#585823" rx="2"/><path fill="#e9ded2" stroke="#eaba93" stroke-width="5" d="M79 569c-61-27-26-165 0-230h158c52 129 38 219-3 234-32 12-30 10-35 10h-50c-22 0-56-7-70-14z"/><path fill="#5b4f46" d="M79 573c-61-18-26-111 0-156h158c52 88 38 149-3 159-32 8-30 7-35 7h-50c-22 0-56-4-70-10"/><path fill="#fffbf7" stroke="#eaba93" stroke-width="5" d="M4 451c10-67 52-90 71-106-16 50-27 119-30 147-18 6-49 6-41-41zm310 0c-11-67-52-90-72-106 16 50 27 119 30 147 18 6 50 6 42-41z"/><path fill="#e9ded2" d="M19 411c-2-12 32-47 52-60l-18 70c-10-1-32 1-34-10"/><path fill="#5b4f46" d="M259 538H60l3-108 6-47h180l4 51v32z"/><path fill="#e9ded2" d="M296 407c1-12-30-43-50-56l18 70c10-1 30-3 32-14"/><g fill="#ffefe2" stroke="#eaba93" stroke-width="5"><use href="#a"/><use href="#b"/></g><path fill="#5b4f46" d="m77 397 12-53 15 4 4 49zm158 0-12-50-17 4-2 46z"/><path fill="#fffbf7" stroke="#eaba93" stroke-width="5" d="M198 348c-60 9-98-3-120-9l-17-7c-34-20-70-78 7-177-21-45-14-102 0-125 3-6 11-30 46-27 13 1 18 23 25 52l17 73q1 5 4 0c3-18 9-51 16-75 7-31 10-53 32-50 55 0 60 90 43 152 86 108 27 170-9 181-28 9-38 12-44 12z"/><g fill="#ffccb4"><ellipse cx="77" cy="291" rx="24" ry="21"/><ellipse cx="240" cy="291" rx="24" ry="21"/></g><ellipse cx="84" cy="262" fill="#654831" rx="22" ry="21"/><circle cx="77" cy="253" r="6" fill="#fff"/><ellipse cx="232" cy="262" fill="#654831" rx="22" ry="21"/><g fill="#fff"><circle cx="226" cy="253" r="6"/><circle cx="86" cy="258" r="2"/><circle cx="233" cy="259" r="2"/></g><path stroke="#654831" stroke-linecap="round" stroke-width="3" d="m140 285 3 3a5 5 0 0 0 6 2l8-4h4l7 3a5 5 0 0 0 6-1l3-3"/><g fill="#eaba93"><ellipse cx="11" cy="5" rx="11" ry="5" transform="translate(241 222)scale(-1 1)"/><ellipse cx="11" cy="5" rx="11" ry="5" transform="translate(96 222)scale(-1 1)"/></g><path fill="#ffccb4" d="M126 98c3 42 9 40-22 46-31 12-27-1-30-43s6-80 24-81 25 36 28 78m63 0c-3 42-10 40 21 46 31 12 27-1 30-43s-6-80-23-81-25 36-28 78"/><g fill="#fffbf7"><g stroke="none"><path d="M147 405a14 14 0 1 1-1 29l1-1 3-2q6-3 8-12c2-9-5-10-9-12l-2-1-1-1zM145 405zv8h-1z"/></g><path d="m166 425-6 17h4l7-19z"/></g><g stroke="#fffbf7"><path d="m152 418 8 24m0 0 6-17 5-2-7 19z"/><path fill="#fffbf7" stroke="none" d="M146 423c-17-5-11-6-1-6q-12-1-15 1c-8 1 3 5 9 6q22 5 34 5c12 0 13-1 14-3s-9-4-17-6c23 6-3 6-8 5z"/></g><defs><path id="a" d="M77 598c-9-5-4-21 0-28l24 6 29 5c8 25-11 27-23 25-6 0-21-3-30-8"/><path id="b" d="M242 599c9-6 4-18 0-25l-30 6-22 2c-11 23 11 27 23 25 6-1 21-3 29-8"/></defs></svg>