<svg width="356" height="632" viewBox="0 0 356 632" fill="none" xmlns="http://www.w3.org/2000/svg">
<path d="M88.9068 588.01C20.2084 560.19 60.2825 417.928 88.9068 350.274H265.575C323.553 483.684 307.144 577.261 262.294 592.436C226.413 604.576 228.017 603.185 222.912 603.185H184.625H166.575C141.962 603.185 104.951 596.019 88.9068 588.01Z" fill="#FFEFE2" stroke="#EABA93" stroke-width="5"/>
<path d="M217.131 361.456C145.168 372.359 104.644 354.005 85.1995 349.462C49.6411 333.47 -13.225 273.356 72.1152 160.833C50.3083 114.493 63.2108 55.7967 78.1121 31.0822C80.8378 25.0854 95.0251 0.400943 130.994 3.2785C158.252 5.45924 170.246 19.8154 174.607 31.0822C179.841 5.35018 207.318 1.82472 220.402 3.2785C276.009 3.27854 288.366 96.8662 271.103 160.833C359.202 272.92 299.088 337.832 262.38 349.462C233.159 358.185 223.127 361.456 217.131 361.456Z" fill="#FFEFE2" stroke="#EABA93" stroke-width="5"/>
<path d="M173.639 29.7134C179.636 62.4236 180.181 129.48 173.639 150.196" stroke="#EABA93" stroke-width="5"/>
<ellipse cx="124.997" cy="252.421" rx="6.54205" ry="5.99688" fill="#77512E"/>
<ellipse cx="220.947" cy="252.421" rx="6.54205" ry="5.99688" fill="#77512E"/>
<path d="M135.9 270.413C145.663 287.408 203.349 288.302 212.224 270.413" stroke="#77512E" stroke-width="3"/>
<ellipse cx="237.848" cy="271.502" rx="15.81" ry="11.9938" fill="#FFCCB4"/>
<ellipse cx="107.552" cy="271.502" rx="16.3551" ry="11.9938" fill="#FFCCB4"/>
<line x1="234.365" y1="265.57" x2="230.776" y2="272.748" stroke="#E68C71"/>
<line x1="245.132" y1="269.16" x2="241.543" y2="276.338" stroke="#E68C71"/>
<line x1="241.543" y1="263.776" x2="234.365" y2="278.132" stroke="#E68C71"/>
<line x1="104.205" y1="265.57" x2="100.616" y2="272.748" stroke="#E68C71"/>
<line x1="114.972" y1="269.16" x2="111.383" y2="276.338" stroke="#E68C71"/>
<line x1="111.383" y1="263.776" x2="104.205" y2="278.132" stroke="#E68C71"/>
<path d="M4.33212 465.866C16.4123 396.897 62.609 372.283 84.7756 355.725C66.3273 408.132 54.5647 479.784 50.9894 509.059C30.7891 514.818 -4.26472 514.949 4.33212 465.866Z" fill="#FFEFE2" stroke="#EABA93" stroke-width="5"/>
<path d="M351.65 465.866C339.409 396.897 292.596 372.283 270.134 355.725C288.828 408.132 300.748 479.784 304.371 509.059C324.84 514.818 360.362 514.949 351.65 465.866Z" fill="#FFEFE2" stroke="#EABA93" stroke-width="5"/>
<path d="M88.6802 619.949C79.6339 614.464 84.9109 598.464 88.6802 590.694L113.726 597.159L142.632 602.547C151.134 628.176 132.027 630.461 119.777 628.176C113.181 627.719 97.7266 625.433 88.6802 619.949Z" fill="#FFEFE2" stroke="#EABA93" stroke-width="5"/>
<path d="M257.697 620.365C266.398 614.857 261.322 602.314 257.697 594.51L227.065 601.052L204.713 603.233C192.967 627.47 216.004 630.923 227.787 628.628C234.131 628.169 248.996 625.874 257.697 620.365Z" fill="#FFEFE2" stroke="#EABA93" stroke-width="5"/>
<path d="M71.6919 405.881C102.221 419.402 111.308 379.531 112.035 357.906L138.203 362.268C117.704 398.903 140.202 410.97 154.013 412.423H199.807C230.337 412.423 224.885 378.986 218.343 362.268L240.695 357.906C242.875 409.152 269.044 405.881 282.673 405.881C290.96 414.168 300.664 479.116 304.48 510.554L300.664 536.177C300.3 538.721 299.601 549.902 289.76 569.978C276.131 597.781 225.975 603.233 205.804 603.778C185.633 604.324 122.393 602.143 102.221 593.965C82.0501 585.788 84.2308 587.423 65.695 572.158C54.3554 558.202 51.5205 537.994 51.5205 529.635V516.551C48.7947 521.458 67.8757 404.246 71.6919 405.881Z" fill="#BDBD75" stroke="#BDBD75" stroke-width="5"/>
<path d="M157.948 447.833C157.948 448.133 158.028 448.353 158.19 448.493C158.354 448.631 158.553 448.7 158.787 448.7C159.022 448.7 159.22 448.631 159.381 448.493C159.545 448.353 159.627 448.133 159.627 447.833V446.505C159.627 446.206 159.545 445.987 159.381 445.849C159.22 445.708 159.022 445.638 158.787 445.638C158.553 445.638 158.354 445.708 158.19 445.849C158.028 445.987 157.948 446.206 157.948 446.505V447.833ZM157.166 447.833V446.505C157.166 446.075 157.328 445.702 157.651 445.384C157.953 445.09 158.332 444.943 158.787 444.943C159.131 444.943 159.411 445.053 159.627 445.275V443.615L160.369 443.263H160.409V447.833C160.409 448.263 160.247 448.637 159.924 448.954C159.622 449.249 159.243 449.396 158.787 449.396C158.337 449.396 157.958 449.249 157.651 448.954C157.328 448.642 157.166 448.268 157.166 447.833ZM165.018 447.587V447.833C165.018 448.263 164.856 448.637 164.534 448.954C164.231 449.249 163.853 449.396 163.397 449.396C162.946 449.396 162.567 449.249 162.26 448.954C161.937 448.642 161.776 448.268 161.776 447.833V446.505C161.776 446.075 161.937 445.702 162.26 445.384C162.562 445.09 162.941 444.943 163.397 444.943C163.839 444.943 164.218 445.09 164.534 445.384C164.856 445.686 165.018 446.022 165.018 446.392V446.4L162.635 448.267C162.674 448.355 162.729 448.43 162.799 448.49C162.963 448.63 163.162 448.7 163.397 448.7C163.631 448.7 163.829 448.63 163.991 448.49C164.155 448.349 164.237 448.165 164.237 447.939L164.979 447.587H165.018ZM162.557 447.478L164.19 446.154C164.148 446.026 164.083 445.924 163.994 445.849C163.83 445.708 163.631 445.638 163.397 445.638C163.162 445.638 162.963 445.708 162.799 445.849C162.638 445.987 162.557 446.206 162.557 446.505V447.478ZM166.073 447.939L166.815 447.587H166.854V447.9C166.854 448.191 166.938 448.413 167.108 448.564C167.269 448.707 167.464 448.779 167.694 448.779C167.959 448.779 168.166 448.694 168.315 448.525C168.471 448.348 168.549 448.155 168.549 447.947C168.549 447.723 168.466 447.545 168.299 447.415C168.156 447.303 167.953 447.247 167.69 447.247C167.226 447.247 166.86 447.146 166.592 446.943C166.355 446.766 166.237 446.491 166.237 446.118C166.237 445.756 166.402 445.457 166.733 445.22C166.991 445.035 167.311 444.943 167.694 444.943C168.061 444.943 168.38 445.057 168.651 445.286C168.859 445.466 168.988 445.674 169.037 445.911L168.295 446.263H168.256V446.15C168.256 446.014 168.217 445.898 168.139 445.802C168.014 445.641 167.836 445.56 167.604 445.56C167.419 445.56 167.268 445.618 167.151 445.736C167.036 445.85 166.979 445.978 166.979 446.118C166.979 446.285 167.049 446.418 167.19 446.517C167.268 446.572 167.435 446.599 167.69 446.599C168.218 446.599 168.616 446.72 168.881 446.962C169.17 447.225 169.315 447.568 169.315 447.99C169.315 448.328 169.165 448.651 168.866 448.958C168.582 449.25 168.191 449.396 167.694 449.396C167.243 449.396 166.864 449.271 166.557 449.021C166.234 448.758 166.073 448.397 166.073 447.939ZM170.623 444.157C170.532 444.064 170.487 443.952 170.487 443.822C170.487 443.689 170.532 443.575 170.623 443.482C170.714 443.388 170.825 443.341 170.955 443.341C171.086 443.341 171.196 443.388 171.287 443.482C171.379 443.575 171.424 443.689 171.424 443.822C171.424 443.952 171.379 444.064 171.287 444.157C171.196 444.251 171.086 444.298 170.955 444.298C170.825 444.298 170.714 444.251 170.623 444.157ZM170.565 449.474V445.216L171.307 444.865H171.346V449.122L170.604 449.474H170.565ZM173.494 447.833C173.494 448.133 173.575 448.353 173.737 448.493C173.901 448.631 174.1 448.7 174.334 448.7C174.569 448.7 174.767 448.631 174.928 448.493C175.092 448.353 175.174 448.133 175.174 447.833V446.505C175.174 446.206 175.092 445.987 174.928 445.849C174.767 445.708 174.569 445.638 174.334 445.638C174.1 445.638 173.901 445.708 173.737 445.849C173.575 445.987 173.494 446.206 173.494 446.505V447.833ZM172.713 447.833V446.505C172.713 446.075 172.875 445.702 173.198 445.384C173.5 445.09 173.879 444.943 174.334 444.943C174.79 444.943 175.169 445.09 175.471 445.384C175.794 445.699 175.955 446.073 175.955 446.505V449.435C175.955 449.865 175.794 450.238 175.471 450.556C175.169 450.85 174.79 450.997 174.334 450.997H173.131V450.958L173.444 450.302H174.334C174.569 450.302 174.767 450.232 174.928 450.091C175.092 449.953 175.174 449.734 175.174 449.435V449.064C174.976 449.285 174.696 449.396 174.334 449.396C173.884 449.396 173.505 449.249 173.198 448.954C172.875 448.642 172.713 448.268 172.713 447.833ZM177.244 449.474V446.505C177.244 446.075 177.406 445.702 177.729 445.384C178.031 445.09 178.41 444.943 178.866 444.943C179.316 444.943 179.695 445.09 180.002 445.384C180.325 445.697 180.487 446.07 180.487 446.505V449.122L179.744 449.474H179.705V446.505C179.705 446.206 179.623 445.987 179.459 445.849C179.298 445.708 179.1 445.638 178.866 445.638C178.631 445.638 178.432 445.708 178.268 445.849C178.106 445.987 178.026 446.206 178.026 446.505V449.122L177.284 449.474H177.244ZM182.58 449.474L181.073 445.185L181.748 444.865H181.787L182.893 448.122L183.975 444.865H184.014L184.69 445.185L183.295 449.154L182.619 449.474H182.58ZM188.518 447.587V447.833C188.518 448.263 188.356 448.637 188.034 448.954C187.731 449.249 187.353 449.396 186.897 449.396C186.446 449.396 186.067 449.249 185.76 448.954C185.437 448.642 185.276 448.268 185.276 447.833V446.505C185.276 446.075 185.437 445.702 185.76 445.384C186.062 445.09 186.441 444.943 186.897 444.943C187.339 444.943 187.718 445.09 188.034 445.384C188.356 445.686 188.518 446.022 188.518 446.392V446.4L186.135 448.267C186.174 448.355 186.229 448.43 186.299 448.49C186.463 448.63 186.662 448.7 186.897 448.7C187.131 448.7 187.329 448.63 187.491 448.49C187.655 448.349 187.737 448.165 187.737 447.939L188.479 447.587H188.518ZM186.057 447.478L187.69 446.154C187.648 446.026 187.583 445.924 187.494 445.849C187.33 445.708 187.131 445.638 186.897 445.638C186.662 445.638 186.463 445.708 186.299 445.849C186.138 445.987 186.057 446.206 186.057 446.505V447.478ZM189.69 449.474V446.505C189.69 446.075 189.851 445.702 190.174 445.384C190.476 445.09 190.855 444.943 191.311 444.943H191.838V444.982L191.526 445.638H191.311C191.076 445.638 190.877 445.708 190.713 445.849C190.552 445.987 190.471 446.206 190.471 446.505C190.471 446.505 190.471 447.378 190.471 449.122L189.729 449.474H189.69ZM192.385 447.939L193.127 447.587H193.166V447.9C193.166 448.191 193.251 448.413 193.42 448.564C193.582 448.707 193.777 448.779 194.006 448.779C194.272 448.779 194.479 448.694 194.627 448.525C194.784 448.348 194.862 448.155 194.862 447.947C194.862 447.723 194.778 447.545 194.612 447.415C194.468 447.303 194.265 447.247 194.002 447.247C193.539 447.247 193.173 447.146 192.905 446.943C192.668 446.766 192.549 446.491 192.549 446.118C192.549 445.756 192.714 445.457 193.045 445.22C193.303 445.035 193.623 444.943 194.006 444.943C194.373 444.943 194.692 445.057 194.963 445.286C195.172 445.466 195.3 445.674 195.35 445.911L194.608 446.263H194.569V446.15C194.569 446.014 194.53 445.898 194.451 445.802C194.326 445.641 194.148 445.56 193.916 445.56C193.731 445.56 193.58 445.618 193.463 445.736C193.349 445.85 193.291 445.978 193.291 446.118C193.291 446.285 193.362 446.418 193.502 446.517C193.58 446.572 193.747 446.599 194.002 446.599C194.531 446.599 194.928 446.72 195.194 446.962C195.483 447.225 195.627 447.568 195.627 447.99C195.627 448.328 195.478 448.651 195.178 448.958C194.894 449.25 194.504 449.396 194.006 449.396C193.556 449.396 193.177 449.271 192.869 449.021C192.547 448.758 192.385 448.397 192.385 447.939ZM199.924 447.587V447.833C199.924 448.263 199.763 448.637 199.44 448.954C199.138 449.249 198.759 449.396 198.303 449.396C197.853 449.396 197.474 449.249 197.166 448.954C196.843 448.642 196.682 448.268 196.682 447.833V446.505C196.682 446.075 196.843 445.702 197.166 445.384C197.468 445.09 197.847 444.943 198.303 444.943C198.746 444.943 199.125 445.09 199.44 445.384C199.763 445.686 199.924 446.022 199.924 446.392V446.4L197.541 448.267C197.58 448.355 197.635 448.43 197.705 448.49C197.869 448.63 198.069 448.7 198.303 448.7C198.537 448.7 198.735 448.63 198.897 448.49C199.061 448.349 199.143 448.165 199.143 447.939L199.885 447.587H199.924ZM197.463 447.478L199.096 446.154C199.054 446.026 198.989 445.924 198.901 445.849C198.737 445.708 198.537 445.638 198.303 445.638C198.069 445.638 197.869 445.708 197.705 445.849C197.544 445.987 197.463 446.206 197.463 446.505V447.478Z" fill="#585823"/>
<rect x="127.799" y="437.456" width="100.402" height="25.1682" rx="1.5" stroke="#585823"/>
</svg>
