<svg width="148" height="84" viewBox="0 0 148 84" fill="none" xmlns="http://www.w3.org/2000/svg">
<path d="M161.844 48.2094C206.687 48.8001 219.784 46.6879 219.844 38.2094C200.608 34.6751 190.428 34.1946 174.844 39.7094C162.576 38.591 158.205 40.3364 155.344 48.2094C148.319 42.0701 144.048 42.0819 135.844 48.2094C139.26 39.6787 143.017 36.5641 153.844 34.7094C136.1 27.9093 129.648 29.7531 121.344 38.2094C110.651 29.7931 103.592 27.7062 88.8435 29.2094C73.7403 38.023 69.3035 45.0014 67.8435 60.7094C52.6003 55.0412 46.8348 57.136 38.8435 65.2094C42.0725 53.2369 47.5927 50.338 62.3435 50.2094C55.7729 37.0174 50.699 32.9413 40.8435 31.2094C27.9713 30.9977 22.7458 34.2458 18.8435 49.2094C13.9181 42.405 10.3624 39.4691 1.84351 36.6418C1.27186 38.1868 0.779036 39.8738 0.343506 41.7094C-1.9959 60.7209 7.53547 64.4377 31.3435 66.7094C38.7956 77.1191 44.5864 77.2531 55.8435 74.2094C80.8148 87.7396 92.6519 87.0159 108.844 66.7094C121.479 76.7182 129.741 74.0754 146.344 55.7094C158.345 58.447 161.823 56.8465 161.844 48.2094Z" fill="#CCE1F4"/>
<path d="M55.8435 17.2094C48.6196 15.9582 46.5118 18.158 43.8435 23.7094C16.5604 20.8388 6.5409 23.9457 1.84351 36.6418C10.3624 39.4691 13.9181 42.405 18.8435 49.2094C22.7458 34.2458 27.9713 30.9977 40.8435 31.2094C50.699 32.9413 55.7729 37.0174 62.3435 50.2094C47.5927 50.338 42.0725 53.2369 38.8435 65.2094C46.8348 57.136 52.6003 55.0412 67.8435 60.7094C69.3035 45.0014 73.7403 38.023 88.8435 29.2094C103.592 27.7062 110.651 29.7931 121.344 38.2094C129.648 29.7531 136.1 27.9093 153.844 34.7094C143.017 36.5641 139.26 39.6787 135.844 48.2094C144.048 42.0819 148.319 42.0701 155.344 48.2094C158.205 40.3364 162.576 38.591 174.844 39.7094C190.428 34.1946 200.608 34.6751 219.844 38.2094C204.933 27.1877 195.302 26.8648 176.844 32.2094C161.567 8.14232 150.165 5.19168 124.344 20.2094C121.906 7.40706 117.686 5.18317 104.344 11.2094C83.8129 -6.25084 73.3657 -2.60101 55.8435 17.2094Z" fill="white"/>
</svg>
