<svg width="231" height="142" viewBox="0 0 231 142" fill="none" xmlns="http://www.w3.org/2000/svg">
<path fill-rule="evenodd" clip-rule="evenodd" d="M-108 65.0249C-136.018 60.5751 -145.74 63.8204 -159 73.5249C-117.813 74.8805 -96.9072 76.1091 -98 86.525C-88.3887 68.5397 -80.9922 68.2085 -64.5 83.525C-46.6941 79.4615 -44.1766 84.4306 -42.5 96.025C-31.2577 90.8899 -23.695 90.8895 -7.5 96.025C-7.75359 95.6836 -7.99573 95.3501 -8.23203 95.0246C-11.8738 90.008 -14.1263 86.9051 -35.5 86.525C-31.451 77.8162 -27.869 74.5771 -14.5 77.525C-10.6429 66.1211 -6.39888 64.4002 4.5 69.025C10.4458 53.2432 16.9805 49.7182 36.5 56.5249C26.1794 62.6865 24.5671 68.3662 25.5 80.525C32.2123 67.5371 37.005 63.1208 48 62.0249C58.0851 39.8511 66.3259 38.3916 86 56.5249C100.645 51.8459 107.652 56.5966 119.5 69.025C108.042 64.8359 103.4 65.9477 98 73.5249C133.196 77.828 138.483 83.5929 146.142 91.9454C147.331 93.2416 148.576 94.6 150 96.025C150.035 95.7992 150.071 95.5763 150.107 95.356C150.118 95.2845 150.13 95.2134 150.141 95.1425L150.142 95.1365L150.143 95.133L150.143 95.132C151.379 87.463 152.116 82.8975 130.5 69.025C131.516 68.6495 132.511 68.2779 133.486 67.9136C152.783 60.7058 164.48 56.3367 183.5 80.525C190.966 72.2602 195.342 72.1829 203.5 80.525C211.853 69.2552 217.114 65.9793 228.184 69.025C223.423 61.4369 211.264 52.7931 189.5 42.0249C180.942 28.9632 173.808 25.5267 158 24.5249C134.988 -6.99646 120.278 -7.73759 91 20.0249C85.8243 17.1461 82.6623 17.0124 76.5 20.0249C68.9089 9.98341 62.5419 8.59075 48 12.5249C27.9285 -3.37255 17.8274 -1.88209 1.5 16.0249C-24.6935 12.8927 -28.7611 23.1214 -31 47.0249C-39.7949 46.7206 -41.9523 49.1397 -42.5 56.5249C-61.8589 51.2024 -70.7237 52.9284 -84 62.0249C-94.4164 57.9238 -99.5989 58.9462 -108 65.0249Z" fill="white"/>
<path fill-rule="evenodd" clip-rule="evenodd" d="M150.107 95.356C150.118 95.2845 150.13 95.2134 150.141 95.1425L150.142 95.1365C150.13 95.2094 150.118 95.2825 150.107 95.356Z" fill="white"/>
<path d="M162 112.525C171.54 117.572 176.912 117.346 186.5 110.025C217.996 94.9572 237.62 84.0644 228.184 69.025C217.114 65.9793 211.853 69.2552 203.5 80.525C195.342 72.1829 190.966 72.2602 183.5 80.525C164.48 56.3367 152.783 60.7058 133.486 67.9136C132.511 68.2779 131.516 68.6495 130.5 69.025C152.116 82.8975 151.379 87.463 150.143 95.132L150.143 95.133L150.142 95.1365L150.141 95.1425L150.107 95.356C150.071 95.5763 150.035 95.7992 150 96.025C148.576 94.6 147.331 93.2416 146.142 91.9454C138.483 83.5929 133.196 77.828 98 73.5249C103.4 65.9477 108.042 64.8359 119.5 69.025C107.652 56.5966 100.645 51.8459 86 56.5249C66.3259 38.3916 58.0851 39.8511 48 62.0249C37.005 63.1208 32.2123 67.5371 25.5 80.525C24.5671 68.3662 26.1794 62.6865 36.5 56.5249C16.9805 49.7182 10.4458 53.2432 4.5 69.025C-6.39888 64.4002 -10.6429 66.1211 -14.5 77.525C-27.869 74.5771 -31.451 77.8162 -35.5 86.525C-14.1263 86.9051 -11.8738 90.008 -8.23203 95.0246C-7.99573 95.3501 -7.75359 95.6836 -7.5 96.025C-23.695 90.8895 -31.2577 90.8899 -42.5 96.025C-44.1766 84.4306 -46.6941 79.4615 -64.5 83.525C-80.9922 68.2085 -88.3887 68.5397 -98 86.525C-96.9072 76.1091 -117.813 74.8805 -159 73.5249C-140.165 82.6184 -128.8 85.3065 -108 88.5249C-105.687 93.6522 -102.957 95.9947 -95 99.0249C-82.618 124.866 -69.8897 123.998 -42.5 110.025C-34.8888 116.249 -30.623 117.281 -23 112.525C-5.41472 144.547 7.45045 144.424 33.5 125.525C49.6022 138.3 60.9583 139.957 86 131.525C96.7086 144.84 103.367 144.14 116 133.525C141.99 139.968 152.155 135.482 162 112.525Z" fill="#CCE1F4"/>
</svg>
