<svg width="214" height="125" viewBox="0 0 214 125" fill="none" xmlns="http://www.w3.org/2000/svg">
<g filter="url(#filter0_d_1279_190)">
<circle cx="73.3077" cy="22.9039" r="13.3824" fill="url(#paint0_linear_1279_190)"/>
<circle cx="73.308" cy="22.9037" r="8.10483" fill="#F2D59A"/>
<circle cx="144.932" cy="25.9195" r="13.3824" fill="url(#paint1_linear_1279_190)"/>
<circle cx="144.932" cy="24.7884" r="8.10483" fill="#F2D59A"/>
<path d="M76.1649 27.5593C66.4894 29.1928 50.5311 35.8526 47.5153 50.7429C35.6407 50.7429 23.9547 66.0101 21.1275 71.8531C18.3002 77.6962 18.1117 87.1204 23.9547 91.644C29.7978 96.1676 40.1644 92.6427 47.5153 95.6585C54.8662 98.6742 62.7528 104.706 84.0812 98.4294C95.3275 101.005 121.024 105.102 133.841 100.88C143.203 102.262 158.834 103.707 162.302 98.4294C173.234 99.2462 199.66 98.5048 202.072 89.0052C202.952 84.1674 200.188 68.2719 179.643 57.7168C175.81 46.7847 166.26 31.706 145.527 27.5593C139.307 21.1508 99.7254 9.27632 76.1649 27.5593Z" fill="url(#paint2_linear_1279_190)"/>
<g filter="url(#filter1_f_1279_190)">
<path d="M45.768 59.2812C38.1828 61.5564 22.8869 63.2338 25.2443 83.4072L47.5686 91.3236L45.768 59.2812Z" fill="url(#paint3_linear_1279_190)"/>
</g>
<g filter="url(#filter2_f_1279_190)">
<path d="M175.933 63.0508C183.458 65.326 189.949 71.7155 187.61 91.8889L174.147 95.0931L175.933 63.0508Z" fill="url(#paint4_linear_1279_190)"/>
</g>
<g filter="url(#filter3_f_1279_190)">
<path d="M74.7113 32.8936C67.1261 37.3101 45.6004 36.4748 54.9025 95.0934H76.5119L74.7113 32.8936Z" fill="url(#paint5_linear_1279_190)"/>
</g>
<g filter="url(#filter4_f_1279_190)">
<path d="M152.283 39.3018C159.868 43.7183 174.486 32.8933 165.184 91.5119L145.121 99.2398L152.283 39.3018Z" fill="url(#paint6_linear_1279_190)"/>
</g>
<g filter="url(#filter5_f_1279_190)">
<path d="M140.031 29.6891C126.872 34.1056 55.2136 -7.4425 94.0588 95.0931H131.549L140.031 29.6891Z" fill="url(#paint7_linear_1279_190)"/>
</g>
<path d="M120.607 44.0291C120.827 47.7916 116.624 50.6334 111.219 50.3764C105.815 50.1195 101.256 46.8611 101.036 43.0987C100.816 39.3362 103.633 36.4285 110.424 36.7514C118.445 37.1327 120.388 40.2667 120.607 44.0291Z" fill="#FAE1AB" fill-opacity="0.6"/>
<path d="M113.308 40.6531C113.484 41.3992 112.465 42.098 111.032 42.2138C109.599 42.3296 108.295 41.8187 108.119 41.0726C107.943 40.3265 108.595 39.6575 110.395 39.5119C112.522 39.34 113.132 39.907 113.308 40.6531Z" fill="#563A24" fill-opacity="0.8"/>
<path d="M93.1427 38.8724C92.2857 38.6558 91.7217 37.4827 91.8831 36.2523C92.0444 35.0218 92.87 34.1999 93.727 34.4165C94.584 34.633 95.1894 35.4904 94.9867 37.0366C94.7472 38.8627 93.9998 39.0889 93.1427 38.8724Z" fill="#563A24" fill-opacity="0.8"/>
<path d="M126.807 38.5257C125.923 38.5093 125.108 37.495 124.986 36.26C124.863 35.0251 125.481 34.0372 126.365 34.0535C127.248 34.0698 128.033 34.7673 128.186 36.3191C128.368 38.152 127.691 38.542 126.807 38.5257Z" fill="#563A24" fill-opacity="0.8"/>
<g filter="url(#filter6_f_1279_190)">
<path d="M53.8942 88.4964C53.8942 73.1161 51.1298 60.8521 49.7476 56.6426" stroke="#724427" stroke-opacity="0.7" stroke-width="1.5"/>
</g>
<g filter="url(#filter7_f_1279_190)">
<path d="M82.1667 87.9308C82.1667 72.5505 77.8944 40.4956 76.5122 36.2861" stroke="#724427" stroke-opacity="0.7" stroke-width="1.5"/>
</g>
<g filter="url(#filter8_f_1279_190)">
<path d="M170 91.5121C170 76.1317 172.765 63.8677 174.147 59.6582" stroke="#724427" stroke-opacity="0.7" stroke-width="1.5"/>
</g>
<g filter="url(#filter9_f_1279_190)">
<path d="M141.728 90.9465C141.728 75.5661 146 43.5112 147.382 39.3018" stroke="#724427" stroke-opacity="0.7" stroke-width="1.5"/>
</g>
</g>
<defs>
<filter id="filter0_d_1279_190" x="12.7129" y="9.52148" width="196" height="106.68" filterUnits="userSpaceOnUse" color-interpolation-filters="sRGB">
<feFlood flood-opacity="0" result="BackgroundImageFix"/>
<feColorMatrix in="SourceAlpha" type="matrix" values="0 0 0 0 0 0 0 0 0 0 0 0 0 0 0 0 0 0 127 0" result="hardAlpha"/>
<feOffset dy="7"/>
<feGaussianBlur stdDeviation="3.25"/>
<feComposite in2="hardAlpha" operator="out"/>
<feColorMatrix type="matrix" values="0 0 0 0 0 0 0 0 0 0 0 0 0 0 0 0 0 0 0.25 0"/>
<feBlend mode="normal" in2="BackgroundImageFix" result="effect1_dropShadow_1279_190"/>
<feBlend mode="normal" in="SourceGraphic" in2="effect1_dropShadow_1279_190" result="shape"/>
</filter>
<filter id="filter1_f_1279_190" x="0" y="34.2812" width="72.5688" height="82.042" filterUnits="userSpaceOnUse" color-interpolation-filters="sRGB">
<feFlood flood-opacity="0" result="BackgroundImageFix"/>
<feBlend mode="normal" in="SourceGraphic" in2="BackgroundImageFix" result="shape"/>
<feGaussianBlur stdDeviation="12.5" result="effect1_foregroundBlur_1279_190"/>
</filter>
<filter id="filter2_f_1279_190" x="149.147" y="38.0508" width="63.9478" height="82.042" filterUnits="userSpaceOnUse" color-interpolation-filters="sRGB">
<feFlood flood-opacity="0" result="BackgroundImageFix"/>
<feBlend mode="normal" in="SourceGraphic" in2="BackgroundImageFix" result="shape"/>
<feGaussianBlur stdDeviation="12.5" result="effect1_foregroundBlur_1279_190"/>
</filter>
<filter id="filter3_f_1279_190" x="27.6108" y="7.89355" width="73.9009" height="112.2" filterUnits="userSpaceOnUse" color-interpolation-filters="sRGB">
<feFlood flood-opacity="0" result="BackgroundImageFix"/>
<feBlend mode="normal" in="SourceGraphic" in2="BackgroundImageFix" result="shape"/>
<feGaussianBlur stdDeviation="12.5" result="effect1_foregroundBlur_1279_190"/>
</filter>
<filter id="filter4_f_1279_190" x="120.121" y="14.3018" width="73.0625" height="109.938" filterUnits="userSpaceOnUse" color-interpolation-filters="sRGB">
<feFlood flood-opacity="0" result="BackgroundImageFix"/>
<feBlend mode="normal" in="SourceGraphic" in2="BackgroundImageFix" result="shape"/>
<feGaussianBlur stdDeviation="12.5" result="effect1_foregroundBlur_1279_190"/>
</filter>
<filter id="filter5_f_1279_190" x="57.6406" y="0" width="107.391" height="120.093" filterUnits="userSpaceOnUse" color-interpolation-filters="sRGB">
<feFlood flood-opacity="0" result="BackgroundImageFix"/>
<feBlend mode="normal" in="SourceGraphic" in2="BackgroundImageFix" result="shape"/>
<feGaussianBlur stdDeviation="12.5" result="effect1_foregroundBlur_1279_190"/>
</filter>
<filter id="filter6_f_1279_190" x="45.0352" y="52.4082" width="13.6089" height="40.0879" filterUnits="userSpaceOnUse" color-interpolation-filters="sRGB">
<feFlood flood-opacity="0" result="BackgroundImageFix"/>
<feBlend mode="normal" in="SourceGraphic" in2="BackgroundImageFix" result="shape"/>
<feGaussianBlur stdDeviation="2" result="effect1_foregroundBlur_1279_190"/>
</filter>
<filter id="filter7_f_1279_190" x="71.7998" y="32.0518" width="15.1167" height="59.8789" filterUnits="userSpaceOnUse" color-interpolation-filters="sRGB">
<feFlood flood-opacity="0" result="BackgroundImageFix"/>
<feBlend mode="normal" in="SourceGraphic" in2="BackgroundImageFix" result="shape"/>
<feGaussianBlur stdDeviation="2" result="effect1_foregroundBlur_1279_190"/>
</filter>
<filter id="filter8_f_1279_190" x="165.25" y="55.4238" width="13.6089" height="40.0879" filterUnits="userSpaceOnUse" color-interpolation-filters="sRGB">
<feFlood flood-opacity="0" result="BackgroundImageFix"/>
<feBlend mode="normal" in="SourceGraphic" in2="BackgroundImageFix" result="shape"/>
<feGaussianBlur stdDeviation="2" result="effect1_foregroundBlur_1279_190"/>
</filter>
<filter id="filter9_f_1279_190" x="136.978" y="35.0674" width="15.1167" height="59.8789" filterUnits="userSpaceOnUse" color-interpolation-filters="sRGB">
<feFlood flood-opacity="0" result="BackgroundImageFix"/>
<feBlend mode="normal" in="SourceGraphic" in2="BackgroundImageFix" result="shape"/>
<feGaussianBlur stdDeviation="2" result="effect1_foregroundBlur_1279_190"/>
</filter>
<linearGradient id="paint0_linear_1279_190" x1="73.3077" y1="9.52148" x2="73.3077" y2="36.2863" gradientUnits="userSpaceOnUse">
<stop stop-color="#D15F2B"/>
<stop offset="1" stop-color="#E7713C"/>
</linearGradient>
<linearGradient id="paint1_linear_1279_190" x1="144.932" y1="12.5371" x2="144.932" y2="39.3019" gradientUnits="userSpaceOnUse">
<stop stop-color="#D15F2B"/>
<stop offset="1" stop-color="#E7713C"/>
</linearGradient>
<linearGradient id="paint2_linear_1279_190" x1="110.713" y1="17.8145" x2="110.713" y2="102.701" gradientUnits="userSpaceOnUse">
<stop stop-color="#E66934"/>
<stop offset="1" stop-color="#F3DB9F"/>
</linearGradient>
<linearGradient id="paint3_linear_1279_190" x1="35.491" y1="55.2997" x2="35.491" y2="91.3236" gradientUnits="userSpaceOnUse">
<stop stop-color="#E66934"/>
<stop offset="1" stop-color="#F3DB9F"/>
</linearGradient>
<linearGradient id="paint4_linear_1279_190" x1="186.129" y1="59.0692" x2="186.129" y2="95.0931" gradientUnits="userSpaceOnUse">
<stop stop-color="#E4561A"/>
<stop offset="1" stop-color="#F3DB9F"/>
</linearGradient>
<linearGradient id="paint5_linear_1279_190" x1="64.4339" y1="25.1646" x2="64.4339" y2="95.0934" gradientUnits="userSpaceOnUse">
<stop stop-color="#E0561C"/>
<stop offset="1" stop-color="#F3DB9F"/>
</linearGradient>
<linearGradient id="paint6_linear_1279_190" x1="157.198" y1="29.311" x2="157.198" y2="99.2398" gradientUnits="userSpaceOnUse">
<stop stop-color="#E0561C"/>
<stop offset="1" stop-color="#F3DB9F"/>
</linearGradient>
<linearGradient id="paint7_linear_1279_190" x1="110.595" y1="25.1642" x2="110.595" y2="95.093" gradientUnits="userSpaceOnUse">
<stop stop-color="#E0561C"/>
<stop offset="1" stop-color="#F3DB9F"/>
</linearGradient>
</defs>
</svg>
