<svg width="424" height="222" viewBox="0 0 424 222" fill="none" xmlns="http://www.w3.org/2000/svg">
<path d="M93.0708 10.2245C93.0708 8.90786 93.9729 7.76163 95.2663 7.51519C114.884 3.77709 152.252 5.9378 164.377 41.7102C164.776 42.889 165.874 43.7251 167.118 43.7251H308.635C308.828 43.7251 309.013 43.6977 309.2 43.6553C309.701 43.5423 310.183 43.3229 310.583 43.0024C312.665 41.3387 316.746 40.0354 323.052 40.7542C323.774 40.8365 324.507 40.6683 325.092 40.2367C329.182 37.2172 335.646 31.9775 338.474 33.3735C341.834 35.0319 343.342 42.172 342.347 47.7076C342.118 48.9809 342.578 50.3206 343.588 51.1293C347.013 53.8723 350.878 58.411 349.91 61.5991C348.9 64.9216 340.386 66.0439 335.127 65.9374C333.977 65.9142 332.888 66.5007 332.316 67.4973C330.591 70.5019 328.017 74.2598 325.13 76.2348C324.164 76.896 323.44 77.9352 323.444 79.1061C323.448 80.9253 323.422 82.8316 323.362 84.8286C323.306 86.6557 324.957 88.0794 326.784 88.0412C332.18 87.9284 338.843 89.8722 339.023 98.5191C339.049 99.7773 339.738 100.95 340.906 101.419C368.675 112.552 421.423 141.53 423.284 163.211C425.665 190.966 269.848 167.445 212.67 150.04C211.823 149.782 208.971 147.848 206.884 146.022C205.432 144.75 202.571 142.983 200.64 142.983H177.848C176.715 142.983 175.693 143.66 175.25 144.702L164.321 170.43C163.879 171.472 162.856 172.149 161.724 172.149H138.375C137.205 172.149 136.156 171.427 135.738 170.334L117.845 123.525C117.544 122.739 116.932 122.136 116.136 121.866C71.8721 106.818 -7.86814 76.3578 0.628418 44.6665C6.87206 21.3798 72.9316 33.2727 89.7773 36.505C91.5103 36.8375 93.0708 35.5108 93.0708 33.7462V10.2245Z" fill="#705D3F"/>
<g filter="url(#filter0_d_1272_39)">
<path d="M315.047 106.246C379.582 130.445 414.114 154.652 408.131 161.286C397.269 171.647 312.469 163.679 215.85 139.082L244.651 139.387C314.764 153.363 357.104 149.42 357.873 140.586C358.402 134.509 343.362 124.773 322.81 114.755L322.83 112.948C322.835 112.472 322.453 112.082 321.977 112.077L317.093 112.025C316.398 111.7 315.699 111.373 314.995 111.048L315.047 106.246ZM231.765 80.3144C255.195 86.3016 276.652 92.7807 295.919 99.3858L295.883 102.704C272.647 93.0614 247.976 84.4892 231.765 80.3144Z" fill="#F4F4F4"/>
<path d="M13.5708 49.3963C11.9422 39.8613 62.1892 37.8804 140.614 55.5503C140.636 56.7286 140.692 57.7684 140.725 58.6493C103.411 52.5066 66.9261 50.0959 65.4705 60.2573C64.1367 69.5724 93.1525 90.2067 111.349 97.1331C107.648 99.1847 103.268 101.542 103.863 102.338C105.029 103.897 107.581 104.765 118.362 103.85L122.77 110.413C94.082 99.7686 15.4336 67.9138 13.5708 49.3963ZM174.542 63.9951C184.865 66.8019 195.55 69.918 206.555 73.3641C198.223 70.7721 187.011 67.895 174.529 65.1484L174.542 63.9951Z" fill="#F4F4F4"/>
<rect width="2.6184" height="25.8499" transform="matrix(0.999944 0.0105948 -0.0108705 0.99994 107.648 16.7159)" fill="white"/>
<path d="M165.739 100.392L145.531 155.824L158.273 155.959L181.016 92.8115L165.739 100.392Z" fill="white"/>
<path d="M117.468 77.1378L145.531 155.824M145.531 155.824L165.739 100.392L181.016 92.8115L158.273 155.959L145.531 155.824Z" stroke="white" stroke-width="2.90313"/>
<path d="M158.228 53.6422L190.259 53.9815L190.231 56.5811L173.709 56.406L173.585 67.8174L181.692 67.9033L181.663 70.5469L173.556 70.461L173.431 82.0046L189.953 82.1797L189.924 84.8232L157.893 84.4838L158.228 53.6422ZM214.33 65.2968C217.815 66.2738 220.416 67.5498 222.132 69.125C223.848 70.6707 224.693 72.6773 224.666 75.1446C224.645 77.1126 224.009 78.8684 222.758 80.4121C221.508 81.9558 219.673 83.1555 217.255 84.0112C214.866 84.8672 211.968 85.2771 208.561 85.241C204.537 85.1984 200.988 84.6467 197.915 83.586C194.872 82.4962 192.492 81.1931 190.775 79.6767L192.251 77.7094C193.765 78.9299 195.678 79.9783 197.989 80.8547C200.3 81.7311 202.793 82.1835 205.465 82.2118C207.198 82.2302 208.508 81.9944 209.395 81.5044C210.311 81.0147 210.774 80.3145 210.784 79.404C210.801 77.8178 209.243 76.5675 206.11 75.653L200.4 73.9181C197.297 72.9451 194.902 71.6125 193.217 69.9202C191.561 68.2282 190.745 66.2367 190.77 63.9456C190.791 62.0363 191.412 60.3097 192.633 58.7657C193.854 57.2217 195.615 56.0212 197.916 55.1643C200.246 54.2783 203.027 53.8524 206.258 53.8867C209.342 53.9194 212.173 54.3019 214.75 55.0342C217.357 55.7668 219.477 56.6412 221.111 57.6573L219.635 59.6687C218.263 58.861 216.611 58.1678 214.678 57.5892C212.775 57.0109 210.766 56.7105 208.651 56.6881C206.801 56.6685 205.373 56.9471 204.368 57.524C203.392 58.0718 202.899 58.8451 202.888 59.8438C202.88 60.6075 203.24 61.2869 203.968 61.8822C204.696 62.448 206.085 63.0209 208.135 63.6008L214.33 65.2968ZM227.114 54.372L241.478 54.5242L241.143 85.3659L226.779 85.2137L227.114 54.372ZM243.814 69.9275C243.87 64.7285 245.19 60.8795 247.773 58.3805C249.436 56.753 251.283 55.6857 253.316 55.1784C255.348 54.6712 258.01 54.435 261.299 54.4699C264.354 54.5022 266.804 54.7485 268.65 55.2087C270.526 55.6398 272.058 56.5521 273.247 57.9454C274.233 59.1015 274.997 60.505 275.537 62.1558C276.107 63.7775 276.427 65.3672 276.499 66.9249L273.987 66.8983C273.884 65.5753 273.576 64.2207 273.062 62.8346C272.578 61.4194 271.798 60.2067 270.722 59.1965C269.646 58.1569 268.271 57.6282 266.597 57.6105C265.04 57.594 263.74 58.2706 262.697 59.6402C261.803 60.8352 261.154 62.4293 260.751 64.4226C260.379 66.1813 260.182 68.074 260.16 70.1007C260.124 73.4199 260.505 76.2 261.303 78.441C262.359 81.3017 264.032 82.7442 266.324 82.7685L266.456 70.564L279.939 70.7069L279.775 85.7752C275.545 85.7304 270.757 85.7384 265.409 85.7993L260.959 85.7962C257.728 85.762 255.102 85.4257 253.082 84.7874C251.092 84.12 249.385 83.0591 247.961 81.6045C245.143 78.7252 243.761 74.8328 243.814 69.9275ZM282.576 54.9597L295.53 55.0969L308.228 70.6541L308.395 55.2332L311.039 55.2612L310.704 86.1029L300.35 85.9932L285.152 65.2981L284.929 85.8298L282.241 85.8014L282.576 54.9597Z" fill="white"/>
<path d="M185.685 97.8804L217.717 98.2198L217.688 100.819L201.166 100.644L201.042 112.056L209.149 112.142L209.12 114.785L201.013 114.699L200.888 126.243L217.41 126.418L217.381 129.061L185.35 128.722L185.685 97.8804ZM220.236 98.2465L249.712 98.5588C251.151 98.5741 252.469 98.9552 253.665 99.7023C254.891 100.42 255.85 101.4 256.542 102.641C257.263 103.853 257.616 105.179 257.6 106.618C257.579 108.527 256.973 110.254 255.781 111.798C254.589 113.343 253.095 114.326 251.298 114.747C252.88 115.205 254.163 116.056 255.148 117.3C256.163 118.544 256.662 119.945 256.645 121.502L256.558 129.477L241.798 129.32L241.902 119.759C241.912 118.819 241.744 118.083 241.397 117.551C240.993 116.929 240.528 116.469 240.002 116.17C239.418 115.841 238.76 115.599 238.027 115.444C237.265 115.289 236.547 115.193 235.871 115.157L234.682 115.1L234.528 129.243L219.901 129.088L220.236 98.2465ZM236.252 112.561C237.309 112.572 238.281 112.333 239.168 111.843C240.084 111.324 240.797 110.626 241.306 109.75C241.845 108.845 242.119 107.879 242.131 106.851C242.142 105.793 241.888 104.821 241.369 103.934C240.88 103.019 240.183 102.291 239.278 101.753C238.402 101.215 237.436 100.94 236.378 100.929L234.836 100.913L234.709 112.589L236.252 112.561ZM283.351 109.975C286.836 110.952 289.437 112.228 291.153 113.804C292.87 115.349 293.714 117.356 293.688 119.823C293.666 121.791 293.03 123.547 291.78 125.091C290.529 126.634 288.695 127.834 286.276 128.69C283.888 129.546 280.99 129.956 277.582 129.92C273.558 129.877 270.01 129.325 266.937 128.265C263.893 127.175 261.513 125.872 259.797 124.355L261.272 122.388C262.786 123.609 264.699 124.657 267.01 125.533C269.322 126.41 271.814 126.862 274.487 126.89C276.22 126.909 277.529 126.673 278.416 126.183C279.332 125.693 279.795 124.993 279.805 124.083C279.822 122.496 278.264 121.246 275.131 120.332L269.421 118.597C266.318 117.624 263.923 116.291 262.238 114.599C260.582 112.907 259.766 110.915 259.791 108.624C259.812 106.715 260.433 104.988 261.654 103.444C262.876 101.9 264.636 100.7 266.937 99.8429C269.268 98.9569 272.048 98.5311 275.279 98.5653C278.363 98.598 281.194 98.9805 283.771 99.7128C286.378 100.445 288.498 101.32 290.132 102.336L288.656 104.347C287.284 103.54 285.632 102.846 283.699 102.268C281.796 101.69 279.787 101.389 277.672 101.367C275.822 101.347 274.394 101.626 273.389 102.203C272.414 102.75 271.921 103.524 271.91 104.522C271.901 105.286 272.261 105.966 272.989 106.561C273.717 107.127 275.107 107.7 277.157 108.279L283.351 109.975ZM296.136 99.0507L328.167 99.3901L328.139 101.99L311.616 101.815L311.492 113.226L319.599 113.312L319.571 115.955L311.464 115.87L311.338 127.413L327.86 127.588L327.832 130.232L295.8 129.892L296.136 99.0507Z" fill="white"/>
<path d="M157.174 60.3278C156.915 84.1205 137.169 103.201 113.068 102.946C88.9676 102.691 143.694 95.9459 144.083 60.1891C144.472 24.4322 89.9043 16.5295 114.005 16.7849C138.105 17.0402 157.433 36.5351 157.174 60.3278Z" fill="white"/>
</g>
<path d="M329.412 47.4885L320.835 47.0181L326.023 54.9327L325.124 63.4827L331.795 57.8377H341.801L335.607 50.7815L336.083 42.314L329.412 47.4885Z" fill="#FAFCF7"/>
<path d="M213.026 33.2781L204.998 42.926C204.462 43.5706 204.385 44.4814 204.805 45.2071L205.554 46.5009C205.911 47.1187 206.571 47.499 207.285 47.499H317.12C317.716 47.499 318.28 47.2338 318.66 46.7754L322.595 42.0281C322.611 42.0094 322.624 41.9891 322.635 41.9676C325.602 36.1933 324.951 29.2223 320.965 24.0978L320.581 23.6048C320.529 23.5372 320.503 23.4529 320.508 23.3675L321.162 12.0483C321.229 10.9002 320.316 9.93278 319.166 9.93278H295.285L294.071 12.8901C293.548 14.1649 291.918 14.5354 290.795 13.7366C283.128 8.28307 275.662 9.86932 269.664 14.4364C268.889 15.0265 267.806 15.039 267.028 14.453C256.272 6.35226 247.97 9.26721 241.752 14.411C241.01 15.0241 239.936 15.067 239.144 14.521C222.028 2.71866 211.219 16.2178 206.991 27.4563C206.519 28.7099 207.479 29.9989 208.818 29.9989H211.488C213.183 29.9989 214.11 31.9751 213.026 33.2781Z" fill="#705D3F"/>
<path d="M214.635 45.1912L223.133 32.3388C226.056 28.0546 227.517 25.0825 227.514 23.4226C227.512 22.5667 227.239 21.8929 226.693 21.401C226.148 20.8832 225.408 20.6251 224.475 20.6266C223.204 20.6288 222.102 20.9808 221.17 21.6826C220.237 22.3844 219.499 23.2285 218.956 24.215C218.439 25.2014 218.117 26.1227 217.989 26.9788L215.616 26.9827C216.103 24.129 217.37 21.8705 219.416 20.2072C221.488 18.5438 224.249 17.7093 227.699 17.7035C229.54 17.7004 231.291 18.0087 232.952 18.6284C234.613 19.2481 235.95 20.2054 236.964 21.5005C238.004 22.7696 238.525 24.3379 238.528 26.2052C238.53 27.0352 238.44 27.8523 238.26 28.6566C238.08 29.3831 237.77 30.2006 237.331 31.1091C236.891 32.0175 236.426 32.8612 235.935 33.6401L229.959 42.8313L239.802 42.8149L239.806 45.1491L214.635 45.1912ZM254.067 17.6594C256.791 17.6548 259.165 18.2344 261.19 19.3981C263.241 20.5618 264.813 22.1931 265.905 24.2921C266.998 26.3651 267.547 28.7502 267.552 31.4475C267.556 34.1708 267.016 36.5837 265.93 38.6863C264.844 40.763 263.278 42.3865 261.231 43.5571C259.21 44.7276 256.838 45.3151 254.115 45.3196C251.392 45.3242 249.005 44.7446 246.954 43.581C244.929 42.4172 243.357 40.7989 242.238 38.7259C241.145 36.627 240.596 34.2159 240.592 31.4926C240.587 28.7953 241.128 26.4084 242.213 24.3317C243.325 22.2291 244.891 20.5925 246.912 19.422C248.959 18.2515 251.344 17.6639 254.067 17.6594ZM251.623 21.4371C251.183 22.2159 250.9 23.3965 250.773 24.9787C250.671 25.9645 250.623 28.0264 250.628 31.1646L257.19 23.5286C257.033 22.673 256.798 21.9731 256.486 21.429C255.965 20.4443 255.161 19.9529 254.071 19.9547C252.982 19.9565 252.166 20.4506 251.623 21.4371ZM256.52 41.542C256.96 40.7632 257.243 39.5826 257.37 38.0003C257.498 36.7552 257.559 34.7192 257.554 31.8922L250.993 39.5672C251.15 40.4487 251.371 41.1097 251.657 41.5501C252.204 42.5348 253.022 43.0262 254.111 43.0243C255.2 43.0225 256.003 42.5284 256.52 41.542ZM268.089 45.1017L276.587 32.2494C279.51 27.9651 280.971 24.9931 280.968 23.3332C280.966 22.4773 280.693 21.8034 280.147 21.3116C279.602 20.7938 278.862 20.5357 277.929 20.5372C276.658 20.5393 275.556 20.8913 274.624 21.5931C273.691 22.295 272.953 23.1391 272.411 24.1256C271.893 25.112 271.571 26.0332 271.443 26.8893L269.07 26.8933C269.557 24.0396 270.824 21.781 272.87 20.1177C274.942 18.4544 277.703 17.6198 281.153 17.6141C282.994 17.611 284.745 17.9193 286.406 18.539C288.067 19.1586 289.404 20.116 290.418 21.4111C291.458 22.6802 291.979 24.2484 291.982 26.1158C291.984 26.9457 291.894 27.7629 291.714 28.5672C291.534 29.2937 291.224 30.1112 290.785 31.0196C290.345 31.9281 289.88 32.7718 289.389 33.5507L283.413 42.7419L293.256 42.7254L293.26 45.0596L268.089 45.1017ZM306.772 45.2315C304.282 45.2357 301.999 44.8246 299.923 43.9981C297.873 43.1456 296.236 41.8905 295.015 40.2327C293.819 38.5748 293.219 36.5658 293.215 34.2056C293.213 33.0386 293.418 31.8581 293.831 30.6644C294.244 29.4447 294.955 27.9782 295.963 26.2648L300.851 17.8145L313.572 17.7933L309.189 25.4257C311.134 25.5002 312.925 25.9252 314.56 26.7005C316.221 27.4498 317.533 28.511 318.495 29.884C319.482 31.2569 319.978 32.8641 319.981 34.7055C319.985 36.8841 319.405 38.7654 318.24 40.3494C317.076 41.9334 315.483 43.1421 313.461 43.9754C311.466 44.8087 309.236 45.2274 306.772 45.2315ZM306.768 42.9362C307.546 42.9349 308.129 42.5838 308.517 41.8829C308.853 41.208 309.059 40.2481 309.134 39.003C309.185 38.5102 309.209 37.3819 309.206 35.6183L309.205 35.0737C309.202 33.2841 309.175 32.143 309.122 31.6503C309.042 30.4055 308.833 29.4463 308.494 28.7725C308.13 28.0988 307.546 27.7626 306.742 27.764C305.912 27.7653 305.329 28.1035 304.993 28.7784C304.631 29.4274 304.412 30.3873 304.337 31.6583C304.287 32.644 304.263 33.7852 304.265 35.0819L304.266 35.6266C304.268 36.8974 304.296 38.0256 304.349 39.011C304.429 40.2818 304.651 41.241 305.016 41.8888C305.38 42.5884 305.964 42.9376 306.768 42.9362Z" fill="white"/>
<line x1="90.9053" y1="105.647" x2="90.9053" y2="221.487" stroke="#705D3F" stroke-width="15"/>
<line x1="322.586" y1="162.177" x2="322.586" y2="221.487" stroke="#705D3F" stroke-width="15"/>
<defs>
<filter id="filter0_d_1272_39" x="9.76889" y="16.7159" width="402.792" height="156.528" filterUnits="userSpaceOnUse" color-interpolation-filters="sRGB">
<feFlood flood-opacity="0" result="BackgroundImageFix"/>
<feColorMatrix in="SourceAlpha" type="matrix" values="0 0 0 0 0 0 0 0 0 0 0 0 0 0 0 0 0 0 127 0" result="hardAlpha"/>
<feOffset dy="3.76333"/>
<feGaussianBlur stdDeviation="1.88167"/>
<feComposite in2="hardAlpha" operator="out"/>
<feColorMatrix type="matrix" values="0 0 0 0 0 0 0 0 0 0 0 0 0 0 0 0 0 0 0.05 0"/>
<feBlend mode="normal" in2="BackgroundImageFix" result="effect1_dropShadow_1272_39"/>
<feBlend mode="normal" in="SourceGraphic" in2="effect1_dropShadow_1272_39" result="shape"/>
</filter>
</defs>
</svg>
