<?xml version="1.0" encoding="UTF-8"?>
<svg version="1.1" xmlns="http://www.w3.org/2000/svg" width="430" height="222">
<path d="M0 0 C1.06927734 -0.020625 2.13855469 -0.04125 3.24023438 -0.0625 C19.14842484 -0.1393976 33.29359316 4.9535389 44.9375 16.01953125 C50.92554397 22.69760372 54.32571116 29.77393995 56.9375 38.25 C61.91950792 38.37975574 66.8952134 38.43612081 71.87890625 38.42700195 C73.57050887 38.43394269 75.26215484 38.46030926 76.953125 38.50708008 C87.13918419 39.04885774 87.13918419 39.04885774 95.87890625 34.72119141 C97.87790825 31.97256366 99.50616443 29.32781638 100.9375 26.25 C99.6175 25.92 98.2975 25.59 96.9375 25.25 C97.24403725 16.77424502 98.02926886 11.05538296 104.3125 4.9375 C109.40504989 1.66371793 113.91702718 0.73099372 119.9375 1.25 C122.02175147 1.9739194 124.04238325 2.80421206 126.08203125 3.64453125 C128.65416396 4.48385877 130.41085844 4.11627711 132.9375 3.25 C138.37684644 1.43688452 145.65488905 1.07086718 151.1015625 3.02734375 C151.66617187 3.32769531 152.23078125 3.62804687 152.8125 3.9375 C155.9522895 5.68774599 155.9522895 5.68774599 159.1875 3.9375 C159.75984375 3.63972656 160.3321875 3.34195312 160.921875 3.03515625 C166.32803781 0.92926725 172.85567981 1.50546199 178.125 3.75 C179.053125 4.245 179.98125 4.74 180.9375 5.25 C181.5975 4.26 182.2575 3.27 182.9375 2.25 C185.28833008 1.89355469 185.28833008 1.89355469 188.20703125 1.921875 C189.26083984 1.92703125 190.31464844 1.9321875 191.40039062 1.9375 C193.05844727 1.9684375 193.05844727 1.9684375 194.75 2 C196.3906543 2.00773438 196.3906543 2.00773438 198.06445312 2.015625 C202.83444117 2.06213311 207.27096962 2.19022134 211.9375 3.25 C211.64875 3.95125 211.36 4.6525 211.0625 5.375 C210.69125 6.32375 210.32 7.2725 209.9375 8.25 C209.256875 9.735 209.256875 9.735 208.5625 11.25 C208.253125 12.735 208.253125 12.735 207.9375 14.25 C209.65517582 17.04311693 209.65517582 17.04311693 211.9375 19.25 C213.25979189 21.89458379 213.03427194 23.92761301 213 26.875 C212.99097656 27.87789062 212.98195313 28.88078125 212.97265625 29.9140625 C212.95525391 31.07035156 212.95525391 31.07035156 212.9375 32.25 C218.75482098 31.36618933 222.74358144 30.02067555 227.36328125 26.359375 C229.45447902 24.88567732 231.41341796 24.479462 233.9375 24.25 C238.01606105 28.19699456 238.46963611 31.43160955 238.76171875 36.84765625 C239.08620483 41.28229933 239.87353481 43.4871231 243 46.6875 C245.0298578 48.97170142 245.87336208 49.96779315 246.5625 53 C245.71852265 56.03831844 244.63108238 56.64901312 241.9375 58.25 C238.9140625 58.69921875 238.9140625 58.69921875 235.5625 58.9375 C230.79818767 59.50649598 230.79818767 59.50649598 226.89453125 62.046875 C225.35961093 64.13434428 225.35961093 64.13434428 224.18359375 66.27734375 C222.9375 68.25 222.9375 68.25 220.83203125 69.5859375 C218.61751921 71.18890227 218.61751921 71.18890227 218.328125 74.38671875 C218.28171875 75.55847656 218.2353125 76.73023437 218.1875 77.9375 C218.13078125 79.11699219 218.0740625 80.29648438 218.015625 81.51171875 C217.98984375 82.41535156 217.9640625 83.31898437 217.9375 84.25 C218.51757812 84.19199219 219.09765625 84.13398437 219.6953125 84.07421875 C224.14202225 83.81739558 226.43008446 83.95477641 230.375 86.25 C232.93566213 89.24784835 233.15629473 89.64083268 233.6015625 93.1953125 C234.17079065 95.66394137 234.48215818 96.88329535 236.47387695 98.48730469 C238.57233537 99.51275721 240.67699698 100.33500982 242.875 101.125 C244.52054973 101.78723141 246.16371519 102.45541221 247.8046875 103.12890625 C249.07844238 103.64348389 249.07844238 103.64348389 250.37792969 104.16845703 C269.06849817 112.06613143 286.18309404 123.58336746 301.9375 136.25 C302.62199219 136.76820313 303.30648438 137.28640625 304.01171875 137.8203125 C310.41560957 142.85708056 317.81659906 151.22515743 319.34375 159.43359375 C319.52422387 163.77248637 319.42789209 165.64032334 316.625 169.125 C305.61116783 176.6758542 289.70922656 175.48466064 277 175.5 C276.1957962 175.50200409 275.39159241 175.50400818 274.5630188 175.506073 C262.43935594 175.51340987 250.44331517 174.96463407 238.375 173.8125 C237.66763702 173.7451062 236.96027405 173.6777124 236.23147583 173.60827637 C224.99333563 172.51395891 224.99333563 172.51395891 219.9375 171.25 C219.9375 188.08 219.9375 204.91 219.9375 222.25 C214.6575 222.25 209.3775 222.25 203.9375 222.25 C203.9375 204.76 203.9375 187.27 203.9375 169.25 C196.6775 168.26 189.4175 167.27 181.9375 166.25 C175.13117628 165.07568784 168.34298903 163.86934733 161.5625 162.5625 C160.67193909 162.39214233 159.78137817 162.22178467 158.86383057 162.04626465 C146.44074572 159.65900459 134.09323724 157.03758979 121.8125 154 C121.15372864 153.83964264 120.49495728 153.67928528 119.81622314 153.5140686 C102.55473192 149.27876419 102.55473192 149.27876419 98.13330078 144.16210938 C95.17972734 141.59012947 93.30010507 141.71113827 89.421875 141.640625 C88.17148438 141.60839844 86.92109375 141.57617188 85.6328125 141.54296875 C84.33085937 141.52878906 83.02890625 141.51460937 81.6875 141.5 C80.37007812 141.47035156 79.05265625 141.44070312 77.6953125 141.41015625 C74.44264657 141.33944612 71.19069807 141.28675214 67.9375 141.25 C67.34001953 143.13525391 67.34001953 143.13525391 66.73046875 145.05859375 C64.87868691 150.61393926 62.59006356 155.94862957 60.25 161.3125 C58.826875 164.591875 57.40375 167.87125 55.9375 171.25 C46.3675 171.25 36.7975 171.25 26.9375 171.25 C21.63177383 158.13584663 16.51507339 144.96489259 11.53198242 131.72583008 C11.07927979 130.52466553 10.62657715 129.32350098 10.16015625 128.0859375 C9.75547119 127.00876465 9.35078613 125.9315918 8.93383789 124.82177734 C8.00844152 122.3136321 8.00844152 122.3136321 6.9375 120.25 C0.6675 117.94 -5.6025 115.63 -12.0625 113.25 C-12.0625 149.22 -12.0625 185.19 -12.0625 222.25 C-17.3425 222.25 -22.6225 222.25 -28.0625 222.25 C-28.0625 183.97 -28.0625 145.69 -28.0625 106.25 C-29.7125 105.92 -31.3625 105.59 -33.0625 105.25 C-34.84375453 104.57910041 -36.60638623 103.85748107 -38.3515625 103.09765625 C-39.87390503 102.43503784 -39.87390503 102.43503784 -41.42700195 101.7590332 C-42.50296631 101.28167725 -43.57893066 100.80432129 -44.6875 100.3125 C-45.79891357 99.82031982 -46.91032715 99.32813965 -48.05541992 98.82104492 C-100.45154172 75.34376161 -100.45154172 75.34376161 -110.40234375 53.58984375 C-112.16599687 47.33878921 -112.05534554 40.77724318 -109.6875 34.75 C-99.50594186 25.05327796 -86.08552341 24.84407746 -72.8125 24.875 C-71.73983887 24.87382172 -71.73983887 24.87382172 -70.64550781 24.87261963 C-52.467931 24.89631986 -34.81208009 27.30564887 -17.0625 31.25 C-17.0625 21.35 -17.0625 11.45 -17.0625 1.25 C-11.28048985 0.09359797 -5.87623636 0.02763662 0 0 Z " fill="#725F41" transform="translate(111.0625,-0.25)"/>
<path d="M0 0 C6.05072379 0.59998774 11.27026695 2.96622832 16.8125 5.3125 C17.86276367 5.754729 18.91302734 6.19695801 19.99511719 6.65258789 C67.12064349 26.73583941 67.12064349 26.73583941 86 42 C86.70640625 42.5671875 87.4128125 43.134375 88.140625 43.71875 C94.67390335 49.13659058 94.67390335 49.13659058 95.4375 53.5 C95 56 95 56 92.8125 57.75 C87.71648009 60.01489774 82.75875402 60.17976309 77.24609375 60.23828125 C76.48532028 60.24798447 75.72454681 60.25768768 74.9407196 60.26768494 C72.43959266 60.29282007 69.9387413 60.30526841 67.4375 60.3125 C66.14570831 60.31642761 66.14570831 60.31642761 64.82781982 60.32043457 C37.94637377 60.3291134 11.43350613 56.70216381 -15 52 C-16.03785645 51.81703369 -16.03785645 51.81703369 -17.09667969 51.63037109 C-20.91318751 50.95102877 -24.71833344 50.21969366 -28.52246094 49.47460938 C-31.54531975 48.89553591 -34.57338465 48.34745279 -37.6015625 47.796875 C-57.96020837 44.0394202 -77.96695623 39.20605269 -98 34 C-98 33.67 -98 33.34 -98 33 C-79.76015019 32.31925228 -63.16099249 33.77122886 -45.27294922 37.37158203 C-27.22857302 40.83616687 -9.15268027 42.05982275 9.1875 42.1875 C10.36393066 42.20063232 11.54036133 42.21376465 12.75244141 42.22729492 C23.63753187 42.23722797 33.45218963 41.50835214 43 36 C42.51961155 30.39546803 39.54689467 28.1931593 35.453125 24.66796875 C29.67897046 20.03076057 23.17480985 16.60614084 16.70703125 13.05078125 C15.75497803 12.52218506 15.75497803 12.52218506 14.78369141 11.98291016 C13.20205976 11.11134582 11.60772889 10.2629153 10.01171875 9.41796875 C9.34785156 8.95003906 8.68398438 8.48210937 8 8 C8 7.01 8 6.02 8 5 C5.69 5 3.38 5 1 5 C0.505 2.525 0.505 2.525 0 0 Z " fill="#F1F0F0" transform="translate(320,102)"/>
<path d="M0 0 C15.82584032 0 27.01931334 2.57581714 38.6015625 13.4453125 C47.58878139 23.01801796 51.70112535 33.56982384 51.34765625 46.6328125 C50.10578412 58.66083243 44.88881319 70.04025258 36.078125 78.39453125 C32.04906337 81.50720856 27.53333072 83.72151432 23 86 C25.5838257 96.54810535 29.35034815 106.65404919 33.0378418 116.8515625 C33.85592882 119.11841934 34.66839135 121.38723479 35.48046875 123.65625 C35.73354294 124.34996704 35.98661713 125.04368408 36.24736023 125.75842285 C37.28082863 128.64939886 38 130.90367279 38 134 C38.66 134 39.32 134 40 134 C40.12221924 133.13157471 40.24443848 132.26314941 40.37036133 131.3684082 C40.98493808 128.08057747 41.89125694 125.22898536 43.07421875 122.10546875 C43.4904248 120.99292725 43.90663086 119.88038574 44.33544922 118.73413086 C45.25061605 116.33351177 46.17034701 113.93462849 47.09423828 111.53735352 C50.06836869 103.78467653 50.06836869 103.78467653 52.29296875 95.796875 C53.95650769 88.82944072 55.41320452 84.64401915 61.7421875 80.75 C74.26422055 74 74.26422055 74 79 74 C76.53770397 84.20175634 72.89240613 93.96524039 69.3125 103.8125 C68.68241883 105.55528941 68.05270061 107.29821008 67.42333984 109.04125977 C65.89530018 113.26998794 64.36240157 117.49693059 62.8270874 121.72302246 C62.07225939 123.80106939 61.31833096 125.87943902 60.56494141 127.95800781 C58.38388084 133.97466851 56.19693941 139.98911918 54 146 C48.39 146 42.78 146 37 146 C34.63072267 139.34828352 32.26470648 132.6954192 29.90161133 126.04150391 C29.09845493 123.78142535 28.29443215 121.52165446 27.48950195 119.26220703 C26.32791962 116.00114553 25.16953113 112.73896411 24.01171875 109.4765625 C23.65534836 108.47823395 23.29897797 107.4799054 22.93180847 106.45132446 C20.77053505 100.34963943 18.79603428 94.21912442 17 88 C16.40670898 88.16298584 15.81341797 88.32597168 15.20214844 88.49389648 C12.19116887 89.18588769 9.33482161 89.09334822 6.25 89.0625 C5.07953125 89.05347656 3.9090625 89.04445313 2.703125 89.03515625 C1.36507812 89.01775391 1.36507812 89.01775391 0 89 C1.31213059 85.06360824 2.82801522 84.71346403 6.4375 82.8125 C7.42621094 82.28269531 8.41492188 81.75289063 9.43359375 81.20703125 C12 80 12 80 14 80 C13.55527344 78.86820312 13.11054687 77.73640625 12.65234375 76.5703125 C12.08032751 75.08869667 11.50873478 73.60691729 10.9375 72.125 C10.64294922 71.37863281 10.34839844 70.63226563 10.04492188 69.86328125 C9.30479514 67.93024437 8.64644265 65.96634968 8 64 C8.33 63.34 8.66 62.68 9 62 C11.35546875 62.16015625 11.35546875 62.16015625 14 63 C15.36328125 65.43359375 15.36328125 65.43359375 16.3125 68.4375 C16.80169922 69.92056641 16.80169922 69.92056641 17.30078125 71.43359375 C18 74 18 74 18 76 C26.86236056 69.87512415 32.27463238 63.16982541 36 53 C36.28120468 50.27066049 36.43217593 47.83840633 36.375 45.125 C36.36412354 44.42173584 36.35324707 43.71847168 36.34204102 42.99389648 C35.97752683 31.07772152 30.97597395 23.51790131 22.4375 15.4375 C16.87184269 10.74250987 10.35692905 7.48408612 4 4 C3.67 11.59 3.34 19.18 3 27 C2.01 27 1.02 27 0 27 C0 18.09 0 9.18 0 0 Z " fill="#FAFAF9" transform="translate(109,9)"/>
<path d="M0 0 C0.67319275 0.12694244 1.3463855 0.25388489 2.03997803 0.38467407 C5.97891388 1.15667641 9.71249794 2.20255833 13.4921875 3.55078125 C13.4921875 4.54078125 13.4921875 5.53078125 13.4921875 6.55078125 C7.90395193 6.0909767 2.34102162 5.55869694 -3.21484375 4.796875 C-15.39793822 3.15571177 -27.41319634 2.23657266 -39.6953125 2.17578125 C-40.96544189 2.16216553 -42.23557129 2.1485498 -43.54418945 2.13452148 C-53.25442277 1.97647274 -53.25442277 1.97647274 -61.5078125 6.55078125 C-62.12568621 9.64014981 -61.92559595 11.76553133 -60.4375 14.5625 C-50.35002047 28.67990226 -32.84236868 38.35080905 -17.5078125 45.55078125 C-17.5078125 46.21078125 -17.5078125 46.87078125 -17.5078125 47.55078125 C-19.15114754 48.58867706 -20.82025117 49.58646049 -22.5078125 50.55078125 C-23.4978125 51.54078125 -23.4978125 51.54078125 -24.5078125 52.55078125 C-103.2651281 20.35320171 -103.2651281 20.35320171 -114.5078125 1.55078125 C-115.27446091 -0.93372747 -115.45305751 -2.82097922 -115.5078125 -5.44921875 C-114.18148187 -6.10931385 -112.84620435 -6.75143478 -111.5078125 -7.38671875 C-110.7653125 -7.74636719 -110.0228125 -8.10601562 -109.2578125 -8.4765625 C-77.87761772 -19.57552344 -31.48790626 -6.03648504 0 0 Z " fill="#F1F0F0" transform="translate(129.5078125,45.44921875)"/>
<path d="M0 0 C5.15625 -0.0825 10.3125 -0.165 15.625 -0.25 C17.24100098 -0.28641602 18.85700195 -0.32283203 20.52197266 -0.36035156 C21.8063623 -0.3703418 23.09075195 -0.38033203 24.4140625 -0.390625 C25.7232666 -0.41157227 27.0324707 -0.43251953 28.38134766 -0.45410156 C32.59581564 0.07476839 34.72796925 1.34459983 38 4 C39.44430855 6.88861709 39.37688506 8.79647701 39 12 C36.5 14.875 36.5 14.875 34 17 C34.66 17.61875 35.32 18.2375 36 18.875 C38.89322946 23.39567104 38.28310272 26.69182397 38 32 C33.05 32 28.1 32 23 32 C22.505 25.565 22.505 25.565 22 19 C19.69 18.67 17.38 18.34 15 18 C15 22.62 15 27.24 15 32 C10.05 32 5.1 32 0 32 C0 21.44 0 10.88 0 0 Z " fill="#FAFAF9" transform="translate(224,93)"/>
<path d="M0 0 C4.02679483 1.71494086 6.95461644 3.0228653 9 7 C9.1875 10.25 9.1875 10.25 9 13 C8.34 13 7.68 13 7 13 C6.525625 11.865625 6.05125 10.73125 5.5625 9.5625 C4.36377917 6.24259834 4.36377917 6.24259834 3 5 C0.66702567 4.95907063 -1.66705225 4.95758277 -4 5 C-6.42170546 8.75220766 -6.23492777 12.11939874 -6.1875 16.5 C-6.18105469 17.8096875 -6.17460937 19.119375 -6.16796875 20.46875 C-6.03780602 23.20519436 -5.82440789 25.41465687 -5 28 C-3.68 28.33 -2.36 28.66 -1 29 C-1 25.04 -1 21.08 -1 17 C3.62 17 8.24 17 13 17 C13 21.95 13 26.9 13 32 C5.08 32.33 -2.84 32.66 -11 33 C-8.2775 33.845625 -5.555 34.69125 -2.75 35.5625 C7.58574434 38.80080803 17.79770124 42.36630455 28 46 C28 46.99 28 47.98 28 49 C24.50512246 48.38842559 21.39880218 47.47669048 18.11328125 46.14453125 C17.18265869 45.77191162 16.25203613 45.39929199 15.29321289 45.01538086 C13.81776001 44.41995483 13.81776001 44.41995483 12.3125 43.8125 C2.31729774 39.83209563 -7.75028725 36.26301717 -18 33 C-18 32.01 -18 31.02 -18 30 C-19.31129922 28.64499081 -20.64691687 27.31328657 -22 26 C-25.07962162 21.10947412 -24.59722369 15.56911088 -24 10 C-19.17058642 -0.40181386 -10.47754002 -1.3215988 0 0 Z " fill="#FBFAF9" transform="translate(273,48)"/>
<path d="M0 0 C1.12728516 -0.0309375 1.12728516 -0.0309375 2.27734375 -0.0625 C7.20047864 -0.09686743 10.42973582 0.63582741 14.75 3.25 C14.75 3.91 14.75 4.57 14.75 5.25 C13.6053125 5.0025 13.6053125 5.0025 12.4375 4.75 C7.52854151 4.08437851 2.69564886 4.17079922 -2.25 4.25 C-2.31790304 6.20819276 -2.31790304 6.20819276 -1.25 8.25 C1.20458536 9.25278792 3.45637999 10.00968036 6 10.6875 C11.53789103 12.16533797 15.01274009 13.59618776 18.75 18.25 C19.375 21.75 19.375 21.75 18.75 25.25 C15.83918467 28.99247685 13.20010671 30.78606388 8.75 32.25 C0.0291205 33.18785995 -7.89475727 32.15349515 -15.25 27.25 C-15.25 26.26 -15.25 25.27 -15.25 24.25 C-10.25 26.25 -10.25 26.25 -7.9375 27.375 C-4.25640056 28.57349749 -1.11343193 28.38096379 2.75 28.25 C3.41 26.93 4.07 25.61 4.75 24.25 C4.1209375 24.07984375 3.491875 23.9096875 2.84375 23.734375 C-11.03011352 19.80623292 -11.03011352 19.80623292 -15.3125 14.875 C-16.53832568 11.44268809 -16.40288312 9.70864937 -15.25 6.25 C-10.33056342 0.57372703 -7.24709153 0.04871994 0 0 Z " fill="#FAFAF9" transform="translate(210.25,47.75)"/>
<path d="M0 0 C1.02963867 -0.02416992 1.02963867 -0.02416992 2.08007812 -0.04882812 C7.14622976 -0.05362108 10.65057061 1.0647925 15.1875 3.3125 C15.1875 3.9725 15.1875 4.6325 15.1875 5.3125 C14.23875 5.1475 13.29 4.9825 12.3125 4.8125 C7.6111123 4.12708208 2.92746714 4.22666559 -1.8125 4.3125 C-2.1425 5.6325 -2.4725 6.9525 -2.8125 8.3125 C-2.09964844 8.49425781 -1.38679688 8.67601563 -0.65234375 8.86328125 C15.45820516 13.09148722 15.45820516 13.09148722 19.1875 18.3125 C19.68889434 22.32365474 19.271249 24.88528125 17.1875 28.3125 C12.17833714 32.47395838 6.44432156 32.859035 0.16015625 32.64453125 C-5.66972528 31.99336183 -10.63399932 29.97110526 -15.8125 27.3125 C-15.3175 25.8275 -15.3175 25.8275 -14.8125 24.3125 C-13.9771875 24.745625 -13.9771875 24.745625 -13.125 25.1875 C-7.69189304 27.83063312 -3.84792986 28.84192367 2.1875 28.3125 C2.8475 27.9825 3.5075 27.6525 4.1875 27.3125 C3.8575 26.3225 3.5275 25.3325 3.1875 24.3125 C0.34068433 22.97785573 0.34068433 22.97785573 -3.0625 21.875 C-7.70367756 20.28418914 -11.26461742 18.7634459 -14.8125 15.3125 C-15.96242681 12.64700146 -16.1102452 10.19261226 -15.8125 7.3125 C-11.91094348 0.66540371 -7.27771254 -0.03359978 0 0 Z " fill="#FAF9F8" transform="translate(280.8125,93.6875)"/>
<path d="M0 0 C14 0 14 0 17.265625 2.30078125 C17.92046875 3.29464844 18.5753125 4.28851563 19.25 5.3125 C19.93578125 6.29863281 20.6215625 7.28476562 21.328125 8.30078125 C21.87984375 9.19152344 22.4315625 10.08226562 23 11 C23.99 12.485 23.99 12.485 25 14 C25.33 9.38 25.66 4.76 26 0 C26.99 0 27.98 0 29 0 C29 10.56 29 21.12 29 32 C18 32 18 32 14.37109375 28.67578125 C13.35591112 27.247152 12.37825692 25.7912 11.4375 24.3125 C10.67856445 23.2306543 10.67856445 23.2306543 9.90429688 22.12695312 C7.45410267 18.56392171 5.37649011 15.12947034 4 11 C3.34 11 2.68 11 2 11 C2 17.93 2 24.86 2 32 C1.34 32 0.68 32 0 32 C0 21.44 0 10.88 0 0 Z " fill="#FBFAF9" transform="translate(289,49)"/>
<path d="M0 0 C11.22 0 22.44 0 34 0 C34 0.99 34 1.98 34 3 C28.06 3 22.12 3 16 3 C16 6.96 16 10.92 16 15 C18.64 15 21.28 15 24 15 C24 15.66 24 16.32 24 17 C21.36 17 18.72 17 16 17 C16 20.96 16 24.92 16 29 C21.61 29 27.22 29 33 29 C33 29.99 33 30.98 33 32 C22.11 32 11.22 32 0 32 C0 21.44 0 10.88 0 0 Z " fill="#F9F8F7" transform="translate(302,94)"/>
<path d="M0 0 C10.89 0 21.78 0 33 0 C33 0.99 33 1.98 33 3 C27.39 3 21.78 3 16 3 C16 6.96 16 10.92 16 15 C18.64 15 21.28 15 24 15 C24 15.66 24 16.32 24 17 C21.03 17 18.06 17 15 17 C15 20.96 15 24.92 15 29 C20.61 29 26.22 29 32 29 C32 29.99 32 30.98 32 32 C21.44 32 10.88 32 0 32 C0 21.44 0 10.88 0 0 Z " fill="#FCFBFB" transform="translate(189,93)"/>
<path d="M0 0 C10.89 0 21.78 0 33 0 C33 0.66 33 1.32 33 2 C27.39 2 21.78 2 16 2 C16 4.64 16 7.28 16 10 C16.99 10.33 17.98 10.66 19 11 C18.01 11 17.02 11 16 11 C16 11.99 16 12.98 16 14 C18.64 14 21.28 14 24 14 C24 14.99 24 15.98 24 17 C21.36 17 18.72 17 16 17 C16 20.96 16 24.92 16 29 C21.28 29 26.56 29 32 29 C32 29.66 32 30.32 32 31 C21.44 31 10.88 31 0 31 C0 20.77 0 10.54 0 0 Z " fill="#FCFBFB" transform="translate(161,48)"/>
<path d="M0 0 C3.19531348 2.15497886 4.32828916 3.18793775 5.6875 6.8125 C6.29619395 11.24243929 6.74436511 15.69038196 4.703125 19.7890625 C2.48935706 22.56310505 0.10516801 24.83602343 -3.3125 25.8125 C-8.15328166 26.28096274 -10.34639668 26.31344246 -14.6875 24.0625 C-18.03117491 21.19649294 -19.1303462 19.35233501 -19.6484375 14.97265625 C-19.7540081 6.60090733 -19.7540081 6.60090733 -17.5625 2.6875 C-12.06525474 -1.89353772 -6.71416319 -2.40696416 0 0 Z " fill="#F9F9F7" transform="translate(260.3125,10.1875)"/>
<path d="M0 0 C1.87973505 0.16007476 3.75815398 0.35312922 5.625 0.625 C4.965 2.605 4.305 4.585 3.625 6.625 C6.26171875 8.04101562 6.26171875 8.04101562 8.8984375 9.45703125 C10.625 10.625 10.625 10.625 12.625 13.625 C12.95370159 17.48724368 13.01388365 20.476017 10.625 23.625 C5.48312791 27.31660047 -0.27032239 27.62131237 -6.375 26.625 C-9.54552662 24.95954828 -11.75046311 22.87407378 -13.375 19.625 C-13.68677533 13.33527155 -11.79647814 7.8189714 -8.47265625 2.53515625 C-5.63476911 -0.049065 -3.78900411 -0.00447344 0 0 Z " fill="#F8F8F6" transform="translate(304.375,9.375)"/>
<path d="M0 0 C4.62 0 9.24 0 14 0 C14 10.56 14 21.12 14 32 C9.38 32 4.76 32 0 32 C0 21.44 0 10.88 0 0 Z " fill="#FDFDFD" transform="translate(232,48)"/>
<path d="M0 0 C0.66 0 1.32 0 2 0 C1.99097656 0.845625 1.98195313 1.69125 1.97265625 2.5625 C2.16991268 10.10970236 2.97942503 14.31832256 8.50390625 19.609375 C8.99761719 20.06828125 9.49132812 20.5271875 10 21 C10 21.33 10 21.66 10 22 C9.01 21.99097656 8.02 21.98195313 7 21.97265625 C-2.16237472 22.04468172 -2.16237472 22.04468172 -9.9375 26.5625 C-10.99310783 27.67637918 -12.0289015 28.81172292 -13 30 C-14.05025841 26.84922478 -13.92457827 25.13831266 -13.6875 21.875 C-13.57567201 15.40618108 -16.13893144 11.94124845 -20 7 C-20 6.67 -20 6.34 -20 6 C-19.05898438 5.98582031 -18.11796875 5.97164062 -17.1484375 5.95703125 C-9.11439146 5.97718595 -9.11439146 5.97718595 -2.25 2.4375 C-1.5075 1.633125 -0.765 0.82875 0 0 Z " fill="#F5F6F1" transform="translate(341,31)"/>
<path d="M0 0 C3.27191292 1.35815253 5.49895506 2.49895506 8 5 C8.67763713 10.76697437 7.16819902 14.27618015 4 18.9375 C3.6184375 19.52595703 3.236875 20.11441406 2.84375 20.72070312 C1.90995192 22.15641767 0.95691073 23.57958564 0 25 C2.97 25 5.94 25 9 25 C9 25.66 9 26.32 9 27 C1.08 27 -6.84 27 -15 27 C-13.25690689 22.64226723 -11.77054322 20.21386419 -8.9375 16.625 C-5.67088038 12.25966202 -4 9.44863371 -4 4 C-6.44480079 4.18828772 -6.44480079 4.18828772 -9 5 C-10.36020151 6.96758273 -10.36020151 6.96758273 -11 9 C-11.99 9 -12.98 9 -14 9 C-13.7550929 5.69375418 -12.72277662 4.70957551 -10.375 2.25 C-6.92554519 -0.42374009 -4.35599547 -0.62228507 0 0 Z " fill="#F7F6F4" transform="translate(282,9)"/>
<path d="M0 0 C3.125 1.5 3.125 1.5 5 4 C6.25506342 9.96155125 4.7274218 12.90303509 1.5 18 C0.3505384 19.67857884 -0.81063597 21.349454 -2 23 C0.97 23.33 3.94 23.66 7 24 C7 24.66 7 25.32 7 26 C-0.92 26 -8.84 26 -17 26 C-15.66112232 22.6528058 -14.75539267 20.38873142 -12.8359375 17.5546875 C-12.43632812 16.95269531 -12.03671875 16.35070312 -11.625 15.73046875 C-10.78560685 14.48449454 -9.94443425 13.23971741 -9.1015625 11.99609375 C-6.59763904 8.32287597 -6.59763904 8.32287597 -6 4 C-8.37374861 3.66574265 -8.37374861 3.66574265 -11 4 C-12.70532323 5.94009522 -12.70532323 5.94009522 -14 8 C-14.66 8 -15.32 8 -16 8 C-15.69461464 5.14973668 -14.95551924 3.94834492 -13.0625 1.75 C-8.69120789 -0.7478812 -4.92280824 -0.77473703 0 0 Z " fill="#FBFAF9" transform="translate(233,9)"/>
<path d="M0 0 C0.33 0.66 0.66 1.32 1 2 C3.07693632 2.48461848 5.15682025 2.95840133 7.24609375 3.38671875 C19.43864486 6.10193935 31.25099788 10.82492389 43 15 C43 15.99 43 16.98 43 18 C39.50512246 17.38842559 36.39880218 16.47669048 33.11328125 15.14453125 C32.18265869 14.77191162 31.25203613 14.39929199 30.29321289 14.01538086 C29.30957764 13.61843018 28.32594238 13.22147949 27.3125 12.8125 C17.31729774 8.83209563 7.24971275 5.26301717 -3 2 C-2.01 1.34 -1.02 0.68 0 0 Z " fill="#DCD9D4" transform="translate(258,79)"/>
<path d="M0 0 C2.875 0.3125 2.875 0.3125 6 1 C8 4 8 4 7.8125 7.0625 C7 10 7 10 4 12 C2.68 12 1.36 12 0 12 C0 8.04 0 4.08 0 0 Z " fill="#7A694D" transform="translate(239,96)"/>
<path d="M0 0 C4.95 0 9.9 0 15 0 C15 0.99 15 1.98 15 3 C4.44 3 -6.12 3 -17 3 C-17 2.67 -17 2.34 -17 2 C-8.585 1.505 -8.585 1.505 0 1 C0 0.67 0 0.34 0 0 Z " fill="#E8E5E0" transform="translate(206,122)"/>
<path d="M0 0 C0.99 0.33 1.98 0.66 3 1 C3 5.29 3 9.58 3 14 C1.68 14 0.36 14 -1 14 C-1.02685938 11.85423363 -1.04633088 9.70837355 -1.0625 7.5625 C-1.07410156 6.36753906 -1.08570313 5.17257813 -1.09765625 3.94140625 C-1 1 -1 1 0 0 Z " fill="#756346" transform="translate(303,19)"/>
<path d="M0 0 C0.25 6.625 0.25 6.625 -2 10 C-3.32 10 -4.64 10 -6 10 C-6.33 9.01 -6.66 8.02 -7 7 C-5.8203125 5.17578125 -5.8203125 5.17578125 -4.125 3.3125 C-3.57070312 2.68988281 -3.01640625 2.06726563 -2.4453125 1.42578125 C-1 0 -1 0 0 0 Z " fill="#827157" transform="translate(257,23)"/>
<path d="M0 0 C1.76949095 -0.10815225 3.54087487 -0.18566083 5.3125 -0.25 C6.29863281 -0.29640625 7.28476563 -0.3428125 8.30078125 -0.390625 C11 0 11 0 12.85546875 1.890625 C14 4 14 4 14 6 C9.27934033 4.45730076 4.58335908 2.92205381 0 1 C0 0.67 0 0.34 0 0 Z " fill="#E9E7E5" transform="translate(110,99)"/>
<path d="M0 0 C1.32 0.33 2.64 0.66 4 1 C3.69381595 4.67420866 3.24228216 5.78135513 0.4375 8.3125 C-0.366875 8.869375 -1.17125 9.42625 -2 10 C-2.25 3.375 -2.25 3.375 0 0 Z " fill="#7D6B50" transform="translate(252,11)"/>
<path d="M0 0 C2.97 0.99 5.94 1.98 9 3 C9 3.66 9 4.32 9 5 C3.72 4.34 -1.56 3.68 -7 3 C-7 2.67 -7 2.34 -7 2 C-4.69 2 -2.38 2 0 2 C0 1.34 0 0.68 0 0 Z " fill="#E3DFD9" transform="translate(287,94)"/>
<path d="M0 0 C5 2 5 2 10 4 C10 4.99 10 5.98 10 7 C6.06380262 6.43768609 3.20807554 5.38314183 0 3 C0 2.01 0 1.02 0 0 Z " fill="#ECE9E5" transform="translate(195,72)"/>
<path d="M0 0 C3.4375 0.8125 3.4375 0.8125 7 2 C7.33 2.99 7.66 3.98 8 5 C0.575 4.01 0.575 4.01 -7 3 C-7 2.67 -7 2.34 -7 2 C-4.69 2 -2.38 2 0 2 C0 1.34 0 0.68 0 0 Z " fill="#E4E1DB" transform="translate(217,48)"/>
<path d="M0 0 C0.66 0.99 1.32 1.98 2 3 C0.02 3.99 0.02 3.99 -2 5 C-2 6.32 -2 7.64 -2 9 C-3.32 8.67 -4.64 8.34 -6 8 C-5.8125 6.125 -5.8125 6.125 -5 4 C-2.4375 2.75 -2.4375 2.75 0 2 C0 1.34 0 0.68 0 0 Z " fill="#85755C" transform="translate(112,91)"/>
<path d="M0 0 C1.1446875 0.3403125 1.1446875 0.3403125 2.3125 0.6875 C1.714375 0.935 1.11625 1.1825 0.5 1.4375 C-1.97527159 2.85194091 -3.02180804 4.41610188 -4.6875 6.6875 C-5.3475 6.6875 -6.0075 6.6875 -6.6875 6.6875 C-6.28750283 4.36751641 -5.78182121 2.82426576 -4.4375 0.875 C-2.6875 -0.3125 -2.6875 -0.3125 0 0 Z " fill="#EDEBE7" transform="translate(223.6875,10.3125)"/>
</svg>
