<svg width="430" height="222" viewBox="0 0 430 222" fill="none" xmlns="http://www.w3.org/2000/svg">
<path d="M94.5418 1.82831V31.8382C86.7973 30.3861 7.55753 13.4421 0.638185 39.5826C-8.07413 72.4967 74.5334 104.12 119.226 119.448L138.588 170.755H166.176L178.761 140.745H207.803C207.32 142.197 214.579 147.558 216.031 148.005C274.113 165.914 432.393 190.116 429.973 161.558C428.036 138.712 371.891 107.992 344.301 97.1822C345.463 84.0166 334.136 83.468 328.328 84.5974C330.264 43.9389 319.454 37.0011 313.807 38.6146H167.63C155.626 -1.6567 114.064 -2.6893 94.5418 1.82831Z" fill="#705D3F"/>
<path d="M320.174 101.188C385.729 126.087 420.807 150.997 414.729 157.823C403.696 168.484 317.555 160.285 219.409 134.976L248.665 135.29C319.885 149.67 362.895 145.613 363.677 136.524C364.214 130.271 348.936 120.252 328.06 109.943L328.08 108.087C328.085 107.598 327.692 107.196 327.203 107.191L322.257 107.138C321.55 106.803 320.838 106.467 320.121 106.132L320.174 101.188Z" fill="#F4F4F4"/>
<path d="M235.575 74.5074C259.375 80.668 281.172 87.335 300.744 94.1314L300.707 97.5453C277.103 87.6236 252.042 78.8031 235.575 74.5074Z" fill="#F4F4F4"/>
<path d="M13.9299 42.6662C12.2765 32.8555 63.318 30.817 142.983 48.9985C143.005 50.2113 143.062 51.2814 143.095 52.1878C105.191 45.8671 68.1281 43.3863 66.6499 53.8421C65.2947 63.4288 94.7812 84.6677 113.264 91.7901C109.505 93.9013 105.054 96.3273 105.659 97.1463C106.842 98.7496 109.434 99.6429 120.38 98.7024L124.854 105.449C95.7128 94.4964 15.8219 61.7196 13.9299 42.6662Z" fill="#F4F4F4"/>
<path d="M177.447 57.689C187.933 60.5768 198.786 63.7823 209.963 67.3279C201.5 64.661 190.112 61.7013 177.434 58.8754L177.447 57.689Z" fill="#F4F4F4"/>
<path d="M109.488 9.06824L112.148 9.09678L111.862 35.6931L109.203 35.6646L109.488 9.06824Z" fill="white"/>
<path d="M168.5 95.1668L147.972 152.203L160.916 152.342L184.018 87.3671L168.5 95.1668Z" fill="white"/>
<path d="M119.466 71.2399L147.972 152.203M147.972 152.203L168.5 95.1668L184.018 87.3671L160.916 152.342L147.972 152.203Z" stroke="white" stroke-width="5.19748"/>
<path d="M160.886 47.3424L193.845 47.6961L193.816 50.3709L176.816 50.1884L176.69 61.9301L185.031 62.0196L185.002 64.7397L176.66 64.6502L176.533 76.5278L193.533 76.7103L193.504 79.4304L160.546 79.0767L160.886 47.3424Z" fill="white"/>
<path d="M218.613 59.3423C222.2 60.348 224.876 61.6614 226.642 63.2823C228.408 64.8731 229.278 66.9378 229.25 69.4765C229.229 71.5015 228.574 73.3081 227.288 74.8963C226.001 76.4845 224.114 77.7186 221.626 78.5987C219.168 79.4791 216.186 79.9005 212.68 79.8629C208.54 79.8184 204.889 79.2503 201.726 78.1584C198.595 77.0367 196.146 75.6955 194.379 74.135L195.897 72.111C197.456 73.367 199.424 74.4461 201.802 75.3482C204.18 76.2503 206.744 76.7161 209.495 76.7456C211.278 76.7647 212.626 76.5223 213.538 76.0182C214.48 75.5145 214.956 74.7941 214.967 73.8572C214.984 72.2252 213.381 70.9384 210.157 69.997L204.282 68.2111C201.088 67.2096 198.624 65.838 196.89 64.0965C195.186 62.3553 194.346 60.306 194.372 57.9486C194.393 55.9841 195.031 54.2076 196.288 52.6191C197.544 51.0305 199.356 49.7956 201.723 48.9142C204.121 48.0029 206.982 47.5651 210.306 47.6008C213.48 47.6348 216.392 48.0288 219.044 48.7827C221.726 49.5369 223.908 50.4369 225.59 51.4827L224.071 53.552C222.659 52.7207 220.959 52.0073 218.971 51.4116C217.012 50.8163 214.945 50.507 212.769 50.4836C210.865 50.4632 209.396 50.7497 208.362 51.3431C207.358 51.9066 206.851 52.7022 206.84 53.7298C206.832 54.5156 207.202 55.2148 207.951 55.8273C208.7 56.4097 210.13 56.9993 212.239 57.5963L218.613 59.3423Z" fill="white"/>
<path d="M231.766 48.1031L246.545 48.2617L246.205 79.996L231.426 79.8374L231.766 48.1031Z" fill="white"/>
<path d="M248.951 64.1112C249.008 58.7617 250.366 54.8014 253.023 52.2305C254.734 50.5562 256.635 49.4582 258.726 48.9365C260.817 48.4149 263.555 48.1722 266.94 48.2086C270.083 48.2423 272.605 48.4961 274.504 48.9698C276.434 49.4137 278.01 50.3526 279.234 51.7863C280.249 52.9761 281.035 54.4203 281.591 56.1189C282.177 57.7877 282.507 59.4235 282.581 61.0263L279.997 60.9985C279.891 59.6372 279.573 58.2434 279.044 56.817C278.546 55.3608 277.743 54.1129 276.636 53.0733C275.529 52.0035 274.114 51.4594 272.392 51.4409C270.79 51.4237 269.452 52.1197 268.379 53.5288C267.459 54.7582 266.792 56.3984 266.377 58.4493C265.995 60.2588 265.793 62.2063 265.77 64.2917C265.734 67.7069 266.126 70.5675 266.948 72.8735C268.034 75.8172 269.756 77.3017 272.114 77.327L272.249 64.7693L286.121 64.9181L285.955 80.4226C281.603 80.3759 276.676 80.3835 271.174 80.4453L266.594 80.4415C263.27 80.4058 260.568 80.0595 258.49 79.4024C256.442 78.7154 254.685 77.6235 253.22 76.1267C250.32 73.1636 248.897 69.1584 248.951 64.1112Z" fill="white"/>
<path d="M288.833 48.7156L302.161 48.8586L315.229 64.8678L315.399 49.0007L318.119 49.0299L317.779 80.7641L307.125 80.6498L291.484 59.3536L291.258 80.4795L288.492 80.4498L288.833 48.7156Z" fill="white"/>
<path d="M188.776 92.8607L221.734 93.2144L221.705 95.8892L204.705 95.7067L204.579 107.448L212.92 107.538L212.891 110.258L204.55 110.168L204.422 122.046L221.423 122.229L221.393 124.949L188.435 124.595L188.776 92.8607Z" fill="white"/>
<path d="M224.326 93.2423L254.655 93.5678C256.136 93.5837 257.492 93.976 258.723 94.7449C259.985 95.4839 260.971 96.492 261.683 97.7691C262.425 99.0164 262.788 100.38 262.773 101.861C262.751 103.826 262.128 105.603 260.902 107.191C259.676 108.78 258.138 109.791 256.29 110.225C257.917 110.696 259.238 111.572 260.252 112.852C261.296 114.133 261.809 115.574 261.792 117.176L261.704 125.381L246.517 125.218L246.622 115.381C246.633 114.414 246.46 113.656 246.103 113.108C245.686 112.469 245.208 111.995 244.667 111.687C244.066 111.348 243.389 111.099 242.635 110.94C241.851 110.78 241.111 110.682 240.416 110.644L239.193 110.586L239.037 125.138L223.986 124.977L224.326 93.2423ZM240.808 107.973C241.896 107.985 242.896 107.739 243.808 107.235C244.751 106.701 245.484 105.983 246.008 105.082C246.562 104.151 246.844 103.156 246.856 102.099C246.867 101.011 246.606 100.01 246.072 99.0978C245.568 98.1554 244.851 97.4071 243.92 96.853C243.019 96.2993 242.024 96.0166 240.936 96.0049L239.35 95.9879L239.221 108.002L240.808 107.973Z" fill="white"/>
<path d="M289.27 105.32C292.856 106.325 295.532 107.639 297.298 109.26C299.064 110.85 299.934 112.915 299.906 115.454C299.885 117.479 299.23 119.285 297.944 120.874C296.657 122.462 294.77 123.696 292.282 124.576C289.824 125.456 286.842 125.878 283.336 125.84C279.196 125.796 275.545 125.228 272.383 124.136C269.251 123.014 266.802 121.673 265.035 120.112L266.553 118.088C268.112 119.344 270.08 120.423 272.458 121.325C274.836 122.228 277.4 122.693 280.151 122.723C281.934 122.742 283.282 122.5 284.194 121.996C285.136 121.492 285.613 120.771 285.623 119.835C285.64 118.202 284.037 116.916 280.813 115.974L274.938 114.188C271.744 113.187 269.28 111.815 267.546 110.074C265.842 108.333 265.002 106.283 265.028 103.926C265.049 101.961 265.687 100.185 266.944 98.5964C268.2 97.0078 270.012 95.7729 272.379 94.8915C274.777 93.9802 277.638 93.5424 280.962 93.5781C284.136 93.6121 287.048 94.0061 289.7 94.76C292.382 95.5142 294.564 96.4142 296.246 97.46L294.727 99.5293C293.315 98.698 291.615 97.9846 289.627 97.3889C287.668 96.7936 285.601 96.4843 283.425 96.4609C281.521 96.4405 280.052 96.727 279.018 97.3204C278.014 97.8839 277.507 98.6795 277.496 99.7071C277.488 100.493 277.858 101.192 278.607 101.805C279.356 102.387 280.786 102.977 282.895 103.574L289.27 105.32Z" fill="white"/>
<path d="M302.422 94.0804L335.38 94.4341L335.352 97.1089L318.351 96.9264L318.225 108.668L326.567 108.758L326.538 111.478L318.196 111.388L318.069 123.266L335.069 123.448L335.04 126.168L302.082 125.815L302.422 94.0804Z" fill="white"/>
<path d="M159.8 53.9438C159.537 78.4251 139.478 98.0581 114.997 97.7953C90.5157 97.5326 146.107 90.5927 146.502 53.8011C146.897 17.0095 91.4671 8.87812 115.948 9.14086C140.43 9.4036 160.063 29.4626 159.8 53.9438Z" fill="white"/>
<path d="M330.45 32.835C319.995 31.2861 315.122 35.0937 314.961 37.6752L323.674 48.8078C322.868 56.0683 322.513 70.5892 327.547 70.5892C332.581 70.5892 337.387 62.8448 339.646 58.4885C344.487 58.9725 355.427 58.0044 356.589 54.1322C357.75 50.2599 352.07 44.4517 348.359 42.0316C350.295 36.2232 348.844 27.0265 344.972 25.0904C341.874 23.5415 334.483 29.9308 330.45 32.835Z" fill="#705D3F"/>
<path d="M333.395 37.6129L320.699 36.9105L328.378 48.7289L327.047 61.4961L336.922 53.0667H351.734L342.565 42.53L343.27 29.886L333.395 37.6129Z" fill="#FAFCF7"/>
<path d="M228.148 5.24976C230.327 5.27315 232.429 5.66633 234.43 6.44116C236.577 7.27277 238.399 8.58519 239.783 10.3992H239.781C240.028 10.7127 240.252 11.0359 240.454 11.3679C241.669 9.83648 243.157 8.56887 244.902 7.58667L244.91 7.58179L244.919 7.5769C247.515 6.13476 250.439 5.48951 253.577 5.52319C256.707 5.55681 259.605 6.26289 262.15 7.76343L262.151 7.76245C262.154 7.76405 262.156 7.76671 262.159 7.76831C262.162 7.76993 262.165 7.7706 262.168 7.77222L262.167 7.77319C263.979 8.83398 265.495 10.2017 266.698 11.8533C267.451 10.744 268.372 9.74522 269.469 8.87573L269.477 8.8689L269.485 8.86206C272.295 6.66356 275.815 5.76184 279.696 5.80347C281.875 5.82685 283.977 6.21916 285.978 6.9939C288.1 7.81598 289.904 9.10948 291.282 10.8914H291.283C291.288 10.8977 291.293 10.9046 291.298 10.9109C291.309 10.925 291.32 10.9387 291.331 10.9529H291.33C291.851 11.6149 292.27 12.3205 292.598 13.0603L295.644 7.94214L296.675 6.21069L298.689 6.23218L310.957 6.36401L317.015 6.42944L313.933 11.6443L312.076 14.7839C312.471 14.9374 312.86 15.1071 313.243 15.2927C313.245 15.2934 313.247 15.294 313.248 15.2947C313.267 15.3036 313.285 15.312 313.304 15.321H313.303C315.375 16.298 317.105 17.7091 318.387 19.573C319.78 21.5615 320.423 23.8479 320.396 26.2869C320.367 29.0506 319.585 31.604 317.944 33.7791C316.377 35.8563 314.286 37.3672 311.806 38.3562L311.807 38.3572C311.804 38.3582 311.801 38.3581 311.799 38.3591C311.796 38.3601 311.794 38.3621 311.792 38.363L311.791 38.3621C309.378 39.3321 306.762 39.7716 303.995 39.7419C301.2 39.7119 298.557 39.2157 296.108 38.2058L296.084 38.196L296.06 38.1853C295.516 37.9512 294.992 37.6902 294.488 37.405L294.467 39.4519L290.967 39.4138L266.694 39.1541L260.171 39.0837L261.293 37.4304C258.852 38.6722 256.128 39.2283 253.216 39.197C250.077 39.1633 247.168 38.4545 244.604 36.9568L244.595 36.9519L244.587 36.947C244.012 36.607 243.467 36.2344 242.951 35.8337L242.919 38.8982L239.419 38.8611L215.146 38.6003L208.623 38.53L212.288 33.1345L220.462 21.0974L218.599 21.0779L216.31 21.0535L212.153 21.0085L212.905 16.9207C213.547 13.4289 215.196 10.4811 217.92 8.32202L217.929 8.31519L217.938 8.30933C220.747 6.11075 224.267 5.2081 228.148 5.24976ZM288.037 30.1306L288.299 30.1335C288.269 30.045 288.241 29.9562 288.213 29.8669L288.037 30.1306ZM236.489 29.5769L238.219 29.5955C237.989 29.0364 237.79 28.4658 237.621 27.8835L236.489 29.5769ZM269.866 21.6277C269.875 21.9225 269.88 22.2196 269.877 22.5183C269.868 23.3801 269.808 24.225 269.701 25.0515L272.011 21.6511L270.146 21.6316L269.866 21.6277ZM275.57 15.7673C275.503 15.8028 275.442 15.8425 275.385 15.8845C274.872 16.2603 274.495 16.6863 274.214 17.1716C273.85 17.8509 273.694 18.3524 273.639 18.6931L273.521 19.4177C274.239 18.3086 274.793 17.3627 275.194 16.571C275.352 16.2596 275.474 15.9921 275.57 15.7673ZM224.022 15.2146C223.955 15.2501 223.894 15.2898 223.837 15.3318C223.323 15.7089 222.944 16.1363 222.663 16.6238C222.302 17.3002 222.146 17.7995 222.091 18.1394L221.973 18.864C222.691 17.7549 223.245 16.8089 223.646 16.0173C223.804 15.706 223.926 15.4392 224.022 15.2146Z" fill="white" stroke="#705D3F" stroke-width="7"/>
<line x1="90.9053" y1="105.647" x2="90.9053" y2="221.487" stroke="#705D3F" stroke-width="15"/>
<line x1="322.586" y1="162.177" x2="322.586" y2="221.487" stroke="#705D3F" stroke-width="15"/>
</svg>
