<svg width="389" height="159" viewBox="0 0 389 159" fill="none" xmlns="http://www.w3.org/2000/svg">
<path d="M85.5273 1.65398V28.8024C78.5213 27.4888 6.83693 12.1604 0.577334 35.8084C-7.30427 65.5842 67.4268 94.1922 107.857 108.058L125.374 154.473H150.332L161.716 127.325H187.989C187.552 128.639 194.119 133.488 195.433 133.893C247.977 150.095 391.165 171.989 388.975 146.154C387.224 125.486 336.431 97.6952 311.472 87.916C312.523 76.0057 302.277 75.5094 297.022 76.5311C298.774 39.7494 288.995 33.4731 283.886 34.9327H151.647C140.788 -1.49874 103.188 -2.43288 85.5273 1.65398Z" fill="#705D3F"/>
<path d="M289.646 91.5395C348.95 114.064 380.683 136.599 375.185 142.775C365.203 152.419 287.276 145.002 198.488 122.106L224.955 122.39C289.384 135.399 328.293 131.729 329 123.507C329.487 117.85 315.666 108.786 296.78 99.4601L296.798 97.7811C296.803 97.3382 296.447 96.9751 296.004 96.9703L291.53 96.9223C290.89 96.6192 290.246 96.3154 289.598 96.0124L289.646 91.5395Z" fill="#F4F4F4"/>
<path d="M213.113 67.4032C234.644 72.9763 254.362 79.0077 272.068 85.156L272.035 88.2444C250.682 79.2688 228.01 71.2892 213.113 67.4032Z" fill="#F4F4F4"/>
<path d="M12.6017 38.598C11.106 29.7227 57.2807 27.8786 129.349 44.3265C129.369 45.4236 129.421 46.3917 129.451 47.2117C95.1611 41.4937 61.6322 39.2494 60.2949 48.7083C59.0689 57.3809 85.744 76.5947 102.465 83.038C99.064 84.9478 95.0372 87.1425 95.5841 87.8834C96.655 89.3338 98.9994 90.142 108.902 89.2912L112.949 95.3944C86.5867 85.4862 14.3133 55.8346 12.6017 38.598Z" fill="#F4F4F4"/>
<path d="M160.528 52.1883C170.014 54.8008 179.832 57.7007 189.944 60.9082C182.288 58.4956 171.985 55.8181 160.516 53.2616L160.528 52.1883Z" fill="#F4F4F4"/>
<path d="M99.0492 8.20349L101.455 8.22931L101.197 32.2897L98.791 32.2639L99.0492 8.20349Z" fill="white"/>
<path d="M152.434 86.0926L133.864 137.691L145.573 137.817L166.472 79.0367L152.434 86.0926Z" fill="white"/>
<path d="M108.075 64.4471L133.863 137.691M133.863 137.691L152.434 86.0926L166.472 79.0367L145.573 137.817L133.863 137.691Z" stroke="white" stroke-width="5.19748"/>
<path d="M145.547 42.8282L175.363 43.1482L175.337 45.568L159.957 45.4029L159.843 56.025L167.389 56.106L167.363 58.5667L159.817 58.4857L159.701 69.2309L175.081 69.3959L175.055 71.8567L145.239 71.5367L145.547 42.8282Z" fill="white"/>
<path d="M197.77 53.6839C201.014 54.5938 203.435 55.7819 205.032 57.2483C206.63 58.6874 207.417 60.5552 207.392 62.8519C207.373 64.6838 206.781 66.3181 205.617 67.7549C204.453 69.1916 202.746 70.3081 200.495 71.1043C198.271 71.9008 195.574 72.282 192.402 72.2479C188.657 72.2077 185.353 71.6938 182.493 70.706C179.66 69.6912 177.444 68.4779 175.846 67.0662L177.219 65.2352C178.629 66.3714 180.41 67.3476 182.561 68.1637C184.713 68.9798 187.032 69.4012 189.52 69.4279C191.134 69.4452 192.353 69.2258 193.178 68.7698C194.031 68.3141 194.461 67.6625 194.47 66.8149C194.486 65.3385 193.036 64.1744 190.119 63.3228L184.804 61.7071C181.916 60.8011 179.687 59.5603 178.118 57.9849C176.576 56.4097 175.816 54.5558 175.839 52.4231C175.858 50.646 176.436 49.0388 177.573 47.6018C178.709 46.1647 180.348 45.0475 182.49 44.2502C184.659 43.4257 187.247 43.0297 190.255 43.062C193.125 43.0928 195.76 43.4492 198.159 44.1312C200.586 44.8135 202.559 45.6277 204.081 46.5737L202.707 48.4458C201.43 47.6937 199.892 47.0483 198.093 46.5095C196.321 45.9709 194.451 45.6911 192.483 45.6699C190.76 45.6514 189.431 45.9106 188.496 46.4475C187.588 46.9573 187.129 47.677 187.119 48.6066C187.111 49.3175 187.446 49.95 188.124 50.5041C188.802 51.031 190.095 51.5644 192.003 52.1044L197.77 53.6839Z" fill="white"/>
<path d="M209.668 43.5164L223.038 43.6599L222.73 72.3683L209.36 72.2248L209.668 43.5164Z" fill="white"/>
<path d="M225.215 57.9981C225.266 53.1587 226.494 49.5761 228.898 47.2502C230.446 45.7356 232.166 44.7423 234.057 44.2704C235.949 43.7985 238.426 43.579 241.489 43.6118C244.332 43.6423 246.613 43.8719 248.331 44.3005C250.077 44.7021 251.503 45.5514 252.61 46.8485C253.529 47.9248 254.239 49.2312 254.742 50.7679C255.273 52.2776 255.571 53.7574 255.638 55.2074L253.3 55.1823C253.204 53.9507 252.917 52.6898 252.438 51.3995C251.988 50.0821 251.262 48.9532 250.26 48.0127C249.259 47.0449 247.979 46.5527 246.42 46.5359C244.971 46.5204 243.761 47.15 242.79 48.4248C241.958 49.537 241.354 51.0207 240.979 52.8761C240.633 54.5131 240.45 56.2749 240.43 58.1614C240.397 61.251 240.752 63.8389 241.495 65.925C242.478 68.588 244.036 69.9309 246.169 69.9538L246.291 58.5935L258.84 58.7282L258.69 72.7543C254.753 72.712 250.296 72.7189 245.318 72.7748L241.176 72.7714C238.168 72.7391 235.724 72.4258 233.844 71.8313C231.991 71.2099 230.402 70.2221 229.077 68.868C226.453 66.1874 225.166 62.5641 225.215 57.9981Z" fill="white"/>
<path d="M261.294 44.0705L273.351 44.1999L285.173 58.6826L285.327 44.3284L287.788 44.3548L287.479 73.0633L277.842 72.9598L263.692 53.6942L263.487 72.8058L260.986 72.7789L261.294 44.0705Z" fill="white"/>
<path d="M170.777 84.0066L200.593 84.3266L200.567 86.7463L185.187 86.5812L185.073 97.2034L192.619 97.2843L192.593 99.7451L185.047 99.6641L184.931 110.409L200.311 110.574L200.285 113.035L170.469 112.715L170.777 84.0066Z" fill="white"/>
<path d="M202.938 84.3518L230.375 84.6462C231.714 84.6606 232.941 85.0156 234.055 85.7111C235.196 86.3797 236.089 87.2916 236.733 88.447C237.404 89.5753 237.733 90.8093 237.718 92.1491C237.699 93.9263 237.135 95.5335 236.026 96.9709C234.917 98.4082 233.526 99.323 231.854 99.7152C233.326 100.141 234.52 100.933 235.438 102.092C236.382 103.25 236.847 104.554 236.831 106.003L236.752 113.426L223.013 113.279L223.108 104.379C223.117 103.504 222.961 102.819 222.638 102.323C222.261 101.745 221.828 101.317 221.339 101.038C220.796 100.731 220.183 100.506 219.501 100.362C218.791 100.218 218.122 100.128 217.494 100.094L216.387 100.041L216.246 113.206L202.63 113.06L202.938 84.3518ZM217.848 97.6782C218.832 97.6887 219.737 97.466 220.562 97.01C221.415 96.527 222.078 95.8778 222.552 95.0626C223.053 94.2203 223.309 93.3206 223.319 92.3637C223.33 91.3794 223.093 90.4745 222.61 89.649C222.154 88.7964 221.505 88.1195 220.663 87.6182C219.848 87.1173 218.948 86.8615 217.964 86.851L216.529 86.8356L216.412 97.7038L217.848 97.6782Z" fill="white"/>
<path d="M261.689 95.2775C264.933 96.1873 267.354 97.3755 268.951 98.8419C270.549 100.281 271.336 102.149 271.311 104.445C271.292 106.277 270.7 107.912 269.536 109.348C268.372 110.785 266.665 111.902 264.414 112.698C262.191 113.494 259.493 113.876 256.321 113.842C252.576 113.801 249.272 113.287 246.412 112.3C243.579 111.285 241.363 110.072 239.765 108.66L241.138 106.829C242.548 107.965 244.329 108.941 246.48 109.757C248.632 110.573 250.951 110.995 253.439 111.021C255.053 111.039 256.272 110.819 257.097 110.363C257.95 109.908 258.38 109.256 258.39 108.408C258.405 106.932 256.955 105.768 254.038 104.916L248.723 103.301C245.835 102.395 243.606 101.154 242.037 99.5784C240.495 98.0032 239.735 96.1493 239.758 94.0167C239.777 92.2395 240.355 90.6324 241.492 89.1953C242.628 87.7583 244.267 86.6411 246.409 85.8437C248.578 85.0193 251.166 84.6233 254.174 84.6555C257.044 84.6863 259.679 85.0428 262.078 85.7248C264.505 86.4071 266.478 87.2213 268 88.1673L266.626 90.0393C265.349 89.2873 263.811 88.6419 262.012 88.103C260.24 87.5645 258.37 87.2846 256.402 87.2635C254.679 87.245 253.35 87.5042 252.415 88.041C251.507 88.5509 251.048 89.2706 251.038 90.2002C251.03 90.911 251.365 91.5436 252.043 92.0977C252.721 92.6245 254.014 93.158 255.922 93.698L261.689 95.2775Z" fill="white"/>
<path d="M273.587 85.11L303.403 85.43L303.377 87.8497L287.998 87.6846L287.884 98.3068L295.43 98.3877L295.403 100.848L287.857 100.767L287.742 111.513L303.121 111.678L303.095 114.138L273.279 113.818L273.587 85.11Z" fill="white"/>
<path d="M144.564 48.8004C144.326 70.9474 126.18 88.7084 104.033 88.4707C81.8855 88.233 132.176 81.9548 132.534 48.6712C132.891 15.3877 82.7462 8.03162 104.893 8.26931C127.04 8.507 144.801 26.6534 144.564 48.8004Z" fill="white"/>
<path d="M298.942 29.7042C289.484 28.303 285.076 31.7475 284.93 34.0829L292.813 44.154C292.083 50.7222 291.762 63.8585 296.316 63.8585C300.87 63.8585 305.218 56.8525 307.261 52.9116C311.64 53.3495 321.537 52.4737 322.588 48.9707C323.639 45.4677 318.5 40.2132 315.143 38.0239C316.895 32.7693 315.582 24.4495 312.079 22.698C309.277 21.2968 302.591 27.0769 298.942 29.7042Z" fill="#705D3F"/>
<path d="M301.607 34.0265L290.121 33.3911L297.068 44.0826L295.864 55.6325L304.797 48.0069H318.197L309.902 38.4748L310.54 27.0364L301.607 34.0265Z" fill="#FAFCF7"/>
<path d="M206.398 4.41565C208.408 4.43724 210.349 4.79943 212.197 5.51526C214.168 6.27854 215.851 7.4825 217.137 9.14417C217.143 9.15217 217.15 9.16056 217.156 9.16858C217.166 9.18098 217.176 9.19324 217.186 9.20569H217.185C217.317 9.37374 217.44 9.54562 217.559 9.71936C218.628 8.4596 219.907 7.40545 221.387 6.57288L221.404 6.56311C223.811 5.22625 226.514 4.63173 229.402 4.66272C232.282 4.69364 234.963 5.34366 237.323 6.73499C237.326 6.73664 237.329 6.73821 237.332 6.73987C237.335 6.74146 237.338 6.74218 237.341 6.74377L237.34 6.74475C238.881 7.64751 240.192 8.7915 241.26 10.1578C241.907 9.27764 242.673 8.47573 243.567 7.76721L243.576 7.76135L243.584 7.75452C246.201 5.7065 249.467 4.87837 253.031 4.91663C255.041 4.93819 256.982 5.30025 258.831 6.01624C260.826 6.78896 262.526 8.01208 263.818 9.70569H263.816C264.169 10.1544 264.473 10.6237 264.729 11.111L267.168 7.01428L268.198 5.28284L270.213 5.30432L281.312 5.42346L287.369 5.48889L284.287 10.7037L282.805 13.2106C283.044 13.3111 283.282 13.4182 283.517 13.5319C285.476 14.4454 287.119 15.7789 288.328 17.5514H288.327C289.614 19.4041 290.205 21.5287 290.181 23.7838C290.153 26.3471 289.427 28.7287 287.896 30.7594C286.437 32.6923 284.493 34.0937 282.2 35.0084C279.967 35.9083 277.552 36.3131 275.006 36.2858C272.439 36.2582 270.005 35.8033 267.747 34.8717L267.723 34.8619L267.698 34.8512C267.37 34.7099 267.05 34.5567 266.737 34.3951L266.72 36.028L263.22 35.9899L241.262 35.7545L234.738 35.6842L235.435 34.6578C233.464 35.4576 231.324 35.8178 229.068 35.7936C226.18 35.7626 223.49 35.1097 221.112 33.7213L221.104 33.7164L221.096 33.7115C220.757 33.511 220.429 33.2973 220.112 33.0739L220.087 35.527L216.587 35.4899L194.629 35.2535L188.105 35.1842L191.771 29.7877L198.816 19.4127L197.752 19.402L195.682 19.3795L191.525 19.3356L192.276 15.2477C192.87 12.0176 194.4 9.27573 196.935 7.26721L196.942 7.26038L196.951 7.25354C199.568 5.20557 202.834 4.37739 206.398 4.41565ZM214.56 26.4303L215.014 26.4352C214.958 26.2872 214.905 26.1385 214.854 25.9889L214.56 26.4303ZM244.479 20.3746C244.475 20.7186 244.461 21.0597 244.44 21.3981L245.45 19.9137L244.477 19.903C244.478 20.0596 244.48 20.2169 244.479 20.3746Z" fill="white" stroke="#705D3F" stroke-width="7"/>
</svg>
