<svg width="322" height="106" viewBox="0 0 322 106" fill="none" xmlns="http://www.w3.org/2000/svg">
<path d="M211.403 11.8821C200.578 8.8798 179.6 9.05011 173.585 30.0685C174.393 20.6009 172.668 8.56368 162.484 3.64049C148.846 -2.95279 137.037 0.89329 132.836 3.64049C126.472 7.80334 112.686 17.3599 121.089 35.7252C115.266 32.9799 92.9717 51.248 95.0357 65.9102L101.706 73.2361H211.403V11.8821Z" fill="#C3C341"/>
<path d="M127.648 11.8821C116.823 8.8798 95.8453 9.05011 89.8302 30.0685C90.6381 20.6009 88.9127 8.56368 78.7293 3.64049C65.0913 -2.95279 53.2817 0.89329 49.0816 3.64049C42.7171 7.80334 28.9311 17.3599 37.3342 35.7252C31.5114 32.9799 9.21684 51.248 11.2808 65.9102L17.9515 73.2361H127.648V11.8821Z" fill="#C3C341"/>
<path d="M195.703 11.8821C206.528 8.8798 227.506 9.05011 233.521 30.0685C232.713 20.6009 234.438 8.56368 244.622 3.64049C258.26 -2.95279 270.069 0.89329 274.27 3.64049C280.634 7.80334 294.42 17.3599 286.017 35.7252C291.84 32.9799 314.134 51.248 312.07 65.9102L305.4 73.2361H195.703V11.8821Z" fill="#C3C341"/>
<rect y="59" width="322" height="47" rx="5" fill="#C3A47E"/>
</svg>
