<svg width="161" height="380" viewBox="0 0 161 380" fill="none" xmlns="http://www.w3.org/2000/svg">
<rect x="46.7476" y="119.261" width="69.6561" height="93.97" rx="20" fill="#E6D39D"/>
<path d="M59.4354 142.26C62.8957 148.396 64.4746 151.856 64.4793 157.365C64.4826 161.214 61.6477 164.458 59.9152 167.304C58.0049 170.442 55.1999 177.978 53.4509 183.057C52.1503 186.834 51.56 190.146 49.2035 202.084M49.2035 202.084C46.8305 214.106 48.8655 224.635 50.9195 232.829C53.2305 242.049 54.3868 247.183 56.0413 251.048C58.705 257.269 59.4354 268.9 58.7311 275.227C57.7961 283.627 52.9876 288.933 51.326 292.963C49.6465 297.037 47.939 302.642 47.1472 306.436C46.0818 311.54 47.2961 318.554 49.0286 323.137M49.2035 202.084L29.6621 208.959M49.0286 323.137C50.4757 326.965 54.3679 336.469 56.2021 342.757C57.5599 345.984 59.7614 349.39 61.7521 352.478C62.1457 353.088 62.5687 353.686 63.1187 354.16C63.4549 354.45 63.8058 354.713 64.1626 354.981M49.0286 323.137L36.8906 342.757" stroke="#839E75" stroke-width="2" stroke-linecap="round"/>
<path d="M104.206 142.26C98.5385 156.106 97.2764 162.719 97.3496 171.299C97.4081 178.141 103.875 183.367 106.402 186.917C108.113 189.32 109.718 191.413 110.269 193.221M110.269 193.221C110.764 194.846 110.824 200.044 110.044 209.002C109.215 218.527 104.069 227.93 100.763 236.427C98.496 242.251 98.5338 245.931 98.8458 248.365C99.5668 253.991 102.779 256.486 108.123 261.679C113.729 267.126 121.527 273.022 122.954 276.891C124.187 280.233 124.524 287.024 125.398 293.892C125.322 304.708 124.694 307.227 123.987 309.192C123.592 310.22 123.124 311.312 122.169 314.328M110.269 193.221C114.641 191.817 125.309 188.107 129.724 185.19C130.679 184.477 131.303 183.853 131.858 183.219C132.414 182.586 132.882 181.962 133.837 180.373M110.489 202.387C113.297 205.195 115.68 207.405 117.722 209.606C120.076 211.806 121.83 213.711 122.929 215.673C123.56 216.855 124.34 218.415 125.616 220.022" stroke="#839E75" stroke-width="2" stroke-linecap="round"/>
<path d="M27.4758 198.203C12.8556 201.019 7.3116 206.522 0 220.131C23.2028 221.837 31.6825 220.502 36.3493 212.861C37.6848 204.217 35.8278 200.977 27.4758 198.203Z" fill="#90A260"/>
<path d="M40.8462 228.828C24.177 243.884 21.3215 255.318 22.5183 278.595C53.7965 262.668 63.697 254.319 63.7506 240.812C58.7203 228.612 53.7926 225.882 40.8462 228.828Z" fill="#90A260"/>
<path d="M72.421 274.62C78.8837 296.132 75.4052 307.392 62.3268 326.685C43.8176 296.862 39.6716 284.593 46.6206 273.011C57.2418 265.179 62.8712 265.396 72.421 274.62Z" fill="#90A260"/>
<path d="M54.1741 356.889C57.3761 369.299 62.4011 373.767 74.4853 379.319C74.7075 359.294 73.106 352.08 66.2918 348.48C58.7935 347.796 56.1098 349.565 54.1741 356.889Z" fill="#90A260"/>
<path d="M28.4448 338.142C24.7574 350.417 26.7421 356.841 34.2042 367.849C44.765 350.833 47.1306 343.833 43.1657 337.224C37.1056 332.756 33.8936 332.879 28.4448 338.142Z" fill="#90A260"/>
<path d="M96.1588 116.123C103.841 116.59 109.856 117.796 115.026 120.027C123.723 123.781 130.03 130.435 137.864 141.349C106.268 147.852 94.3703 147.535 86.5848 137.866C86.2831 136.828 86.0239 135.845 85.8099 134.91C85.177 132.147 84.9391 129.815 85.1632 127.778C85.7133 122.778 89.0481 119.56 96.1588 116.123Z" fill="#90A260"/>
<path d="M143.869 183.276C156.889 173.704 159.759 165.726 160.585 148.977C137.045 158.117 129.354 163.377 128.34 173.042C131.059 182.138 134.389 184.449 143.869 183.276Z" fill="#90A260"/>
<path d="M141.269 217.468C150.107 232.068 147.874 240.477 136.932 255.681C115.133 236.509 109.633 228.234 115.299 219.207C125.052 212.441 130.703 211.966 141.269 217.468Z" fill="#90A260"/>
<path d="M107.904 166.28C121.261 182.888 120.753 193.871 112.103 215.062C83.1473 195.223 75.0264 185.905 79.2331 173.484C88.551 163.109 94.7672 161.42 107.904 166.28Z" fill="#90A260"/>
<path d="M106.203 228.533C121.711 239.763 124.424 249.337 123.464 269.576C94.4429 259.152 85.2358 252.996 85.1008 241.332C89.6748 230.255 94.2139 227.37 106.203 228.533Z" fill="#90A260"/>
<path d="M138.618 298.584C140.459 321.971 126.003 333.161 105.561 347.614C111.804 329.871 97.6298 297.077 108.845 288.089C123.362 284.057 129.893 286.215 138.618 298.584Z" fill="#90A260"/>
<path fill-rule="evenodd" clip-rule="evenodd" d="M70.0755 117.781C70.0342 117.946 69.9954 118.11 69.9592 118.272C57.381 115.277 47.6044 116.633 35.8817 121.957C45.5028 136.727 51.9921 140.921 60.6571 138.496C66.4452 133.832 69.4678 129.993 70.2709 125.096C70.6041 123.064 70.5553 120.851 70.1636 118.321C70.1359 118.143 70.1066 117.963 70.0755 117.781Z" fill="#90A260"/>
<path d="M69.006 113.061C55.4824 100.133 45.8671 99.9968 26.7605 106.643C30.1379 112.669 33.1372 117.743 35.8817 121.957C47.6044 116.633 57.381 115.277 69.9592 118.272C69.9954 118.11 70.0342 117.946 70.0755 117.781C69.826 116.321 69.4672 114.756 69.006 113.061Z" fill="#7B8B4F"/>
<path d="M81.905 134.787C83.2269 134.902 84.5253 134.945 85.8099 134.91C85.177 132.147 84.9391 129.815 85.1632 127.778C84.027 125.852 82.5039 123.806 80.5901 121.56C76.871 120.185 73.4229 119.108 70.1636 118.321C70.5553 120.851 70.6041 123.064 70.2709 125.096C71.7239 128.717 75.5144 131.622 81.905 134.787Z" fill="#90A260"/>
<path fill-rule="evenodd" clip-rule="evenodd" d="M69.9592 118.272C69.9954 118.11 70.0342 117.946 70.0755 117.781C70.1066 117.963 70.1359 118.143 70.1636 118.321C70.5553 120.851 70.6041 123.064 70.2709 125.096C71.7239 128.717 75.5144 131.622 81.905 134.787C83.2269 134.902 84.5253 134.945 85.8099 134.91C85.177 132.147 84.9391 129.815 85.1632 127.778C85.7133 122.778 89.0481 119.56 96.1588 116.123C103.841 116.59 109.856 117.796 115.026 120.027C104.328 129.722 96.1875 134.072 87.6358 134.808C88.023 139.515 85.6511 144.108 80.5901 150.145C67.329 157.017 54.0737 151.597 22.4338 129.117C27.3042 126.241 31.7158 123.848 35.8817 121.957C47.6044 116.633 57.381 115.277 69.9592 118.272Z" fill="#90A260"/>
<path d="M138.536 95.4716C110.754 91.6732 96.187 93.4347 73.5562 109.353C71.8566 112.579 70.6849 115.346 70.0755 117.781C70.1066 117.963 70.1359 118.143 70.1636 118.321C73.4229 119.108 76.871 120.185 80.5901 121.56C82.5039 123.806 84.027 125.852 85.1632 127.778C85.7133 122.778 89.0481 119.56 96.1588 116.123C103.841 116.59 109.856 117.796 115.026 120.027C121.648 114.027 129.25 105.978 138.536 95.4716Z" fill="#7B8B4F"/>
<line y1="-0.5" x2="123.024" y2="-0.5" transform="matrix(0.255477 -0.966815 0.947682 0.319216 50.6904 119.261)" stroke="#B99999"/>
<line y1="-0.5" x2="122.589" y2="-0.5" transform="matrix(-0.242139 -0.970242 0.952941 -0.303155 111.804 119.261)" stroke="#B99999"/>
</svg>
