<svg width="118" height="664" viewBox="0 0 118 664" fill="none" xmlns="http://www.w3.org/2000/svg">
<g filter="url(#filter0_f_1058_981)">
<path d="M77.916 58.8521L68.7226 129.61H73.8709L81.9611 58.7344L77.916 58.8521Z" fill="#FFEAAF"/>
<path d="M35.9941 60.0725L48.8649 129.61H52.5423L39.6715 59.9655L35.9941 60.0725Z" fill="#FFEAAF"/>
<path d="M84.9029 129.61L96.6705 58.3062L81.9611 58.7344L73.8709 129.61H84.9029Z" fill="#FFEAAF"/>
<path d="M39.6715 59.9655L52.5423 129.61H68.7226L77.916 58.8521L39.6715 59.9655Z" fill="#FFEAAF"/>
<path d="M20.917 60.5114L35.9941 129.61H48.8649L35.9941 60.0725L20.917 60.5114Z" fill="#FFEAAF"/>
<path d="M48.8649 129.61H35.9941L20.917 60.5114L35.9941 60.0725M48.8649 129.61L35.9941 60.0725M48.8649 129.61H52.5423M35.9941 60.0725L39.6715 59.9655M39.6715 59.9655L52.5423 129.61M39.6715 59.9655L77.916 58.8521M52.5423 129.61H68.7226M68.7226 129.61L77.916 58.8521M68.7226 129.61H73.8709M77.916 58.8521L81.9611 58.7344M81.9611 58.7344L96.6705 58.3062L84.9029 129.61H73.8709M81.9611 58.7344L73.8709 129.61" stroke="#FFEAAF"/>
</g>
<path d="M96.1641 61.4631C96.1641 61.4631 116.39 52.2745 106.828 53.3771C97.2673 54.4797 79.6651 33.6677 73.3645 33.1622C70.8285 28.3955 68.5286 25.8494 61.2292 21.7683C59.1512 14.4794 59.9338 9.82533 61.2292 1.5534C59.0773 0.115713 57.8669 0.182413 55.7132 1.5534C56.5381 11.9398 56.948 17.6049 55.7132 21.7683C49.1755 25.6098 47.3945 28.2774 44.6811 33.1622C36.6805 30.0029 20.4106 54.4797 9.74627 53.3771C-0.918067 52.2745 20.4106 63.6683 20.4106 63.6683L35.4877 63.2294L39.1651 63.1224L77.4096 62.009L81.4547 61.8913L96.1641 61.4631Z" fill="#424242"/>
<path d="M77.4096 62.009L68.2162 132.767H73.3645L81.4547 61.8913L77.4096 62.009Z" fill="#424242"/>
<path d="M35.4877 63.2294L48.3585 132.767H52.0359L39.1651 63.1224L35.4877 63.2294Z" fill="#424242"/>
<path d="M35.4877 132.767C46.9196 136.204 51.0273 138.755 53.8745 144.528C52.5917 147.961 51.2029 149.235 48.3585 151.144L53.8745 159.965V610.941H73.3645L66.7453 159.965L73.3645 151.144C68.944 150.023 67.8488 148.293 66.7453 144.528C68.9696 138.686 72.5752 136.04 84.3965 132.767H73.3645H68.2162H52.0359H48.3585H35.4877Z" fill="#424242"/>
<path d="M73.3645 610.941H53.8745C49.6886 611.425 47.4562 612.353 43.5779 614.617C44.5369 620.788 45.9236 623.145 49.8294 625.275L35.12 631.156C32.4599 645.794 41.0441 648.941 60.4938 652.474C81.5833 652.771 89.3907 649.277 90.2803 631.156L75.5709 625.275C78.6096 621.948 79.8237 619.772 79.9837 614.617C78.1332 612.828 76.7306 612.037 73.3645 610.941Z" fill="#424242"/>
<path d="M60.4938 652.474C41.0441 648.941 32.4599 645.794 35.12 631.156C32.5657 640.144 31.3624 645.123 35.12 652.474C39.6287 659.79 45.3742 662.096 60.4938 663.5C75.5089 662.022 82.8321 660.278 90.2803 652.474C92.4676 645.453 92.3553 640.722 90.2803 631.156C89.3907 649.277 81.5833 652.771 60.4938 652.474Z" fill="#424242"/>
<path d="M84.3965 132.767L96.1641 61.4631L81.4547 61.8913L73.3645 132.767H84.3965Z" fill="#FFEAAF"/>
<path d="M39.1651 63.1224L52.0359 132.767H68.2162L77.4096 62.009L39.1651 63.1224Z" fill="#FFEAAF"/>
<path d="M20.4106 63.6683L35.4877 132.767H48.3585L35.4877 63.2294L20.4106 63.6683Z" fill="#FFEAAF"/>
<path d="M35.4877 132.767C46.9196 136.204 51.0273 138.755 53.8745 144.528C52.5917 147.961 51.203 149.235 48.3585 151.144L53.8745 159.965V610.941M35.4877 132.767L20.4106 63.6683M35.4877 132.767H48.3585M53.8745 610.941H73.3645M53.8745 610.941C49.6886 611.425 47.4562 612.353 43.5779 614.617C44.5369 620.788 45.9236 623.145 49.8294 625.275L35.12 631.156M73.3645 610.941L66.7453 159.965L73.3645 151.144C68.944 150.023 67.8488 148.293 66.7453 144.528C68.9696 138.686 72.5752 136.04 84.3965 132.767M73.3645 610.941C76.7306 612.037 78.1332 612.828 79.9837 614.617C79.8237 619.772 78.6096 621.948 75.5709 625.275L90.2803 631.156M84.3965 132.767L96.1641 61.4631M84.3965 132.767H73.3645M96.1641 61.4631C96.1641 61.4631 116.39 52.2745 106.828 53.3771C97.2673 54.4797 79.6651 33.6677 73.3645 33.1622C70.8285 28.3955 68.5286 25.8494 61.2292 21.7683C59.1512 14.4794 59.9338 9.82533 61.2292 1.5534C59.0773 0.115713 57.8669 0.182413 55.7132 1.5534C56.5381 11.9398 56.948 17.6049 55.7132 21.7683C49.1755 25.6098 47.3945 28.2774 44.6811 33.1622C36.6805 30.0029 20.4106 54.4797 9.74627 53.3771C-0.918067 52.2745 20.4106 63.6683 20.4106 63.6683M96.1641 61.4631L81.4547 61.8913M20.4106 63.6683L35.4877 63.2294M35.12 631.156C32.4599 645.794 41.0441 648.941 60.4938 652.474C81.5833 652.771 89.3907 649.277 90.2803 631.156M35.12 631.156C32.5657 640.144 31.3624 645.123 35.12 652.474C39.6287 659.79 45.3742 662.096 60.4938 663.5C75.5089 662.022 82.8321 660.278 90.2803 652.474C92.4676 645.453 92.3553 640.722 90.2803 631.156M48.3585 132.767L35.4877 63.2294M48.3585 132.767H52.0359M35.4877 63.2294L39.1651 63.1224M39.1651 63.1224L52.0359 132.767M39.1651 63.1224L77.4096 62.009M52.0359 132.767H68.2162M68.2162 132.767L77.4096 62.009M68.2162 132.767H73.3645M77.4096 62.009L81.4547 61.8913M81.4547 61.8913L73.3645 132.767" stroke="#424242"/>
<defs>
<filter id="filter0_f_1058_981" x="-0.00019455" y="37.4887" width="117.563" height="112.921" filterUnits="userSpaceOnUse" color-interpolation-filters="sRGB">
<feFlood flood-opacity="0" result="BackgroundImageFix"/>
<feBlend mode="normal" in="SourceGraphic" in2="BackgroundImageFix" result="shape"/>
<feGaussianBlur stdDeviation="10.15" result="effect1_foregroundBlur_1058_981"/>
</filter>
</defs>
</svg>
