<svg width="322" height="111" viewBox="0 0 322 111" fill="none" xmlns="http://www.w3.org/2000/svg">
<path d="M110.744 19.9822C121.568 16.9799 142.546 17.1502 148.561 38.1686C147.753 28.701 149.479 16.6638 159.662 11.7406C173.3 5.14731 185.11 8.99339 189.31 11.7406C195.674 15.9034 209.461 25.46 201.057 43.8253C206.88 41.08 229.175 59.3481 227.111 74.0103L220.44 81.3362H110.744V19.9822Z" fill="#C3C341"/>
<path d="M194.499 19.9822C205.323 16.9799 226.301 17.1502 232.316 38.1686C231.508 28.701 233.234 16.6638 243.417 11.7406C257.055 5.14731 268.865 8.99339 273.065 11.7406C279.429 15.9034 293.215 25.46 284.812 43.8253C290.635 41.08 312.93 59.3481 310.866 74.0103L304.195 81.3362H194.499V19.9822Z" fill="#C3C341"/>
<path d="M126.443 19.9822C115.619 16.9799 94.6407 17.1502 88.6256 38.1686C89.4335 28.701 87.7081 16.6638 77.5247 11.7406C63.8867 5.14731 52.0771 8.99339 47.877 11.7406C41.5125 15.9034 27.7265 25.46 36.1296 43.8253C30.3068 41.08 8.01225 59.3481 10.0762 74.0103L16.7469 81.3362H126.443V19.9822Z" fill="#C3C341"/>
<rect width="322" height="47" rx="8" transform="matrix(-1 0 0 1 322 63.1001)" fill="#C3A47E"/>
<path d="M154.462 59.9157L154.451 59.9438C153.84 59.5415 153.257 59.1482 152.695 58.7692C152 58.2998 152.626 58.9415 151.981 58.5263C151.981 57.5641 153.063 56.9992 153.853 57.5494L155.03 58.3701C154.705 59.1561 154.795 59.0416 154.462 59.9157Z" fill="#DB9494"/>
<path d="M150.664 62.7071C151.852 61.9776 153.059 61.0575 154.451 59.9438C154.813 60.4466 155.141 60.9249 155.437 61.3823L155.101 60.8841L153.705 61.3823C153.13 61.9603 151.875 63.0903 151.451 62.9853C151.29 62.9456 150.996 62.8459 150.664 62.7071Z" fill="#DB9494"/>
<path d="M154.765 60.386C154.408 59.9403 154.826 60.459 154.451 59.9438C156.267 60.3017 155.84 60.1846 157.284 60.2312L155.693 60.6247L154.765 60.386Z" fill="#DB9494"/>
<path d="M151.981 58.5263C153.087 59.3597 153.017 59.1171 154.451 59.9438C152.61 60.8321 151.103 61.6111 149.872 62.3258C149.36 62.0398 148.932 61.7001 148.932 61.3823C148.932 60.0429 149.893 58.8966 151.212 58.6628L151.981 58.5263Z" fill="#DB9494"/>
<path d="M154.451 59.9438C154.825 59.0749 154.74 59.1838 155.03 58.3701H155.101L156.7 57.9552C157.944 57.6325 159.261 58.0673 160.068 59.067C158.66 59.1627 157.201 59.4341 155.525 59.7456L155.525 59.7457L155.524 59.7458C155.176 59.8105 154.819 59.8769 154.451 59.9438Z" fill="#DB9494"/>
<path d="M157.284 60.2312C155.84 60.1846 156.267 60.3017 154.451 59.9438C154.819 59.8769 155.176 59.8105 155.524 59.7458L155.525 59.7457L155.525 59.7456C157.201 59.4341 158.66 59.1627 160.068 59.067L157.284 60.2312Z" fill="#DB9494"/>
<path d="M154.451 59.9438C153.059 61.0575 151.852 61.9776 150.664 62.7071C150.408 62.6 150.129 62.4697 149.872 62.3258C151.103 61.6111 152.61 60.8321 154.451 59.9438Z" fill="#DB9494"/>
<path d="M154.451 59.9438C153.017 59.1171 153.087 59.3597 151.981 58.5263C152.626 58.9415 152 58.2998 152.695 58.7692C153.257 59.1482 153.84 59.5415 154.451 59.9438Z" fill="#DB9494"/>
<path d="M155.437 61.3823C155.141 60.9249 154.813 60.4466 154.451 59.9438C154.826 60.459 154.408 59.9403 154.765 60.386L155.437 61.3823Z" fill="#DB9494"/>
<path d="M155.03 58.3701C154.74 59.1838 154.825 59.0749 154.451 59.9438L154.462 59.9157C154.795 59.0416 154.705 59.1561 155.03 58.3701Z" fill="#DB9494"/>
<path d="M155.566 44.943C151.02 43.576 148.647 43.8869 144.639 45.765C145.689 45.3211 148.053 45.1447 155.566 44.943Z" fill="#FFCCCC"/>
<path fill-rule="evenodd" clip-rule="evenodd" d="M155.553 57.1445C156.816 53.4855 157.107 50.1071 155.566 44.943C148.053 45.1447 145.689 45.3211 144.639 45.765C144.973 51.2032 146.718 54.349 150.124 57.0771C146.658 54.9204 143.604 53.8136 138.618 55.423C135.952 60.2859 136.759 62.0835 139.733 64.6701C142.784 64.9464 145.012 64.84 146.924 64.3424C144.75 66.2137 144.492 67.918 144.639 70.6293C146.658 77.1944 149.129 77.067 154.451 74.3282C157.927 69.0806 158.788 66.5728 155.437 61.3823L155.101 60.8841L153.705 61.3823C153.13 61.9603 151.875 63.0903 151.451 62.9853C151.29 62.9456 150.996 62.8459 150.664 62.7071C150.408 62.6 150.129 62.4697 149.872 62.3258C149.36 62.0398 148.932 61.7001 148.932 61.3823C148.932 60.0429 149.893 58.8966 151.212 58.6628L151.981 58.5263C151.981 57.5641 153.063 56.9992 153.853 57.5494L155.03 58.3701H155.101L156.7 57.9552C157.944 57.6325 159.261 58.0673 160.068 59.067L157.284 60.2312L155.693 60.6247L154.765 60.386C157.815 64.1912 161.197 66.6724 166.493 69.3964C166.688 69.3984 166.878 69.4011 167.064 69.4037L167.065 69.4037L167.065 69.4037L167.066 69.4038L167.066 69.4038L167.066 69.4038L167.067 69.4038C171.081 69.4611 172.767 69.4852 168.723 61.3823C167.427 60.6186 166.265 60.0766 165.178 59.707C167.237 58.9862 169.174 57.8184 171.399 56.245C172.329 52.6031 172.618 50.4053 168.951 49.2606C166.578 48.9029 165.356 48.9662 163.25 49.3926C158.797 51.008 157.047 53.6149 155.553 57.1445Z" fill="#F5B1B1"/>
<path d="M165.824 48.6418C167.093 48.7974 168.123 49.0022 168.951 49.2606C166.578 48.9029 165.356 48.9662 163.25 49.3926C164.022 49.1124 164.876 48.862 165.824 48.6418Z" fill="#FFCCCC"/>
<path d="M257.471 12.4561L257.462 12.478C256.991 12.1637 256.541 11.8564 256.108 11.5603C255.571 11.1936 256.054 11.6949 255.557 11.3706C255.557 10.6218 256.401 10.1842 257.013 10.616L257.909 11.2485C257.658 11.8626 257.727 11.7732 257.471 12.4561Z" fill="#FCC16D"/>
<path d="M254.541 14.6368C255.457 14.0669 256.388 13.348 257.462 12.478C257.742 12.8708 257.995 13.2444 258.222 13.6018L257.964 13.2126L256.886 13.6018C256.443 14.0534 255.475 14.9362 255.148 14.8542C255.024 14.8232 254.797 14.7452 254.541 14.6368Z" fill="#FCC16D"/>
<path d="M257.705 12.8235C257.429 12.4752 257.751 12.8805 257.462 12.478C258.863 12.7576 258.534 12.6662 259.648 12.7026L258.42 13.0099L257.705 12.8235Z" fill="#FCC16D"/>
<path d="M255.557 11.3706C256.41 12.0216 256.356 11.8321 257.462 12.478C256.042 13.172 254.879 13.7806 253.93 14.3389C253.535 14.1155 253.205 13.8501 253.205 13.6018C253.205 12.5549 253.954 11.6583 254.985 11.4733L255.557 11.3706Z" fill="#FCC16D"/>
<path d="M257.462 12.478C257.751 11.7991 257.685 11.8843 257.909 11.2485H257.964L259.186 10.9272C260.151 10.6738 261.174 11.0133 261.795 11.793C260.709 11.8678 259.584 12.0798 258.291 12.3232C258.023 12.3737 257.746 12.4257 257.462 12.478Z" fill="#FCC16D"/>
<path d="M259.648 12.7026C258.534 12.6662 258.863 12.7576 257.462 12.478C257.746 12.4257 258.023 12.3737 258.291 12.3232C259.584 12.0798 260.709 11.8678 261.795 11.793L259.648 12.7026Z" fill="#FCC16D"/>
<path d="M257.462 12.478C256.388 13.348 255.457 14.0669 254.541 14.6368C254.343 14.5531 254.128 14.4513 253.93 14.3389C254.879 13.7806 256.042 13.172 257.462 12.478Z" fill="#FCC16D"/>
<path d="M257.462 12.478C256.356 11.8321 256.41 12.0216 255.557 11.3706C256.054 11.6949 255.571 11.1936 256.108 11.5603C256.541 11.8564 256.991 12.1637 257.462 12.478Z" fill="#FCC16D"/>
<path d="M258.222 13.6018C257.995 13.2444 257.742 12.8708 257.462 12.478C257.751 12.8805 257.429 12.4752 257.705 12.8235L258.222 13.6018Z" fill="#FCC16D"/>
<path d="M257.909 11.2485C257.685 11.8843 257.751 11.7991 257.462 12.478L257.471 12.4561C257.727 11.7732 257.658 11.8626 257.909 11.2485Z" fill="#FCC16D"/>
<path d="M258.322 0.758625C254.816 -0.30934 252.985 -0.0664433 249.893 1.40078C250.703 1.05403 252.527 0.916186 258.322 0.758625Z" fill="#FCC16D"/>
<path fill-rule="evenodd" clip-rule="evenodd" d="M258.313 10.291C259.286 7.43248 259.511 4.79306 258.322 0.758625C252.527 0.916186 250.703 1.05403 249.893 1.40078C250.15 5.64938 251.497 8.10706 254.124 10.2384C251.45 8.55348 249.094 7.68878 245.248 8.94614C243.192 12.7452 243.814 14.1496 246.108 16.1704C248.462 16.3863 250.181 16.3031 251.655 15.9144C249.978 17.3764 249.78 18.7079 249.893 20.8261C251.451 25.955 253.357 25.8555 257.462 23.7158C260.144 19.6162 260.808 17.6569 258.222 13.6018L257.964 13.2126L256.886 13.6018C256.443 14.0534 255.475 14.9362 255.148 14.8542C255.024 14.8232 254.797 14.7452 254.541 14.6368C254.343 14.5531 254.128 14.4513 253.93 14.3389C253.535 14.1155 253.205 13.8501 253.205 13.6018C253.205 12.5549 253.954 11.6583 254.985 11.4733L255.557 11.3706C255.557 10.6218 256.401 10.1842 257.013 10.616L257.909 11.2485H257.964L259.186 10.9272C260.151 10.6738 261.174 11.0133 261.795 11.793L259.648 12.7026L258.42 13.0099L257.705 12.8235C260.057 15.7963 262.666 17.7347 266.752 19.8628C266.902 19.8644 267.05 19.8665 267.193 19.8686L267.194 19.8686C270.291 19.9134 271.592 19.9322 268.472 13.6018C267.472 13.0052 266.576 12.5818 265.738 12.293C267.326 11.7299 268.82 10.8175 270.536 9.5883C271.254 6.74304 271.477 5.02605 268.648 4.13175C266.817 3.8523 265.875 3.90172 264.25 4.23485C260.815 5.49687 259.464 7.53355 258.313 10.291Z" fill="#FCC16D"/>
<path d="M266.236 3.64834C267.215 3.76989 268.009 3.92985 268.648 4.13175C266.817 3.8523 265.875 3.90172 264.25 4.23485C264.846 4.01594 265.505 3.82034 266.236 3.64834Z" fill="#FCC16D"/>
<path d="M257.462 12.478C257.751 11.7991 257.685 11.8843 257.909 11.2485M257.462 12.478C256.356 11.8321 256.41 12.0216 255.557 11.3706M257.462 12.478C256.388 13.348 255.457 14.0669 254.541 14.6368M257.462 12.478C256.042 13.172 254.879 13.7806 253.93 14.3389M257.462 12.478C257.742 12.8708 257.995 13.2444 258.222 13.6018M257.462 12.478C257.751 12.8805 257.429 12.4752 257.705 12.8235M257.462 12.478L257.471 12.4561C257.727 11.7732 257.658 11.8626 257.909 11.2485M257.462 12.478C258.863 12.7576 258.534 12.6662 259.648 12.7026M257.462 12.478C256.991 12.1637 256.541 11.8564 256.108 11.5603C255.571 11.1936 256.054 11.6949 255.557 11.3706M257.462 12.478C257.746 12.4257 258.023 12.3737 258.291 12.3232C259.584 12.0798 260.709 11.8678 261.795 11.793M257.909 11.2485C257.637 11.9822 258.287 10.3655 258.313 10.291M257.909 11.2485C257.939 11.1749 258.282 10.3636 258.313 10.291M257.909 11.2485H257.964L259.186 10.9272C260.151 10.6738 261.174 11.0133 261.795 11.793M257.909 11.2485L257.013 10.616C256.401 10.1842 255.557 10.6218 255.557 11.3706M258.313 10.291C259.286 7.43248 259.511 4.79306 258.322 0.758625M258.313 10.291C259.464 7.53355 260.815 5.49687 264.25 4.23485M258.322 0.758625C254.816 -0.30934 252.985 -0.0664433 249.893 1.40078M258.322 0.758625C252.527 0.916186 250.703 1.05403 249.893 1.40078M249.893 1.40078C250.15 5.64938 251.497 8.10706 254.124 10.2384M254.124 10.2384C254.255 10.3444 255.42 11.266 255.557 11.3706M254.124 10.2384C254.27 10.3298 255.409 11.2745 255.557 11.3706M254.124 10.2384C251.45 8.55348 249.094 7.68878 245.248 8.94614C243.192 12.7452 243.814 14.1496 246.108 16.1704C248.462 16.3863 250.181 16.3031 251.655 15.9144M255.557 11.3706L254.985 11.4733C253.954 11.6583 253.205 12.5549 253.205 13.6018C253.205 13.8501 253.535 14.1155 253.93 14.3389M251.655 15.9144C252.693 15.6407 253.61 15.2156 254.541 14.6368M251.655 15.9144C252.226 15.4164 252.969 14.9034 253.93 14.3389M251.655 15.9144C249.978 17.3764 249.78 18.7079 249.893 20.8261C251.451 25.955 253.357 25.8555 257.462 23.7158C260.144 19.6162 260.808 17.6569 258.222 13.6018M254.541 14.6368C254.343 14.5531 254.128 14.4513 253.93 14.3389M254.541 14.6368C254.797 14.7452 255.024 14.8232 255.148 14.8542C255.475 14.9362 256.443 14.0534 256.886 13.6018L257.964 13.2126L258.222 13.6018M258.222 13.6018L257.705 12.8235M257.705 12.8235C260.057 15.7963 262.666 17.7347 266.752 19.8628C266.902 19.8644 267.05 19.8665 267.193 19.8686L267.194 19.8686C270.291 19.9134 271.592 19.9322 268.472 13.6018C267.472 13.0052 266.576 12.5818 265.738 12.293M257.705 12.8235L258.42 13.0099L259.648 12.7026M265.738 12.293C267.326 11.7299 268.82 10.8175 270.536 9.5883C271.254 6.74304 271.477 5.02605 268.648 4.13175M265.738 12.293C264.366 12.7796 261.364 12.7586 259.648 12.7026M265.738 12.293C264.335 11.81 263.094 11.7035 261.795 11.793M259.648 12.7026L261.795 11.793M268.648 4.13175C268.009 3.92985 267.215 3.76989 266.236 3.64834C265.505 3.82034 264.846 4.01594 264.25 4.23485M268.648 4.13175C266.817 3.8523 265.875 3.90172 264.25 4.23485" stroke="url(#paint0_radial_1508_4)" stroke-width="0.2"/>
<defs>
<radialGradient id="paint0_radial_1508_4" cx="0" cy="0" r="1" gradientUnits="userSpaceOnUse" gradientTransform="translate(257.5 12.6001) rotate(90) scale(12.5 13.5)">
<stop stop-color="#815F2E"/>
<stop offset="1" stop-color="white"/>
</radialGradient>
</defs>
</svg>
