<svg width="671" height="143" viewBox="0 0 671 143" fill="none" xmlns="http://www.w3.org/2000/svg">
<path d="M1.50024 1.50034C250.304 126.736 394.403 154.911 669.219 43.3802" stroke="#424242" stroke-width="3" stroke-linecap="round"/>
<path d="M35.7126 18.0025C38.7909 17.9119 40.3571 18.3136 42.7392 20.0859L40.4244 27.8932L33.3978 25.8099L35.7126 18.0025Z" fill="#424242"/>
<g filter="url(#filter0_f_1058_987)">
<path d="M42.3458 34.4086C41.4641 38.7729 37.3319 40.7665 33.3516 38.9615C28.984 37.9571 26.7696 34.0453 28.2925 30.2419C29.3792 26.5768 33.406 24.5384 37.2867 25.689C41.1674 26.8396 43.4325 30.7434 42.3458 34.4086Z" fill="#FFEAAF"/>
</g>
<path d="M42.3458 34.4086C41.4641 38.7729 36.7333 42.7857 32.7529 40.9807C28.3854 39.9763 26.7696 34.0453 28.2925 30.2419C29.3792 26.5768 33.4061 24.5384 37.2868 25.689C41.1675 26.8396 43.4325 30.7435 42.3458 34.4086Z" fill="#FFEAAF"/>
<path d="M78.0967 38.8082C81.1755 38.8795 82.7185 39.363 85.0041 41.258L82.2821 48.9329L75.3747 46.4831L78.0967 38.8082Z" fill="#424242"/>
<g filter="url(#filter1_f_1058_987)">
<path d="M83.8594 55.5402C82.7494 59.8521 78.5182 61.6258 74.6383 59.6141C70.3295 58.3815 68.3238 54.3587 70.0445 50.6406C71.3224 47.0377 75.4508 45.2137 79.2657 46.5667C83.0805 47.9197 85.1372 51.9373 83.8594 55.5402Z" fill="#FFEAAF"/>
</g>
<path d="M83.8594 55.5402C82.7495 59.8521 77.8143 63.6107 73.9343 61.599C69.6256 60.3664 68.3238 54.3587 70.0446 50.6406C71.3224 47.0377 75.4508 45.2137 79.2657 46.5667C83.0805 47.9197 85.1372 51.9373 83.8594 55.5402Z" fill="#FFEAAF"/>
<path d="M124.405 57.6932C127.481 57.8432 129.011 58.3659 131.248 60.3187L128.331 67.9215L121.488 65.2961L124.405 57.6932Z" fill="#424242"/>
<g filter="url(#filter2_f_1058_987)">
<path d="M129.738 74.5669C128.518 78.8491 124.243 80.5142 120.416 78.404C116.14 77.0617 114.238 72.989 116.053 69.3161C117.422 65.747 121.596 64.0291 125.375 65.4791C129.154 66.9291 131.107 70.9978 129.738 74.5669Z" fill="#FFEAAF"/>
</g>
<path d="M129.738 74.5669C128.518 78.8491 123.489 82.4805 119.661 80.3702C115.385 79.028 114.238 72.989 116.053 69.3161C117.422 65.747 121.596 64.0291 125.375 65.4791C129.154 66.9291 131.107 70.9978 129.738 74.5669Z" fill="#FFEAAF"/>
<path d="M170.305 76.5642C173.382 76.6858 174.917 77.1944 177.171 79.1264L174.324 86.7559L167.458 84.1937L170.305 76.5642Z" fill="#424242"/>
<g filter="url(#filter3_f_1058_987)">
<path d="M175.792 93.3877C174.612 97.6809 170.353 99.3853 166.506 97.3105C162.218 96.0078 160.278 91.9528 162.059 88.2633C163.396 84.6817 167.553 82.9254 171.346 84.3404C175.138 85.7555 177.129 89.8061 175.792 93.3877Z" fill="#FFEAAF"/>
</g>
<path d="M175.792 93.3877C174.612 97.6809 169.616 101.359 165.77 99.2837C161.482 97.9809 160.278 91.9528 162.059 88.2633C163.396 84.6817 167.553 82.9254 171.346 84.3405C175.138 85.7555 177.129 89.8061 175.792 93.3877Z" fill="#FFEAAF"/>
<path d="M215.111 90.7403C218.184 90.5443 219.763 90.8922 222.204 92.5819L220.158 100.464L213.064 98.6223L215.111 90.7403Z" fill="#424242"/>
<g filter="url(#filter4_f_1058_987)">
<path d="M222.301 106.91C221.57 111.302 217.508 113.436 213.468 111.768C209.069 110.914 206.722 107.08 208.114 103.227C209.074 99.5265 213.029 97.3515 216.947 98.3686C220.865 99.3857 223.262 103.21 222.301 106.91Z" fill="#FFEAAF"/>
</g>
<path d="M222.301 106.91C221.57 111.302 216.979 115.474 212.939 113.807C208.54 112.952 206.722 107.08 208.114 103.227C209.074 99.5266 213.029 97.3515 216.947 98.3686C220.865 99.3857 223.262 103.21 222.301 106.91Z" fill="#FFEAAF"/>
<path d="M262.415 102.658C265.457 102.182 267.061 102.384 269.647 103.843L268.331 111.879L261.099 110.695L262.415 102.658Z" fill="#424242"/>
<g filter="url(#filter5_f_1058_987)">
<path d="M271.056 118.101C270.729 122.542 266.88 125.039 262.705 123.748C258.246 123.3 255.557 119.697 256.591 115.733C257.208 111.96 260.947 109.432 264.942 110.086C268.936 110.74 271.674 114.329 271.056 118.101Z" fill="#FFEAAF"/>
</g>
<path d="M271.056 118.101C270.729 122.542 266.54 127.117 262.364 125.826C257.905 125.378 255.557 119.697 256.591 115.733C257.208 111.96 260.947 109.432 264.942 110.086C268.936 110.74 271.674 114.329 271.056 118.101Z" fill="#FFEAAF"/>
<path d="M305.1 109.337C308.101 108.643 309.715 108.73 312.399 109.999L311.663 118.109L304.364 117.447L305.1 109.337Z" fill="#424242"/>
<g filter="url(#filter6_f_1058_987)">
<path d="M314.827 124.121C314.82 128.573 311.16 131.339 306.903 130.351C302.423 130.225 299.483 126.824 300.229 122.795C300.575 118.988 304.123 116.199 308.154 116.565C312.185 116.93 315.173 120.313 314.827 124.121Z" fill="#FFEAAF"/>
</g>
<path d="M314.827 124.121C314.82 128.573 310.97 133.437 306.712 132.449C302.232 132.322 299.483 126.824 300.229 122.795C300.575 118.988 304.123 116.199 308.154 116.565C312.185 116.93 315.173 120.313 314.827 124.121Z" fill="#FFEAAF"/>
<path d="M349.052 112.548C351.978 111.586 353.594 111.526 356.381 112.548V120.691H349.052V112.548Z" fill="#424242"/>
<g filter="url(#filter7_f_1058_987)">
<path d="M360.076 126.391C360.471 130.826 357.076 133.912 352.747 133.313C348.274 133.592 345.039 130.471 345.418 126.391C345.418 122.568 348.699 119.469 352.747 119.469C356.795 119.469 360.076 122.568 360.076 126.391Z" fill="#FFEAAF"/>
</g>
<path d="M360.076 126.391C360.471 130.826 357.076 136.018 352.747 135.419C348.274 135.698 345.039 130.471 345.418 126.391C345.418 122.568 348.699 119.469 352.747 119.469C356.795 119.469 360.076 122.568 360.076 126.391Z" fill="#FFEAAF"/>
<path d="M393.114 111.773C395.941 110.551 397.545 110.345 400.413 111.111L401.149 119.221L393.851 119.883L393.114 111.773Z" fill="#424242"/>
<g filter="url(#filter8_f_1058_987)">
<path d="M405.344 124.563C406.138 128.944 403.036 132.325 398.67 132.119C394.241 132.801 390.737 129.985 390.746 125.888C390.4 122.081 393.388 118.698 397.419 118.332C401.45 117.967 404.998 120.756 405.344 124.563Z" fill="#FFEAAF"/>
</g>
<path d="M405.344 124.563C406.138 128.944 403.227 134.422 398.861 134.217C394.431 134.899 390.737 129.985 390.746 125.888C390.4 122.081 393.388 118.698 397.419 118.332C401.45 117.967 404.998 120.756 405.344 124.563Z" fill="#FFEAAF"/>
<path d="M436.928 109.376C439.632 107.903 441.211 107.553 444.137 108.057L445.603 116.067L438.394 117.387L436.928 109.376Z" fill="#424242"/>
<g filter="url(#filter9_f_1058_987)">
<path d="M450.264 121.009C451.452 125.3 448.668 128.947 444.302 129.137C439.952 130.217 436.208 127.729 435.846 123.648C435.158 119.888 437.827 116.249 441.809 115.52C445.79 114.791 449.576 117.249 450.264 121.009Z" fill="#FFEAAF"/>
</g>
<path d="M450.264 121.009C451.452 125.3 449.047 131.019 444.681 131.209C440.331 132.288 436.208 127.729 435.846 123.648C435.158 119.888 437.827 116.249 441.809 115.52C445.79 114.791 449.576 117.249 450.264 121.009Z" fill="#FFEAAF"/>
<path d="M480.132 103.039C482.692 101.328 484.233 100.837 487.192 101.073L489.377 108.918L482.316 110.884L480.132 103.039Z" fill="#424242"/>
<g filter="url(#filter10_f_1058_987)">
<path d="M494.465 113.419C496.036 117.585 493.593 121.469 489.262 122.053C485.027 123.521 481.074 121.382 480.344 117.351C479.319 113.668 481.649 109.802 485.548 108.716C489.448 107.631 493.44 109.736 494.465 113.419Z" fill="#FFEAAF"/>
</g>
<path d="M494.465 113.419C496.036 117.585 494.158 123.498 489.826 124.082C485.592 125.55 481.074 121.382 480.344 117.351C479.319 113.668 481.649 109.802 485.548 108.716C489.448 107.631 493.44 109.736 494.465 113.419Z" fill="#FFEAAF"/>
<path d="M522.371 94.0125C524.766 92.0766 526.256 91.4481 529.225 91.4164L532.11 99.0317L525.256 101.628L522.371 94.0125Z" fill="#424242"/>
<g filter="url(#filter11_f_1058_987)">
<path d="M537.584 103.054C539.525 107.061 537.443 111.149 533.182 112.123C529.098 113.968 524.967 112.195 523.877 108.246C522.523 104.671 524.493 100.61 528.279 99.1767C532.064 97.7429 536.23 99.4787 537.584 103.054Z" fill="#FFEAAF"/>
</g>
<path d="M537.584 103.054C539.525 107.061 538.189 113.119 533.928 114.092C529.844 115.937 524.967 112.195 523.877 108.246C522.523 104.671 524.493 100.61 528.279 99.1767C532.064 97.7429 536.23 99.4787 537.584 103.054Z" fill="#FFEAAF"/>
<path d="M563.304 82.3979C565.515 80.2534 566.941 79.4928 569.895 79.1929L573.456 86.5162L566.865 89.7212L563.304 82.3979Z" fill="#424242"/>
<g filter="url(#filter12_f_1058_987)">
<path d="M579.272 90.0273C581.566 93.8428 579.863 98.1028 575.707 99.4572C571.807 101.664 567.533 100.272 566.089 96.4373C564.418 92.9994 566.013 88.7775 569.654 87.0074C573.294 85.2374 577.6 86.5894 579.272 90.0273Z" fill="#FFEAAF"/>
</g>
<path d="M579.272 90.0273C581.566 93.8428 580.784 99.9968 576.628 101.351C572.728 103.558 567.533 100.272 566.089 96.4373C564.418 92.9994 566.013 88.7775 569.654 87.0074C573.294 85.2373 577.6 86.5894 579.272 90.0273Z" fill="#FFEAAF"/>
<path d="M603.77 69.5015C605.777 67.1661 607.129 66.2796 610.044 65.7138L614.252 72.6853L607.978 76.473L603.77 69.5015Z" fill="#424242"/>
<g filter="url(#filter13_f_1058_987)">
<path d="M620.362 75.656C622.992 79.2484 621.681 83.6449 617.665 85.3694C613.98 87.9195 609.597 86.9196 607.813 83.2314C605.838 79.9586 607.045 75.6098 610.51 73.5179C613.976 71.426 618.386 72.3833 620.362 75.656Z" fill="#FFEAAF"/>
</g>
<path d="M620.362 75.656C622.992 79.2484 622.769 85.4479 618.753 87.1724C615.068 89.7225 609.597 86.9196 607.813 83.2313C605.838 79.9586 607.045 75.6098 610.51 73.5179C613.976 71.426 618.386 72.3833 620.362 75.656Z" fill="#FFEAAF"/>
<path d="M641.287 55.0784C643.498 52.9349 644.926 52.1749 647.88 51.8761L651.438 59.2009L644.845 62.4033L641.287 55.0784Z" fill="#424242"/>
<g filter="url(#filter14_f_1058_987)">
<path d="M657.252 62.714C659.545 66.5305 657.84 70.7897 653.684 72.1425C649.782 74.3474 645.508 72.9537 644.067 69.1187C642.397 65.6801 643.994 61.4589 647.635 59.6903C651.276 57.9217 655.581 59.2754 657.252 62.714Z" fill="#FFEAAF"/>
</g>
<path d="M657.252 62.714C659.545 66.5305 658.76 72.6841 654.604 74.0368C650.702 76.2418 645.509 72.9537 644.067 69.1187C642.397 65.6801 643.994 61.4589 647.635 59.6903C651.276 57.9217 655.581 59.2754 657.252 62.714Z" fill="#FFEAAF"/>
<defs>
<filter id="filter0_f_1058_987" x="18.6127" y="16.1678" width="33.2052" height="32.6576" filterUnits="userSpaceOnUse" color-interpolation-filters="sRGB">
<feFlood flood-opacity="0" result="BackgroundImageFix"/>
<feBlend mode="normal" in="SourceGraphic" in2="BackgroundImageFix" result="shape"/>
<feGaussianBlur stdDeviation="4.6" result="effect1_foregroundBlur_1058_987"/>
</filter>
<filter id="filter1_f_1058_987" x="60.2299" y="36.92" width="33.2086" height="32.721" filterUnits="userSpaceOnUse" color-interpolation-filters="sRGB">
<feFlood flood-opacity="0" result="BackgroundImageFix"/>
<feBlend mode="normal" in="SourceGraphic" in2="BackgroundImageFix" result="shape"/>
<feGaussianBlur stdDeviation="4.6" result="effect1_foregroundBlur_1058_987"/>
</filter>
<filter id="filter2_f_1058_987" x="106.167" y="55.7643" width="33.2081" height="32.7514" filterUnits="userSpaceOnUse" color-interpolation-filters="sRGB">
<feFlood flood-opacity="0" result="BackgroundImageFix"/>
<feBlend mode="normal" in="SourceGraphic" in2="BackgroundImageFix" result="shape"/>
<feGaussianBlur stdDeviation="4.6" result="effect1_foregroundBlur_1058_987"/>
</filter>
<filter id="filter3_f_1058_987" x="152.2" y="74.6508" width="33.2086" height="32.7405" filterUnits="userSpaceOnUse" color-interpolation-filters="sRGB">
<feFlood flood-opacity="0" result="BackgroundImageFix"/>
<feBlend mode="normal" in="SourceGraphic" in2="BackgroundImageFix" result="shape"/>
<feGaussianBlur stdDeviation="4.6" result="effect1_foregroundBlur_1058_987"/>
</filter>
<filter id="filter4_f_1058_987" x="198.514" y="88.9183" width="33.1998" height="32.6159" filterUnits="userSpaceOnUse" color-interpolation-filters="sRGB">
<feFlood flood-opacity="0" result="BackgroundImageFix"/>
<feBlend mode="normal" in="SourceGraphic" in2="BackgroundImageFix" result="shape"/>
<feGaussianBlur stdDeviation="4.6" result="effect1_foregroundBlur_1058_987"/>
</filter>
<filter id="filter5_f_1058_987" x="247.17" y="100.783" width="33.1729" height="32.5044" filterUnits="userSpaceOnUse" color-interpolation-filters="sRGB">
<feFlood flood-opacity="0" result="BackgroundImageFix"/>
<feBlend mode="normal" in="SourceGraphic" in2="BackgroundImageFix" result="shape"/>
<feGaussianBlur stdDeviation="4.6" result="effect1_foregroundBlur_1058_987"/>
</filter>
<filter id="filter6_f_1058_987" x="290.914" y="107.332" width="33.1407" height="32.4192" filterUnits="userSpaceOnUse" color-interpolation-filters="sRGB">
<feFlood flood-opacity="0" result="BackgroundImageFix"/>
<feBlend mode="normal" in="SourceGraphic" in2="BackgroundImageFix" result="shape"/>
<feGaussianBlur stdDeviation="4.6" result="effect1_foregroundBlur_1058_987"/>
</filter>
<filter id="filter7_f_1058_987" x="336.188" y="110.269" width="33.1192" height="32.318" filterUnits="userSpaceOnUse" color-interpolation-filters="sRGB">
<feFlood flood-opacity="0" result="BackgroundImageFix"/>
<feBlend mode="normal" in="SourceGraphic" in2="BackgroundImageFix" result="shape"/>
<feGaussianBlur stdDeviation="4.6" result="effect1_foregroundBlur_1058_987"/>
</filter>
<filter id="filter8_f_1058_987" x="381.519" y="109.1" width="33.1495" height="32.321" filterUnits="userSpaceOnUse" color-interpolation-filters="sRGB">
<feFlood flood-opacity="0" result="BackgroundImageFix"/>
<feBlend mode="normal" in="SourceGraphic" in2="BackgroundImageFix" result="shape"/>
<feGaussianBlur stdDeviation="4.6" result="effect1_foregroundBlur_1058_987"/>
</filter>
<filter id="filter9_f_1058_987" x="426.538" y="106.192" width="33.2013" height="32.3976" filterUnits="userSpaceOnUse" color-interpolation-filters="sRGB">
<feFlood flood-opacity="0" result="BackgroundImageFix"/>
<feBlend mode="normal" in="SourceGraphic" in2="BackgroundImageFix" result="shape"/>
<feGaussianBlur stdDeviation="4.6" result="effect1_foregroundBlur_1058_987"/>
</filter>
<filter id="filter10_f_1058_987" x="470.903" y="99.2309" width="33.2408" height="32.4857" filterUnits="userSpaceOnUse" color-interpolation-filters="sRGB">
<feFlood flood-opacity="0" result="BackgroundImageFix"/>
<feBlend mode="normal" in="SourceGraphic" in2="BackgroundImageFix" result="shape"/>
<feGaussianBlur stdDeviation="4.6" result="effect1_foregroundBlur_1058_987"/>
</filter>
<filter id="filter11_f_1058_987" x="514.249" y="89.4736" width="33.2652" height="32.5806" filterUnits="userSpaceOnUse" color-interpolation-filters="sRGB">
<feFlood flood-opacity="0" result="BackgroundImageFix"/>
<feBlend mode="normal" in="SourceGraphic" in2="BackgroundImageFix" result="shape"/>
<feGaussianBlur stdDeviation="4.6" result="effect1_foregroundBlur_1058_987"/>
</filter>
<filter id="filter12_f_1058_987" x="556.226" y="77.0293" width="33.2735" height="32.6786" filterUnits="userSpaceOnUse" color-interpolation-filters="sRGB">
<feFlood flood-opacity="0" result="BackgroundImageFix"/>
<feBlend mode="normal" in="SourceGraphic" in2="BackgroundImageFix" result="shape"/>
<feGaussianBlur stdDeviation="4.6" result="effect1_foregroundBlur_1058_987"/>
</filter>
<filter id="filter13_f_1058_987" x="597.664" y="63.2099" width="33.2643" height="32.7762" filterUnits="userSpaceOnUse" color-interpolation-filters="sRGB">
<feFlood flood-opacity="0" result="BackgroundImageFix"/>
<feBlend mode="normal" in="SourceGraphic" in2="BackgroundImageFix" result="shape"/>
<feGaussianBlur stdDeviation="4.6" result="effect1_foregroundBlur_1058_987"/>
</filter>
<filter id="filter14_f_1058_987" x="634.205" y="49.7135" width="33.2735" height="32.6782" filterUnits="userSpaceOnUse" color-interpolation-filters="sRGB">
<feFlood flood-opacity="0" result="BackgroundImageFix"/>
<feBlend mode="normal" in="SourceGraphic" in2="BackgroundImageFix" result="shape"/>
<feGaussianBlur stdDeviation="4.6" result="effect1_foregroundBlur_1058_987"/>
</filter>
</defs>
</svg>
