<svg width="739" height="664" viewBox="0 0 739 664" fill="none" xmlns="http://www.w3.org/2000/svg">
<path d="M1.5 110.803C250.303 236.039 394.403 264.214 669.219 152.683" stroke="#424242" stroke-width="3" stroke-linecap="round"/>
<path d="M35.7123 127.306C38.7906 127.215 40.3568 127.617 42.7389 129.389L40.4241 137.196L33.3975 135.113L35.7123 127.306Z" fill="#424242"/>
<g filter="url(#filter0_f_1778_7)">
<path d="M42.346 143.712C41.4643 148.076 37.3322 150.07 33.3518 148.265C28.9843 147.26 26.7698 143.348 28.2928 139.545C29.3794 135.88 33.4063 133.841 37.287 134.992C41.1677 136.143 43.4327 140.047 42.346 143.712Z" fill="#FFEAAF"/>
</g>
<path d="M42.3461 143.712C41.4643 148.076 36.7335 152.089 32.7532 150.284C28.3856 149.279 26.7698 143.348 28.2928 139.545C29.3794 135.88 33.4063 133.841 37.287 134.992C41.1677 136.143 43.4327 140.047 42.3461 143.712Z" fill="#FFEAAF"/>
<path d="M78.096 148.111C81.1748 148.183 82.7178 148.666 85.0034 150.561L82.2814 158.236L75.374 155.786L78.096 148.111Z" fill="#424242"/>
<g filter="url(#filter1_f_1778_7)">
<path d="M83.8586 164.843C82.7487 169.155 78.5175 170.929 74.6375 168.917C70.3288 167.685 68.323 163.662 70.0438 159.944C71.3216 156.341 75.4501 154.517 79.2649 155.87C83.0798 157.223 85.1365 161.24 83.8586 164.843Z" fill="#FFEAAF"/>
</g>
<path d="M83.8587 164.843C82.7487 169.155 77.8135 172.914 73.9336 170.902C69.6248 169.669 68.323 163.662 70.0438 159.944C71.3216 156.341 75.4501 154.517 79.2649 155.87C83.0798 157.223 85.1365 161.24 83.8587 164.843Z" fill="#FFEAAF"/>
<path d="M124.405 166.996C127.481 167.146 129.011 167.669 131.248 169.622L128.331 177.225L121.488 174.599L124.405 166.996Z" fill="#424242"/>
<g filter="url(#filter2_f_1778_7)">
<path d="M129.738 183.87C128.518 188.152 124.243 189.817 120.415 187.707C116.14 186.365 114.237 182.292 116.052 178.619C117.422 175.05 121.596 173.332 125.375 174.782C129.154 176.232 131.107 180.301 129.738 183.87Z" fill="#FFEAAF"/>
</g>
<path d="M129.738 183.87C128.518 188.152 123.488 191.783 119.661 189.673C115.385 188.331 114.237 182.292 116.052 178.619C117.422 175.05 121.596 173.332 125.375 174.782C129.154 176.232 131.107 180.301 129.738 183.87Z" fill="#FFEAAF"/>
<path d="M170.305 185.868C173.383 185.989 174.917 186.498 177.172 188.43L174.325 196.059L167.458 193.497L170.305 185.868Z" fill="#424242"/>
<g filter="url(#filter3_f_1778_7)">
<path d="M175.793 202.691C174.612 206.984 170.353 208.688 166.506 206.614C162.218 205.311 160.278 201.256 162.06 197.566C163.396 193.985 167.554 192.228 171.346 193.644C175.138 195.059 177.129 199.109 175.793 202.691Z" fill="#FFEAAF"/>
</g>
<path d="M175.793 202.691C174.612 206.984 169.617 210.662 165.77 208.587C161.482 207.284 160.278 201.256 162.06 197.566C163.396 193.985 167.554 192.228 171.346 193.644C175.138 195.059 177.129 199.109 175.793 202.691Z" fill="#FFEAAF"/>
<path d="M215.11 200.043C218.183 199.848 219.762 200.195 222.204 201.885L220.157 209.767L213.064 207.926L215.11 200.043Z" fill="#424242"/>
<g filter="url(#filter4_f_1778_7)">
<path d="M222.301 216.213C221.569 220.605 217.507 222.739 213.468 221.071C209.068 220.217 206.721 216.383 208.113 212.53C209.074 208.83 213.028 206.655 216.946 207.672C220.864 208.689 223.261 212.513 222.301 216.213Z" fill="#FFEAAF"/>
</g>
<path d="M222.301 216.213C221.569 220.605 216.978 224.777 212.938 223.11C208.539 222.255 206.721 216.383 208.113 212.53C209.074 208.83 213.028 206.655 216.946 207.672C220.864 208.689 223.261 212.513 222.301 216.213Z" fill="#FFEAAF"/>
<path d="M262.415 211.962C265.457 211.485 267.062 211.687 269.648 213.146L268.332 221.182L261.099 219.998L262.415 211.962Z" fill="#424242"/>
<g filter="url(#filter5_f_1778_7)">
<path d="M271.056 227.405C270.729 231.845 266.88 234.342 262.705 233.051C258.246 232.603 255.558 229 256.591 225.036C257.209 221.263 260.948 218.735 264.942 219.389C268.937 220.044 271.674 223.632 271.056 227.405Z" fill="#FFEAAF"/>
</g>
<path d="M271.056 227.405C270.73 231.845 266.54 236.42 262.365 235.129C257.905 234.682 255.558 229 256.591 225.036C257.209 221.263 260.948 218.735 264.942 219.389C268.937 220.044 271.674 223.632 271.056 227.405Z" fill="#FFEAAF"/>
<path d="M305.1 218.64C308.1 217.946 309.715 218.033 312.399 219.303L311.663 227.412L304.364 226.75L305.1 218.64Z" fill="#424242"/>
<g filter="url(#filter6_f_1778_7)">
<path d="M314.826 233.424C314.819 237.876 311.159 240.643 306.902 239.655C302.422 239.528 299.482 236.127 300.229 232.099C300.574 228.291 304.122 225.502 308.153 225.868C312.184 226.234 315.172 229.616 314.826 233.424Z" fill="#FFEAAF"/>
</g>
<path d="M314.826 233.424C314.819 237.876 310.969 242.74 306.711 241.752C302.232 241.625 299.482 236.127 300.229 232.099C300.574 228.291 304.122 225.502 308.153 225.868C312.184 226.234 315.172 229.616 314.826 233.424Z" fill="#FFEAAF"/>
<path d="M349.053 221.851C351.978 220.889 353.594 220.829 356.382 221.851V229.994H349.053V221.851Z" fill="#424242"/>
<g filter="url(#filter7_f_1778_7)">
<path d="M360.076 235.694C360.471 240.129 357.076 243.215 352.747 242.616C348.274 242.895 345.039 239.774 345.418 235.694C345.418 231.871 348.699 228.772 352.747 228.772C356.794 228.772 360.076 231.871 360.076 235.694Z" fill="#FFEAAF"/>
</g>
<path d="M360.076 235.694C360.471 240.129 357.076 245.321 352.747 244.722C348.274 245.001 345.039 239.774 345.418 235.694C345.418 231.871 348.699 228.772 352.747 228.772C356.795 228.772 360.076 231.871 360.076 235.694Z" fill="#FFEAAF"/>
<path d="M393.113 221.077C395.94 219.854 397.544 219.648 400.412 220.414L401.148 228.524L393.849 229.187L393.113 221.077Z" fill="#424242"/>
<g filter="url(#filter8_f_1778_7)">
<path d="M405.344 233.867C406.138 238.248 403.036 241.628 398.67 241.423C394.241 242.104 390.737 239.289 390.746 235.192C390.4 231.385 393.388 228.002 397.419 227.636C401.45 227.27 404.998 230.06 405.344 233.867Z" fill="#FFEAAF"/>
</g>
<path d="M405.344 233.867C406.138 238.248 403.226 243.725 398.861 243.52C394.431 244.202 390.737 239.289 390.746 235.192C390.4 231.385 393.388 228.002 397.419 227.636C401.45 227.27 404.998 230.06 405.344 233.867Z" fill="#FFEAAF"/>
<path d="M436.927 218.679C439.631 217.207 441.21 216.856 444.136 217.36L445.602 225.37L438.393 226.69L436.927 218.679Z" fill="#424242"/>
<g filter="url(#filter9_f_1778_7)">
<path d="M450.264 230.312C451.451 234.603 448.667 238.25 444.301 238.44C439.951 239.52 436.207 237.032 435.845 232.951C435.157 229.191 437.827 225.552 441.808 224.823C445.79 224.094 449.575 226.552 450.264 230.312Z" fill="#FFEAAF"/>
</g>
<path d="M450.264 230.312C451.451 234.603 449.046 240.322 444.68 240.512C440.33 241.591 436.207 237.032 435.845 232.951C435.157 229.191 437.827 225.552 441.808 224.823C445.79 224.094 449.575 226.552 450.264 230.312Z" fill="#FFEAAF"/>
<path d="M480.132 212.342C482.693 210.631 484.233 210.14 487.193 210.376L489.377 218.221L482.317 220.187L480.132 212.342Z" fill="#424242"/>
<g filter="url(#filter10_f_1778_7)">
<path d="M494.465 222.722C496.036 226.888 493.593 230.772 489.262 231.356C485.028 232.824 481.074 230.685 480.345 226.654C479.319 222.971 481.649 219.105 485.548 218.02C489.448 216.934 493.44 219.039 494.465 222.722Z" fill="#FFEAAF"/>
</g>
<path d="M494.466 222.722C496.036 226.888 494.158 232.801 489.827 233.385C485.592 234.853 481.074 230.685 480.345 226.654C479.319 222.971 481.649 219.105 485.548 218.02C489.448 216.934 493.44 219.039 494.466 222.722Z" fill="#FFEAAF"/>
<path d="M522.371 203.315C524.766 201.38 526.256 200.751 529.225 200.719L532.109 208.335L525.256 210.931L522.371 203.315Z" fill="#424242"/>
<g filter="url(#filter11_f_1778_7)">
<path d="M537.584 212.357C539.525 216.364 537.443 220.452 533.182 221.426C529.098 223.271 524.967 221.498 523.877 217.549C522.522 213.974 524.493 209.913 528.278 208.48C532.064 207.046 536.23 208.782 537.584 212.357Z" fill="#FFEAAF"/>
</g>
<path d="M537.584 212.357C539.525 216.364 538.189 222.422 533.928 223.395C529.844 225.24 524.967 221.498 523.877 217.549C522.522 213.974 524.493 209.913 528.278 208.48C532.064 207.046 536.23 208.782 537.584 212.357Z" fill="#FFEAAF"/>
<path d="M563.304 191.701C565.514 189.557 566.941 188.796 569.895 188.496L573.456 195.819L566.865 199.024L563.304 191.701Z" fill="#424242"/>
<g filter="url(#filter12_f_1778_7)">
<path d="M579.271 199.33C581.566 203.146 579.863 207.406 575.707 208.76C571.806 210.967 567.532 209.575 566.089 205.741C564.417 202.303 566.013 198.081 569.653 196.311C573.293 194.541 577.6 195.893 579.271 199.33Z" fill="#FFEAAF"/>
</g>
<path d="M579.271 199.33C581.566 203.146 580.784 209.3 576.628 210.654C572.727 212.861 567.532 209.575 566.089 205.74C564.417 202.303 566.013 198.081 569.653 196.311C573.293 194.541 577.6 195.893 579.271 199.33Z" fill="#FFEAAF"/>
<path d="M603.769 178.805C605.777 176.469 607.129 175.583 610.044 175.017L614.252 181.988L607.978 185.776L603.769 178.805Z" fill="#424242"/>
<g filter="url(#filter13_f_1778_7)">
<path d="M620.362 184.959C622.992 188.552 621.681 192.948 617.665 194.673C613.979 197.223 609.597 196.223 607.813 192.534C605.837 189.262 607.045 184.913 610.51 182.821C613.975 180.729 618.386 181.686 620.362 184.959Z" fill="#FFEAAF"/>
</g>
<path d="M620.362 184.959C622.992 188.552 622.769 194.751 618.753 196.476C615.068 199.026 609.597 196.223 607.813 192.534C605.837 189.262 607.045 184.913 610.51 182.821C613.975 180.729 618.386 181.686 620.362 184.959Z" fill="#FFEAAF"/>
<path d="M641.286 164.382C643.497 162.238 644.924 161.478 647.878 161.179L651.437 168.504L644.844 171.707L641.286 164.382Z" fill="#424242"/>
<g filter="url(#filter14_f_1778_7)">
<path d="M657.251 172.017C659.544 175.834 657.839 180.093 653.683 181.446C649.781 183.651 645.508 182.257 644.066 178.422C642.396 174.983 643.993 170.762 647.634 168.993C651.275 167.225 655.581 168.579 657.251 172.017Z" fill="#FFEAAF"/>
</g>
<path d="M657.251 172.017C659.544 175.834 658.759 181.987 654.603 183.34C650.702 185.545 645.508 182.257 644.066 178.422C642.396 174.983 643.993 170.762 647.634 168.993C651.275 167.225 655.581 168.579 657.251 172.017Z" fill="#FFEAAF"/>
<g filter="url(#filter15_f_1778_7)">
<path d="M698.496 58.8521L689.303 129.61H694.451L702.541 58.7344L698.496 58.8521Z" fill="#FFEAAF"/>
<path d="M656.574 60.0725L669.445 129.61H673.122L660.252 59.9655L656.574 60.0725Z" fill="#FFEAAF"/>
<path d="M705.483 129.61L717.251 58.3062L702.541 58.7344L694.451 129.61H705.483Z" fill="#FFEAAF"/>
<path d="M660.252 59.9655L673.122 129.61H689.303L698.496 58.8521L660.252 59.9655Z" fill="#FFEAAF"/>
<path d="M641.497 60.5114L656.574 129.61H669.445L656.574 60.0725L641.497 60.5114Z" fill="#FFEAAF"/>
<path d="M669.445 129.61H656.574L641.497 60.5114L656.574 60.0725M669.445 129.61L656.574 60.0725M669.445 129.61H673.122M656.574 60.0725L660.252 59.9655M660.252 59.9655L673.122 129.61M660.252 59.9655L698.496 58.8521M673.122 129.61H689.303M689.303 129.61L698.496 58.8521M689.303 129.61H694.451M698.496 58.8521L702.541 58.7344M702.541 58.7344L717.251 58.3062L705.483 129.61H694.451M702.541 58.7344L694.451 129.61" stroke="#FFEAAF"/>
</g>
<path d="M716.744 61.4631C716.744 61.4631 736.969 52.2745 727.408 53.3771C717.847 54.4797 700.245 33.6677 693.944 33.1622C691.408 28.3955 689.108 25.8494 681.809 21.7683C679.731 14.4794 680.513 9.82533 681.809 1.5534C679.657 0.115713 678.447 0.182413 676.293 1.5534C677.118 11.9398 677.528 17.6049 676.293 21.7683C669.755 25.6098 667.974 28.2774 665.261 33.1622C657.26 30.0029 640.99 54.4797 630.326 53.3771C619.662 52.2745 640.99 63.6683 640.99 63.6683L656.067 63.2294L659.745 63.1224L697.989 62.009L702.034 61.8913L716.744 61.4631Z" fill="#424242"/>
<path d="M697.989 62.009L688.796 132.767H693.944L702.034 61.8913L697.989 62.009Z" fill="#424242"/>
<path d="M656.067 63.2294L668.938 132.767H672.615L659.745 63.1224L656.067 63.2294Z" fill="#424242"/>
<path d="M656.067 132.767C667.499 136.204 671.607 138.755 674.454 144.528C673.171 147.961 671.783 149.235 668.938 151.144L674.454 159.965V610.941H693.944L687.325 159.965L693.944 151.144C689.524 150.023 688.428 148.293 687.325 144.528C689.549 138.686 693.155 136.04 704.976 132.767H693.944H688.796H672.615H668.938H656.067Z" fill="#424242"/>
<path d="M693.944 610.941H674.454C670.268 611.425 668.036 612.353 664.158 614.617C665.116 620.788 666.503 623.145 670.409 625.275L655.7 631.156C653.04 645.794 661.624 648.941 681.073 652.474C702.163 652.771 709.97 649.277 710.86 631.156L696.15 625.275C699.189 621.948 700.403 619.772 700.563 614.617C698.713 612.828 697.31 612.037 693.944 610.941Z" fill="#424242"/>
<path d="M681.073 652.474C661.624 648.941 653.04 645.794 655.7 631.156C653.145 640.144 651.942 645.123 655.7 652.474C660.208 659.79 665.954 662.096 681.073 663.5C696.088 662.022 703.412 660.278 710.86 652.474C713.047 645.453 712.935 640.722 710.86 631.156C709.97 649.277 702.163 652.771 681.073 652.474Z" fill="#424242"/>
<path d="M704.976 132.767L716.744 61.4631L702.034 61.8913L693.944 132.767H704.976Z" fill="#FFEAAF"/>
<path d="M659.745 63.1224L672.615 132.767H688.796L697.989 62.009L659.745 63.1224Z" fill="#FFEAAF"/>
<path d="M640.99 63.6683L656.067 132.767H668.938L656.067 63.2294L640.99 63.6683Z" fill="#FFEAAF"/>
<path d="M656.067 132.767C667.499 136.204 671.607 138.755 674.454 144.528C673.171 147.961 671.783 149.235 668.938 151.144L674.454 159.965V610.941M656.067 132.767L640.99 63.6683M656.067 132.767H668.938M674.454 610.941H693.944M674.454 610.941C670.268 611.425 668.036 612.353 664.158 614.617C665.116 620.788 666.503 623.145 670.409 625.275L655.7 631.156M693.944 610.941L687.325 159.965L693.944 151.144C689.524 150.023 688.428 148.293 687.325 144.528C689.549 138.686 693.155 136.04 704.976 132.767M693.944 610.941C697.31 612.037 698.713 612.828 700.563 614.617C700.403 619.772 699.189 621.948 696.15 625.275L710.86 631.156M704.976 132.767L716.744 61.4631M704.976 132.767H693.944M716.744 61.4631C716.744 61.4631 736.969 52.2745 727.408 53.3771C717.847 54.4797 700.245 33.6677 693.944 33.1622C691.408 28.3955 689.108 25.8494 681.809 21.7683C679.731 14.4794 680.513 9.82533 681.809 1.5534C679.657 0.115713 678.447 0.182413 676.293 1.5534C677.118 11.9398 677.528 17.6049 676.293 21.7683C669.755 25.6098 667.974 28.2774 665.261 33.1622C657.26 30.0029 640.99 54.4797 630.326 53.3771C619.662 52.2745 640.99 63.6683 640.99 63.6683M716.744 61.4631L702.034 61.8913M640.99 63.6683L656.067 63.2294M655.7 631.156C653.04 645.794 661.624 648.941 681.073 652.474C702.163 652.771 709.97 649.277 710.86 631.156M655.7 631.156C653.145 640.144 651.942 645.123 655.7 652.474C660.208 659.79 665.954 662.096 681.073 663.5C696.088 662.022 703.412 660.278 710.86 652.474C713.047 645.453 712.935 640.722 710.86 631.156M668.938 132.767L656.067 63.2294M668.938 132.767H672.615M656.067 63.2294L659.745 63.1224M659.745 63.1224L672.615 132.767M659.745 63.1224L697.989 62.009M672.615 132.767H688.796M688.796 132.767L697.989 62.009M688.796 132.767H693.944M697.989 62.009L702.034 61.8913M702.034 61.8913L693.944 132.767" stroke="#424242"/>
<defs>
<filter id="filter0_f_1778_7" x="18.6125" y="125.471" width="33.2057" height="32.6576" filterUnits="userSpaceOnUse" color-interpolation-filters="sRGB">
<feFlood flood-opacity="0" result="BackgroundImageFix"/>
<feBlend mode="normal" in="SourceGraphic" in2="BackgroundImageFix" result="shape"/>
<feGaussianBlur stdDeviation="4.6" result="effect1_foregroundBlur_1778_7"/>
</filter>
<filter id="filter1_f_1778_7" x="60.2287" y="146.223" width="33.2096" height="32.721" filterUnits="userSpaceOnUse" color-interpolation-filters="sRGB">
<feFlood flood-opacity="0" result="BackgroundImageFix"/>
<feBlend mode="normal" in="SourceGraphic" in2="BackgroundImageFix" result="shape"/>
<feGaussianBlur stdDeviation="4.6" result="effect1_foregroundBlur_1778_7"/>
</filter>
<filter id="filter2_f_1778_7" x="106.167" y="165.067" width="33.2076" height="32.7514" filterUnits="userSpaceOnUse" color-interpolation-filters="sRGB">
<feFlood flood-opacity="0" result="BackgroundImageFix"/>
<feBlend mode="normal" in="SourceGraphic" in2="BackgroundImageFix" result="shape"/>
<feGaussianBlur stdDeviation="4.6" result="effect1_foregroundBlur_1778_7"/>
</filter>
<filter id="filter3_f_1778_7" x="152.199" y="183.954" width="33.2086" height="32.7406" filterUnits="userSpaceOnUse" color-interpolation-filters="sRGB">
<feFlood flood-opacity="0" result="BackgroundImageFix"/>
<feBlend mode="normal" in="SourceGraphic" in2="BackgroundImageFix" result="shape"/>
<feGaussianBlur stdDeviation="4.6" result="effect1_foregroundBlur_1778_7"/>
</filter>
<filter id="filter4_f_1778_7" x="198.513" y="198.221" width="33.1998" height="32.6161" filterUnits="userSpaceOnUse" color-interpolation-filters="sRGB">
<feFlood flood-opacity="0" result="BackgroundImageFix"/>
<feBlend mode="normal" in="SourceGraphic" in2="BackgroundImageFix" result="shape"/>
<feGaussianBlur stdDeviation="4.6" result="effect1_foregroundBlur_1778_7"/>
</filter>
<filter id="filter5_f_1778_7" x="247.17" y="210.086" width="33.1734" height="32.5045" filterUnits="userSpaceOnUse" color-interpolation-filters="sRGB">
<feFlood flood-opacity="0" result="BackgroundImageFix"/>
<feBlend mode="normal" in="SourceGraphic" in2="BackgroundImageFix" result="shape"/>
<feGaussianBlur stdDeviation="4.6" result="effect1_foregroundBlur_1778_7"/>
</filter>
<filter id="filter6_f_1778_7" x="290.913" y="216.635" width="33.1402" height="32.419" filterUnits="userSpaceOnUse" color-interpolation-filters="sRGB">
<feFlood flood-opacity="0" result="BackgroundImageFix"/>
<feBlend mode="normal" in="SourceGraphic" in2="BackgroundImageFix" result="shape"/>
<feGaussianBlur stdDeviation="4.6" result="effect1_foregroundBlur_1778_7"/>
</filter>
<filter id="filter7_f_1778_7" x="336.188" y="219.572" width="33.1197" height="32.318" filterUnits="userSpaceOnUse" color-interpolation-filters="sRGB">
<feFlood flood-opacity="0" result="BackgroundImageFix"/>
<feBlend mode="normal" in="SourceGraphic" in2="BackgroundImageFix" result="shape"/>
<feGaussianBlur stdDeviation="4.6" result="effect1_foregroundBlur_1778_7"/>
</filter>
<filter id="filter8_f_1778_7" x="381.519" y="218.404" width="33.149" height="32.3211" filterUnits="userSpaceOnUse" color-interpolation-filters="sRGB">
<feFlood flood-opacity="0" result="BackgroundImageFix"/>
<feBlend mode="normal" in="SourceGraphic" in2="BackgroundImageFix" result="shape"/>
<feGaussianBlur stdDeviation="4.6" result="effect1_foregroundBlur_1778_7"/>
</filter>
<filter id="filter9_f_1778_7" x="426.537" y="215.495" width="33.2008" height="32.3978" filterUnits="userSpaceOnUse" color-interpolation-filters="sRGB">
<feFlood flood-opacity="0" result="BackgroundImageFix"/>
<feBlend mode="normal" in="SourceGraphic" in2="BackgroundImageFix" result="shape"/>
<feGaussianBlur stdDeviation="4.6" result="effect1_foregroundBlur_1778_7"/>
</filter>
<filter id="filter10_f_1778_7" x="470.903" y="208.534" width="33.2408" height="32.4857" filterUnits="userSpaceOnUse" color-interpolation-filters="sRGB">
<feFlood flood-opacity="0" result="BackgroundImageFix"/>
<feBlend mode="normal" in="SourceGraphic" in2="BackgroundImageFix" result="shape"/>
<feGaussianBlur stdDeviation="4.6" result="effect1_foregroundBlur_1778_7"/>
</filter>
<filter id="filter11_f_1778_7" x="514.249" y="198.777" width="33.2652" height="32.5807" filterUnits="userSpaceOnUse" color-interpolation-filters="sRGB">
<feFlood flood-opacity="0" result="BackgroundImageFix"/>
<feBlend mode="normal" in="SourceGraphic" in2="BackgroundImageFix" result="shape"/>
<feGaussianBlur stdDeviation="4.6" result="effect1_foregroundBlur_1778_7"/>
</filter>
<filter id="filter12_f_1778_7" x="556.226" y="186.332" width="33.273" height="32.6788" filterUnits="userSpaceOnUse" color-interpolation-filters="sRGB">
<feFlood flood-opacity="0" result="BackgroundImageFix"/>
<feBlend mode="normal" in="SourceGraphic" in2="BackgroundImageFix" result="shape"/>
<feGaussianBlur stdDeviation="4.6" result="effect1_foregroundBlur_1778_7"/>
</filter>
<filter id="filter13_f_1778_7" x="597.663" y="172.513" width="33.2652" height="32.776" filterUnits="userSpaceOnUse" color-interpolation-filters="sRGB">
<feFlood flood-opacity="0" result="BackgroundImageFix"/>
<feBlend mode="normal" in="SourceGraphic" in2="BackgroundImageFix" result="shape"/>
<feGaussianBlur stdDeviation="4.6" result="effect1_foregroundBlur_1778_7"/>
</filter>
<filter id="filter14_f_1778_7" x="634.203" y="159.017" width="33.274" height="32.6781" filterUnits="userSpaceOnUse" color-interpolation-filters="sRGB">
<feFlood flood-opacity="0" result="BackgroundImageFix"/>
<feBlend mode="normal" in="SourceGraphic" in2="BackgroundImageFix" result="shape"/>
<feGaussianBlur stdDeviation="4.6" result="effect1_foregroundBlur_1778_7"/>
</filter>
<filter id="filter15_f_1778_7" x="620.58" y="37.4888" width="117.563" height="112.921" filterUnits="userSpaceOnUse" color-interpolation-filters="sRGB">
<feFlood flood-opacity="0" result="BackgroundImageFix"/>
<feBlend mode="normal" in="SourceGraphic" in2="BackgroundImageFix" result="shape"/>
<feGaussianBlur stdDeviation="10.15" result="effect1_foregroundBlur_1778_7"/>
</filter>
</defs>
</svg>
