<svg width="154" height="178" viewBox="0 0 154 178" fill="none" xmlns="http://www.w3.org/2000/svg">
<path d="M8.6958 19.0745H145.024L135.871 158.591C135.181 169.106 126.451 177.282 115.914 177.282H39.5387C29.0964 177.282 20.4115 169.248 19.5993 158.838L8.6958 19.0745Z" fill="#D0E7FD" fill-opacity="0.49"/>
<path fill-rule="evenodd" clip-rule="evenodd" d="M138.291 25.2458H17.6721L25.8069 137.873C32.2287 130.733 34.5326 129.321 40.9545 135.721L46.0036 141.699C51.5971 149.405 55.5502 147.294 62.8342 141.699C73.3221 146.971 78.6045 147.291 85.275 135.721C96.8913 133.145 97.7458 130.085 105.191 137.873C109.913 140.405 116.538 148.351 117.534 135.721C122.381 119.625 125.511 125.99 132.12 127.112L138.291 25.2458Z" fill="#CEE889"/>
<path d="M27.8243 161.946C28.2585 167.127 32.5903 171.111 37.7894 171.111H119.77C125.027 171.111 129.387 167.039 129.746 161.794L132.12 127.112C125.511 125.99 122.381 119.625 117.534 135.721C116.538 148.351 109.913 140.405 105.191 137.873C97.7458 130.085 96.8913 133.145 85.275 135.721C78.6045 147.291 73.3221 146.971 62.8342 141.699C55.5502 147.294 51.5971 149.405 46.0036 141.699L40.9545 135.721C34.5326 129.321 32.2287 130.733 25.8069 137.873L27.8243 161.946Z" fill="#A5C05D"/>
<rect x="6.45166" y="9.53735" width="142.499" height="10.0984" fill="#D0E7FD" fill-opacity="0.49"/>
<path d="M6.45173 0H148.951L154 10.0984H0L6.45173 0Z" fill="#D0E7FD" fill-opacity="0.49"/>
<path d="M9.33671 2.80493H146.987L149.512 7.29309H5.89062L9.33671 2.80493Z" fill="#DBDBDB"/>
<path d="M12.0807 12.2078V17.3916H11.4524V12.2078H12.0807Z" fill="#A2A2A2"/>
<path d="M18.2534 12.2078V17.3916H17.6251V12.2078H18.2534Z" fill="#A2A2A2"/>
<path d="M24.4261 12.2078V17.3916H23.7977V12.2078H24.4261Z" fill="#A2A2A2"/>
<path d="M30.5987 12.2078V17.3916H29.9704V12.2078H30.5987Z" fill="#A2A2A2"/>
<path d="M36.7714 12.2078V17.3916H36.1431V12.2078H36.7714Z" fill="#A2A2A2"/>
<path d="M42.9441 12.2078V17.3916H42.3157V12.2078H42.9441Z" fill="#A2A2A2"/>
<path d="M49.1167 12.2078V17.3916H48.4884V12.2078H49.1167Z" fill="#A2A2A2"/>
<path d="M55.2894 12.2078V17.3916H54.6611V12.2078H55.2894Z" fill="#A2A2A2"/>
<path d="M61.4621 12.2078V17.3916H60.8337V12.2078H61.4621Z" fill="#A2A2A2"/>
<path d="M67.6347 12.2078V17.3916H67.0064V12.2078H67.6347Z" fill="#A2A2A2"/>
<path d="M73.8074 12.2078V17.3916H73.1791V12.2078H73.8074Z" fill="#A2A2A2"/>
<path d="M79.9801 12.2078V17.3916H79.3517V12.2078H79.9801Z" fill="#A2A2A2"/>
<path d="M86.1527 12.2078V17.3916H85.5244V12.2078H86.1527Z" fill="#A2A2A2"/>
<path d="M92.3254 12.2078V17.3916H91.6971V12.2078H92.3254Z" fill="#A2A2A2"/>
<path d="M98.4981 12.2078V17.3916H97.8697V12.2078H98.4981Z" fill="#A2A2A2"/>
<path d="M104.671 12.2078V17.3916H104.042V12.2078H104.671Z" fill="#A2A2A2"/>
<path d="M110.843 12.2078V17.3916H110.215V12.2078H110.843Z" fill="#A2A2A2"/>
<path d="M117.016 12.2078V17.3916H116.388V12.2078H117.016Z" fill="#A2A2A2"/>
<path d="M123.189 12.2078V17.3916H122.56V12.2078H123.189Z" fill="#A2A2A2"/>
<path d="M129.361 12.2078V17.3916H128.733V12.2078H129.361Z" fill="#A2A2A2"/>
<path d="M135.534 12.2078V17.3916H134.906V12.2078H135.534Z" fill="#A2A2A2"/>
<path d="M141.707 12.2078V17.3916H141.078V12.2078H141.707Z" fill="#A2A2A2"/>
<path d="M127.913 25.2458H119.928L107.716 171.111H114.996L127.913 25.2458Z" fill="white" fill-opacity="0.3"/>
<path fill-rule="evenodd" clip-rule="evenodd" d="M49.0394 46.3954C49.38 43.6551 47.4347 41.1575 44.6944 40.8168L32.7091 39.327C29.9688 38.9864 27.4712 40.9317 27.1305 43.672L25.8626 53.8719C25.522 56.6122 27.4673 59.1098 30.2076 59.4505L42.1929 60.9403C44.9332 61.281 47.4308 59.3356 47.7715 56.5953L49.0394 46.3954ZM29.1993 57.6619C27.9174 57.5025 27.0074 56.3342 27.1668 55.0523L27.5082 52.3058C27.5981 51.5826 28.4652 51.2604 29.0055 51.7495C29.1593 51.8887 29.2599 52.0792 29.2944 52.2838C29.8422 55.5326 30.8452 56.0915 32.5088 55.8228C33.581 55.6495 34.6743 55.664 35.719 55.9613C38.3537 56.711 39.9573 56.3116 42.0809 54.8318C42.3366 54.6536 42.5703 54.4422 42.7848 54.2162C45.1646 51.708 45.9014 51.4369 46.1803 52.2993C46.3048 52.6841 46.2715 53.0994 46.2216 53.5007L46.07 54.7205C45.7293 57.4609 43.2317 59.4062 40.4914 59.0656L29.1993 57.6619Z" fill="url(#paint0_linear_108_286)" fill-opacity="0.48"/>
<path d="M29.0055 51.7495C28.4652 51.2604 27.5981 51.5826 27.5082 52.3058L27.1668 55.0523C27.0074 56.3342 27.9174 57.5025 29.1993 57.6619L40.4914 59.0656C43.2317 59.4062 45.7293 57.4609 46.07 54.7205L46.2216 53.5007C46.2715 53.0994 46.3048 52.6841 46.1803 52.2993C45.9014 51.4369 45.1646 51.708 42.7848 54.2162C42.5703 54.4422 42.3366 54.6536 42.0809 54.8318C39.9573 56.3116 38.3537 56.711 35.719 55.9613C34.6743 55.664 33.581 55.6495 32.5088 55.8228C30.8452 56.0915 29.8422 55.5326 29.2944 52.2838C29.2599 52.0792 29.1593 51.8887 29.0055 51.7495Z" fill="#E8FAFF" fill-opacity="0.55"/>
<path fill-rule="evenodd" clip-rule="evenodd" d="M98.7953 40.7853C98.4547 38.045 100.4 35.5474 103.14 35.2067L115.126 33.7169C117.866 33.3762 120.364 35.3216 120.704 38.0619L121.972 48.2618C122.313 51.0021 120.367 53.4997 117.627 53.8404L105.642 55.3302C102.902 55.6709 100.404 53.7255 100.063 50.9852L98.7953 40.7853ZM118.635 52.0518C119.917 51.8924 120.827 50.7241 120.668 49.4422L120.327 46.6957C120.237 45.9725 119.369 45.6503 118.829 46.1393C118.675 46.2786 118.575 46.4691 118.54 46.6737C117.992 49.9225 116.989 50.4814 115.326 50.2127C114.254 50.0394 113.16 50.0539 112.116 50.3512C109.481 51.1008 107.877 50.7015 105.754 49.2217C105.498 49.0435 105.264 48.8321 105.05 48.6061C102.67 46.0979 101.933 45.8268 101.654 46.6892C101.53 47.074 101.563 47.4893 101.613 47.8906L101.765 49.1104C102.105 51.8508 104.603 53.7961 107.343 53.4554L118.635 52.0518Z" fill="url(#paint1_linear_108_286)" fill-opacity="0.48"/>
<path d="M118.829 46.1393C119.369 45.6503 120.237 45.9725 120.327 46.6957L120.668 49.4422C120.827 50.7241 119.917 51.8924 118.635 52.0518L107.343 53.4554C104.603 53.7961 102.105 51.8508 101.765 49.1104L101.613 47.8906C101.563 47.4893 101.53 47.074 101.654 46.6892C101.933 45.8268 102.67 46.0979 105.05 48.6061C105.264 48.8321 105.498 49.0435 105.754 49.2217C107.877 50.7015 109.481 51.1008 112.116 50.3512C113.16 50.0539 114.254 50.0394 115.326 50.2127C116.989 50.4814 117.992 49.9225 118.54 46.6737C118.575 46.4691 118.675 46.2786 118.829 46.1393Z" fill="#E8FAFF" fill-opacity="0.55"/>
<path fill-rule="evenodd" clip-rule="evenodd" d="M75.0353 47.4853L86.3215 59.4767C87.3832 60.6049 87.3294 62.3801 86.2013 63.4419L75.52 73.495C74.3919 74.5568 72.6166 74.503 71.5548 73.3749L60.2687 61.3834C59.2069 60.2553 59.2607 58.48 60.3888 57.4182L71.0701 47.3652C72.1983 46.3034 73.9735 46.3572 75.0353 47.4853ZM76.9138 68.9854C74.9545 70.5962 72.0994 70.4847 70.2717 68.7259L66.481 65.0783C64.1352 62.3135 65.0703 62.2807 68.6683 63.8801C70.2789 64.5961 71.0709 66.962 72.8313 67.0502C73.0456 67.0609 73.2873 67.0496 73.5601 67.0174C74.4452 66.9127 75.2279 66.4266 75.8884 65.8282C77.6687 64.2156 78.7862 63.5869 80.5065 62.8342C83.427 61.1832 84.11 61.2631 83.4763 62.9383C83.2176 63.622 82.7384 64.1969 82.1737 64.6611L76.9138 68.9854Z" fill="url(#paint2_linear_108_286)" fill-opacity="0.5"/>
<path d="M66.481 65.0783L70.2717 68.7259C72.0994 70.4847 74.9545 70.5962 76.9138 68.9854L82.1737 64.6611C82.7384 64.1969 83.2176 63.622 83.4763 62.9383C84.11 61.2631 83.427 61.1832 80.5065 62.8342C78.7862 63.5869 77.6687 64.2156 75.8884 65.8282C75.2279 66.4266 74.4452 66.9127 73.5601 67.0174C73.2873 67.0496 73.0456 67.0609 72.8313 67.0502C71.0709 66.962 70.2789 64.5961 68.6683 63.8801C65.0703 62.2807 64.1352 62.3135 66.481 65.0783Z" fill="#E8FAFF" fill-opacity="0.55"/>
<defs>
<linearGradient id="paint0_linear_108_286" x1="38.7017" y1="40.0719" x2="36.2003" y2="60.1954" gradientUnits="userSpaceOnUse">
<stop stop-color="#4C6875" stop-opacity="0"/>
<stop offset="1" stop-color="#8EC2DB"/>
</linearGradient>
<linearGradient id="paint1_linear_108_286" x1="109.133" y1="34.4618" x2="111.634" y2="54.5853" gradientUnits="userSpaceOnUse">
<stop stop-color="#4C6875" stop-opacity="0"/>
<stop offset="1" stop-color="#8EC2DB"/>
</linearGradient>
<linearGradient id="paint2_linear_108_286" x1="73.1128" y1="46.482" x2="73.9543" y2="74.533" gradientUnits="userSpaceOnUse">
<stop stop-color="#4C6875" stop-opacity="0"/>
<stop offset="1" stop-color="#8EC2DB"/>
</linearGradient>
</defs>
</svg>
