<svg width="322" height="106" viewBox="0 0 322 106" fill="none" xmlns="http://www.w3.org/2000/svg">
<path d="M211.403 11.8821C200.578 8.8798 179.6 9.05011 173.585 30.0685C174.393 20.6009 172.668 8.56368 162.484 3.64049C148.846 -2.95279 137.037 0.89329 132.836 3.64049C126.472 7.80334 112.686 17.3599 121.089 35.7252C115.266 32.9799 92.9717 51.248 95.0357 65.9102L101.706 73.2361H211.403V11.8821Z" fill="#C3C341"/>
<path d="M127.648 11.8821C116.823 8.8798 95.8453 9.05011 89.8302 30.0685C90.6381 20.6009 88.9127 8.56368 78.7293 3.64049C65.0913 -2.95279 53.2817 0.89329 49.0816 3.64049C42.7171 7.80334 28.9311 17.3599 37.3342 35.7252C31.5114 32.9799 9.21684 51.248 11.2808 65.9102L17.9515 73.2361H127.648V11.8821Z" fill="#C3C341"/>
<path d="M195.703 11.8821C206.528 8.8798 227.506 9.05011 233.521 30.0685C232.713 20.6009 234.438 8.56368 244.622 3.64049C258.26 -2.95279 270.069 0.89329 274.27 3.64049C280.634 7.80334 294.42 17.3599 286.017 35.7252C291.84 32.9799 314.134 51.248 312.07 65.9102L305.4 73.2361H195.703V11.8821Z" fill="#C3C341"/>
<rect y="59" width="322" height="47" rx="5" fill="#C3A47E"/>
<path d="M88.5381 29.8157L88.5488 29.8437C89.1604 29.4414 89.7431 29.0481 90.3046 28.6691C90.9999 28.1997 90.3743 28.8414 91.0189 28.4262C91.0189 27.464 89.9367 26.8991 89.1473 27.4493L87.9697 28.27C88.2951 29.056 88.2054 28.9415 88.5381 29.8157Z" fill="#DB9494"/>
<path d="M92.3359 32.607C91.1477 31.8775 89.9413 30.9574 88.5488 29.8437C88.1869 30.3465 87.8588 30.8248 87.5634 31.2822L87.8991 30.784L89.2955 31.2822C89.8699 31.8602 91.125 32.9902 91.5492 32.8852C91.7097 32.8456 92.0038 32.7458 92.3359 32.607Z" fill="#DB9494"/>
<path d="M88.2348 30.2859C88.5921 29.8402 88.1742 30.3589 88.5488 29.8437C86.7327 30.2017 87.1601 30.0845 85.7159 30.1311L87.3068 30.5246L88.2348 30.2859Z" fill="#DB9494"/>
<path d="M91.0189 28.4262C89.913 29.2596 89.9828 29.017 88.5488 29.8437C90.3899 30.732 91.8971 31.511 93.1284 32.2257C93.6402 31.9397 94.0682 31.6 94.0682 31.2822C94.0682 29.9428 93.1072 28.7965 91.7884 28.5627L91.0189 28.4262Z" fill="#DB9494"/>
<path d="M88.5488 29.8437C88.1747 28.9748 88.2602 29.0838 87.9697 28.27H87.8991L86.3002 27.8551C85.0565 27.5324 83.739 27.9672 82.9318 28.9669C84.3396 29.0626 85.7989 29.334 87.4747 29.6455L87.475 29.6456L87.4757 29.6457C87.8236 29.7104 88.1808 29.7768 88.5488 29.8437Z" fill="#DB9494"/>
<path d="M85.7159 30.1311C87.1601 30.0845 86.7327 30.2017 88.5488 29.8437C88.1808 29.7768 87.8236 29.7104 87.4757 29.6457L87.475 29.6456L87.4747 29.6455C85.7989 29.334 84.3396 29.0626 82.9318 28.9669L85.7159 30.1311Z" fill="#DB9494"/>
<path d="M88.5488 29.8437C89.9413 30.9574 91.1477 31.8775 92.3359 32.607C92.5921 32.4999 92.8709 32.3696 93.1284 32.2257C91.8971 31.511 90.3899 30.732 88.5488 29.8437Z" fill="#DB9494"/>
<path d="M88.5488 29.8437C89.9828 29.017 89.913 29.2596 91.0189 28.4262C90.3743 28.8414 90.9999 28.1997 90.3046 28.6691C89.7431 29.0481 89.1604 29.4414 88.5488 29.8437Z" fill="#DB9494"/>
<path d="M87.5634 31.2822C87.8588 30.8248 88.1869 30.3465 88.5488 29.8437C88.1742 30.3589 88.5921 29.8402 88.2348 30.2859L87.5634 31.2822Z" fill="#DB9494"/>
<path d="M87.9697 28.27C88.2602 29.0838 88.1747 28.9748 88.5488 29.8437L88.5381 29.8157C88.2054 28.9415 88.2951 29.056 87.9697 28.27Z" fill="#DB9494"/>
<path d="M87.4338 14.8429C91.9797 13.4759 94.3529 13.7868 98.3608 15.6649C97.3111 15.221 94.9465 15.0446 87.4338 14.8429Z" fill="#FFCCCC"/>
<path fill-rule="evenodd" clip-rule="evenodd" d="M87.4465 27.0444C86.1844 23.3854 85.8928 20.007 87.4338 14.8429C94.9465 15.0446 97.3111 15.221 98.3608 15.6649C98.0275 21.1031 96.2816 24.2489 92.8758 26.977C96.3423 24.8203 99.3964 23.7135 104.382 25.3229C107.048 30.1858 106.241 31.9834 103.267 34.57C100.216 34.8463 97.9876 34.7399 96.0765 34.2423C98.2504 36.1136 98.5079 37.8179 98.3608 40.5292C96.3416 47.0943 93.8708 46.9669 88.5488 44.2281C85.073 38.9805 84.2116 36.4727 87.5634 31.2822L87.8991 30.784L89.2955 31.2822C89.8699 31.8602 91.125 32.9902 91.5492 32.8852C91.7097 32.8456 92.0038 32.7458 92.3359 32.607C92.5921 32.4999 92.8709 32.3696 93.1284 32.2257C93.6402 31.9397 94.0682 31.6 94.0682 31.2822C94.0682 29.9428 93.1072 28.7965 91.7884 28.5627L91.0189 28.4262C91.0189 27.464 89.9367 26.8991 89.1473 27.4493L87.9697 28.27H87.8991L86.3002 27.8551C85.0565 27.5324 83.739 27.9672 82.9318 28.9669L85.7159 30.1311L87.3068 30.5246L88.2348 30.2859C85.185 34.0911 81.8027 36.5723 76.5069 39.2963C76.3119 39.2983 76.1215 39.301 75.9361 39.3036L75.9355 39.3036L75.9349 39.3037L75.9344 39.3037L75.934 39.3037L75.9336 39.3037L75.9333 39.3037C71.9192 39.361 70.233 39.3851 74.2769 31.2822C75.5731 30.5185 76.7346 29.9765 77.8216 29.6069C75.7632 28.8861 73.8264 27.7183 71.6009 26.1449C70.6712 22.503 70.3823 20.3052 74.0492 19.1605C76.4223 18.8028 77.6437 18.8661 79.75 19.2925C84.2033 20.9079 85.9534 23.5148 87.4465 27.0444Z" fill="#F5B1B1"/>
<path d="M77.1759 18.5417C75.9066 18.6973 74.8771 18.9021 74.0492 19.1605C76.4223 18.8028 77.6437 18.8661 79.75 19.2925C78.9775 19.0123 78.1237 18.7619 77.1759 18.5417Z" fill="#FFCCCC"/>
<path d="M241.952 62.2638L241.939 62.2998C241.17 61.7844 240.437 61.2804 239.731 60.7947C238.857 60.1934 239.644 61.0155 238.833 60.4836C238.833 59.258 240.217 58.5435 241.216 59.2533L242.667 60.2834C242.258 61.2905 242.37 61.1438 241.952 62.2638Z" fill="#FCC16D"/>
<path d="M237.178 65.8402C238.671 64.9056 240.188 63.7266 241.939 62.2998C242.394 62.944 242.806 63.5567 243.177 64.1428L242.755 63.5046L241 64.1428C240.278 64.8834 238.7 66.3311 238.167 66.1967C237.965 66.1459 237.595 66.018 237.178 65.8402Z" fill="#FCC16D"/>
<path d="M242.333 62.8663C241.884 62.2952 242.41 62.9598 241.939 62.2998C244.222 62.7584 243.684 62.6083 245.5 62.668L243.5 63.1721L242.333 62.8663Z" fill="#FCC16D"/>
<path d="M238.833 60.4836C240.224 61.5513 240.136 61.2405 241.939 62.2998C239.624 63.4379 237.729 64.436 236.181 65.3516C235.538 64.9852 235 64.5499 235 64.1428C235 62.4254 236.229 60.9542 237.919 60.6488L238.833 60.4836Z" fill="#FCC16D"/>
<path d="M241.939 62.2998C242.409 61.1864 242.301 61.3261 242.667 60.2834H242.755L244.739 59.7589C246.315 59.3422 247.988 59.8987 249 61.1763C247.23 61.299 245.396 61.6466 243.289 62.0458C242.852 62.1287 242.401 62.214 241.939 62.2998Z" fill="#FCC16D"/>
<path d="M245.5 62.668C243.684 62.6083 244.222 62.7584 241.939 62.2998C242.401 62.214 242.852 62.1287 243.289 62.0458C245.396 61.6466 247.23 61.299 249 61.1763L245.5 62.668Z" fill="#FCC16D"/>
<path d="M241.939 62.2998C240.188 63.7266 238.671 64.9056 237.178 65.8402C236.856 65.703 236.505 65.536 236.181 65.3516C237.729 64.436 239.624 63.4379 241.939 62.2998Z" fill="#FCC16D"/>
<path d="M241.939 62.2998C240.136 61.2405 240.224 61.5513 238.833 60.4836C239.644 61.0155 238.857 60.1934 239.731 60.7947C240.437 61.2804 241.17 61.7844 241.939 62.2998Z" fill="#FCC16D"/>
<path d="M243.177 64.1428C242.806 63.5567 242.394 62.944 241.939 62.2998C242.41 62.9598 241.884 62.2952 242.333 62.8663L243.177 64.1428Z" fill="#FCC16D"/>
<path d="M242.667 60.2834C242.301 61.3261 242.409 61.1864 241.939 62.2998L241.952 62.2638C242.37 61.1438 242.258 61.2905 242.667 60.2834Z" fill="#FCC16D"/>
<path d="M243.34 43.08C237.626 41.3285 234.642 41.7269 229.604 44.1331C230.923 43.5645 233.896 43.3384 243.34 43.08Z" fill="#FCC16D"/>
<path fill-rule="evenodd" clip-rule="evenodd" d="M243.324 58.7131C244.911 54.0251 245.278 49.6965 243.34 43.08C233.896 43.3384 230.923 43.5645 229.604 44.1331C230.023 51.1008 232.217 55.1314 236.499 58.6268C232.141 55.8636 228.302 54.4454 222.034 56.5075C218.683 62.738 219.697 65.0412 223.436 68.3553C227.271 68.7094 230.073 68.5729 232.475 67.9354C229.742 70.3331 229.419 72.5167 229.604 75.9906C232.142 84.402 235.248 84.2389 241.939 80.7297C246.308 74.0063 247.391 70.7931 243.177 64.1428L242.755 63.5046L241 64.1428C240.278 64.8834 238.7 66.3311 238.167 66.1967C237.965 66.1459 237.595 66.018 237.178 65.8402C236.856 65.703 236.505 65.536 236.181 65.3516C235.538 64.9852 235 64.5499 235 64.1428C235 62.4254 236.229 60.9542 237.919 60.6488L238.833 60.4836C238.833 59.258 240.217 58.5435 241.216 59.2533L242.667 60.2834H242.755L244.739 59.7589C246.315 59.3422 247.988 59.8987 249 61.1763L245.5 62.668L243.5 63.1721L242.333 62.8663C246.167 67.7418 250.419 70.9207 257.077 74.4109C257.322 74.4134 257.563 74.4169 257.796 74.4203L257.798 74.4203C262.844 74.4938 264.964 74.5247 259.881 64.1428C258.251 63.1643 256.791 62.47 255.424 61.9963C258.012 61.0729 260.447 59.5766 263.245 57.5606C264.413 52.8944 264.777 50.0786 260.167 48.6119C257.183 48.1536 255.648 48.2347 253 48.781C247.402 50.8507 245.201 54.1909 243.324 58.7131Z" fill="#FCC16D"/>
<path d="M256.236 47.8191C257.832 48.0185 259.126 48.2808 260.167 48.6119C257.183 48.1536 255.648 48.2347 253 48.781C253.971 48.422 255.044 48.1012 256.236 47.8191Z" fill="#FCC16D"/>
<path d="M241.939 62.2998C242.409 61.1864 242.301 61.3261 242.667 60.2834M241.939 62.2998C240.136 61.2405 240.224 61.5513 238.833 60.4836M241.939 62.2998C240.188 63.7266 238.671 64.9056 237.178 65.8402M241.939 62.2998C239.624 63.4379 237.729 64.436 236.181 65.3516M241.939 62.2998C242.394 62.944 242.806 63.5567 243.177 64.1428M241.939 62.2998C242.41 62.9598 241.884 62.2952 242.333 62.8663M241.939 62.2998L241.952 62.2638C242.37 61.1438 242.258 61.2905 242.667 60.2834M241.939 62.2998C244.222 62.7584 243.684 62.6083 245.5 62.668M241.939 62.2998C241.17 61.7844 240.437 61.2804 239.731 60.7947C238.857 60.1934 239.644 61.0155 238.833 60.4836M241.939 62.2998C242.401 62.214 242.852 62.1287 243.289 62.0458C245.396 61.6466 247.23 61.299 249 61.1763M242.667 60.2834C242.224 61.4867 243.283 58.8352 243.324 58.7131M242.667 60.2834C242.716 60.1627 243.275 58.8322 243.324 58.7131M242.667 60.2834H242.755L244.739 59.7589C246.315 59.3422 247.988 59.8987 249 61.1763M242.667 60.2834L241.216 59.2533C240.217 58.5435 238.833 59.258 238.833 60.4836M243.324 58.7131C244.911 54.0251 245.278 49.6965 243.34 43.08M243.324 58.7131C245.201 54.1909 247.402 50.8507 253 48.781M243.34 43.08C237.626 41.3285 234.642 41.7269 229.604 44.1331M243.34 43.08C233.896 43.3384 230.923 43.5645 229.604 44.1331M229.604 44.1331C230.023 51.1008 232.217 55.1314 236.499 58.6268M236.499 58.6268C236.712 58.8007 238.61 60.312 238.833 60.4836M236.499 58.6268C236.736 58.7768 238.593 60.326 238.833 60.4836M236.499 58.6268C232.141 55.8636 228.302 54.4454 222.034 56.5075C218.683 62.738 219.697 65.0412 223.436 68.3553C227.271 68.7094 230.073 68.5729 232.475 67.9354M238.833 60.4836L237.919 60.6488C236.229 60.9542 235 62.4254 235 64.1428C235 64.5499 235.538 64.9852 236.181 65.3516M232.475 67.9354C234.167 67.4866 235.66 66.7894 237.178 65.8402M232.475 67.9354C233.406 67.1188 234.616 66.2774 236.181 65.3516M232.475 67.9354C229.742 70.3331 229.419 72.5167 229.604 75.9906C232.142 84.402 235.248 84.2389 241.939 80.7297C246.308 74.0063 247.391 70.7931 243.177 64.1428M237.178 65.8402C236.856 65.703 236.505 65.536 236.181 65.3516M237.178 65.8402C237.595 66.018 237.965 66.1459 238.167 66.1967C238.7 66.3311 240.278 64.8834 241 64.1428L242.755 63.5046L243.177 64.1428M243.177 64.1428L242.333 62.8663M242.333 62.8663C246.167 67.7418 250.419 70.9207 257.077 74.4109C257.322 74.4134 257.563 74.4169 257.796 74.4203L257.798 74.4203C262.844 74.4938 264.964 74.5247 259.881 64.1428C258.251 63.1643 256.791 62.47 255.424 61.9963M242.333 62.8663L243.5 63.1721L245.5 62.668M255.424 61.9963C258.012 61.0729 260.447 59.5766 263.245 57.5606C264.413 52.8944 264.777 50.0786 260.167 48.6119M255.424 61.9963C253.188 62.7943 248.297 62.76 245.5 62.668M255.424 61.9963C253.139 61.2042 251.116 61.0296 249 61.1763M245.5 62.668L249 61.1763M260.167 48.6119C259.126 48.2808 257.832 48.0185 256.236 47.8191C255.044 48.1012 253.971 48.422 253 48.781M260.167 48.6119C257.183 48.1536 255.648 48.2347 253 48.781" stroke="url(#paint0_radial_1508_3)" stroke-width="0.2"/>
<defs>
<radialGradient id="paint0_radial_1508_3" cx="0" cy="0" r="1" gradientUnits="userSpaceOnUse" gradientTransform="translate(242 62.5) rotate(90) scale(20.5 22)">
<stop stop-color="#815F2E"/>
<stop offset="1" stop-color="white"/>
</radialGradient>
</defs>
</svg>
