<svg width="316" height="352" viewBox="0 0 316 352" fill="none" xmlns="http://www.w3.org/2000/svg">
<path d="M158.013 175.434C158.082 175.475 158.125 175.549 158.125 175.629C158.125 175.805 158.315 175.914 158.466 175.825L294.045 96.1502C302.045 91.4492 312.125 97.2173 312.125 106.496V252.902C312.125 257.119 309.911 261.027 306.294 263.195L164.334 348.279C160.515 350.567 155.743 350.554 151.937 348.243L9.89702 262.005C6.3131 259.829 4.12476 255.94 4.12476 251.747V105.529C4.12476 96.2378 14.2301 90.4714 22.2295 95.1983L158.013 175.434Z" fill="#EBDF95"/>
<path d="M4.12476 85L158.125 175.5V344.892C158.125 348.011 154.715 349.93 152.049 348.312L4.12476 258.5V85Z" fill="#EFE5A7"/>
<path d="M4.12476 85L158.125 175V196L4.12476 106V85Z" fill="#D29A50"/>
<path d="M312.125 85.5L158.125 175V196L312.125 107V85.5Z" fill="#AF7933"/>
<path d="M311.599 86.3868L158.327 175.5L4.65302 85.8911C3.981 85.4993 3.99409 84.5239 4.6764 84.1502L152.538 3.17032C156.143 1.19622 160.507 1.20402 164.104 3.19101L311.58 84.647C312.26 85.0226 312.271 85.9963 311.599 86.3868Z" fill="#DBA763"/>
<g filter="url(#filter0_d_1049_663)">
<ellipse cx="157.625" cy="75.5" rx="61.5" ry="37.5" fill="#F6E8D8"/>
</g>
<path d="M216.496 64.623C218.205 68.0659 219.125 71.7171 219.125 75.5C219.125 96.2107 191.591 113 157.625 113C132.451 113 110.811 103.777 101.294 90.5703C140.226 105.653 196.457 106.612 216.496 64.623Z" fill="#E6CFB5"/>
<path d="M124.132 88.0005C123.402 76.1518 179.377 63.8427 197.625 80L124.132 88.0005Z" fill="#F6E8D8"/>
<g filter="url(#filter1_f_1049_663)">
<path d="M158.348 293.444L310.562 204.049V213.595L158.348 305L4.3479 211.546V202L158.348 293.444Z" fill="#FFFCED"/>
<path d="M157.837 294.304L158.345 294.605L158.855 294.307L309.563 205.795V213.029L158.35 303.832L5.3479 210.983V203.756L157.837 294.304Z" stroke="#D6AF69" stroke-width="2"/>
</g>
<g filter="url(#filter2_f_1049_663)">
<path d="M158.348 242.444L311.062 152.755V162.302L158.348 254L4.3479 160.546V151L158.348 242.444Z" fill="#FFFCED"/>
<path d="M157.837 243.304L158.345 243.605L158.855 243.307L310.063 154.501V161.735L158.35 252.832L5.3479 159.983V152.756L157.837 243.304Z" stroke="#D6AF69" stroke-width="2"/>
</g>
<g filter="url(#filter3_f_1049_663)">
<path d="M6.23657 152.056L158.348 242.5L158.348 254L6.23657 161.556L6.23657 152.056Z" fill="white"/>
<path d="M157.348 243.068L157.348 252.222L7.23654 160.992L7.23663 153.813L157.348 243.068Z" stroke="#D6AF69" stroke-width="2"/>
</g>
<g filter="url(#filter4_f_1049_663)">
<path d="M7.0625 202.99L158.571 293.5L158.571 305L7.0625 212.49L7.0625 202.99Z" fill="white"/>
<path d="M157.572 294.068L157.57 303.217L8.06283 211.927L8.06231 204.751L157.572 294.068Z" stroke="#D6AF69" stroke-width="2"/>
</g>
<g filter="url(#filter5_f_1049_663)">
<path d="M18.8889 145.58C13.5777 144.797 24.5594 133.082 25.69 139.471C26.5946 144.582 21.5328 145.673 18.8889 145.58Z" fill="#FFBEBE"/>
</g>
<g filter="url(#filter6_f_1049_663)">
<path d="M65.9133 224.134C60.6021 224.917 71.5838 236.632 72.7145 230.243C73.619 225.132 68.5573 224.041 65.9133 224.134Z" fill="#FFBEBE"/>
</g>
<g filter="url(#filter7_f_1049_663)">
<path d="M147.912 208.134C153.224 208.917 142.242 220.632 141.111 214.243C140.207 209.132 145.268 208.041 147.912 208.134Z" fill="#A5D7EC"/>
<path d="M147.912 208.134C153.224 208.917 142.242 220.632 141.111 214.243C140.207 209.132 145.268 208.041 147.912 208.134Z" fill="#A5D7EC"/>
<path d="M147.912 208.134C153.224 208.917 142.242 220.632 141.111 214.243C140.207 209.132 145.268 208.041 147.912 208.134Z" fill="#A5D7EC"/>
</g>
<g filter="url(#filter8_f_1049_663)">
<path d="M16.9133 194.134C11.6021 194.917 22.5838 206.632 23.7145 200.243C24.619 195.132 19.5573 194.041 16.9133 194.134Z" fill="#A5D7EC"/>
<path d="M16.9133 194.134C11.6021 194.917 22.5838 206.632 23.7145 200.243C24.619 195.132 19.5573 194.041 16.9133 194.134Z" fill="#A5D7EC"/>
<path d="M16.9133 194.134C11.6021 194.917 22.5838 206.632 23.7145 200.243C24.619 195.132 19.5573 194.041 16.9133 194.134Z" fill="#A5D7EC"/>
</g>
<g filter="url(#filter9_f_1049_663)">
<path d="M57.9133 163.134C52.6021 163.917 63.5838 175.632 64.7145 169.243C65.619 164.132 60.5573 163.041 57.9133 163.134Z" fill="#FFE940"/>
</g>
<g filter="url(#filter10_f_1049_663)">
<path d="M67.9133 284.136C62.6021 283.353 73.5838 271.638 74.7145 278.027C75.619 283.138 70.5573 284.229 67.9133 284.136Z" fill="#BEE473"/>
<path d="M67.9133 284.136C62.6021 283.353 73.5838 271.638 74.7145 278.027C75.619 283.138 70.5573 284.229 67.9133 284.136Z" fill="#BEE473"/>
</g>
<g filter="url(#filter11_f_1049_663)">
<path d="M251.912 161.136C257.224 160.353 246.242 148.638 245.111 155.027C244.207 160.138 249.268 161.229 251.912 161.136Z" fill="#BEE473"/>
<path d="M251.912 161.136C257.224 160.353 246.242 148.638 245.111 155.027C244.207 160.138 249.268 161.229 251.912 161.136Z" fill="#BEE473"/>
</g>
<g filter="url(#filter12_f_1049_663)">
<path d="M211.912 299.136C217.224 298.353 206.242 286.638 205.111 293.027C204.207 298.138 209.268 299.229 211.912 299.136Z" fill="#BEE473"/>
<path d="M211.912 299.136C217.224 298.353 206.242 286.638 205.111 293.027C204.207 298.138 209.268 299.229 211.912 299.136Z" fill="#BEE473"/>
</g>
<g filter="url(#filter13_f_1049_663)">
<path d="M22.9126 247.136C28.2238 246.353 17.2421 234.638 16.1115 241.027C15.2069 246.138 20.2687 247.229 22.9126 247.136Z" fill="#FFE940"/>
</g>
<g filter="url(#filter14_f_1049_663)">
<path d="M139.913 272.136C134.602 271.353 145.584 259.638 146.714 266.027C147.619 271.138 142.557 272.229 139.913 272.136Z" fill="#FFE940"/>
</g>
<g filter="url(#filter15_f_1049_663)">
<path d="M237.913 228.136C232.602 227.353 243.584 215.638 244.714 222.027C245.619 227.138 240.557 228.229 237.913 228.136Z" fill="#FFE940"/>
</g>
<g filter="url(#filter16_f_1049_663)">
<path d="M296.913 260.136C291.602 259.353 302.584 247.638 303.714 254.027C304.619 259.138 299.557 260.229 296.913 260.136Z" fill="#FFE940"/>
</g>
<g filter="url(#filter17_f_1049_663)">
<path d="M93.9124 298.136C99.2236 297.353 88.2419 285.638 87.1112 292.027C86.2067 297.138 91.2684 298.229 93.9124 298.136Z" fill="#A5D7EC"/>
<path d="M93.9124 298.136C99.2236 297.353 88.2419 285.638 87.1112 292.027C86.2067 297.138 91.2684 298.229 93.9124 298.136Z" fill="#A5D7EC"/>
<path d="M93.9124 298.136C99.2236 297.353 88.2419 285.638 87.1112 292.027C86.2067 297.138 91.2684 298.229 93.9124 298.136Z" fill="#A5D7EC"/>
</g>
<g filter="url(#filter18_f_1049_663)">
<path d="M288.912 150.134C294.224 150.917 283.242 162.632 282.111 156.243C281.207 151.132 286.268 150.041 288.912 150.134Z" fill="#A5D7EC"/>
<path d="M288.912 150.134C294.224 150.917 283.242 162.632 282.111 156.243C281.207 151.132 286.268 150.041 288.912 150.134Z" fill="#A5D7EC"/>
<path d="M288.912 150.134C294.224 150.917 283.242 162.632 282.111 156.243C281.207 151.132 286.268 150.041 288.912 150.134Z" fill="#A5D7EC"/>
</g>
<g filter="url(#filter19_f_1049_663)">
<path d="M268.912 270.134C274.224 270.917 263.242 282.632 262.111 276.243C261.207 271.132 266.268 270.041 268.912 270.134Z" fill="#A5D7EC"/>
<path d="M268.912 270.134C274.224 270.917 263.242 282.632 262.111 276.243C261.207 271.132 266.268 270.041 268.912 270.134Z" fill="#A5D7EC"/>
<path d="M268.912 270.134C274.224 270.917 263.242 282.632 262.111 276.243C261.207 271.132 266.268 270.041 268.912 270.134Z" fill="#A5D7EC"/>
</g>
<g filter="url(#filter20_f_1049_663)">
<path d="M178.913 254.134C173.602 254.917 184.584 266.632 185.714 260.243C186.619 255.132 181.557 254.041 178.913 254.134Z" fill="#A5D7EC"/>
<path d="M178.913 254.134C173.602 254.917 184.584 266.632 185.714 260.243C186.619 255.132 181.557 254.041 178.913 254.134Z" fill="#A5D7EC"/>
<path d="M178.913 254.134C173.602 254.917 184.584 266.632 185.714 260.243C186.619 255.132 181.557 254.041 178.913 254.134Z" fill="#A5D7EC"/>
</g>
<g filter="url(#filter21_f_1049_663)">
<path d="M26.9133 262.136C21.6021 261.353 32.5838 249.638 33.7145 256.027C34.619 261.138 29.5573 262.229 26.9133 262.136Z" fill="#FFBEBE"/>
</g>
<g filter="url(#filter22_f_1049_663)">
<path d="M118.913 302.134C113.602 302.917 124.584 314.632 125.714 308.243C126.619 303.132 121.557 302.041 118.913 302.134Z" fill="#FFBEBE"/>
</g>
<g filter="url(#filter23_f_1049_663)">
<path d="M213.913 185.134C208.602 185.917 219.584 197.632 220.714 191.243C221.619 186.132 216.557 185.041 213.913 185.134Z" fill="#FFBEBE"/>
</g>
<g filter="url(#filter24_f_1049_663)">
<path d="M270.912 209.134C276.224 209.917 265.242 221.632 264.111 215.243C263.207 210.132 268.268 209.041 270.912 209.134Z" fill="#FFBEBE"/>
</g>
<g filter="url(#filter25_f_1049_663)">
<path d="M270.913 209.134C276.224 209.917 265.242 221.632 264.112 215.243C263.207 210.132 268.269 209.041 270.913 209.134Z" fill="#FFBEBE"/>
</g>
<g filter="url(#filter26_f_1049_663)">
<path d="M300.912 139.136C306.224 138.353 295.242 126.638 294.111 133.027C293.207 138.138 298.268 139.229 300.912 139.136Z" fill="#FFBEBE"/>
</g>
<g filter="url(#filter27_f_1049_663)">
<path d="M186.913 316.136C181.602 315.353 192.584 303.638 193.714 310.027C194.619 315.138 189.557 316.229 186.913 316.136Z" fill="#FFBEBE"/>
</g>
<circle cx="24" cy="24" r="24" transform="matrix(-1 0 0 1 236.062 65.1597)" fill="url(#paint0_linear_1049_663)"/>
<path d="M242.562 67.1597C234.062 59.6597 220.062 66.6586 216.562 76.1584" stroke="#536F44" stroke-width="2" stroke-linecap="round"/>
<g filter="url(#filter28_d_1049_663)">
<path d="M221.062 76.519C217.226 78.1093 214.893 76.5189 214.063 74.1597" stroke="#D22F2F" stroke-linecap="round"/>
</g>
<defs>
<filter id="filter0_d_1049_663" x="79.125" y="26" width="157" height="109" filterUnits="userSpaceOnUse" color-interpolation-filters="sRGB">
<feFlood flood-opacity="0" result="BackgroundImageFix"/>
<feColorMatrix in="SourceAlpha" type="matrix" values="0 0 0 0 0 0 0 0 0 0 0 0 0 0 0 0 0 0 127 0" result="hardAlpha"/>
<feMorphology radius="4" operator="dilate" in="SourceAlpha" result="effect1_dropShadow_1049_663"/>
<feOffset dy="5"/>
<feGaussianBlur stdDeviation="6.5"/>
<feComposite in2="hardAlpha" operator="out"/>
<feColorMatrix type="matrix" values="0 0 0 0 0.906325 0 0 0 0 0.85365 0 0 0 0 0.70999 0 0 0 1 0"/>
<feBlend mode="normal" in2="BackgroundImageFix" result="effect1_dropShadow_1049_663"/>
<feBlend mode="normal" in="SourceGraphic" in2="effect1_dropShadow_1049_663" result="shape"/>
</filter>
<filter id="filter1_f_1049_663" x="0.3479" y="198" width="314.215" height="111" filterUnits="userSpaceOnUse" color-interpolation-filters="sRGB">
<feFlood flood-opacity="0" result="BackgroundImageFix"/>
<feBlend mode="normal" in="SourceGraphic" in2="BackgroundImageFix" result="shape"/>
<feGaussianBlur stdDeviation="2" result="effect1_foregroundBlur_1049_663"/>
</filter>
<filter id="filter2_f_1049_663" x="0.3479" y="147" width="314.715" height="111" filterUnits="userSpaceOnUse" color-interpolation-filters="sRGB">
<feFlood flood-opacity="0" result="BackgroundImageFix"/>
<feBlend mode="normal" in="SourceGraphic" in2="BackgroundImageFix" result="shape"/>
<feGaussianBlur stdDeviation="2" result="effect1_foregroundBlur_1049_663"/>
</filter>
<filter id="filter3_f_1049_663" x="2.23657" y="148.056" width="160.111" height="109.944" filterUnits="userSpaceOnUse" color-interpolation-filters="sRGB">
<feFlood flood-opacity="0" result="BackgroundImageFix"/>
<feBlend mode="normal" in="SourceGraphic" in2="BackgroundImageFix" result="shape"/>
<feGaussianBlur stdDeviation="2" result="effect1_foregroundBlur_1049_663"/>
</filter>
<filter id="filter4_f_1049_663" x="3.0625" y="198.99" width="159.508" height="110.01" filterUnits="userSpaceOnUse" color-interpolation-filters="sRGB">
<feFlood flood-opacity="0" result="BackgroundImageFix"/>
<feBlend mode="normal" in="SourceGraphic" in2="BackgroundImageFix" result="shape"/>
<feGaussianBlur stdDeviation="2" result="effect1_foregroundBlur_1049_663"/>
</filter>
<filter id="filter5_f_1049_663" x="14.9465" y="135.072" width="13.3503" height="13.0132" filterUnits="userSpaceOnUse" color-interpolation-filters="sRGB">
<feFlood flood-opacity="0" result="BackgroundImageFix"/>
<feBlend mode="normal" in="SourceGraphic" in2="BackgroundImageFix" result="shape"/>
<feGaussianBlur stdDeviation="1.25" result="effect1_foregroundBlur_1049_663"/>
</filter>
<filter id="filter6_f_1049_663" x="61.9709" y="221.629" width="13.3503" height="13.0132" filterUnits="userSpaceOnUse" color-interpolation-filters="sRGB">
<feFlood flood-opacity="0" result="BackgroundImageFix"/>
<feBlend mode="normal" in="SourceGraphic" in2="BackgroundImageFix" result="shape"/>
<feGaussianBlur stdDeviation="1.25" result="effect1_foregroundBlur_1049_663"/>
</filter>
<filter id="filter7_f_1049_663" x="138.504" y="205.629" width="13.3506" height="13.0132" filterUnits="userSpaceOnUse" color-interpolation-filters="sRGB">
<feFlood flood-opacity="0" result="BackgroundImageFix"/>
<feBlend mode="normal" in="SourceGraphic" in2="BackgroundImageFix" result="shape"/>
<feGaussianBlur stdDeviation="1.25" result="effect1_foregroundBlur_1049_663"/>
</filter>
<filter id="filter8_f_1049_663" x="12.9709" y="191.629" width="13.3503" height="13.0132" filterUnits="userSpaceOnUse" color-interpolation-filters="sRGB">
<feFlood flood-opacity="0" result="BackgroundImageFix"/>
<feBlend mode="normal" in="SourceGraphic" in2="BackgroundImageFix" result="shape"/>
<feGaussianBlur stdDeviation="1.25" result="effect1_foregroundBlur_1049_663"/>
</filter>
<filter id="filter9_f_1049_663" x="53.9709" y="160.629" width="13.3503" height="13.0132" filterUnits="userSpaceOnUse" color-interpolation-filters="sRGB">
<feFlood flood-opacity="0" result="BackgroundImageFix"/>
<feBlend mode="normal" in="SourceGraphic" in2="BackgroundImageFix" result="shape"/>
<feGaussianBlur stdDeviation="1.25" result="effect1_foregroundBlur_1049_663"/>
</filter>
<filter id="filter10_f_1049_663" x="63.9709" y="273.628" width="13.3503" height="13.0132" filterUnits="userSpaceOnUse" color-interpolation-filters="sRGB">
<feFlood flood-opacity="0" result="BackgroundImageFix"/>
<feBlend mode="normal" in="SourceGraphic" in2="BackgroundImageFix" result="shape"/>
<feGaussianBlur stdDeviation="1.25" result="effect1_foregroundBlur_1049_663"/>
</filter>
<filter id="filter11_f_1049_663" x="242.504" y="150.628" width="13.3506" height="13.0132" filterUnits="userSpaceOnUse" color-interpolation-filters="sRGB">
<feFlood flood-opacity="0" result="BackgroundImageFix"/>
<feBlend mode="normal" in="SourceGraphic" in2="BackgroundImageFix" result="shape"/>
<feGaussianBlur stdDeviation="1.25" result="effect1_foregroundBlur_1049_663"/>
</filter>
<filter id="filter12_f_1049_663" x="202.504" y="288.628" width="13.3506" height="13.0132" filterUnits="userSpaceOnUse" color-interpolation-filters="sRGB">
<feFlood flood-opacity="0" result="BackgroundImageFix"/>
<feBlend mode="normal" in="SourceGraphic" in2="BackgroundImageFix" result="shape"/>
<feGaussianBlur stdDeviation="1.25" result="effect1_foregroundBlur_1049_663"/>
</filter>
<filter id="filter13_f_1049_663" x="13.5046" y="236.628" width="13.3503" height="13.0132" filterUnits="userSpaceOnUse" color-interpolation-filters="sRGB">
<feFlood flood-opacity="0" result="BackgroundImageFix"/>
<feBlend mode="normal" in="SourceGraphic" in2="BackgroundImageFix" result="shape"/>
<feGaussianBlur stdDeviation="1.25" result="effect1_foregroundBlur_1049_663"/>
</filter>
<filter id="filter14_f_1049_663" x="135.971" y="261.628" width="13.3506" height="13.0132" filterUnits="userSpaceOnUse" color-interpolation-filters="sRGB">
<feFlood flood-opacity="0" result="BackgroundImageFix"/>
<feBlend mode="normal" in="SourceGraphic" in2="BackgroundImageFix" result="shape"/>
<feGaussianBlur stdDeviation="1.25" result="effect1_foregroundBlur_1049_663"/>
</filter>
<filter id="filter15_f_1049_663" x="233.971" y="217.628" width="13.3506" height="13.0132" filterUnits="userSpaceOnUse" color-interpolation-filters="sRGB">
<feFlood flood-opacity="0" result="BackgroundImageFix"/>
<feBlend mode="normal" in="SourceGraphic" in2="BackgroundImageFix" result="shape"/>
<feGaussianBlur stdDeviation="1.25" result="effect1_foregroundBlur_1049_663"/>
</filter>
<filter id="filter16_f_1049_663" x="292.971" y="249.628" width="13.3506" height="13.0132" filterUnits="userSpaceOnUse" color-interpolation-filters="sRGB">
<feFlood flood-opacity="0" result="BackgroundImageFix"/>
<feBlend mode="normal" in="SourceGraphic" in2="BackgroundImageFix" result="shape"/>
<feGaussianBlur stdDeviation="1.25" result="effect1_foregroundBlur_1049_663"/>
</filter>
<filter id="filter17_f_1049_663" x="84.5044" y="287.628" width="13.3506" height="13.0132" filterUnits="userSpaceOnUse" color-interpolation-filters="sRGB">
<feFlood flood-opacity="0" result="BackgroundImageFix"/>
<feBlend mode="normal" in="SourceGraphic" in2="BackgroundImageFix" result="shape"/>
<feGaussianBlur stdDeviation="1.25" result="effect1_foregroundBlur_1049_663"/>
</filter>
<filter id="filter18_f_1049_663" x="279.504" y="147.629" width="13.3506" height="13.0132" filterUnits="userSpaceOnUse" color-interpolation-filters="sRGB">
<feFlood flood-opacity="0" result="BackgroundImageFix"/>
<feBlend mode="normal" in="SourceGraphic" in2="BackgroundImageFix" result="shape"/>
<feGaussianBlur stdDeviation="1.25" result="effect1_foregroundBlur_1049_663"/>
</filter>
<filter id="filter19_f_1049_663" x="259.504" y="267.629" width="13.3506" height="13.0132" filterUnits="userSpaceOnUse" color-interpolation-filters="sRGB">
<feFlood flood-opacity="0" result="BackgroundImageFix"/>
<feBlend mode="normal" in="SourceGraphic" in2="BackgroundImageFix" result="shape"/>
<feGaussianBlur stdDeviation="1.25" result="effect1_foregroundBlur_1049_663"/>
</filter>
<filter id="filter20_f_1049_663" x="174.971" y="251.629" width="13.3506" height="13.0132" filterUnits="userSpaceOnUse" color-interpolation-filters="sRGB">
<feFlood flood-opacity="0" result="BackgroundImageFix"/>
<feBlend mode="normal" in="SourceGraphic" in2="BackgroundImageFix" result="shape"/>
<feGaussianBlur stdDeviation="1.25" result="effect1_foregroundBlur_1049_663"/>
</filter>
<filter id="filter21_f_1049_663" x="22.9709" y="251.628" width="13.3503" height="13.0132" filterUnits="userSpaceOnUse" color-interpolation-filters="sRGB">
<feFlood flood-opacity="0" result="BackgroundImageFix"/>
<feBlend mode="normal" in="SourceGraphic" in2="BackgroundImageFix" result="shape"/>
<feGaussianBlur stdDeviation="1.25" result="effect1_foregroundBlur_1049_663"/>
</filter>
<filter id="filter22_f_1049_663" x="114.971" y="299.629" width="13.3506" height="13.0132" filterUnits="userSpaceOnUse" color-interpolation-filters="sRGB">
<feFlood flood-opacity="0" result="BackgroundImageFix"/>
<feBlend mode="normal" in="SourceGraphic" in2="BackgroundImageFix" result="shape"/>
<feGaussianBlur stdDeviation="1.25" result="effect1_foregroundBlur_1049_663"/>
</filter>
<filter id="filter23_f_1049_663" x="209.971" y="182.629" width="13.3506" height="13.0132" filterUnits="userSpaceOnUse" color-interpolation-filters="sRGB">
<feFlood flood-opacity="0" result="BackgroundImageFix"/>
<feBlend mode="normal" in="SourceGraphic" in2="BackgroundImageFix" result="shape"/>
<feGaussianBlur stdDeviation="1.25" result="effect1_foregroundBlur_1049_663"/>
</filter>
<filter id="filter24_f_1049_663" x="261.504" y="206.629" width="13.3506" height="13.0132" filterUnits="userSpaceOnUse" color-interpolation-filters="sRGB">
<feFlood flood-opacity="0" result="BackgroundImageFix"/>
<feBlend mode="normal" in="SourceGraphic" in2="BackgroundImageFix" result="shape"/>
<feGaussianBlur stdDeviation="1.25" result="effect1_foregroundBlur_1049_663"/>
</filter>
<filter id="filter25_f_1049_663" x="261.505" y="206.629" width="13.3506" height="13.0132" filterUnits="userSpaceOnUse" color-interpolation-filters="sRGB">
<feFlood flood-opacity="0" result="BackgroundImageFix"/>
<feBlend mode="normal" in="SourceGraphic" in2="BackgroundImageFix" result="shape"/>
<feGaussianBlur stdDeviation="1.25" result="effect1_foregroundBlur_1049_663"/>
</filter>
<filter id="filter26_f_1049_663" x="291.504" y="128.628" width="13.3506" height="13.0132" filterUnits="userSpaceOnUse" color-interpolation-filters="sRGB">
<feFlood flood-opacity="0" result="BackgroundImageFix"/>
<feBlend mode="normal" in="SourceGraphic" in2="BackgroundImageFix" result="shape"/>
<feGaussianBlur stdDeviation="1.25" result="effect1_foregroundBlur_1049_663"/>
</filter>
<filter id="filter27_f_1049_663" x="182.971" y="305.628" width="13.3506" height="13.0132" filterUnits="userSpaceOnUse" color-interpolation-filters="sRGB">
<feFlood flood-opacity="0" result="BackgroundImageFix"/>
<feBlend mode="normal" in="SourceGraphic" in2="BackgroundImageFix" result="shape"/>
<feGaussianBlur stdDeviation="1.25" result="effect1_foregroundBlur_1049_663"/>
</filter>
<filter id="filter28_d_1049_663" x="210.763" y="71.8597" width="13.6" height="9.6" filterUnits="userSpaceOnUse" color-interpolation-filters="sRGB">
<feFlood flood-opacity="0" result="BackgroundImageFix"/>
<feColorMatrix in="SourceAlpha" type="matrix" values="0 0 0 0 0 0 0 0 0 0 0 0 0 0 0 0 0 0 127 0" result="hardAlpha"/>
<feOffset dy="1"/>
<feGaussianBlur stdDeviation="1.4"/>
<feComposite in2="hardAlpha" operator="out"/>
<feColorMatrix type="matrix" values="0 0 0 0 0.571082 0 0 0 0 0.153882 0 0 0 0 0.153882 0 0 0 1 0"/>
<feBlend mode="normal" in2="BackgroundImageFix" result="effect1_dropShadow_1049_663"/>
<feBlend mode="normal" in="SourceGraphic" in2="effect1_dropShadow_1049_663" result="shape"/>
</filter>
<linearGradient id="paint0_linear_1049_663" x1="24" y1="0" x2="24" y2="48" gradientUnits="userSpaceOnUse">
<stop stop-color="#FF5D5D"/>
<stop offset="1" stop-color="#E53535"/>
</linearGradient>
</defs>
</svg>
