<svg width="310" height="353" viewBox="0 0 310 353" fill="none" xmlns="http://www.w3.org/2000/svg">
<path d="M154.889 175.434C154.958 175.475 155 175.549 155 175.629C155 175.805 155.19 175.914 155.341 175.825L290.92 96.1502C298.92 91.4492 309 97.2173 309 106.496V252.901C309 257.118 306.786 261.026 303.169 263.194L161.209 348.279C157.39 350.567 152.618 350.554 148.812 348.243L6.77227 262.005C3.18834 259.829 1 255.94 1 251.747V105.529C1 96.2378 11.1054 90.4714 19.1048 95.1983L154.889 175.434Z" fill="#402013"/>
<path d="M1 85L155 175.5V344.892C155 348.011 151.59 349.93 148.924 348.312L1 258.5V85Z" fill="#492110"/>
<path d="M1 85L155 175V196L1 106V85Z" fill="#92583D"/>
<path d="M309 85.5L155 175V196L309 107V85.5Z" fill="#884F35"/>
<path d="M1 159L154 250V284L1 191V159Z" fill="#C8A18F"/>
<path d="M309 160L154 250V284L309 192V160Z" fill="#AB8777"/>
<path d="M155 341.444L309 251V260.547L157.587 351.447C155.996 352.402 154.007 352.397 152.42 351.434L1 259.546V250L155 341.444Z" fill="#C7B48E"/>
<path d="M308.475 86.3868L155.202 175.5L1.52826 85.8911C0.856242 85.4993 0.869339 84.5239 1.55164 84.1502L149.413 3.17032C153.018 1.19622 157.382 1.20402 160.979 3.19101L308.456 84.647C309.136 85.0226 309.146 85.9963 308.475 86.3868Z" fill="#A56041"/>
<circle cx="216.5" cy="64.5" r="4.5" fill="#432418"/>
<g filter="url(#filter0_d_1047_530)">
<ellipse cx="154.5" cy="75.5" rx="61.5" ry="37.5" fill="#F6E8D8"/>
</g>
<path d="M213.371 64.623C215.08 68.0659 216 71.7171 216 75.5C216 96.2107 188.466 113 154.5 113C129.326 113 107.686 103.777 98.1689 90.5703C137.101 105.653 193.332 106.612 213.371 64.623Z" fill="#E6CFB5"/>
<g filter="url(#filter1_d_1047_530)">
<circle cx="98.5" cy="97.5" r="8.5" fill="#432418"/>
</g>
<g filter="url(#filter2_d_1047_530)">
<circle cx="205" cy="123" r="3" fill="#432418"/>
<circle cx="205" cy="123" r="3" fill="#432418"/>
<circle cx="205" cy="123" r="3" fill="#432418"/>
</g>
<g filter="url(#filter3_d_1047_530)">
<circle cx="45" cy="88" r="3" fill="#F6E8D8"/>
</g>
<g filter="url(#filter4_d_1047_530)">
<circle cx="240" cy="98" r="4" fill="#F6E8D8"/>
</g>
<path d="M121.007 88.0005C120.277 76.1518 176.252 63.8427 194.5 80L121.007 88.0005Z" fill="#F6E8D8"/>
<defs>
<filter id="filter0_d_1047_530" x="76" y="26" width="157" height="109" filterUnits="userSpaceOnUse" color-interpolation-filters="sRGB">
<feFlood flood-opacity="0" result="BackgroundImageFix"/>
<feColorMatrix in="SourceAlpha" type="matrix" values="0 0 0 0 0 0 0 0 0 0 0 0 0 0 0 0 0 0 127 0" result="hardAlpha"/>
<feMorphology radius="4" operator="dilate" in="SourceAlpha" result="effect1_dropShadow_1047_530"/>
<feOffset dy="5"/>
<feGaussianBlur stdDeviation="6.5"/>
<feComposite in2="hardAlpha" operator="out"/>
<feColorMatrix type="matrix" values="0 0 0 0 0.533333 0 0 0 0 0.309804 0 0 0 0 0.207843 0 0 0 1 0"/>
<feBlend mode="normal" in2="BackgroundImageFix" result="effect1_dropShadow_1047_530"/>
<feBlend mode="normal" in="SourceGraphic" in2="effect1_dropShadow_1047_530" result="shape"/>
</filter>
<filter id="filter1_d_1047_530" x="86" y="89" width="25" height="25" filterUnits="userSpaceOnUse" color-interpolation-filters="sRGB">
<feFlood flood-opacity="0" result="BackgroundImageFix"/>
<feColorMatrix in="SourceAlpha" type="matrix" values="0 0 0 0 0 0 0 0 0 0 0 0 0 0 0 0 0 0 127 0" result="hardAlpha"/>
<feOffset dy="4"/>
<feGaussianBlur stdDeviation="2"/>
<feComposite in2="hardAlpha" operator="out"/>
<feColorMatrix type="matrix" values="0 0 0 0 0.25098 0 0 0 0 0.12549 0 0 0 0 0.0745098 0 0 0 0.25 0"/>
<feBlend mode="normal" in2="BackgroundImageFix" result="effect1_dropShadow_1047_530"/>
<feBlend mode="normal" in="SourceGraphic" in2="effect1_dropShadow_1047_530" result="shape"/>
</filter>
<filter id="filter2_d_1047_530" x="198" y="120" width="14" height="14" filterUnits="userSpaceOnUse" color-interpolation-filters="sRGB">
<feFlood flood-opacity="0" result="BackgroundImageFix"/>
<feColorMatrix in="SourceAlpha" type="matrix" values="0 0 0 0 0 0 0 0 0 0 0 0 0 0 0 0 0 0 127 0" result="hardAlpha"/>
<feOffset dy="4"/>
<feGaussianBlur stdDeviation="2"/>
<feComposite in2="hardAlpha" operator="out"/>
<feColorMatrix type="matrix" values="0 0 0 0 0.25098 0 0 0 0 0.12549 0 0 0 0 0.0745098 0 0 0 0.25 0"/>
<feBlend mode="normal" in2="BackgroundImageFix" result="effect1_dropShadow_1047_530"/>
<feBlend mode="normal" in="SourceGraphic" in2="effect1_dropShadow_1047_530" result="shape"/>
</filter>
<filter id="filter3_d_1047_530" x="38" y="85" width="14" height="14" filterUnits="userSpaceOnUse" color-interpolation-filters="sRGB">
<feFlood flood-opacity="0" result="BackgroundImageFix"/>
<feColorMatrix in="SourceAlpha" type="matrix" values="0 0 0 0 0 0 0 0 0 0 0 0 0 0 0 0 0 0 127 0" result="hardAlpha"/>
<feOffset dy="4"/>
<feGaussianBlur stdDeviation="2"/>
<feComposite in2="hardAlpha" operator="out"/>
<feColorMatrix type="matrix" values="0 0 0 0 0.25098 0 0 0 0 0.12549 0 0 0 0 0.0745098 0 0 0 0.25 0"/>
<feBlend mode="normal" in2="BackgroundImageFix" result="effect1_dropShadow_1047_530"/>
<feBlend mode="normal" in="SourceGraphic" in2="effect1_dropShadow_1047_530" result="shape"/>
</filter>
<filter id="filter4_d_1047_530" x="232" y="94" width="16" height="16" filterUnits="userSpaceOnUse" color-interpolation-filters="sRGB">
<feFlood flood-opacity="0" result="BackgroundImageFix"/>
<feColorMatrix in="SourceAlpha" type="matrix" values="0 0 0 0 0 0 0 0 0 0 0 0 0 0 0 0 0 0 127 0" result="hardAlpha"/>
<feOffset dy="4"/>
<feGaussianBlur stdDeviation="2"/>
<feComposite in2="hardAlpha" operator="out"/>
<feColorMatrix type="matrix" values="0 0 0 0 0.25098 0 0 0 0 0.12549 0 0 0 0 0.0745098 0 0 0 0.25 0"/>
<feBlend mode="normal" in2="BackgroundImageFix" result="effect1_dropShadow_1047_530"/>
<feBlend mode="normal" in="SourceGraphic" in2="effect1_dropShadow_1047_530" result="shape"/>
</filter>
</defs>
</svg>
