<svg width="334" height="411" viewBox="0 0 334 411" fill="none" xmlns="http://www.w3.org/2000/svg">
<path d="M167.283 233.468C167.384 233.528 167.447 233.637 167.447 233.755C167.447 234.013 167.727 234.174 167.95 234.042L302.345 154.688C310.345 149.965 320.447 155.732 320.447 165.022V311.083C320.447 315.292 318.242 319.192 314.637 321.363L167.46 409.994C167.452 409.998 167.447 410.007 167.447 410.017C167.447 410.038 167.423 410.051 167.405 410.04L19.2188 320.07C15.6349 317.894 13.4465 314.005 13.4465 309.812V163.595C13.4465 154.304 23.5519 148.537 31.5512 153.264L167.283 233.468Z" fill="#71901B"/>
<path d="M13.4465 143L167.447 233.501V402.893C167.447 406.011 164.036 407.93 161.371 406.312L13.4465 316.501V143Z" fill="#9DBB47"/>
<path d="M13.3884 207.5L166.888 298.783V369L13.3884 272.5V207.5Z" fill="#B9D272"/>
<path d="M13.4465 143L167.447 233.501V302.5L13.4465 209V143Z" fill="#CEE985"/>
<path d="M321.388 212L167.224 302.217V368.5L321.388 277.793V212Z" fill="#B9D272"/>
<path d="M321.389 146.117L167.224 236.501V302L321.389 212.117V146.117Z" fill="#CEE985"/>
<path d="M13.4465 143L167.447 233.001V254.001L13.4465 165V143Z" fill="#89A836"/>
<path d="M321.447 143L167.447 233V254L321.388 164.5L321.447 143Z" fill="#7A972B"/>
<path d="M320.921 144.387L167.649 233.5L13.9748 143.891C13.3028 143.499 13.3159 142.524 13.9982 142.15L161.86 61.1703C165.464 59.1962 169.828 59.204 173.426 61.191L320.902 142.647C321.582 143.023 321.593 143.996 320.921 144.387Z" fill="#A7CA4C"/>
<g filter="url(#filter0_d_1048_621)">
<ellipse cx="166.947" cy="133.5" rx="61.5" ry="37.5" fill="#F6E8D8"/>
</g>
<path d="M225.818 122.623C227.526 126.066 228.447 129.717 228.447 133.5C228.447 154.211 200.912 171 166.947 171C141.773 171 120.132 161.777 110.615 148.57C149.548 163.653 205.779 164.612 225.818 122.623Z" fill="#E6CFB5"/>
<path d="M133.454 146C132.724 134.152 188.698 121.843 206.947 138L133.454 146Z" fill="#F6E8D8"/>
<path d="M144.578 141.09C103.56 166.225 75.5897 123.551 58.4309 105.887C146.994 96.5857 138.206 127.472 144.578 141.09Z" fill="#72A934"/>
<path d="M144.497 141.028C120.937 145.467 101.733 122.805 90.7494 117.844C147.028 131.817 140.135 137.478 144.497 141.028Z" fill="#659C27"/>
<path d="M167.446 357.444L321.446 267V278L167.446 369L13.4463 275.546V266L167.446 357.444Z" fill="#E5EFB3"/>
<path d="M167.446 299.444L321.446 209V218.547L167.446 311L13.4463 217.546V208L167.446 299.444Z" fill="#E5EFB3"/>
<path d="M13.4463 208L167.446 299.5L167.446 311L13.4463 217.5L13.4463 208Z" fill="#F6FECD"/>
<path d="M13.3884 266L167.669 357.5L167.669 369L13.3884 275.5L13.3884 266Z" fill="#F6FECD"/>
<defs>
<filter id="filter0_d_1048_621" x="88.4465" y="84" width="157" height="109" filterUnits="userSpaceOnUse" color-interpolation-filters="sRGB">
<feFlood flood-opacity="0" result="BackgroundImageFix"/>
<feColorMatrix in="SourceAlpha" type="matrix" values="0 0 0 0 0 0 0 0 0 0 0 0 0 0 0 0 0 0 127 0" result="hardAlpha"/>
<feMorphology radius="4" operator="dilate" in="SourceAlpha" result="effect1_dropShadow_1048_621"/>
<feOffset dy="5"/>
<feGaussianBlur stdDeviation="6.5"/>
<feComposite in2="hardAlpha" operator="out"/>
<feColorMatrix type="matrix" values="0 0 0 0 0.478431 0 0 0 0 0.596078 0 0 0 0 0.168627 0 0 0 1 0"/>
<feBlend mode="normal" in2="BackgroundImageFix" result="effect1_dropShadow_1048_621"/>
<feBlend mode="normal" in="SourceGraphic" in2="effect1_dropShadow_1048_621" result="shape"/>
</filter>
</defs>
</svg>
