<svg width="696" height="362" viewBox="0 0 696 362" fill="none" xmlns="http://www.w3.org/2000/svg">
<rect x="320.754" y="104.802" width="38.477" height="226.335" fill="#9C9C9C"/>
<rect x="166.846" y="88.958" width="346.293" height="29.4236" rx="3" fill="#CCAC85"/>
<rect x="270.96" y="315.293" width="138.065" height="20.3702" rx="3" fill="#727272"/>
<path fill-rule="evenodd" clip-rule="evenodd" d="M86.1911 354.432H81.121V216.948H191.395L185.057 218.209H89.9936L86.1911 354.432Z" fill="#CCAC85"/>
<path fill-rule="evenodd" clip-rule="evenodd" d="M76.051 354.432V210.641L193.93 211.902L199 218.209L191.395 216.948H81.121V354.432H76.051Z" fill="#836E54"/>
<path d="M199 354.432V218.209L191.395 216.948L193.93 354.432H199Z" fill="#CCAC85"/>
<path d="M185.057 218.209L188.86 354.432H193.93L191.395 216.948L185.057 218.209Z" fill="#836E54"/>
<path d="M8.23885 2.52265L0 5.0453L55.6403 215.686H59.5732L8.23885 2.52265Z" fill="#836E54"/>
<path fill-rule="evenodd" clip-rule="evenodd" d="M58.3057 362V225.777L55.6403 215.686H59.5732H181.255V224.516H173.65H167.312H63.3758V362H58.3057Z" fill="#836E54"/>
<path fill-rule="evenodd" clip-rule="evenodd" d="M68.4459 362H63.3758V224.516H167.312V225.777H72.2484L68.4459 362ZM181.255 200.551V215.686H59.5732L8.23885 2.52265L16.4777 0L21.5478 20.1812H45.6306V5.0453H58.3057L96.3312 200.551H181.255ZM25.3503 42.885H36.758L72.2484 195.505H58.3057L25.3503 42.885ZM43.0955 42.885H53.2357L86.1911 195.505H77.3185L43.0955 42.885Z" fill="#CCAC85"/>
<path d="M167.312 225.777L171.115 362H176.185L173.65 224.516H167.312V225.777Z" fill="#836E54"/>
<path d="M181.255 362V224.516H173.65L176.185 362H181.255Z" fill="#CCAC85"/>
<path fill-rule="evenodd" clip-rule="evenodd" d="M199 201.812C199 197.632 195.595 194.244 191.395 194.244H51.9682C47.768 194.244 44.3631 197.632 44.3631 201.812V201.828C44.3782 214.292 80.5135 216.775 199 214.425V201.812Z" fill="#90A260"/>
<path d="M44.3631 214.425C44.3631 218.605 47.768 221.993 51.9682 221.993H191.395C195.595 221.993 199 218.605 199 214.425C80.5135 216.775 44.3782 214.292 44.3631 201.828V214.425Z" fill="#6D7D42"/>
<path fill-rule="evenodd" clip-rule="evenodd" d="M609.809 354.432H614.879V216.948H504.605L510.943 218.209H606.006L609.809 354.432Z" fill="#CCAC85"/>
<path fill-rule="evenodd" clip-rule="evenodd" d="M619.949 354.432V210.641L502.07 211.902L497 218.209L504.605 216.948H614.879V354.432H619.949Z" fill="#836E54"/>
<path d="M497 354.432V218.209L504.605 216.948L502.07 354.432H497Z" fill="#CCAC85"/>
<path d="M510.943 218.209L507.14 354.432H502.07L504.605 216.948L510.943 218.209Z" fill="#836E54"/>
<path d="M687.761 2.52265L696 5.0453L640.36 215.686H636.427L687.761 2.52265Z" fill="#836E54"/>
<path fill-rule="evenodd" clip-rule="evenodd" d="M637.694 362V225.777L640.36 215.686H636.427H514.745V224.516H522.35H528.688H632.624V362H637.694Z" fill="#836E54"/>
<path fill-rule="evenodd" clip-rule="evenodd" d="M627.554 362H632.624V224.516H528.688V225.777H623.752L627.554 362ZM514.745 200.551V215.686H636.427L687.761 2.52265L679.522 0L674.452 20.1812H650.369V5.0453H637.694L599.669 200.551H514.745ZM670.65 42.885H659.242L623.752 195.505H637.694L670.65 42.885ZM652.904 42.885H642.764L609.809 195.505H618.682L652.904 42.885Z" fill="#CCAC85"/>
<path d="M528.688 225.777L524.885 362H519.815L522.35 224.516H528.688V225.777Z" fill="#836E54"/>
<path d="M514.745 362V224.516H522.35L519.815 362H514.745Z" fill="#CCAC85"/>
<path fill-rule="evenodd" clip-rule="evenodd" d="M497 201.812C497 197.632 500.405 194.244 504.605 194.244H644.032C648.232 194.244 651.637 197.632 651.637 201.812V201.828C651.622 214.292 615.487 216.775 497 214.425V201.812Z" fill="#90A260"/>
<path d="M651.637 214.425C651.637 218.605 648.232 221.993 644.032 221.993H504.605C500.405 221.993 497 218.605 497 214.425C615.487 216.775 651.622 214.292 651.637 201.828V214.425Z" fill="#6D7D42"/>
</svg>
