<svg width="132" height="97" viewBox="0 0 132 97" fill="none" xmlns="http://www.w3.org/2000/svg">
<ellipse cx="54.8" cy="51.2001" rx="54.8" ry="45.6" fill="#FECE62"/>
<ellipse cx="109.6" cy="35.2001" rx="22.4" ry="20.8" fill="#FECE62"/>
<ellipse cx="109.6" cy="65.6001" rx="22.4" ry="20.8" fill="#FECE62"/>
<ellipse cx="55.1999" cy="14.4" rx="32.8" ry="14.4" fill="#FECE62"/>
<circle cx="18.0001" cy="49.2001" r="4.4" fill="#9D6302"/>
<ellipse cx="35.9999" cy="51.2001" rx="1.6" ry="20.8" fill="#9D6302"/>
<ellipse cx="40.8" cy="10" rx="0.8" ry="6" fill="#9D6302"/>
<ellipse cx="55.1999" cy="8.40015" rx="0.8" ry="6" fill="#9D6302"/>
<ellipse cx="69.6001" cy="10" rx="0.8" ry="6" fill="#9D6302"/>
<path d="M104.2 32.3L124.8 31.2" stroke="#9D6302" stroke-width="2" stroke-linecap="round"/>
<path d="M104 68.3L124.8 69.6" stroke="#9D6302" stroke-width="2" stroke-linecap="round"/>
<path d="M104 49.6001H120.5" stroke="#9D6302" stroke-width="2" stroke-linecap="round"/>
<path d="M45.6001 25.1191C46.8001 23.5191 50.1601 20.6391 54.0001 21.9191C58.8001 23.5191 62.0001 24.319 62.0001 29.119C62.0001 32.7602 59.8422 35.2505 58.5957 36.1807C58.4673 36.2764 58.3431 36.3761 58.2298 36.4893C56.9895 37.7296 57.4207 39.8747 58.9123 40.7976C61.7755 42.5693 64.8001 45.3483 64.8001 48.719C64.8001 53.519 60.5334 56.5857 58.4001 57.519C55.8776 58.6001 55.4328 61.9876 57.5908 63.6832L57.8766 63.9077C58.223 64.1799 58.6215 64.3768 59.0035 64.5961C60.2611 65.3179 62.0001 67.178 62.0001 70.719C62.0001 72.3107 61.3755 73.8361 60.4847 75.1875C58.0035 78.9519 53.2778 80.1923 48.8001 80.719" stroke="#9D6302" stroke-width="3"/>
<path d="M71.2 27.0952C72.25 25.6879 75.19 23.1547 78.55 24.2806C82.75 25.6879 85.55 26.3915 85.55 30.6135C85.55 33.8152 83.6631 36.0052 82.5722 36.824C82.4592 36.9088 82.3498 36.997 82.2501 37.0971C81.1629 38.19 81.5425 40.0734 82.8514 40.8879C85.3557 42.4463 88 44.8898 88 47.8534C88 52.0754 84.2666 54.7727 82.4 55.5937C80.1873 56.5469 79.7962 59.5183 81.6869 61.0116L81.9386 61.2105C82.2439 61.4516 82.5955 61.6261 82.9322 61.821C84.0322 62.4576 85.55 64.0935 85.55 67.2042C85.55 68.6091 84.9996 69.9552 84.2158 71.1469C82.0483 74.4429 77.9175 75.5367 74 76" stroke="#9D6302" stroke-width="3"/>
</svg>
