<svg width="347" height="428" viewBox="0 0 347 428" fill="none" xmlns="http://www.w3.org/2000/svg">
<path d="M61.5522 394.802L16.2998 35.2998H332.3L285.513 394.802C267.106 440.027 82.261 436.195 61.5522 394.802Z" fill="white" stroke="white"/>
<g filter="url(#filter0_d_1235_334)">
<ellipse cx="173.3" cy="43.2998" rx="168" ry="42" fill="#EED1B4"/>
<path d="M173.3 5.2998C219.463 5.2998 261.122 9.98104 291.124 17.4814C306.155 21.2393 318.036 25.6504 326.062 30.3945C334.357 35.2969 337.3 39.7881 337.3 43.2998C337.3 46.8115 334.357 51.3027 326.062 56.2051C318.036 60.9492 306.155 65.3603 291.124 69.1182C261.122 76.6186 219.463 81.2998 173.3 81.2998C127.136 81.2998 85.4772 76.6186 55.4756 69.1182C40.4442 65.3603 28.5635 60.9492 20.5371 56.2051C12.243 51.3027 9.2998 46.8115 9.2998 43.2998C9.2998 39.7881 12.243 35.2969 20.5371 30.3945C28.5635 25.6504 40.4442 21.2393 55.4756 17.4814C85.4772 9.98104 127.136 5.2998 173.3 5.2998Z" stroke="white" stroke-width="8"/>
</g>
<path d="M51.654 348.594L32.1796 187.443C32.0033 185.984 33.3799 184.828 34.7792 185.277C114.427 210.818 246.528 207.618 312.787 185.342C314.195 184.869 315.59 186.033 315.412 187.508L295.937 348.668C295.852 349.369 295.42 349.968 294.771 350.247C236.766 375.185 124.559 376.627 52.9276 350.219C52.2272 349.961 51.7436 349.335 51.654 348.594Z" fill="#75879E"/>
<path d="M218.846 312.638L221.111 269.277L213.993 270.247L126.3 295.164C126.546 300.03 126.795 304.245 127.056 308.107L213.993 282.544L212.698 295.164L127.927 319.433C128.236 323.032 128.569 326.587 128.935 330.435L212.698 305.195L211.727 314.999C214.032 314.238 216.402 313.452 218.846 312.638Z" fill="#F7BB63"/>
<path d="M161.895 251.479C160.859 253.291 137.733 281.357 126.3 295.164L213.993 270.247C207.042 271.63 203.659 271.384 199.107 267.982C194.653 267.184 192.95 266.046 191.665 262.481C188.173 262.66 186.231 263.351 182.604 258.598C179.287 258.419 177.655 257.698 175.485 254.392C172.25 255.618 171.041 255.294 169.661 253.421C165.922 255.297 164.27 254.691 161.895 251.479Z" fill="#FFDCC9"/>
<path d="M127.927 319.433L212.698 295.164L213.993 282.544L127.056 308.107C127.33 312.156 127.617 315.817 127.927 319.433Z" fill="#FFDCC9"/>
<path d="M128.935 330.435C129.221 333.439 129.528 336.621 129.859 340.143C162.363 330.78 181.51 324.986 211.727 314.999L212.698 305.195L128.935 330.435Z" fill="#FFDCC9"/>
<path d="M221.111 269.277C224.761 262.783 226.717 259.118 218.846 249.538C214.43 247.146 211.771 246.021 205.903 245.331C204.525 247.44 203.566 248.29 201.696 249.538C199.243 249.608 197.823 249.801 194.901 251.479C192.255 255.255 191.644 257.703 191.665 262.481C192.95 266.046 194.653 267.184 199.107 267.982C203.659 271.384 207.042 271.63 213.993 270.247L221.111 269.277Z" fill="url(#paint0_linear_1235_334)"/>
<path d="M201.696 249.538C202.258 244.434 202.116 242.001 197.813 241.448C196.427 238.936 195.222 238.365 192.636 238.212C189.868 239.662 187.894 240.349 183.899 241.448C179.976 241.242 178.096 242.359 175.162 245.978C173.958 249.64 174.172 251.441 175.485 254.392C177.655 257.698 179.287 258.419 182.604 258.598C186.231 263.351 188.173 262.66 191.665 262.481C191.644 257.703 192.255 255.255 194.901 251.479C197.823 249.801 199.243 249.608 201.696 249.538Z" fill="url(#paint1_linear_1235_334)"/>
<path d="M183.899 241.448C181.802 237.648 179.968 236.062 174.191 235.3C168.304 235.479 165.211 237.284 159.953 242.742C158.835 246.387 159.307 248.294 161.895 251.479C164.27 254.691 165.922 255.297 169.661 253.421C171.041 255.294 172.25 255.618 175.485 254.392C174.172 251.441 173.958 249.64 175.162 245.978C178.096 242.359 179.976 241.242 183.899 241.448Z" fill="url(#paint2_linear_1235_334)"/>
<path fill-rule="evenodd" clip-rule="evenodd" d="M180.558 266.869C180.335 267.292 180.111 267.532 179.801 267.628C184.339 267.75 185.385 265.456 185.891 259.961C184.037 260.125 183.123 260.581 181.736 261.935C181.668 263.781 181.464 264.802 181.163 265.6C182.298 264.515 182.947 263.655 183.983 262.284C184.061 262.182 184.14 262.076 184.223 261.967C182.898 264.042 182.129 265.161 180.558 266.869Z" fill="#8AAD79"/>
<path d="M184.223 261.967C182.898 264.042 182.129 265.161 180.558 266.869C180.787 266.444 180.991 266.059 181.163 265.6C182.298 264.515 182.947 263.655 183.983 262.284C184.061 262.182 184.14 262.076 184.223 261.967Z" fill="#75876C"/>
<path d="M185.891 259.961C186.269 262.254 186.128 263.549 185.106 265.99C182.645 268.19 181.217 268.182 178.721 267.577C179.187 267.687 179.527 267.713 179.801 267.628C184.339 267.75 185.385 265.456 185.891 259.961Z" fill="#75876C"/>
<path d="M173.298 266.525C172.751 266.393 172.445 266.319 171.899 266.187L170.569 266.117L169.21 265.898C170.692 263.232 172.686 261.139 173.896 260.073C175.445 264.019 175.48 264.971 175.378 266.42L173.298 266.525Z" fill="#FC5340"/>
<path fill-rule="evenodd" clip-rule="evenodd" d="M178.874 261.634C178.049 260.234 176.79 258.352 174.854 255.658C170.667 257.56 168.716 262.69 167.479 265.634L169.21 265.898C170.692 263.232 172.686 261.139 173.896 260.073C175.445 264.019 175.48 264.971 175.378 266.42C176.083 266.527 176.828 266.791 177.81 267.237C178.107 267.358 178.379 267.489 178.632 267.632C179.685 266.028 179.672 264.664 178.874 261.634Z" fill="url(#paint3_linear_1235_334)"/>
<path d="M180.543 266.425C180.583 266.902 180.523 267.224 180.314 267.473C180.129 267.692 179.828 267.853 179.377 268.012C179.341 268.024 179.303 268.037 179.265 268.05C179.067 267.898 178.857 267.76 178.632 267.632C179.685 266.028 179.672 264.664 178.874 261.634C179.812 263.226 180.191 264.196 180.368 265.03C180.47 265.509 180.506 265.944 180.543 266.425Z" fill="#FC5340"/>
<path fill-rule="evenodd" clip-rule="evenodd" d="M180.543 266.425C180.583 266.902 180.523 267.224 180.314 267.473C184.202 265.129 183.846 262.633 181.31 257.732C179.837 258.869 179.313 259.746 178.874 261.634C179.812 263.226 180.191 264.196 180.368 265.03C180.738 263.504 180.822 262.43 180.955 260.717C180.965 260.589 180.976 260.457 180.986 260.321C180.989 262.782 180.944 264.14 180.543 266.425Z" fill="#8BAD79"/>
<path d="M180.986 260.321C180.989 262.782 180.944 264.14 180.543 266.425C180.506 265.944 180.47 265.509 180.368 265.03C180.738 263.504 180.822 262.43 180.955 260.717C180.965 260.589 180.976 260.457 180.986 260.321Z" fill="#75876C"/>
<path d="M181.31 257.732C182.865 259.46 183.444 260.626 183.899 263.233C183.012 266.413 181.806 267.176 179.377 268.012C179.828 267.853 180.129 267.692 180.314 267.473C184.202 265.129 183.846 262.633 181.31 257.732Z" fill="#75876C"/>
<g filter="url(#filter1_f_1235_334)">
<ellipse cx="282.3" cy="51.2998" rx="9" ry="3" fill="#D5B793"/>
</g>
<g filter="url(#filter2_f_1235_334)">
<ellipse cx="71.7998" cy="34.7998" rx="12.5" ry="2.5" fill="#FBEFDC"/>
</g>
<g filter="url(#filter3_f_1235_334)">
<path d="M199.025 59.9514C156.206 61.0663 132.093 59.1896 120.523 58.7251C99.3647 57.0899 61.9578 50.9434 112.737 39.438C99.7618 34.6999 107.439 28.6982 116.306 26.1712C117.928 25.558 126.369 23.0341 147.772 23.3283C163.991 23.5513 171.128 25.0192 173.723 26.1712C176.837 23.5401 193.186 23.1796 200.972 23.3283C234.059 23.3283 241.412 32.8975 231.14 39.438C283.561 50.8988 247.792 57.5359 225.95 58.7251C208.562 59.617 202.593 59.9514 199.025 59.9514Z" fill="#FFEFE2"/>
<path d="M199.025 59.9514C156.206 61.0663 132.093 59.1896 120.523 58.7251C99.3647 57.0899 61.9578 50.9434 112.737 39.438C99.7618 34.6999 107.439 28.6982 116.306 26.1712C117.928 25.558 126.369 23.0341 147.772 23.3283C163.991 23.5513 171.128 25.0192 173.723 26.1712C176.837 23.5401 193.186 23.1796 200.972 23.3283C234.059 23.3283 241.412 32.8975 231.14 39.438C283.561 50.8988 247.792 57.5359 225.95 58.7251C208.562 59.617 202.593 59.9514 199.025 59.9514Z" stroke="#EABA93" stroke-width="5"/>
</g>
<defs>
<filter id="filter0_d_1235_334" x="-0.000195503" y="-0.000195503" width="346.6" height="94.6" filterUnits="userSpaceOnUse" color-interpolation-filters="sRGB">
<feFlood flood-opacity="0" result="BackgroundImageFix"/>
<feColorMatrix in="SourceAlpha" type="matrix" values="0 0 0 0 0 0 0 0 0 0 0 0 0 0 0 0 0 0 127 0" result="hardAlpha"/>
<feOffset dy="4"/>
<feGaussianBlur stdDeviation="2.65"/>
<feComposite in2="hardAlpha" operator="out"/>
<feColorMatrix type="matrix" values="0 0 0 0 0 0 0 0 0 0 0 0 0 0 0 0 0 0 0.25 0"/>
<feBlend mode="normal" in2="BackgroundImageFix" result="effect1_dropShadow_1235_334"/>
<feBlend mode="normal" in="SourceGraphic" in2="effect1_dropShadow_1235_334" result="shape"/>
</filter>
<filter id="filter1_f_1235_334" x="269.3" y="44.2998" width="26" height="14" filterUnits="userSpaceOnUse" color-interpolation-filters="sRGB">
<feFlood flood-opacity="0" result="BackgroundImageFix"/>
<feBlend mode="normal" in="SourceGraphic" in2="BackgroundImageFix" result="shape"/>
<feGaussianBlur stdDeviation="2" result="effect1_foregroundBlur_1235_334"/>
</filter>
<filter id="filter2_f_1235_334" x="45.4998" y="18.4998" width="52.6" height="32.6" filterUnits="userSpaceOnUse" color-interpolation-filters="sRGB">
<feFlood flood-opacity="0" result="BackgroundImageFix"/>
<feBlend mode="normal" in="SourceGraphic" in2="BackgroundImageFix" result="shape"/>
<feGaussianBlur stdDeviation="6.9" result="effect1_foregroundBlur_1235_334"/>
</filter>
<filter id="filter3_f_1235_334" x="74.7988" y="10.7998" width="196.002" height="62" filterUnits="userSpaceOnUse" color-interpolation-filters="sRGB">
<feFlood flood-opacity="0" result="BackgroundImageFix"/>
<feBlend mode="normal" in="SourceGraphic" in2="BackgroundImageFix" result="shape"/>
<feGaussianBlur stdDeviation="5" result="effect1_foregroundBlur_1235_334"/>
</filter>
<linearGradient id="paint0_linear_1235_334" x1="175.3" y1="235.3" x2="175.3" y2="340.143" gradientUnits="userSpaceOnUse">
<stop stop-color="white"/>
<stop offset="1" stop-color="#C84600"/>
</linearGradient>
<linearGradient id="paint1_linear_1235_334" x1="175.3" y1="235.3" x2="175.3" y2="340.143" gradientUnits="userSpaceOnUse">
<stop stop-color="white"/>
<stop offset="1" stop-color="#FF4C4C"/>
</linearGradient>
<linearGradient id="paint2_linear_1235_334" x1="175.3" y1="235.3" x2="175.3" y2="340.143" gradientUnits="userSpaceOnUse">
<stop stop-color="#FFE4D5"/>
<stop offset="1" stop-color="#A79D98"/>
</linearGradient>
<linearGradient id="paint3_linear_1235_334" x1="174.662" y1="255.68" x2="176.156" y2="268.415" gradientUnits="userSpaceOnUse">
<stop stop-color="#FFBC91"/>
<stop offset="0.25" stop-color="#F75D42"/>
</linearGradient>
</defs>
</svg>
