<svg width="347" height="428" viewBox="0 0 347 428" fill="none" xmlns="http://www.w3.org/2000/svg">
<path d="M61.5522 394.802L16.2998 35.2998H332.3L285.513 394.802C267.106 440.027 82.261 436.195 61.5522 394.802Z" fill="white" stroke="white"/>
<g filter="url(#filter0_d_1235_335)">
<ellipse cx="173.3" cy="43.2998" rx="168" ry="42" fill="#624925"/>
<path d="M173.3 5.2998C219.463 5.2998 261.122 9.98104 291.124 17.4814C306.155 21.2393 318.036 25.6504 326.062 30.3945C334.357 35.2969 337.3 39.7881 337.3 43.2998C337.3 46.8115 334.357 51.3027 326.062 56.2051C318.036 60.9492 306.155 65.3603 291.124 69.1182C261.122 76.6186 219.463 81.2998 173.3 81.2998C127.136 81.2998 85.4772 76.6186 55.4756 69.1182C40.4442 65.3603 28.5635 60.9492 20.5371 56.2051C12.243 51.3027 9.2998 46.8115 9.2998 43.2998C9.2998 39.7881 12.243 35.2969 20.5371 30.3945C28.5635 25.6504 40.4442 21.2393 55.4756 17.4814C85.4772 9.98104 127.136 5.2998 173.3 5.2998Z" stroke="white" stroke-width="8"/>
</g>
<path d="M51.654 348.594L32.1796 187.443C32.0033 185.984 33.3799 184.828 34.7792 185.277C114.427 210.818 246.528 207.618 312.787 185.342C314.195 184.869 315.59 186.033 315.412 187.508L295.937 348.668C295.852 349.369 295.42 349.968 294.771 350.247C236.766 375.185 124.559 376.627 52.9276 350.219C52.2272 349.961 51.7436 349.335 51.654 348.594Z" fill="#839E75"/>
<g filter="url(#filter1_f_1235_335)">
<path d="M162.589 34.5693L161.759 33.4165C160.616 31.8295 159.168 30.4861 157.501 29.4645C155.536 28.2612 153.317 27.5354 151.021 27.3455L142.719 26.6588C139.834 26.4202 136.932 26.5098 134.068 26.9256L129.871 27.5351C129.417 27.6009 128.974 27.7248 128.552 27.9036C125.849 29.0483 124.571 32.1552 125.686 34.8706L125.773 35.084C126.264 36.2802 127.155 37.2691 128.293 37.8824L137.897 43.055C138.069 43.148 138.039 43.4045 137.849 43.4548L122.008 47.6561C121.097 47.8977 120.28 48.4079 119.663 49.1202C117.537 51.5746 118.485 55.3944 121.512 56.5702L123.016 57.1545C123.453 57.3242 123.908 57.4406 124.373 57.5013L138.378 59.3283L173.507 60.4126H186.374L210.065 59.6619L233.835 56.195C234.962 56.0306 235.798 55.064 235.798 53.9248C235.798 53.2282 235.482 52.5693 234.938 52.1339L230.572 48.6379C228.904 47.3032 226.953 46.3694 224.868 45.9086L214.047 43.5176C213.72 43.4452 213.651 43.0084 213.941 42.8387L219.459 39.6066C220.408 39.0505 221.282 38.3742 222.059 37.5945L224.634 35.0094C225.375 34.2656 225.791 33.2586 225.791 32.2088C225.791 30.819 225.064 29.5305 223.874 28.8119L222.368 27.9018C221.396 27.315 220.298 26.97 219.166 26.8959L213.143 26.5014C211.096 26.3673 209.04 26.4313 207.005 26.6925L198.557 27.7768C196.712 28.0135 194.924 28.5751 193.276 29.4354C191.284 30.4746 189.538 31.9277 188.155 33.6971L187.094 35.053C184.19 38.7671 179.738 40.9374 175.023 40.9374C170.096 40.9374 165.469 38.5678 162.589 34.5693Z" fill="#FBEFDB" stroke="#BC7842" stroke-width="3"/>
<g filter="url(#filter2_f_1235_335)">
<ellipse cx="134.702" cy="54.9496" rx="13.2753" ry="2.54386" fill="#CEA97A"/>
</g>
<g filter="url(#filter3_f_1235_335)">
<ellipse cx="13.2753" cy="2.54386" rx="13.2753" ry="2.54386" transform="matrix(-1 0 0 1 227.22 52.4058)" fill="#CEA97A"/>
</g>
<path d="M157.491 52.2194C154.651 53.4991 146.935 54.0356 140.257 53.4177C133.579 52.7998 130.468 51.2615 133.307 49.9818C136.147 48.7021 141.671 49.1532 148.35 49.7711C155.028 50.389 160.331 50.9397 157.491 52.2194Z" fill="#78451C"/>
<path d="M189.895 52.2194C192.735 53.4991 200.451 54.0356 207.129 53.4177C213.807 52.7998 216.919 51.2615 214.079 49.9818C211.239 48.7021 205.715 49.1532 199.037 49.7711C192.359 50.389 187.055 50.9397 189.895 52.2194Z" fill="#78451C"/>
<path d="M145.613 50.7942C149.756 51.1775 153.152 51.5141 155.138 51.9207C156.137 52.1252 156.538 52.302 156.644 52.4212C156.704 52.4898 156.657 52.4796 156.633 52.4904C156.379 52.6047 155.045 53.01 151.502 53.2478C148.275 53.4643 144.307 53.4481 140.504 53.0963C136.701 52.7444 134.025 52.1458 132.695 51.5077C131.235 50.807 131.848 50.3349 132.101 50.2205C132.125 50.2098 132.057 50.2093 132.35 50.1734C132.859 50.1111 133.774 50.056 135.185 50.0746C137.993 50.1115 141.47 50.4109 145.613 50.7942Z" stroke="#78451C" stroke-width="5"/>
<path d="M201.775 50.7942C197.632 51.1775 194.236 51.5141 192.249 51.9207C191.25 52.1252 190.85 52.302 190.744 52.4212C190.683 52.4898 190.731 52.4796 190.755 52.4904C191.009 52.6047 192.343 53.01 195.886 53.2478C199.113 53.4643 203.081 53.4481 206.884 53.0963C210.686 52.7444 213.362 52.1458 214.692 51.5077C216.152 50.807 215.54 50.3349 215.286 50.2205C215.263 50.2098 215.331 50.2093 215.038 50.1734C214.529 50.1111 213.614 50.056 212.202 50.0746C209.395 50.1115 205.918 50.4109 201.775 50.7942Z" stroke="#78451C" stroke-width="5"/>
<ellipse cx="4.65655" cy="1.27983" rx="4.65655" ry="1.27983" transform="matrix(0.993444 0.114323 -0.940193 0.340641 147.933 47.6514)" fill="#78451C"/>
<ellipse cx="4.65655" cy="1.27983" rx="4.65655" ry="1.27983" transform="matrix(-0.993444 0.114323 0.940193 0.340641 201.753 47.8184)" fill="#78451C"/>
<path d="M174.374 54.3745C174.475 54.3961 174.58 54.3961 174.682 54.3745C175.554 54.1895 175.419 52.9059 174.528 52.9059C173.636 52.9059 173.502 54.1895 174.374 54.3745Z" fill="#CEA97A"/>
<line y1="-1.5" x2="4.97209" y2="-1.5" transform="matrix(0.98583 -0.167747 0.971268 0.237988 169.626 55.2417)" stroke="#FBEFDB" stroke-width="3"/>
<line y1="-1.5" x2="5.41967" y2="-1.5" transform="matrix(0.979783 -0.200062 0.979783 0.200062 169.218 55.4917)" stroke="#78451C" stroke-width="3"/>
<line y1="-1.5" x2="4.94976" y2="-1.5" transform="matrix(-0.971268 -0.237988 -0.98583 0.167747 178.11 55.502)" stroke="#78451C" stroke-width="3"/>
<path d="M158.598 35.5996C162.424 39.7648 167.38 41.3546 152.879 42.3138C138.378 43.815 137.303 40.5989 133.477 36.4337C129.65 32.2685 132.252 28.4461 140.567 28.1276C148.881 27.8092 154.771 31.4344 158.598 35.5996Z" fill="#CEA97A"/>
<path d="M191.796 35.5322C187.97 39.6974 183.014 41.2872 197.515 42.2464C212.015 43.7477 213.091 40.5315 216.917 36.3663C220.743 32.2011 218.142 28.3787 209.827 28.0602C201.512 27.7418 195.622 31.367 191.796 35.5322Z" fill="#CEA97A"/>
</g>
<g filter="url(#filter4_f_1235_335)">
<ellipse cx="61.2998" cy="40.2998" rx="9" ry="3" fill="#A98762"/>
</g>
<g filter="url(#filter5_f_1235_335)">
<ellipse cx="282.3" cy="51.2998" rx="9" ry="3" fill="#D5B793"/>
</g>
<defs>
<filter id="filter0_d_1235_335" x="-0.000195503" y="-0.000195503" width="346.6" height="94.6" filterUnits="userSpaceOnUse" color-interpolation-filters="sRGB">
<feFlood flood-opacity="0" result="BackgroundImageFix"/>
<feColorMatrix in="SourceAlpha" type="matrix" values="0 0 0 0 0 0 0 0 0 0 0 0 0 0 0 0 0 0 127 0" result="hardAlpha"/>
<feOffset dy="4"/>
<feGaussianBlur stdDeviation="2.65"/>
<feComposite in2="hardAlpha" operator="out"/>
<feColorMatrix type="matrix" values="0 0 0 0 0 0 0 0 0 0 0 0 0 0 0 0 0 0 0.25 0"/>
<feBlend mode="normal" in2="BackgroundImageFix" result="effect1_dropShadow_1235_335"/>
<feBlend mode="normal" in="SourceGraphic" in2="effect1_dropShadow_1235_335" result="shape"/>
</filter>
<filter id="filter1_f_1235_335" x="102.015" y="9.93311" width="150.284" height="66.9795" filterUnits="userSpaceOnUse" color-interpolation-filters="sRGB">
<feFlood flood-opacity="0" result="BackgroundImageFix"/>
<feBlend mode="normal" in="SourceGraphic" in2="BackgroundImageFix" result="shape"/>
<feGaussianBlur stdDeviation="7.5" result="effect1_foregroundBlur_1235_335"/>
</filter>
<filter id="filter2_f_1235_335" x="101.427" y="32.4058" width="66.5503" height="45.0879" filterUnits="userSpaceOnUse" color-interpolation-filters="sRGB">
<feFlood flood-opacity="0" result="BackgroundImageFix"/>
<feBlend mode="normal" in="SourceGraphic" in2="BackgroundImageFix" result="shape"/>
<feGaussianBlur stdDeviation="10" result="effect1_foregroundBlur_1235_335"/>
</filter>
<filter id="filter3_f_1235_335" x="180.67" y="32.4058" width="66.5503" height="45.0879" filterUnits="userSpaceOnUse" color-interpolation-filters="sRGB">
<feFlood flood-opacity="0" result="BackgroundImageFix"/>
<feBlend mode="normal" in="SourceGraphic" in2="BackgroundImageFix" result="shape"/>
<feGaussianBlur stdDeviation="10" result="effect1_foregroundBlur_1235_335"/>
</filter>
<filter id="filter4_f_1235_335" x="48.2998" y="33.2998" width="26" height="14" filterUnits="userSpaceOnUse" color-interpolation-filters="sRGB">
<feFlood flood-opacity="0" result="BackgroundImageFix"/>
<feBlend mode="normal" in="SourceGraphic" in2="BackgroundImageFix" result="shape"/>
<feGaussianBlur stdDeviation="2" result="effect1_foregroundBlur_1235_335"/>
</filter>
<filter id="filter5_f_1235_335" x="269.3" y="44.2998" width="26" height="14" filterUnits="userSpaceOnUse" color-interpolation-filters="sRGB">
<feFlood flood-opacity="0" result="BackgroundImageFix"/>
<feBlend mode="normal" in="SourceGraphic" in2="BackgroundImageFix" result="shape"/>
<feGaussianBlur stdDeviation="2" result="effect1_foregroundBlur_1235_335"/>
</filter>
</defs>
</svg>
