<svg width="347" height="428" viewBox="0 0 347 428" fill="none" xmlns="http://www.w3.org/2000/svg">
<path d="M61.5522 394.802L16.2998 35.2998H332.3L285.513 394.802C267.106 440.027 82.261 436.195 61.5522 394.802Z" fill="#CCAC85" stroke="#CCAC85"/>
<g filter="url(#filter0_d_1617_715)">
<ellipse cx="173.3" cy="43.2998" rx="168" ry="42" fill="url(#paint0_radial_1617_715)"/>
<path d="M173.3 5.2998C219.463 5.2998 261.122 9.98104 291.124 17.4814C306.155 21.2393 318.036 25.6504 326.062 30.3945C334.357 35.2969 337.3 39.7881 337.3 43.2998C337.3 46.8115 334.357 51.3027 326.062 56.2051C318.036 60.9492 306.155 65.3603 291.124 69.1182C261.122 76.6186 219.463 81.2998 173.3 81.2998C127.136 81.2998 85.4772 76.6186 55.4756 69.1182C40.4442 65.3603 28.5635 60.9492 20.5371 56.2051C12.243 51.3027 9.2998 46.8115 9.2998 43.2998C9.2998 39.7881 12.243 35.2969 20.5371 30.3945C28.5635 25.6504 40.4442 21.2393 55.4756 17.4814C85.4772 9.98104 127.136 5.2998 173.3 5.2998Z" stroke="#CCAC85" stroke-width="8"/>
</g>
<path d="M51.654 348.594L32.1796 187.443C32.0033 185.984 33.3799 184.828 34.7792 185.277C114.427 210.818 246.528 207.618 312.787 185.342C314.195 184.869 315.59 186.033 315.412 187.508L295.937 348.668C295.852 349.369 295.42 349.968 294.771 350.247C236.766 375.185 124.559 376.627 52.9276 350.219C52.2272 349.961 51.7436 349.335 51.654 348.594Z" fill="white"/>
<g filter="url(#filter1_f_1617_715)">
<ellipse cx="61.2998" cy="40.2998" rx="9" ry="3" fill="#EFCCAE"/>
</g>
<g filter="url(#filter2_f_1617_715)">
<ellipse cx="282.3" cy="51.2998" rx="9" ry="3" fill="#FFDCC9"/>
</g>
<g filter="url(#filter3_f_1617_715)">
<ellipse cx="254.8" cy="40.2998" rx="5.5" ry="3" fill="#FFDCC9"/>
</g>
<g filter="url(#filter4_f_1617_715)">
<path d="M151.962 26.7998C159.201 26.7998 165.731 28.1457 170.432 30.3008C175.176 32.4759 177.876 35.3797 177.876 38.4092C177.876 41.4387 175.176 44.3425 170.432 46.5176C165.731 48.6726 159.201 50.0185 151.962 50.0186C151.51 50.0186 151.105 50.0168 150.747 50.0127C150.988 49.9537 151.246 49.8894 151.519 49.8232C152.744 49.526 154.249 49.1598 155.868 48.7148C159.1 47.827 162.827 46.6146 165.755 44.9775C168.647 43.3607 170.952 41.22 170.952 38.4092C170.952 35.5983 168.647 33.4577 165.755 31.8408C162.827 30.2038 159.1 28.9913 155.868 28.1035C154.249 27.6586 152.744 27.2924 151.519 26.9951C151.246 26.9289 150.988 26.8637 150.747 26.8047C151.105 26.8006 151.51 26.7998 151.962 26.7998Z" fill="white" stroke="white"/>
<rect x="148.506" y="26.696" width="0.792438" height="6.47319" fill="white" stroke="white" stroke-width="0.792438"/>
<path d="M185.883 43.374L175.317 57.2998H182.185L194.071 41.4365L185.883 43.374Z" fill="white"/>
<path d="M159.732 37.6826L175.317 57.2998M175.317 57.2998L185.883 43.374L194.071 41.4365L182.185 57.2998H175.317Z" stroke="white" stroke-width="3"/>
<path d="M149.685 41.0656C119.241 37.3723 129.825 36.3867 147.081 36.4962C130.752 35.8138 125.365 36.4449 120.597 36.7508C106.049 37.6841 126.465 41.1927 137.515 42.4845C163.045 45.4691 184.342 46.5275 199.249 46.4517C214.157 46.3758 222.402 45.6979 223.888 44.3261C225.375 42.9543 207.769 40.3962 192.597 39.4212C235.352 44.1537 187.955 44.1363 177.753 43.4807C173.044 43.1781 166.659 43.1248 149.685 41.0656Z" fill="white" stroke="white" stroke-width="0.845503"/>
</g>
<defs>
<filter id="filter0_d_1617_715" x="-0.000195503" y="-0.000195503" width="346.6" height="94.6" filterUnits="userSpaceOnUse" color-interpolation-filters="sRGB">
<feFlood flood-opacity="0" result="BackgroundImageFix"/>
<feColorMatrix in="SourceAlpha" type="matrix" values="0 0 0 0 0 0 0 0 0 0 0 0 0 0 0 0 0 0 127 0" result="hardAlpha"/>
<feOffset dy="4"/>
<feGaussianBlur stdDeviation="2.65"/>
<feComposite in2="hardAlpha" operator="out"/>
<feColorMatrix type="matrix" values="0 0 0 0 0 0 0 0 0 0 0 0 0 0 0 0 0 0 0.25 0"/>
<feBlend mode="normal" in2="BackgroundImageFix" result="effect1_dropShadow_1617_715"/>
<feBlend mode="normal" in="SourceGraphic" in2="effect1_dropShadow_1617_715" result="shape"/>
</filter>
<filter id="filter1_f_1617_715" x="48.2998" y="33.2998" width="26" height="14" filterUnits="userSpaceOnUse" color-interpolation-filters="sRGB">
<feFlood flood-opacity="0" result="BackgroundImageFix"/>
<feBlend mode="normal" in="SourceGraphic" in2="BackgroundImageFix" result="shape"/>
<feGaussianBlur stdDeviation="2" result="effect1_foregroundBlur_1617_715"/>
</filter>
<filter id="filter2_f_1617_715" x="269.3" y="44.2998" width="26" height="14" filterUnits="userSpaceOnUse" color-interpolation-filters="sRGB">
<feFlood flood-opacity="0" result="BackgroundImageFix"/>
<feBlend mode="normal" in="SourceGraphic" in2="BackgroundImageFix" result="shape"/>
<feGaussianBlur stdDeviation="2" result="effect1_foregroundBlur_1617_715"/>
</filter>
<filter id="filter3_f_1617_715" x="245.3" y="33.2998" width="19" height="14" filterUnits="userSpaceOnUse" color-interpolation-filters="sRGB">
<feFlood flood-opacity="0" result="BackgroundImageFix"/>
<feBlend mode="normal" in="SourceGraphic" in2="BackgroundImageFix" result="shape"/>
<feGaussianBlur stdDeviation="2" result="effect1_foregroundBlur_1617_715"/>
</filter>
<filter id="filter4_f_1617_715" x="107.108" y="18.2998" width="125.308" height="48.5" filterUnits="userSpaceOnUse" color-interpolation-filters="sRGB">
<feFlood flood-opacity="0" result="BackgroundImageFix"/>
<feBlend mode="normal" in="SourceGraphic" in2="BackgroundImageFix" result="shape"/>
<feGaussianBlur stdDeviation="4" result="effect1_foregroundBlur_1617_715"/>
</filter>
<radialGradient id="paint0_radial_1617_715" cx="0" cy="0" r="1" gradientUnits="userSpaceOnUse" gradientTransform="translate(173.3 43.2998) scale(168 42)">
<stop offset="0.3125" stop-color="#EDC089"/>
<stop offset="1" stop-color="#876D4E"/>
</radialGradient>
</defs>
</svg>
