<svg width="151" height="131" viewBox="0 0 151 131" fill="none" xmlns="http://www.w3.org/2000/svg">
<g filter="url(#filter0_d_1279_109)">
<ellipse cx="78.4604" cy="110.738" rx="16.8939" ry="7.85765" transform="rotate(7.80743 78.4604 110.738)" fill="#F9EECC"/>
<ellipse cx="78.4604" cy="110.738" rx="16.8939" ry="7.85765" transform="rotate(7.80743 78.4604 110.738)" fill="url(#paint0_linear_1279_109)"/>
<ellipse cx="130.046" cy="90.0642" rx="16.8939" ry="10.0224" transform="rotate(166.764 130.046 90.0642)" fill="#F9EECC"/>
<ellipse cx="130.046" cy="90.0642" rx="16.8939" ry="10.0224" transform="rotate(166.764 130.046 90.0642)" fill="url(#paint1_linear_1279_109)"/>
<ellipse cx="81.6268" cy="71.4308" rx="57.7537" ry="41.842" fill="#F9EECC"/>
<ellipse cx="81.6268" cy="71.4308" rx="57.7537" ry="41.842" fill="url(#paint2_radial_1279_109)"/>
<path d="M17.9168 54.281C13.7916 57.9479 7.42382 70.9597 13.8671 83.532C29.9753 83.532 41.4897 84.7295 42.2755 98.6768C43.5851 99.4625 48.6402 101.034 58.3837 101.034C63.884 102.671 76.8099 104.963 84.5104 101.034C91.5822 103.326 105.137 103.981 108.476 98.6768C116.268 97.891 129.495 93.5696 131.853 87.6761C137.808 84.9859 144.464 70.625 134.406 54.281C134.93 48.8462 133.306 36.8371 122.62 32.2797C118.56 27.2377 107.258 17.9787 94.5289 21.2789C91.7787 15.7789 69.9737 13.4215 63.2947 21.2789C53.5381 20.755 38.1502 21.2789 34.025 33.6547C26.5602 35.2262 17.9168 43.2803 17.9168 54.281Z" fill="#A2BE93"/>
<ellipse cx="24.3512" cy="97.7157" rx="20.3512" ry="17.576" fill="url(#paint3_linear_1279_109)"/>
<circle cx="30.127" cy="102.245" r="2.55374" fill="#704F36"/>
<g filter="url(#filter1_f_1279_109)">
<ellipse cx="17.6269" cy="89.8704" rx="3.14306" ry="2.94662" fill="#FFF0DF"/>
</g>
<path d="M25.0513 55.5186C51.9637 59.8403 58.0534 86.3598 58.0534 89.5029" stroke="#759266" stroke-opacity="0.9" stroke-width="1.5" stroke-linecap="round"/>
<path d="M34.8735 35.4824C76.1262 46.2867 82.8052 85.5749 82.8052 94.8077" stroke="#759266" stroke-opacity="0.9" stroke-width="1.5" stroke-linecap="round"/>
<path d="M65.9106 24.4814C100.484 37.8394 107.36 81.0565 107.36 90.2892" stroke="#759266" stroke-opacity="0.9" stroke-width="1.5" stroke-linecap="round"/>
<path d="M91.1113 25.1484C50.5731 27.657 30.3109 49.3548 27.802 58.2687" stroke="#759266" stroke-opacity="0.9" stroke-width="1.5" stroke-linecap="round"/>
<path d="M117.772 34.8926C77.2338 37.4011 45.8745 58.662 41.1599 78.7532" stroke="#759266" stroke-opacity="0.9" stroke-width="1.5" stroke-linecap="round"/>
<path d="M129.755 54.3398C101.664 56.3043 66.1079 72.216 51.0053 92.5735" stroke="#759266" stroke-opacity="0.9" stroke-width="1.5" stroke-linecap="round"/>
<path d="M98.1274 24.0879C125.04 38.6245 129.754 71.4302 129.754 77.5199" stroke="#759266" stroke-opacity="0.9" stroke-width="1.5" stroke-linecap="round"/>
<g filter="url(#filter2_f_1279_109)">
<path d="M46.8568 62.9837L32.5166 54.3403L46.8568 41.1787L59.2326 51.5901L46.8568 62.9837Z" fill="#D9D9D9"/>
<path d="M46.8568 62.9837L32.5166 54.3403L46.8568 41.1787L59.2326 51.5901L46.8568 62.9837Z" fill="url(#paint4_radial_1279_109)"/>
</g>
<g filter="url(#filter3_f_1279_109)">
<path d="M63.9464 43.9293L56.2852 38.429L69.2503 28.0176L81.6261 38.429L63.9464 43.9293Z" fill="#D9D9D9"/>
<path d="M63.9464 43.9293L56.2852 38.429L69.2503 28.0176L81.6261 38.429L63.9464 43.9293Z" fill="url(#paint5_radial_1279_109)"/>
</g>
<g filter="url(#filter4_f_1279_109)">
<path d="M83.1985 68.2874L70.2334 56.8938L83.1985 46.4824L95.5743 56.8938L83.1985 68.2874Z" fill="#D9D9D9"/>
<path d="M83.1985 68.2874L70.2334 56.8938L83.1985 46.4824L95.5743 56.8938L83.1985 68.2874Z" fill="url(#paint6_radial_1279_109)"/>
</g>
<g filter="url(#filter5_f_1279_109)">
<path d="M93.203 35.8746L85.1626 28.8947L93.203 22.5166L100.878 28.8947L93.203 35.8746Z" fill="#D9D9D9"/>
<path d="M93.203 35.8746L85.1626 28.8947L93.203 22.5166L100.878 28.8947L93.203 35.8746Z" fill="url(#paint7_radial_1279_109)"/>
</g>
<g filter="url(#filter6_f_1279_109)">
<path d="M69.2367 92.0572L61.1963 85.0774L69.2367 78.6992L76.9116 85.0774L69.2367 92.0572Z" fill="#D9D9D9"/>
<path d="M69.2367 92.0572L61.1963 85.0774L69.2367 78.6992L76.9116 85.0774L69.2367 92.0572Z" fill="url(#paint8_radial_1279_109)"/>
</g>
<g filter="url(#filter7_f_1279_109)">
<path d="M93.0794 80.4513L84.117 74.7032L91.1542 67.2328L99.6682 72.4382L93.0794 80.4513Z" fill="#D9D9D9"/>
<path d="M93.0794 80.4513L84.117 74.7032L91.1542 67.2328L99.6682 72.4382L93.0794 80.4513Z" fill="url(#paint9_radial_1279_109)"/>
</g>
<g filter="url(#filter8_f_1279_109)">
<path d="M35.7186 75.3439L26.7562 69.5957L33.7934 62.1254L42.3074 67.3308L35.7186 75.3439Z" fill="#D9D9D9"/>
<path d="M35.7186 75.3439L26.7562 69.5957L33.7934 62.1254L42.3074 67.3308L35.7186 75.3439Z" fill="url(#paint10_radial_1279_109)"/>
</g>
<g filter="url(#filter9_f_1279_109)">
<path d="M28.2846 47.1218L23.2139 43.8697L27.1953 39.6432L32.0123 42.5883L28.2846 47.1218Z" fill="#D9D9D9"/>
<path d="M28.2846 47.1218L23.2139 43.8697L27.1953 39.6432L32.0123 42.5883L28.2846 47.1218Z" fill="url(#paint11_radial_1279_109)"/>
</g>
<g filter="url(#filter10_f_1279_109)">
<path d="M47.536 32.5857L42.4654 29.3336L46.4468 25.1071L51.2638 28.0521L47.536 32.5857Z" fill="#D9D9D9"/>
<path d="M47.536 32.5857L42.4654 29.3336L46.4468 25.1071L51.2638 28.0521L47.536 32.5857Z" fill="url(#paint12_radial_1279_109)"/>
</g>
<g filter="url(#filter11_f_1279_109)">
<path d="M78.5736 27.4783L73.503 24.2261L77.4844 19.9997L82.3014 22.9447L78.5736 27.4783Z" fill="#D9D9D9"/>
<path d="M78.5736 27.4783L73.503 24.2261L77.4844 19.9997L82.3014 22.9447L78.5736 27.4783Z" fill="url(#paint13_radial_1279_109)"/>
</g>
<g filter="url(#filter12_f_1279_109)">
<path d="M116.745 78.9863L104.652 69.8726L113.776 58.6062L125.256 66.8717L116.745 78.9863Z" fill="#D9D9D9"/>
<path d="M116.745 78.9863L104.652 69.8726L113.776 58.6062L125.256 66.8717L116.745 78.9863Z" fill="url(#paint14_radial_1279_109)"/>
</g>
<g filter="url(#filter13_f_1279_109)">
<path d="M107.949 57.68L94.9844 46.2864L107.949 35.875L120.325 46.2864L107.949 57.68Z" fill="#D9D9D9"/>
<path d="M107.949 57.68L94.9844 46.2864L107.949 35.875L120.325 46.2864L107.949 57.68Z" fill="url(#paint15_radial_1279_109)"/>
</g>
<g filter="url(#filter14_f_1279_109)">
<path d="M61.5895 78.5022L55.6963 67.1086L61.5895 56.6973L73.9653 67.1086L61.5895 78.5022Z" fill="#D9D9D9"/>
<path d="M61.5895 78.5022L55.6963 67.1086L61.5895 56.6973L73.9653 67.1086L61.5895 78.5022Z" fill="url(#paint16_radial_1279_109)"/>
</g>
<g filter="url(#filter15_f_1279_109)">
<path d="M61.5895 78.5022L55.6963 67.1086L61.5895 56.6973L73.9653 67.1086L61.5895 78.5022Z" fill="#D9D9D9"/>
<path d="M61.5895 78.5022L55.6963 67.1086L61.5895 56.6973L73.9653 67.1086L61.5895 78.5022Z" fill="url(#paint17_radial_1279_109)"/>
</g>
</g>
<defs>
<filter id="filter0_d_1279_109" x="0" y="16.2314" width="150.653" height="114.625" filterUnits="userSpaceOnUse" color-interpolation-filters="sRGB">
<feFlood flood-opacity="0" result="BackgroundImageFix"/>
<feColorMatrix in="SourceAlpha" type="matrix" values="0 0 0 0 0 0 0 0 0 0 0 0 0 0 0 0 0 0 127 0" result="hardAlpha"/>
<feOffset dy="8"/>
<feGaussianBlur stdDeviation="2"/>
<feComposite in2="hardAlpha" operator="out"/>
<feColorMatrix type="matrix" values="0 0 0 0 0.396078 0 0 0 0 0.282353 0 0 0 0 0.192157 0 0 0 0.5 0"/>
<feBlend mode="normal" in2="BackgroundImageFix" result="effect1_dropShadow_1279_109"/>
<feBlend mode="normal" in="SourceGraphic" in2="effect1_dropShadow_1279_109" result="shape"/>
</filter>
<filter id="filter1_f_1279_109" x="4.48389" y="76.9238" width="26.2861" height="25.8936" filterUnits="userSpaceOnUse" color-interpolation-filters="sRGB">
<feFlood flood-opacity="0" result="BackgroundImageFix"/>
<feBlend mode="normal" in="SourceGraphic" in2="BackgroundImageFix" result="shape"/>
<feGaussianBlur stdDeviation="5" result="effect1_foregroundBlur_1279_109"/>
</filter>
<filter id="filter2_f_1279_109" x="12.5166" y="21.1787" width="66.7158" height="61.8047" filterUnits="userSpaceOnUse" color-interpolation-filters="sRGB">
<feFlood flood-opacity="0" result="BackgroundImageFix"/>
<feBlend mode="normal" in="SourceGraphic" in2="BackgroundImageFix" result="shape"/>
<feGaussianBlur stdDeviation="10" result="effect1_foregroundBlur_1279_109"/>
</filter>
<filter id="filter3_f_1279_109" x="36.2852" y="8.01758" width="65.3408" height="55.9121" filterUnits="userSpaceOnUse" color-interpolation-filters="sRGB">
<feFlood flood-opacity="0" result="BackgroundImageFix"/>
<feBlend mode="normal" in="SourceGraphic" in2="BackgroundImageFix" result="shape"/>
<feGaussianBlur stdDeviation="10" result="effect1_foregroundBlur_1279_109"/>
</filter>
<filter id="filter4_f_1279_109" x="50.2334" y="26.4824" width="65.3408" height="61.8047" filterUnits="userSpaceOnUse" color-interpolation-filters="sRGB">
<feFlood flood-opacity="0" result="BackgroundImageFix"/>
<feBlend mode="normal" in="SourceGraphic" in2="BackgroundImageFix" result="shape"/>
<feGaussianBlur stdDeviation="10" result="effect1_foregroundBlur_1279_109"/>
</filter>
<filter id="filter5_f_1279_109" x="65.1626" y="2.5166" width="55.7153" height="53.3584" filterUnits="userSpaceOnUse" color-interpolation-filters="sRGB">
<feFlood flood-opacity="0" result="BackgroundImageFix"/>
<feBlend mode="normal" in="SourceGraphic" in2="BackgroundImageFix" result="shape"/>
<feGaussianBlur stdDeviation="10" result="effect1_foregroundBlur_1279_109"/>
</filter>
<filter id="filter6_f_1279_109" x="41.1963" y="58.6992" width="55.7153" height="53.3584" filterUnits="userSpaceOnUse" color-interpolation-filters="sRGB">
<feFlood flood-opacity="0" result="BackgroundImageFix"/>
<feBlend mode="normal" in="SourceGraphic" in2="BackgroundImageFix" result="shape"/>
<feGaussianBlur stdDeviation="10" result="effect1_foregroundBlur_1279_109"/>
</filter>
<filter id="filter7_f_1279_109" x="64.1172" y="47.2324" width="55.5513" height="53.2188" filterUnits="userSpaceOnUse" color-interpolation-filters="sRGB">
<feFlood flood-opacity="0" result="BackgroundImageFix"/>
<feBlend mode="normal" in="SourceGraphic" in2="BackgroundImageFix" result="shape"/>
<feGaussianBlur stdDeviation="10" result="effect1_foregroundBlur_1279_109"/>
</filter>
<filter id="filter8_f_1279_109" x="6.75635" y="42.125" width="55.5513" height="53.2188" filterUnits="userSpaceOnUse" color-interpolation-filters="sRGB">
<feFlood flood-opacity="0" result="BackgroundImageFix"/>
<feBlend mode="normal" in="SourceGraphic" in2="BackgroundImageFix" result="shape"/>
<feGaussianBlur stdDeviation="10" result="effect1_foregroundBlur_1279_109"/>
</filter>
<filter id="filter9_f_1279_109" x="3.21387" y="19.6436" width="48.7983" height="47.4785" filterUnits="userSpaceOnUse" color-interpolation-filters="sRGB">
<feFlood flood-opacity="0" result="BackgroundImageFix"/>
<feBlend mode="normal" in="SourceGraphic" in2="BackgroundImageFix" result="shape"/>
<feGaussianBlur stdDeviation="10" result="effect1_foregroundBlur_1279_109"/>
</filter>
<filter id="filter10_f_1279_109" x="22.4653" y="5.10742" width="48.7983" height="47.4785" filterUnits="userSpaceOnUse" color-interpolation-filters="sRGB">
<feFlood flood-opacity="0" result="BackgroundImageFix"/>
<feBlend mode="normal" in="SourceGraphic" in2="BackgroundImageFix" result="shape"/>
<feGaussianBlur stdDeviation="10" result="effect1_foregroundBlur_1279_109"/>
</filter>
<filter id="filter11_f_1279_109" x="53.5029" y="0" width="48.7983" height="47.4785" filterUnits="userSpaceOnUse" color-interpolation-filters="sRGB">
<feFlood flood-opacity="0" result="BackgroundImageFix"/>
<feBlend mode="normal" in="SourceGraphic" in2="BackgroundImageFix" result="shape"/>
<feGaussianBlur stdDeviation="10" result="effect1_foregroundBlur_1279_109"/>
</filter>
<filter id="filter12_f_1279_109" x="84.6519" y="38.6064" width="60.6045" height="60.3799" filterUnits="userSpaceOnUse" color-interpolation-filters="sRGB">
<feFlood flood-opacity="0" result="BackgroundImageFix"/>
<feBlend mode="normal" in="SourceGraphic" in2="BackgroundImageFix" result="shape"/>
<feGaussianBlur stdDeviation="10" result="effect1_foregroundBlur_1279_109"/>
</filter>
<filter id="filter13_f_1279_109" x="74.9844" y="15.875" width="65.3408" height="61.8047" filterUnits="userSpaceOnUse" color-interpolation-filters="sRGB">
<feFlood flood-opacity="0" result="BackgroundImageFix"/>
<feBlend mode="normal" in="SourceGraphic" in2="BackgroundImageFix" result="shape"/>
<feGaussianBlur stdDeviation="10" result="effect1_foregroundBlur_1279_109"/>
</filter>
<filter id="filter14_f_1279_109" x="35.6963" y="36.6973" width="58.269" height="61.8047" filterUnits="userSpaceOnUse" color-interpolation-filters="sRGB">
<feFlood flood-opacity="0" result="BackgroundImageFix"/>
<feBlend mode="normal" in="SourceGraphic" in2="BackgroundImageFix" result="shape"/>
<feGaussianBlur stdDeviation="10" result="effect1_foregroundBlur_1279_109"/>
</filter>
<filter id="filter15_f_1279_109" x="35.6963" y="36.6973" width="58.269" height="61.8047" filterUnits="userSpaceOnUse" color-interpolation-filters="sRGB">
<feFlood flood-opacity="0" result="BackgroundImageFix"/>
<feBlend mode="normal" in="SourceGraphic" in2="BackgroundImageFix" result="shape"/>
<feGaussianBlur stdDeviation="10" result="effect1_foregroundBlur_1279_109"/>
</filter>
<linearGradient id="paint0_linear_1279_109" x1="78.4604" y1="102.88" x2="78.4604" y2="118.596" gradientUnits="userSpaceOnUse">
<stop stop-color="#E58863"/>
<stop offset="1" stop-color="#F9EECC"/>
</linearGradient>
<linearGradient id="paint1_linear_1279_109" x1="127.936" y1="98.5187" x2="122.547" y2="84.5376" gradientUnits="userSpaceOnUse">
<stop stop-color="#E58863"/>
<stop offset="1" stop-color="#F9EECC"/>
</linearGradient>
<radialGradient id="paint2_radial_1279_109" cx="0" cy="0" r="1" gradientUnits="userSpaceOnUse" gradientTransform="translate(81.6268 87.7355) rotate(90) scale(25.5374 35.2487)">
<stop stop-color="#E58863"/>
<stop offset="1" stop-color="#F9EECC"/>
</radialGradient>
<linearGradient id="paint3_linear_1279_109" x1="24.3512" y1="80.1396" x2="24.3512" y2="115.292" gradientUnits="userSpaceOnUse">
<stop stop-color="#F9A888"/>
<stop offset="1" stop-color="#F9EECC"/>
</linearGradient>
<radialGradient id="paint4_radial_1279_109" cx="0" cy="0" r="1" gradientUnits="userSpaceOnUse" gradientTransform="translate(45.8746 52.0812) rotate(90) scale(10.9025 13.358)">
<stop stop-color="#E0FFCF" stop-opacity="0.9"/>
<stop offset="1" stop-color="#839E75"/>
</radialGradient>
<radialGradient id="paint5_radial_1279_109" cx="0" cy="0" r="1" gradientUnits="userSpaceOnUse" gradientTransform="translate(68.2681 38.9201) rotate(90) scale(10.9025 13.358)">
<stop stop-color="#E0FFCF" stop-opacity="0.9"/>
<stop offset="1" stop-color="#839E75"/>
</radialGradient>
<radialGradient id="paint6_radial_1279_109" cx="0" cy="0" r="1" gradientUnits="userSpaceOnUse" gradientTransform="translate(82.2163 57.3849) rotate(90) scale(10.9025 13.358)">
<stop stop-color="#E0FFCF" stop-opacity="0.9"/>
<stop offset="1" stop-color="#839E75"/>
</radialGradient>
<radialGradient id="paint7_radial_1279_109" cx="0" cy="0" r="1" gradientUnits="userSpaceOnUse" gradientTransform="translate(92.5939 29.1956) rotate(90) scale(6.679 8.28403)">
<stop stop-color="#E0FFCF" stop-opacity="0.9"/>
<stop offset="1" stop-color="#839E75"/>
</radialGradient>
<radialGradient id="paint8_radial_1279_109" cx="0" cy="0" r="1" gradientUnits="userSpaceOnUse" gradientTransform="translate(68.6276 85.3782) rotate(90) scale(6.679 8.28403)">
<stop stop-color="#E0FFCF" stop-opacity="0.9"/>
<stop offset="1" stop-color="#839E75"/>
</radialGradient>
<radialGradient id="paint9_radial_1279_109" cx="0" cy="0" r="1" gradientUnits="userSpaceOnUse" gradientTransform="translate(91.514 73.9299) rotate(81.7135) scale(6.679 8.28403)">
<stop stop-color="#E0FFCF" stop-opacity="0.9"/>
<stop offset="1" stop-color="#839E75"/>
</radialGradient>
<radialGradient id="paint10_radial_1279_109" cx="0" cy="0" r="1" gradientUnits="userSpaceOnUse" gradientTransform="translate(34.1532 68.8224) rotate(81.7135) scale(6.679 8.28403)">
<stop stop-color="#E0FFCF" stop-opacity="0.9"/>
<stop offset="1" stop-color="#839E75"/>
</radialGradient>
<radialGradient id="paint11_radial_1279_109" cx="0" cy="0" r="1" gradientUnits="userSpaceOnUse" gradientTransform="translate(27.3989 43.4322) rotate(81.7135) scale(3.77876 4.68683)">
<stop stop-color="#E0FFCF" stop-opacity="0.9"/>
<stop offset="1" stop-color="#839E75"/>
</radialGradient>
<radialGradient id="paint12_radial_1279_109" cx="0" cy="0" r="1" gradientUnits="userSpaceOnUse" gradientTransform="translate(46.6504 28.8961) rotate(81.7135) scale(3.77876 4.68683)">
<stop stop-color="#E0FFCF" stop-opacity="0.9"/>
<stop offset="1" stop-color="#839E75"/>
</radialGradient>
<radialGradient id="paint13_radial_1279_109" cx="0" cy="0" r="1" gradientUnits="userSpaceOnUse" gradientTransform="translate(77.688 23.7886) rotate(81.7135) scale(3.77876 4.68683)">
<stop stop-color="#E0FFCF" stop-opacity="0.9"/>
<stop offset="1" stop-color="#839E75"/>
</radialGradient>
<radialGradient id="paint14_radial_1279_109" cx="0" cy="0" r="1" gradientUnits="userSpaceOnUse" gradientTransform="translate(114.462 68.9126) rotate(81.7135) scale(10.2975 10.976)">
<stop stop-color="#E0FFCF" stop-opacity="0.9"/>
<stop offset="1" stop-color="#839E75"/>
</radialGradient>
<radialGradient id="paint15_radial_1279_109" cx="0" cy="0" r="1" gradientUnits="userSpaceOnUse" gradientTransform="translate(106.967 46.7775) rotate(90) scale(10.9025 13.358)">
<stop stop-color="#E0FFCF" stop-opacity="0.9"/>
<stop offset="1" stop-color="#839E75"/>
</radialGradient>
<radialGradient id="paint16_radial_1279_109" cx="0" cy="0" r="1" gradientUnits="userSpaceOnUse" gradientTransform="translate(60.6073 67.5998) rotate(90) scale(10.9025 13.358)">
<stop stop-color="#E0FFCF" stop-opacity="0.9"/>
<stop offset="1" stop-color="#839E75"/>
</radialGradient>
<radialGradient id="paint17_radial_1279_109" cx="0" cy="0" r="1" gradientUnits="userSpaceOnUse" gradientTransform="translate(60.6073 67.5998) rotate(90) scale(10.9025 13.358)">
<stop stop-color="#E0FFCF" stop-opacity="0.9"/>
<stop offset="1" stop-color="#839E75"/>
</radialGradient>
</defs>
</svg>
