<svg width="119" height="82" viewBox="0 0 119 82" fill="none" xmlns="http://www.w3.org/2000/svg">
<rect x="36.2861" y="0.587891" width="1.70092" height="17.6626" fill="white"/>
<path d="M37.9758 32.9519C5.30334 23.9737 16.6616 21.5777 35.1814 21.844C17.6571 20.1849 11.876 21.7191 6.75843 22.4628C-8.85495 24.7316 13.0561 33.261 24.9147 36.4013C52.3139 43.6569 75.1702 46.2298 91.1694 46.0454C107.168 45.8609 116.017 44.2131 117.612 40.8782C119.207 37.5434 100.313 31.3246 84.0303 28.9545C129.916 40.4591 79.048 40.4167 68.0991 38.8229C63.0457 38.0874 56.193 37.9579 37.9758 32.9519Z" fill="white"/>
<path fill-rule="evenodd" clip-rule="evenodd" d="M76.5251 46.7293L66.7718 80.1612H74.7094L84.172 47.3183C81.7265 47.1817 79.1759 46.9869 76.5251 46.7293ZM86.4083 39.5567C83.7411 39.5653 81.0943 39.5091 78.6621 39.4045L78.9835 38.3027L88.4475 32.4789L86.4083 39.5567Z" fill="white"/>
<path d="M76.5251 46.7293L76.6814 45.1215L75.3492 44.992L74.9744 46.2769L76.5251 46.7293ZM66.7718 80.1612L65.221 79.7088L64.6178 81.7765H66.7718V80.1612ZM74.7094 80.1612V81.7765H75.9251L76.2616 80.6084L74.7094 80.1612ZM84.172 47.3183L85.7243 47.7655L86.2853 45.8183L84.2621 45.7054L84.172 47.3183ZM86.4083 39.5567L86.4135 41.1721L87.6251 41.1682L87.9605 40.0039L86.4083 39.5567ZM78.6621 39.4045L77.1113 38.952L76.5343 40.9298L78.5926 41.0183L78.6621 39.4045ZM78.9835 38.3027L78.1369 36.9269L77.607 37.253L77.4327 37.8503L78.9835 38.3027ZM88.4475 32.4789L89.9998 32.9261L91.1552 28.916L87.601 31.1031L88.4475 32.4789ZM76.5251 46.7293L74.9744 46.2769L65.221 79.7088L66.7718 80.1612L68.3225 80.6136L78.0759 47.1817L76.5251 46.7293ZM66.7718 80.1612V81.7765H74.7094V80.1612V78.5458H66.7718V80.1612ZM74.7094 80.1612L76.2616 80.6084L85.7243 47.7655L84.172 47.3183L82.6198 46.871L73.1571 79.7139L74.7094 80.1612ZM76.5251 46.7293L76.3689 48.3371C79.0409 48.5968 81.6135 48.7933 84.082 48.9311L84.172 47.3183L84.2621 45.7054C81.8394 45.5701 79.311 45.377 76.6814 45.1215L76.5251 46.7293ZM86.4083 39.5567L86.4031 37.9413C83.7611 37.9498 81.1393 37.8941 78.7315 37.7906L78.6621 39.4045L78.5926 41.0183C81.0494 41.124 83.721 41.1807 86.4135 41.1721L86.4083 39.5567ZM78.9835 38.3027L77.4327 37.8503L77.1113 38.952L78.6621 39.4045L80.2128 39.8569L80.5342 38.7551L78.9835 38.3027ZM88.4475 32.4789L87.601 31.1031L78.1369 36.9269L78.9835 38.3027L79.8301 39.6785L89.2941 33.8547L88.4475 32.4789ZM86.4083 39.5567L87.9605 40.0039L89.9998 32.9261L88.4475 32.4789L86.8953 32.0317L84.856 39.1095L86.4083 39.5567ZM48.7595 21.1953L47.2146 21.6672L51.6861 36.3054L53.231 35.8335L54.776 35.3616L50.3044 20.7234L48.7595 21.1953ZM55.635 43.7034L54.0901 44.1753L65.2269 80.6331L66.7718 80.1612L68.3167 79.6892L57.18 43.2314L55.635 43.7034Z" fill="white"/>
<path d="M56.6406 43.4023C59.7239 43.8349 62.6967 44.1924 65.5527 44.4814C60.8688 54.4209 51.3081 61.2305 40.2734 61.2305C27.704 61.2304 48.1065 57.8746 56.6406 43.4023ZM40.2734 0C55.93 0 68.6221 13.707 68.6221 30.6152C68.6221 33.3265 68.2932 35.9547 67.6807 38.458C65.2846 38.3209 63.2518 38.1381 61.8623 37.9277C61.0251 37.801 60.1386 37.6913 59.1592 37.5732C59.7694 35.4416 60.1182 33.1274 60.1182 30.6152C60.1182 5.20475 24.6173 3.61993e-05 40.2734 0Z" fill="white"/>
<g filter="url(#filter0_d_193_45)">
<path d="M75.7605 25.2548L75.6144 21.3168L78.6332 23.4423L82.0579 22.9667L80.049 25.9193L80.714 30.2391L77.1762 27.7318L73.6233 28.2884L75.7605 25.2548Z" fill="#FEFEFE"/>
</g>
<defs>
<filter id="filter0_d_193_45" x="71.4422" y="21.3169" width="12.7968" height="13.2846" filterUnits="userSpaceOnUse" color-interpolation-filters="sRGB">
<feFlood flood-opacity="0" result="BackgroundImageFix"/>
<feColorMatrix in="SourceAlpha" type="matrix" values="0 0 0 0 0 0 0 0 0 0 0 0 0 0 0 0 0 0 127 0" result="hardAlpha"/>
<feOffset dy="2.18111"/>
<feGaussianBlur stdDeviation="1.09055"/>
<feComposite in2="hardAlpha" operator="out"/>
<feColorMatrix type="matrix" values="0 0 0 0 0.772549 0 0 0 0 0.65098 0 0 0 0 0.529412 0 0 0 0.5 0"/>
<feBlend mode="normal" in2="BackgroundImageFix" result="effect1_dropShadow_193_45"/>
<feBlend mode="normal" in="SourceGraphic" in2="effect1_dropShadow_193_45" result="shape"/>
</filter>
</defs>
</svg>
