<svg width="159" height="103" viewBox="0 0 159 103" fill="none" xmlns="http://www.w3.org/2000/svg">
<g filter="url(#filter0_d_1188_143)">
<path d="M154.118 44.0218C154.118 67.1801 150.313 90.6626 79.1092 90.6626C23.6098 90.6626 4.10015 78.5539 4.1001 41.331C4.1001 18.1726 37.8686 9.71387 79.1092 9.71387C120.35 9.71387 154.118 20.8634 154.118 44.0218Z" fill="#FFE9D0"/>
</g>
<path d="M154.118 41.8364C154.118 64.9419 120.536 79.8694 79.1093 79.8694C37.6829 79.8694 4.1001 64.9419 4.1001 41.8364C4.1001 18.7308 37.6829 0 79.1093 0C120.536 0 154.118 18.7308 154.118 41.8364Z" fill="url(#paint0_radial_1188_143)"/>
<path d="M154.118 41.8364C154.118 64.9419 120.536 79.8694 79.1093 79.8694C37.6829 79.8694 4.1001 64.9419 4.1001 41.8364C4.1001 18.7308 37.6829 0 79.1093 0C120.536 0 154.118 18.7308 154.118 41.8364Z" fill="url(#paint1_radial_1188_143)"/>
<path d="M57.5522 1.75586C65.1788 4.06497 73.2219 6.73812 81.0376 9.68066C88.5542 6.91308 96.1966 4.40595 103.404 2.24414C112.03 3.89035 119.948 6.38694 126.833 9.55762C117.38 11.4099 108.05 14.1356 99.229 17.3018C116.231 25.3167 128.862 34.4384 128.019 43.29C126.796 50.1785 118.234 46.9369 109.672 40.6562C103.299 36.3588 93.1786 30.4724 80.8999 24.7598C67.2752 30.9519 56.0197 37.5165 49.1362 42.207C40.5746 48.5538 32.0125 51.8291 30.7896 44.8682C29.895 35.3823 44.1533 25.5886 62.7095 17.1484C53.4338 13.7013 43.5252 10.6934 33.4536 8.64258C40.584 5.58726 48.726 3.23045 57.5522 1.75586Z" fill="url(#paint2_radial_1188_143)"/>
<defs>
<filter id="filter0_d_1188_143" x="9.77516e-05" y="9.71387" width="158.219" height="93.0487" filterUnits="userSpaceOnUse" color-interpolation-filters="sRGB">
<feFlood flood-opacity="0" result="BackgroundImageFix"/>
<feColorMatrix in="SourceAlpha" type="matrix" values="0 0 0 0 0 0 0 0 0 0 0 0 0 0 0 0 0 0 127 0" result="hardAlpha"/>
<feOffset dy="8"/>
<feGaussianBlur stdDeviation="2.05"/>
<feComposite in2="hardAlpha" operator="out"/>
<feColorMatrix type="matrix" values="0 0 0 0 0.396078 0 0 0 0 0.282353 0 0 0 0 0.192157 0 0 0 0.5 0"/>
<feBlend mode="normal" in2="BackgroundImageFix" result="effect1_dropShadow_1188_143"/>
<feBlend mode="normal" in="SourceGraphic" in2="effect1_dropShadow_1188_143" result="shape"/>
</filter>
<radialGradient id="paint0_radial_1188_143" cx="0" cy="0" r="1" gradientUnits="userSpaceOnUse" gradientTransform="translate(79.1093 39.9347) rotate(89.9553) scale(90.7469 170.449)">
<stop stop-color="#FBEDCA"/>
<stop offset="1" stop-color="#FFF0EE"/>
</radialGradient>
<radialGradient id="paint1_radial_1188_143" cx="0" cy="0" r="1" gradientTransform="matrix(0.345162 47.9536 -90.071 0.787257 78.7641 31.9158)" gradientUnits="userSpaceOnUse">
<stop stop-color="#FAC58C"/>
<stop offset="1" stop-color="#FFF5DE"/>
</radialGradient>
<radialGradient id="paint2_radial_1188_143" cx="0" cy="0" r="1" gradientUnits="userSpaceOnUse" gradientTransform="translate(79.1802 20.5416) rotate(89.5455) scale(28.2264 58.4263)">
<stop stop-color="#FFF3E5"/>
<stop offset="1" stop-color="#F9E5C5"/>
</radialGradient>
</defs>
</svg>
