<svg width="162" height="124" viewBox="0 0 162 124" fill="none" xmlns="http://www.w3.org/2000/svg">
<g filter="url(#filter0_d_1188_151)">
<path d="M105.049 30.5504C113.838 30.5504 120.963 23.7115 120.963 15.2752C120.963 6.83894 113.838 0 105.049 0C96.2605 0 89.1357 6.83894 89.1357 15.2752C89.1357 23.7115 96.2605 30.5504 105.049 30.5504Z" fill="url(#paint0_linear_1188_151)"/>
<path d="M118.372 38.4938C127.161 38.4938 134.286 31.6548 134.286 23.2186C134.286 14.7823 127.161 7.94336 118.372 7.94336C109.583 7.94336 102.458 14.7823 102.458 23.2186C102.458 31.6548 109.583 38.4938 118.372 38.4938Z" fill="url(#paint1_linear_1188_151)"/>
<path d="M132.435 51.3248C141.224 51.3248 148.349 44.4859 148.349 36.0496C148.349 27.6134 141.224 20.7744 132.435 20.7744C123.646 20.7744 116.521 27.6134 116.521 36.0496C116.521 44.4859 123.646 51.3248 132.435 51.3248Z" fill="url(#paint2_linear_1188_151)"/>
<path d="M141.317 75.1543C150.106 75.1543 157.231 66.4005 157.231 55.6021C157.231 44.8036 150.106 36.0498 141.317 36.0498C132.529 36.0498 125.404 44.8036 125.404 55.6021C125.404 66.4005 132.529 75.1543 141.317 75.1543Z" fill="url(#paint3_linear_1188_151)"/>
<path d="M140.05 111.1C156.478 111.1 157.908 102.634 156.478 61.1012L144.649 72.342L140.05 111.1Z" fill="#A07C66"/>
<path d="M11.2083 110.765C7.749 110.535 2.53588 107.537 4.3863 98.0664L150.57 104.568L140.207 111.203L11.2083 110.765Z" fill="#A07C66"/>
<path d="M12.7511 87.0223L89.1739 44.3902C99.4396 39.5012 145.635 80.9601 145.635 96.8657C146.162 99.6904 145.477 105.34 138.528 105.34H108.521L19.1899 104.482C19.1899 104.482 12.3562 104.297 9.19758 103.319C0.6192 100.663 4.06474 91.9113 12.7511 87.0223Z" fill="#F3E5B2"/>
<path d="M12.7511 87.0223L89.1739 44.3902C99.4396 39.5012 145.635 80.9601 145.635 96.8657C146.162 99.6904 145.477 105.34 138.528 105.34H108.521L19.1899 104.482C19.1899 104.482 12.3562 104.297 9.19758 103.319C0.6192 100.663 4.06474 91.9113 12.7511 87.0223Z" fill="#BA7272" fill-opacity="0.2"/>
<path d="M12.5763 82.1142L89.9636 39.7428C100.229 34.8538 146.425 76.3126 146.425 92.2182C146.951 95.043 146.267 100.693 139.318 100.693H109.31L18.1039 99.7147C18.1039 99.7147 12.1814 99.3888 9.02278 98.411C0.444391 95.7554 3.88993 87.0033 12.5763 82.1142Z" fill="#F3E5B2"/>
<path d="M12.5618 76.4623L89.2972 34.0019C99.6048 29.1326 145.989 70.4245 145.989 86.2661C146.518 89.0795 145.831 94.7063 138.853 94.7063H108.723L17.1436 93.7324C17.1436 93.7324 12.1653 93.6673 8.99373 92.6934C0.380262 90.0486 3.83989 81.3316 12.5618 76.4623Z" fill="#F3E5B2"/>
<path d="M12.5618 76.4623L89.2972 34.0019C99.6048 29.1326 145.989 70.4245 145.989 86.2661C146.518 89.0795 145.831 94.7063 138.853 94.7063H108.723L17.1436 93.7324C17.1436 93.7324 12.1653 93.6673 8.99373 92.6934C0.380262 90.0486 3.83989 81.3316 12.5618 76.4623Z" fill="#BA7272" fill-opacity="0.2"/>
<path d="M12.5763 69.0766L89.9636 26.7052C100.229 21.8162 146.425 63.275 146.425 79.1806C146.951 82.0054 146.267 87.6549 139.318 87.6549H109.31L18.1039 86.6771C18.1039 86.6771 12.1814 86.3512 9.02278 85.3734C0.444391 82.7178 3.88993 73.9657 12.5763 69.0766Z" fill="#F3E5B2"/>
<path d="M12.8985 60.7956L89.9637 20.1871C100.229 15.2981 146.425 56.757 146.425 72.6626C146.951 75.4873 146.267 81.1369 139.318 81.1369H109.311L18.0797 80.0423C18.0797 80.0423 12.5037 78.0701 9.34504 77.0923C0.766655 74.4368 4.21219 65.6846 12.8985 60.7956Z" fill="#F3E5B2"/>
<path d="M12.8985 60.7956L89.9637 20.1871C100.229 15.2981 146.425 56.757 146.425 72.6626C146.951 75.4873 146.267 81.1369 139.318 81.1369H109.311L18.0797 80.0423C18.0797 80.0423 12.5037 78.0701 9.34504 77.0923C0.766655 74.4368 4.21219 65.6846 12.8985 60.7956Z" fill="#BA7272" fill-opacity="0.2"/>
<path d="M18.0797 72.71C18.0797 72.71 10.876 70.6328 7.7173 69.655C-14.5001 62.7772 80.2323 15.6001 88.6581 10.9868C98.9238 6.09775 146.601 49.1881 146.601 65.0937C147.127 67.9185 146.443 73.568 139.494 73.568H109.486L18.0797 72.71Z" fill="#F3E5B2"/>
<path d="M91.5046 73.2426C92.6037 65.0148 85.5092 45.5306 59.5293 26.3756L66.7237 22.6074C74.3179 37.3662 88.0813 43.6858 95.6755 73.2818L99.4984 73.3211H98.2993H97.1002L95.6755 73.2818L94.2507 73.2426H91.5046Z" fill="#E5C68B"/>
<path d="M47.5554 73.3213C54.0573 70.3952 50.2374 50.9528 36.5835 39.5084L39.0217 37.8828C47.5554 47.9616 54.4636 51.8631 57.3082 73.3213H52.4318H47.5554Z" fill="#E5C68B"/>
<path d="M4.38623 71.063C4.50959 71.3685 9.78946 71.9771 18.0793 72.7103L4.38623 65.9893V71.063Z" fill="#F3E5B2"/>
<path d="M4.0166 79.1252C4.13644 79.4918 12.1585 80.0417 18.0798 80.0417L4.38669 71.1821L4.0166 79.1252Z" fill="#E7CEA5"/>
<path d="M4.0166 85.1158C4.13996 85.4213 7.19933 85.7244 15.4892 86.4576L4.0166 80.042V85.1158Z" fill="#F3E5B2"/>
<path d="M4.0166 92.8514C4.13644 93.218 8.17635 92.9096 16.2294 93.7895L4.0166 85.2354V92.8514Z" fill="#E7CEA5"/>
<path d="M4.0166 97.9473C4.13996 98.2528 8.30958 98.8614 16.5995 99.5946L4.0166 92.8735V97.9473Z" fill="#F3E5B2"/>
<path d="M4.0166 103.566C4.13644 103.933 10.6781 104.177 19.1901 104.483L4.0166 96.5396V103.566Z" fill="#E7CEA5"/>
<path d="M118.073 73.9322C119.139 65.6487 109.057 32.7529 83.856 13.4681L89.4373 10.6328C101.844 24.227 117.297 44.1357 124.664 73.9322H123.501H122.338H121.174H119.624H118.073Z" fill="#E5C68B"/>
</g>
<defs>
<filter id="filter0_d_1188_151" x="0" y="0" width="161.231" height="123.203" filterUnits="userSpaceOnUse" color-interpolation-filters="sRGB">
<feFlood flood-opacity="0" result="BackgroundImageFix"/>
<feColorMatrix in="SourceAlpha" type="matrix" values="0 0 0 0 0 0 0 0 0 0 0 0 0 0 0 0 0 0 127 0" result="hardAlpha"/>
<feOffset dy="8"/>
<feGaussianBlur stdDeviation="2"/>
<feComposite in2="hardAlpha" operator="out"/>
<feColorMatrix type="matrix" values="0 0 0 0 0.396078 0 0 0 0 0.282353 0 0 0 0 0.192157 0 0 0 0.5 0"/>
<feBlend mode="normal" in2="BackgroundImageFix" result="effect1_dropShadow_1188_151"/>
<feBlend mode="normal" in="SourceGraphic" in2="effect1_dropShadow_1188_151" result="shape"/>
</filter>
<linearGradient id="paint0_linear_1188_151" x1="105.049" y1="0" x2="105.049" y2="30.5504" gradientUnits="userSpaceOnUse">
<stop stop-color="#B38C73"/>
<stop offset="1" stop-color="#A07C66"/>
</linearGradient>
<linearGradient id="paint1_linear_1188_151" x1="118.372" y1="7.94336" x2="118.372" y2="38.4938" gradientUnits="userSpaceOnUse">
<stop stop-color="#B38C73"/>
<stop offset="1" stop-color="#A07C66"/>
</linearGradient>
<linearGradient id="paint2_linear_1188_151" x1="132.435" y1="20.7744" x2="132.435" y2="51.3248" gradientUnits="userSpaceOnUse">
<stop stop-color="#B38C73"/>
<stop offset="1" stop-color="#A07C66"/>
</linearGradient>
<linearGradient id="paint3_linear_1188_151" x1="141.317" y1="36.0498" x2="141.317" y2="75.1543" gradientUnits="userSpaceOnUse">
<stop stop-color="#B38C73"/>
<stop offset="1" stop-color="#A07C66"/>
</linearGradient>
</defs>
</svg>
