<svg width="223" height="169" viewBox="0 0 223 169" fill="none" xmlns="http://www.w3.org/2000/svg">
<g filter="url(#filter0_d_1218_22)">
<ellipse cx="115.768" cy="148.938" rx="25.2451" ry="11.7419" transform="rotate(7.80743 115.768 148.938)" fill="#F9EECC"/>
<ellipse cx="115.768" cy="148.938" rx="25.2451" ry="11.7419" transform="rotate(7.80743 115.768 148.938)" fill="url(#paint0_linear_1218_22)"/>
<ellipse cx="192.854" cy="118.044" rx="25.2451" ry="14.9767" transform="rotate(166.764 192.854 118.044)" fill="#F9EECC"/>
<ellipse cx="192.854" cy="118.044" rx="25.2451" ry="14.9767" transform="rotate(166.764 192.854 118.044)" fill="url(#paint1_linear_1218_22)"/>
<ellipse cx="120.5" cy="90.2005" rx="86.303" ry="62.5257" fill="#F9EECC"/>
<ellipse cx="120.5" cy="90.2005" rx="86.303" ry="62.5257" fill="url(#paint2_radial_1218_22)"/>
<path d="M25.2965 64.5719C19.132 70.0515 9.61653 89.4954 19.2449 108.282C43.3158 108.282 60.5222 110.072 61.6964 130.914C63.6533 132.088 71.2073 134.436 85.7672 134.436C93.9866 136.883 113.302 140.307 124.809 134.436C135.377 137.861 155.632 138.84 160.622 130.914C172.266 129.74 192.031 123.282 195.554 114.475C204.454 110.455 214.4 88.9952 199.37 64.5719C200.153 56.4505 197.726 38.505 181.757 31.6947C175.691 24.1603 158.802 10.3244 139.78 15.2559C135.67 7.03708 103.087 3.5144 93.1059 15.2559C78.5264 14.4731 55.5319 15.2559 49.3674 33.7494C38.2126 36.0978 25.2965 48.1333 25.2965 64.5719Z" fill="#A2BE93"/>
<ellipse cx="34.9114" cy="129.479" rx="30.4114" ry="26.2644" fill="url(#paint3_linear_1218_22)"/>
<circle cx="43.5427" cy="136.247" r="3.81612" fill="#704F36"/>
<path d="M35.958 66.4229C76.174 72.8809 85.274 112.51 85.274 117.207" stroke="#759266" stroke-opacity="0.9" stroke-width="1.5" stroke-linecap="round"/>
<path d="M50.6348 36.481C112.28 52.6261 122.26 111.336 122.26 125.132" stroke="#759266" stroke-opacity="0.9" stroke-width="1.5" stroke-linecap="round"/>
<path d="M97.0151 20.0425C148.68 40.0037 158.954 104.584 158.954 118.381" stroke="#759266" stroke-opacity="0.9" stroke-width="1.5" stroke-linecap="round"/>
<path d="M134.673 21.04C74.0955 24.7887 43.8171 57.2123 40.0679 70.5326" stroke="#759266" stroke-opacity="0.9" stroke-width="1.5" stroke-linecap="round"/>
<path d="M174.513 35.6006C113.935 39.3492 67.0743 71.1198 60.0291 101.143" stroke="#759266" stroke-opacity="0.9" stroke-width="1.5" stroke-linecap="round"/>
<path d="M192.419 64.6621C150.442 67.5976 97.3095 91.3749 74.7413 121.796" stroke="#759266" stroke-opacity="0.9" stroke-width="1.5" stroke-linecap="round"/>
<path d="M145.158 19.4551C185.374 41.1776 192.419 90.2001 192.419 99.3" stroke="#759266" stroke-opacity="0.9" stroke-width="1.5" stroke-linecap="round"/>
</g>
<defs>
<filter id="filter0_d_1218_22" x="0" y="6.21338" width="222.17" height="162.356" filterUnits="userSpaceOnUse" color-interpolation-filters="sRGB">
<feFlood flood-opacity="0" result="BackgroundImageFix"/>
<feColorMatrix in="SourceAlpha" type="matrix" values="0 0 0 0 0 0 0 0 0 0 0 0 0 0 0 0 0 0 127 0" result="hardAlpha"/>
<feOffset dy="3"/>
<feGaussianBlur stdDeviation="2.25"/>
<feComposite in2="hardAlpha" operator="out"/>
<feColorMatrix type="matrix" values="0 0 0 0 0.396078 0 0 0 0 0.282353 0 0 0 0 0.192157 0 0 0 0.5 0"/>
<feBlend mode="normal" in2="BackgroundImageFix" result="effect1_dropShadow_1218_22"/>
<feBlend mode="normal" in="SourceGraphic" in2="effect1_dropShadow_1218_22" result="shape"/>
</filter>
<linearGradient id="paint0_linear_1218_22" x1="115.768" y1="137.196" x2="115.768" y2="160.68" gradientUnits="userSpaceOnUse">
<stop stop-color="#E58863"/>
<stop offset="1" stop-color="#F9EECC"/>
</linearGradient>
<linearGradient id="paint1_linear_1218_22" x1="189.701" y1="130.678" x2="181.648" y2="109.786" gradientUnits="userSpaceOnUse">
<stop stop-color="#E58863"/>
<stop offset="1" stop-color="#F9EECC"/>
</linearGradient>
<radialGradient id="paint2_radial_1218_22" cx="0" cy="0" r="1" gradientUnits="userSpaceOnUse" gradientTransform="translate(120.5 114.565) rotate(90) scale(38.1612 52.6732)">
<stop stop-color="#E58863"/>
<stop offset="1" stop-color="#F9EECC"/>
</radialGradient>
<linearGradient id="paint3_linear_1218_22" x1="34.9114" y1="103.214" x2="34.9114" y2="155.743" gradientUnits="userSpaceOnUse">
<stop stop-color="#F9A888"/>
<stop offset="1" stop-color="#F9EECC"/>
</linearGradient>
</defs>
</svg>
