<svg width="372" height="372" viewBox="0 0 372 372" fill="none" xmlns="http://www.w3.org/2000/svg">
<rect x="143.752" y="154.225" width="15" height="154.018" transform="rotate(-20.9194 143.752 154.225)" fill="white"/>
<path d="M128.046 70.5C177.638 70.5002 217.841 110.703 217.841 160.296C217.84 209.888 177.638 250.092 128.046 250.092C125.035 250.092 122.573 250.034 120.631 249.901C118.769 249.774 117.099 249.562 115.84 249.138C115.233 248.933 114.33 248.556 113.589 247.79C112.668 246.838 112.197 245.48 112.497 244.048C112.735 242.91 113.389 242.102 113.8 241.66C114.26 241.165 114.8 240.726 115.318 240.35C117.29 238.915 120.706 237.127 124.578 235.079C128.583 232.961 133.401 230.403 138.577 227.301C159.484 214.771 184.953 194.103 184.953 160.296C184.953 126.489 159.485 105.82 138.577 93.29C133.401 90.188 128.582 87.6311 124.578 85.5127C120.706 83.4646 117.29 81.6766 115.318 80.2422C114.8 79.8653 114.26 79.4272 113.8 78.9316C113.389 78.4895 112.735 77.6821 112.497 76.5439C112.197 75.1121 112.668 73.7535 113.589 72.8018C114.33 72.0352 115.233 71.6576 115.84 71.4531C117.099 71.0288 118.769 70.8178 120.631 70.6904C122.573 70.5576 125.035 70.5 128.046 70.5Z" fill="white" stroke="white" stroke-width="7"/>
<rect x="111.958" y="70.5" width="12.1777" height="58.7774" fill="white" stroke="white" stroke-width="7"/>
<path d="M204.266 284.48L235.555 194.527L236.014 193.208L237.255 192.567L264.007 178.76L271.755 174.761L268.922 183.007L230.089 296.055L229.278 298.417H199.419L200.627 294.943L150.139 156.315L156.717 153.921L204.266 284.48Z" fill="white" stroke="white" stroke-width="7"/>
<path d="M261.282 164.041C286.26 167.543 313.239 173.883 333.423 180.603C343.483 183.952 352.035 187.455 357.829 190.828C360.689 192.493 363.15 194.28 364.747 196.199C366.346 198.12 367.663 200.987 366.157 204.018C364.429 207.497 360.996 210.072 356.715 212.053C352.375 214.06 346.715 215.665 339.858 216.94C326.13 219.492 306.983 220.838 282.567 221.109C233.506 221.654 163.622 214.059 79.9777 192.729C61.8188 188.098 35.8 179.461 20.1846 171.029C16.2723 168.916 12.8529 166.733 10.3459 164.531C8.00762 162.477 5.71101 159.762 5.58426 156.509C5.43775 152.746 8.12422 150.213 11.2461 148.64C14.4163 147.041 19.0253 145.86 25.0879 145.011C32.6992 143.946 41.2617 142.235 54.4596 141.435C67.691 140.633 85.609 140.734 112.413 143.177L112.047 150.163C98.0036 149.968 85.4243 150.263 76.0025 151.204C71.2785 151.675 67.4731 152.298 64.7189 153.057C63.3414 153.438 62.3303 153.824 61.637 154.185C61.5599 154.226 61.4888 154.264 61.4246 154.301C61.5035 154.381 61.5945 154.471 61.7007 154.568C63.1003 155.849 65.9388 157.58 70.797 159.722C80.3979 163.953 96.6656 169.271 121.497 175.843C176.692 190.448 197.263 190.794 212.786 192.97C229.17 195.267 275.883 196.454 300.935 192.905C307.285 192.006 311.714 190.865 313.939 189.645C314.107 189.552 314.246 189.466 314.361 189.391C314.355 189.385 314.349 189.379 314.344 189.373C313.587 188.608 312.086 187.543 309.471 186.228C306.906 184.937 303.466 183.503 299.012 181.924C290.107 178.767 277.381 175.112 259.974 170.91L261.282 164.041Z" fill="white" stroke="white" stroke-width="7"/>
<path d="M234.243 138.071L242.661 143.429L253.566 141.187L261.073 139.643L251.46 156.777L253.493 166.938L255.213 175.547L248.042 170.484L239.612 164.533L228.2 165.253L221.331 165.686L225.026 159.881L230.435 151.381L228.906 141.563L227.713 133.915L234.243 138.071Z" fill="white" stroke="white" stroke-width="7"/>
<path d="M128.046 74.5C175.429 74.5002 213.841 112.912 213.841 160.296C213.84 207.679 175.429 246.092 128.046 246.092C125.072 246.092 122.714 246.034 120.904 245.91C119.083 245.786 117.855 245.596 117.117 245.348C116.745 245.222 116.552 245.099 116.464 245.008C116.401 244.943 116.402 244.913 116.412 244.868C116.43 244.781 116.507 244.621 116.728 244.383C116.943 244.152 117.256 243.886 117.672 243.584C119.35 242.363 122.424 240.743 126.448 238.614C130.453 236.496 135.356 233.895 140.634 230.732C161.715 218.099 188.953 196.395 188.953 160.296C188.953 124.197 161.715 102.493 140.634 89.8594C135.356 86.6966 130.453 84.0952 126.448 81.9766C122.424 79.8479 119.349 78.2273 117.672 77.0068C117.256 76.7043 116.943 76.4387 116.728 76.208C116.507 75.9701 116.43 75.8106 116.412 75.7236C116.402 75.6786 116.401 75.6476 116.464 75.583C116.552 75.492 116.745 75.3694 117.117 75.2441C117.855 74.9956 119.083 74.8052 120.904 74.6807C122.714 74.5569 125.072 74.5 128.046 74.5Z" fill="#654831" stroke="#654831"/>
<rect x="115.958" y="74.5" width="4.17774" height="50.7774" fill="#654831" stroke="#654831"/>
<path d="M238.861 195.677L204.342 294.917H226.779L265.612 181.87L238.861 195.677Z" fill="#654831"/>
<path d="M153.428 155.118L204.342 294.917M204.342 294.917L238.861 195.677L265.612 181.87L226.779 294.917H204.342Z" stroke="#654831" stroke-width="3"/>
<path d="M120.602 179.226C21.1436 152.906 55.7192 145.883 112.095 146.663C58.7497 141.799 41.1513 146.297 25.5731 148.477C-21.9555 155.128 44.7438 180.132 80.8426 189.337C164.248 210.607 233.825 218.15 282.528 217.609C331.231 217.068 358.167 212.238 363.023 202.461C367.878 192.685 310.362 174.455 260.796 167.507C400.475 201.233 245.629 201.108 212.3 196.436C196.917 194.28 176.057 193.901 120.602 179.226Z" fill="#654831" stroke="#654831" stroke-width="0.845503"/>
<path d="M234.098 152.145L227.979 161.76L240.623 160.962L250.06 167.625L247.775 156.194L254.271 144.615L241.979 147.143L232.364 141.024L234.098 152.145Z" fill="#654831"/>
<path d="M240.755 160.954L240.623 160.962M240.623 160.962L227.979 161.76L234.098 152.145L232.364 141.024L241.979 147.143L254.271 144.615L247.775 156.194L250.06 167.625L240.623 160.962Z" stroke="#654831" stroke-width="0.509243"/>
</svg>
